<?xml version="1.0" encoding="UTF-8" standalone="no"?>
<!DOCTYPE svg PUBLIC "-//W3C//DTD SVG 1.1//EN"
 "http://www.w3.org/Graphics/SVG/1.1/DTD/svg11.dtd">
<!-- Generated by graphviz version 2.38.0 (20140413.2041)
 -->
<!-- Title: %3 Pages: 1 -->
<svg width="811pt" height="2087pt"
 viewBox="0.00 0.00 810.77 2087.00" xmlns="http://www.w3.org/2000/svg" xmlns:xlink="http://www.w3.org/1999/xlink">
<g id="graph0" class="graph" transform="scale(1 1) rotate(0) translate(4 2083)">
<title>%3</title>
<polygon fill="white" stroke="none" points="-4,4 -4,-2083 806.77,-2083 806.77,4 -4,4"/>
<!-- CEN.DC -->
<g id="node1" class="node"><title>CEN.DC</title>
<polygon fill="#ccffcc" stroke="black" points="683.77,-2079 617.77,-2079 617.77,-2043 683.77,-2043 683.77,-2079"/>
<text text-anchor="middle" x="650.77" y="-2057.3" font-family="Times,serif" font-size="14.00">CEN.DC</text>
</g>
<!-- CEN.South -->
<g id="node5" class="node"><title>CEN.South</title>
<polygon fill="#ccffcc" stroke="black" points="366.298,-1184 287.298,-1184 287.298,-1148 366.298,-1148 366.298,-1184"/>
<text text-anchor="middle" x="326.798" y="-1162.3" font-family="Times,serif" font-size="14.00">CEN.South</text>
</g>
<!-- CEN.DC&#45;&gt;CEN.South -->
<g id="edge57" class="edge"><title>CEN.DC&#45;&gt;CEN.South</title>
<path fill="none" stroke="#000000" d="M624.503,-2043C621.088,-2040.14 617.742,-2037.1 614.77,-2034 519.681,-1934.66 482.374,-1910.69 436.664,-1781 395.287,-1663.6 459.24,-1331.84 400.664,-1222 393.838,-1209.2 382.667,-1198.43 371.101,-1189.86"/>
<polygon fill="#000000" stroke="#000000" points="372.877,-1186.83 362.664,-1184.01 368.889,-1192.58 372.877,-1186.83"/>
</g>
<!-- CEN.AK -->
<g id="node2" class="node"><title>CEN.AK</title>
<polygon fill="#ccffcc" stroke="black" points="541.217,-852 474.217,-852 474.217,-816 541.217,-816 541.217,-852"/>
<text text-anchor="middle" x="507.717" y="-830.3" font-family="Times,serif" font-size="14.00">CEN.AK</text>
</g>
<!-- CEN.West -->
<g id="node7" class="node"><title>CEN.West</title>
<polygon fill="#ccffcc" stroke="black" points="364.798,-934 288.798,-934 288.798,-898 364.798,-898 364.798,-934"/>
<text text-anchor="middle" x="326.798" y="-912.3" font-family="Times,serif" font-size="14.00">CEN.West</text>
</g>
<!-- CEN.AK&#45;&gt;CEN.West -->
<g id="edge21" class="edge"><title>CEN.AK&#45;&gt;CEN.West</title>
<path fill="none" stroke="#000000" d="M474.005,-845.833C462.138,-850.329 448.696,-855.658 436.664,-861 414.61,-870.792 390.619,-882.764 370.785,-893.035"/>
<polygon fill="#000000" stroke="#000000" points="368.948,-890.046 361.699,-897.772 372.184,-896.253 368.948,-890.046"/>
</g>
<!-- CEN.HI -->
<g id="node3" class="node"><title>CEN.HI</title>
<polygon fill="#ccffcc" stroke="black" points="538.717,-906 476.717,-906 476.717,-870 538.717,-870 538.717,-906"/>
<text text-anchor="middle" x="507.717" y="-884.3" font-family="Times,serif" font-size="14.00">CEN.HI</text>
</g>
<!-- CEN.HI&#45;&gt;CEN.West -->
<g id="edge8" class="edge"><title>CEN.HI&#45;&gt;CEN.West</title>
<path fill="none" stroke="#000000" d="M476.366,-892.75C448.567,-897.1 406.985,-903.608 374.876,-908.632"/>
<polygon fill="#000000" stroke="#000000" points="374.152,-905.203 364.814,-910.207 375.235,-912.119 374.152,-905.203"/>
</g>
<!-- CEN.Northeast -->
<g id="node4" class="node"><title>CEN.Northeast</title>
<polygon fill="#ccffcc" stroke="black" points="557.717,-1772 457.717,-1772 457.717,-1736 557.717,-1736 557.717,-1772"/>
<text text-anchor="middle" x="507.717" y="-1750.3" font-family="Times,serif" font-size="14.00">CEN.Northeast</text>
</g>
<!-- NDC.Northeast -->
<g id="node12" class="node"><title>NDC.Northeast</title>
<polygon fill="#ffffcc" stroke="black" points="397.903,-1241.54 397.903,-1256.46 356.25,-1267 297.345,-1267 255.692,-1256.46 255.692,-1241.54 297.345,-1231 356.25,-1231 397.903,-1241.54"/>
<text text-anchor="middle" x="326.798" y="-1245.3" font-family="Times,serif" font-size="14.00">NDC.Northeast</text>
</g>
<!-- CEN.Northeast&#45;&gt;NDC.Northeast -->
<g id="edge72" class="edge"><title>CEN.Northeast&#45;&gt;NDC.Northeast</title>
<path fill="none" stroke="#ff0000" d="M500.243,-1735.73C473.311,-1659.71 370.037,-1368.22 337.604,-1276.68"/>
<polygon fill="#ff0000" stroke="#ff0000" points="340.901,-1275.5 334.262,-1267.25 334.303,-1277.84 340.901,-1275.5"/>
</g>
<!-- CEN.USA -->
<g id="node6" class="node"><title>CEN.USA</title>
<polygon fill="#ccffcc" stroke="black" points="74,-1036 0,-1036 0,-1000 74,-1000 74,-1036"/>
<text text-anchor="middle" x="37" y="-1014.3" font-family="Times,serif" font-size="14.00">CEN.USA</text>
</g>
<!-- CEN.South&#45;&gt;CEN.USA -->
<g id="edge15" class="edge"><title>CEN.South&#45;&gt;CEN.USA</title>
<path fill="none" stroke="#000000" d="M290.508,-1147.85C238.042,-1120.87 139.525,-1070.21 82.288,-1040.78"/>
<polygon fill="#000000" stroke="#000000" points="83.6213,-1037.53 73.1277,-1036.06 80.42,-1043.75 83.6213,-1037.53"/>
</g>
<!-- NDC.USA -->
<g id="node10" class="node"><title>NDC.USA</title>
<polygon fill="#ffffcc" stroke="black" points="216.896,-1010.54 216.896,-1025.46 185.597,-1036 141.334,-1036 110.035,-1025.46 110.035,-1010.54 141.334,-1000 185.597,-1000 216.896,-1010.54"/>
<text text-anchor="middle" x="163.465" y="-1014.3" font-family="Times,serif" font-size="14.00">NDC.USA</text>
</g>
<!-- CEN.South&#45;&gt;NDC.USA -->
<g id="edge5" class="edge"><title>CEN.South&#45;&gt;NDC.USA</title>
<path fill="none" stroke="#0000ff" stroke-dasharray="1,5" d="M306.015,-1147.85C275.051,-1119.45 215.473,-1064.79 184.41,-1036.3"/>
</g>
<!-- NDC.Southwest -->
<g id="node11" class="node"><title>NDC.Southwest</title>
<polygon fill="#ffffcc" stroke="black" points="400.531,-1010.54 400.531,-1025.46 357.339,-1036 296.256,-1036 253.064,-1025.46 253.064,-1010.54 296.256,-1000 357.339,-1000 400.531,-1010.54"/>
<text text-anchor="middle" x="326.798" y="-1014.3" font-family="Times,serif" font-size="14.00">NDC.Southwest</text>
</g>
<!-- CEN.South&#45;&gt;NDC.Southwest -->
<g id="edge3" class="edge"><title>CEN.South&#45;&gt;NDC.Southwest</title>
<path fill="none" stroke="#0000ff" stroke-dasharray="1,5" d="M326.798,-1147.75C326.798,-1110.57 326.798,-1073.39 326.798,-1036.21"/>
</g>
<!-- CEN.South&#45;&gt;NDC.Northeast -->
<g id="edge4" class="edge"><title>CEN.South&#45;&gt;NDC.Northeast</title>
<path fill="none" stroke="#0000ff" stroke-dasharray="1,5" d="M326.798,-1184.16C326.798,-1199.69 326.798,-1215.23 326.798,-1230.76"/>
</g>
<!-- CEN.West&#45;&gt;CEN.USA -->
<g id="edge63" class="edge"><title>CEN.West&#45;&gt;CEN.USA</title>
<path fill="none" stroke="#000000" d="M288.661,-928.6C245.586,-943.287 172.484,-968.43 110,-991 101.516,-994.065 92.4944,-997.392 83.8103,-1000.63"/>
<polygon fill="#000000" stroke="#000000" points="82.3335,-997.447 74.1956,-1004.23 84.788,-1004 82.3335,-997.447"/>
</g>
<!-- CEN.West&#45;&gt;NDC.USA -->
<g id="edge2" class="edge"><title>CEN.West&#45;&gt;NDC.USA</title>
<path fill="none" stroke="#0000ff" stroke-dasharray="1,5" d="M297.326,-934.001C267.113,-953.103 219.779,-983.029 190.519,-1001.53"/>
</g>
<!-- CEN.West&#45;&gt;NDC.Southwest -->
<g id="edge1" class="edge"><title>CEN.West&#45;&gt;NDC.Southwest</title>
<path fill="none" stroke="#0000ff" stroke-dasharray="1,5" d="M326.798,-934.328C326.798,-956.118 326.798,-977.907 326.798,-999.697"/>
</g>
<!-- NDC.West -->
<g id="node8" class="node"><title>NDC.West</title>
<polygon fill="#ffffcc" stroke="black" points="562.055,-682.544 562.055,-697.456 530.225,-708 485.209,-708 453.379,-697.456 453.379,-682.544 485.209,-672 530.225,-672 562.055,-682.544"/>
<text text-anchor="middle" x="507.717" y="-686.3" font-family="Times,serif" font-size="14.00">NDC.West</text>
</g>
<!-- NDC.West&#45;&gt;CEN.West -->
<g id="edge71" class="edge"><title>NDC.West&#45;&gt;CEN.West</title>
<path fill="none" stroke="#ff0000" d="M492.378,-708.112C460.84,-747.95 385.342,-843.314 348.596,-889.729"/>
<polygon fill="#ff0000" stroke="#ff0000" points="345.668,-887.788 342.205,-897.801 351.156,-892.133 345.668,-887.788"/>
</g>
<!-- NDC.West&#45;&gt;NDC.USA -->
<g id="edge13" class="edge"><title>NDC.West&#45;&gt;NDC.USA</title>
<path fill="none" stroke="#000000" d="M480.474,-706.64C431.908,-738.24 326.288,-810.801 252.931,-889 223.051,-920.852 195.801,-963.593 179.668,-990.973"/>
<polygon fill="#000000" stroke="#000000" points="176.634,-989.226 174.635,-999.631 182.686,-992.744 176.634,-989.226"/>
</g>
<!-- NDC.Southeast -->
<g id="node9" class="node"><title>NDC.Southeast</title>
<polygon fill="#ffffcc" stroke="black" points="578.823,-1158.54 578.823,-1173.46 537.17,-1184 478.264,-1184 436.612,-1173.46 436.612,-1158.54 478.264,-1148 537.17,-1148 578.823,-1158.54"/>
<text text-anchor="middle" x="507.717" y="-1162.3" font-family="Times,serif" font-size="14.00">NDC.Southeast</text>
</g>
<!-- NDC.Southeast&#45;&gt;CEN.South -->
<g id="edge73" class="edge"><title>NDC.Southeast&#45;&gt;CEN.South</title>
<path fill="none" stroke="#ff0000" d="M436.517,-1166C416.455,-1166 395.036,-1166 376.561,-1166"/>
<polygon fill="#ff0000" stroke="#ff0000" points="376.342,-1162.5 366.342,-1166 376.342,-1169.5 376.342,-1162.5"/>
</g>
<!-- NDC.Southeast&#45;&gt;NDC.USA -->
<g id="edge51" class="edge"><title>NDC.Southeast&#45;&gt;NDC.USA</title>
<path fill="none" stroke="#000000" d="M466.57,-1150.93C456.749,-1147.13 446.296,-1142.99 436.664,-1139 353.916,-1104.69 258.526,-1061.41 205.487,-1037.01"/>
<polygon fill="#000000" stroke="#000000" points="206.636,-1033.69 196.089,-1032.68 203.707,-1040.04 206.636,-1033.69"/>
</g>
<!-- NDC.USA&#45;&gt;CEN.USA -->
<g id="edge70" class="edge"><title>NDC.USA&#45;&gt;CEN.USA</title>
<path fill="none" stroke="#ff0000" d="M109.681,-1018C101.295,-1018 92.6755,-1018 84.4496,-1018"/>
<polygon fill="#ff0000" stroke="#ff0000" points="84.2881,-1014.5 74.288,-1018 84.288,-1021.5 84.2881,-1014.5"/>
</g>
<!-- NDC.Southwest&#45;&gt;NDC.USA -->
<g id="edge54" class="edge"><title>NDC.Southwest&#45;&gt;NDC.USA</title>
<path fill="none" stroke="#000000" d="M252.684,-1018C244.149,-1018 235.5,-1018 227.124,-1018"/>
<polygon fill="#000000" stroke="#000000" points="227.068,-1014.5 217.068,-1018 227.068,-1021.5 227.068,-1014.5"/>
</g>
<!-- NDC.Northeast&#45;&gt;NDC.USA -->
<g id="edge38" class="edge"><title>NDC.Northeast&#45;&gt;NDC.USA</title>
<path fill="none" stroke="#000000" d="M296.653,-1231.11C282.198,-1221.19 265.246,-1207.87 252.931,-1193 214.917,-1147.11 187.528,-1082.16 174.006,-1045.67"/>
<polygon fill="#000000" stroke="#000000" points="177.262,-1044.38 170.563,-1036.17 170.681,-1046.76 177.262,-1044.38"/>
</g>
<!-- CEN.NM\nNDC.NM -->
<g id="node13" class="node"><title>CEN.NM\nNDC.NM</title>
<path fill="#eeeeee" stroke="black" d="M531.217,-1018C531.217,-1018 484.217,-1018 484.217,-1018 478.217,-1018 472.217,-1012 472.217,-1006 472.217,-1006 472.217,-992 472.217,-992 472.217,-986 478.217,-980 484.217,-980 484.217,-980 531.217,-980 531.217,-980 537.217,-980 543.217,-986 543.217,-992 543.217,-992 543.217,-1006 543.217,-1006 543.217,-1012 537.217,-1018 531.217,-1018"/>
<text text-anchor="middle" x="507.717" y="-1002.8" font-family="Times,serif" font-size="14.00">CEN.NM</text>
<text text-anchor="middle" x="507.717" y="-987.8" font-family="Times,serif" font-size="14.00">NDC.NM</text>
</g>
<!-- CEN.NM\nNDC.NM&#45;&gt;CEN.West -->
<g id="edge27" class="edge"><title>CEN.NM\nNDC.NM&#45;&gt;CEN.West</title>
<path fill="none" stroke="#000000" d="M471.902,-985.78C460.576,-981.295 448.005,-976.119 436.664,-971 414.671,-961.072 390.687,-949.085 370.841,-938.839"/>
<polygon fill="#000000" stroke="#000000" points="372.236,-935.619 361.748,-934.117 369.01,-941.832 372.236,-935.619"/>
</g>
<!-- CEN.NM\nNDC.NM&#45;&gt;NDC.Southwest -->
<g id="edge59" class="edge"><title>CEN.NM\nNDC.NM&#45;&gt;NDC.Southwest</title>
<path fill="none" stroke="#000000" d="M471.795,-1002.71C454.148,-1004.58 431.924,-1006.94 410.251,-1009.24"/>
<polygon fill="#000000" stroke="#000000" points="409.59,-1005.79 400.016,-1010.33 410.33,-1012.76 409.59,-1005.79"/>
</g>
<!-- CEN.AZ\nNDC.AZ -->
<g id="node14" class="node"><title>CEN.AZ\nNDC.AZ</title>
<path fill="#eeeeee" stroke="black" d="M529.217,-962C529.217,-962 486.217,-962 486.217,-962 480.217,-962 474.217,-956 474.217,-950 474.217,-950 474.217,-936 474.217,-936 474.217,-930 480.217,-924 486.217,-924 486.217,-924 529.217,-924 529.217,-924 535.217,-924 541.217,-930 541.217,-936 541.217,-936 541.217,-950 541.217,-950 541.217,-956 535.217,-962 529.217,-962"/>
<text text-anchor="middle" x="507.717" y="-946.8" font-family="Times,serif" font-size="14.00">CEN.AZ</text>
<text text-anchor="middle" x="507.717" y="-931.8" font-family="Times,serif" font-size="14.00">NDC.AZ</text>
</g>
<!-- CEN.AZ\nNDC.AZ&#45;&gt;CEN.West -->
<g id="edge37" class="edge"><title>CEN.AZ\nNDC.AZ&#45;&gt;CEN.West</title>
<path fill="none" stroke="#000000" d="M473.9,-938.048C446.256,-933.876 406.352,-927.854 375.23,-923.158"/>
<polygon fill="#000000" stroke="#000000" points="375.453,-919.652 365.043,-921.621 374.409,-926.574 375.453,-919.652"/>
</g>
<!-- CEN.AZ\nNDC.AZ&#45;&gt;NDC.Southwest -->
<g id="edge44" class="edge"><title>CEN.AZ\nNDC.AZ&#45;&gt;NDC.Southwest</title>
<path fill="none" stroke="#000000" d="M474.207,-955.78C462.36,-960.494 448.88,-965.923 436.664,-971 416.08,-979.555 393.432,-989.282 374.149,-997.658"/>
<polygon fill="#000000" stroke="#000000" points="372.748,-994.45 364.976,-1001.65 375.542,-1000.87 372.748,-994.45"/>
</g>
<!-- CEN.TN\nNDC.TN -->
<g id="node15" class="node"><title>CEN.TN\nNDC.TN</title>
<path fill="#eeeeee" stroke="black" d="M672.27,-1521C672.27,-1521 629.27,-1521 629.27,-1521 623.27,-1521 617.27,-1515 617.27,-1509 617.27,-1509 617.27,-1495 617.27,-1495 617.27,-1489 623.27,-1483 629.27,-1483 629.27,-1483 672.27,-1483 672.27,-1483 678.27,-1483 684.27,-1489 684.27,-1495 684.27,-1495 684.27,-1509 684.27,-1509 684.27,-1515 678.27,-1521 672.27,-1521"/>
<text text-anchor="middle" x="650.77" y="-1505.8" font-family="Times,serif" font-size="14.00">CEN.TN</text>
<text text-anchor="middle" x="650.77" y="-1490.8" font-family="Times,serif" font-size="14.00">NDC.TN</text>
</g>
<!-- CEN.TN\nNDC.TN&#45;&gt;NDC.Southeast -->
<g id="edge9" class="edge"><title>CEN.TN\nNDC.TN&#45;&gt;NDC.Southeast</title>
<path fill="none" stroke="#000000" d="M621.292,-1482.69C618.776,-1480.02 616.523,-1477.12 614.77,-1474 553.113,-1364.22 656.48,-1292.07 578.77,-1193 575.933,-1189.38 572.548,-1186.25 568.82,-1183.54"/>
<polygon fill="#000000" stroke="#000000" points="570.545,-1180.49 560.191,-1178.24 566.884,-1186.46 570.545,-1180.49"/>
</g>
<!-- CEN.MA\nNDC.MA -->
<g id="node16" class="node"><title>CEN.MA\nNDC.MA</title>
<path fill="#eeeeee" stroke="black" d="M674.27,-1857C674.27,-1857 627.27,-1857 627.27,-1857 621.27,-1857 615.27,-1851 615.27,-1845 615.27,-1845 615.27,-1831 615.27,-1831 615.27,-1825 621.27,-1819 627.27,-1819 627.27,-1819 674.27,-1819 674.27,-1819 680.27,-1819 686.27,-1825 686.27,-1831 686.27,-1831 686.27,-1845 686.27,-1845 686.27,-1851 680.27,-1857 674.27,-1857"/>
<text text-anchor="middle" x="650.77" y="-1841.8" font-family="Times,serif" font-size="14.00">CEN.MA</text>
<text text-anchor="middle" x="650.77" y="-1826.8" font-family="Times,serif" font-size="14.00">NDC.MA</text>
</g>
<!-- CEN.MA\nNDC.MA&#45;&gt;CEN.Northeast -->
<g id="edge16" class="edge"><title>CEN.MA\nNDC.MA&#45;&gt;CEN.Northeast</title>
<path fill="none" stroke="#000000" d="M617.763,-1818.94C597.045,-1806.6 569.931,-1790.45 547.923,-1777.35"/>
<polygon fill="#000000" stroke="#000000" points="549.53,-1774.23 539.147,-1772.12 545.948,-1780.25 549.53,-1774.23"/>
</g>
<!-- CEN.IN\nNDC.IN -->
<g id="node17" class="node"><title>CEN.IN\nNDC.IN</title>
<path fill="#eeeeee" stroke="black" d="M527.217,-38C527.217,-38 488.217,-38 488.217,-38 482.217,-38 476.217,-32 476.217,-26 476.217,-26 476.217,-12 476.217,-12 476.217,-6 482.217,-0 488.217,-0 488.217,-0 527.217,-0 527.217,-0 533.217,-0 539.217,-6 539.217,-12 539.217,-12 539.217,-26 539.217,-26 539.217,-32 533.217,-38 527.217,-38"/>
<text text-anchor="middle" x="507.717" y="-22.8" font-family="Times,serif" font-size="14.00">CEN.IN</text>
<text text-anchor="middle" x="507.717" y="-7.8" font-family="Times,serif" font-size="14.00">NDC.IN</text>
</g>
<!-- CEN.Midwest\nNDC.Midwest -->
<g id="node44" class="node"><title>CEN.Midwest\nNDC.Midwest</title>
<path fill="#eeeeee" stroke="black" d="M363.298,-374C363.298,-374 290.298,-374 290.298,-374 284.298,-374 278.298,-368 278.298,-362 278.298,-362 278.298,-348 278.298,-348 278.298,-342 284.298,-336 290.298,-336 290.298,-336 363.298,-336 363.298,-336 369.298,-336 375.298,-342 375.298,-348 375.298,-348 375.298,-362 375.298,-362 375.298,-368 369.298,-374 363.298,-374"/>
<text text-anchor="middle" x="326.798" y="-358.8" font-family="Times,serif" font-size="14.00">CEN.Midwest</text>
<text text-anchor="middle" x="326.798" y="-343.8" font-family="Times,serif" font-size="14.00">NDC.Midwest</text>
</g>
<!-- CEN.IN\nNDC.IN&#45;&gt;CEN.Midwest\nNDC.Midwest -->
<g id="edge40" class="edge"><title>CEN.IN\nNDC.IN&#45;&gt;CEN.Midwest\nNDC.Midwest</title>
<path fill="none" stroke="#000000" d="M475.868,-25.2385C462.293,-29.3824 447.097,-36.1361 436.664,-47 359.558,-127.293 336.691,-265.526 330.219,-325.647"/>
<polygon fill="#000000" stroke="#000000" points="326.703,-325.635 329.191,-335.933 333.668,-326.33 326.703,-325.635"/>
</g>
<!-- CEN.MD\nNDC.MD -->
<g id="node18" class="node"><title>CEN.MD\nNDC.MD</title>
<path fill="#eeeeee" stroke="black" d="M531.217,-1296C531.217,-1296 484.217,-1296 484.217,-1296 478.217,-1296 472.217,-1290 472.217,-1284 472.217,-1284 472.217,-1270 472.217,-1270 472.217,-1264 478.217,-1258 484.217,-1258 484.217,-1258 531.217,-1258 531.217,-1258 537.217,-1258 543.217,-1264 543.217,-1270 543.217,-1270 543.217,-1284 543.217,-1284 543.217,-1290 537.217,-1296 531.217,-1296"/>
<text text-anchor="middle" x="507.717" y="-1280.8" font-family="Times,serif" font-size="14.00">CEN.MD</text>
<text text-anchor="middle" x="507.717" y="-1265.8" font-family="Times,serif" font-size="14.00">NDC.MD</text>
</g>
<!-- CEN.MD\nNDC.MD&#45;&gt;CEN.South -->
<g id="edge17" class="edge"><title>CEN.MD\nNDC.MD&#45;&gt;CEN.South</title>
<path fill="none" stroke="#000000" d="M472.005,-1265.27C460.45,-1260.8 447.716,-1255.27 436.664,-1249 434.553,-1247.8 390.785,-1214.32 359.397,-1190.25"/>
<polygon fill="#000000" stroke="#000000" points="361.383,-1187.37 351.318,-1184.06 357.123,-1192.92 361.383,-1187.37"/>
</g>
<!-- CEN.MD\nNDC.MD&#45;&gt;NDC.Northeast -->
<g id="edge29" class="edge"><title>CEN.MD\nNDC.MD&#45;&gt;NDC.Northeast</title>
<path fill="none" stroke="#000000" d="M471.795,-1271.53C451.237,-1268.32 424.466,-1264.13 399.592,-1260.24"/>
<polygon fill="#000000" stroke="#000000" points="399.861,-1256.74 389.44,-1258.65 398.779,-1263.65 399.861,-1256.74"/>
</g>
<!-- CEN.CT\nNDC.CT -->
<g id="node19" class="node"><title>CEN.CT\nNDC.CT</title>
<path fill="#eeeeee" stroke="black" d="M671.77,-1801C671.77,-1801 629.77,-1801 629.77,-1801 623.77,-1801 617.77,-1795 617.77,-1789 617.77,-1789 617.77,-1775 617.77,-1775 617.77,-1769 623.77,-1763 629.77,-1763 629.77,-1763 671.77,-1763 671.77,-1763 677.77,-1763 683.77,-1769 683.77,-1775 683.77,-1775 683.77,-1789 683.77,-1789 683.77,-1795 677.77,-1801 671.77,-1801"/>
<text text-anchor="middle" x="650.77" y="-1785.8" font-family="Times,serif" font-size="14.00">CEN.CT</text>
<text text-anchor="middle" x="650.77" y="-1770.8" font-family="Times,serif" font-size="14.00">NDC.CT</text>
</g>
<!-- CEN.CT\nNDC.CT&#45;&gt;CEN.Northeast -->
<g id="edge39" class="edge"><title>CEN.CT\nNDC.CT&#45;&gt;CEN.Northeast</title>
<path fill="none" stroke="#000000" d="M617.763,-1775.65C602.95,-1772.71 584.868,-1769.12 567.72,-1765.71"/>
<polygon fill="#000000" stroke="#000000" points="568.253,-1762.25 557.763,-1763.74 566.89,-1769.12 568.253,-1762.25"/>
</g>
<!-- CEN.WA\nNDC.WA -->
<g id="node20" class="node"><title>CEN.WA\nNDC.WA</title>
<path fill="#eeeeee" stroke="black" d="M674.77,-849C674.77,-849 626.77,-849 626.77,-849 620.77,-849 614.77,-843 614.77,-837 614.77,-837 614.77,-823 614.77,-823 614.77,-817 620.77,-811 626.77,-811 626.77,-811 674.77,-811 674.77,-811 680.77,-811 686.77,-817 686.77,-823 686.77,-823 686.77,-837 686.77,-837 686.77,-843 680.77,-849 674.77,-849"/>
<text text-anchor="middle" x="650.77" y="-833.8" font-family="Times,serif" font-size="14.00">CEN.WA</text>
<text text-anchor="middle" x="650.77" y="-818.8" font-family="Times,serif" font-size="14.00">NDC.WA</text>
</g>
<!-- CEN.WA\nNDC.WA&#45;&gt;NDC.West -->
<g id="edge61" class="edge"><title>CEN.WA\nNDC.WA&#45;&gt;NDC.West</title>
<path fill="none" stroke="#000000" d="M624.934,-810.835C621.456,-807.95 617.977,-804.95 614.77,-802 584.447,-774.106 552.265,-739.285 531.412,-715.939"/>
<polygon fill="#000000" stroke="#000000" points="533.787,-713.343 524.53,-708.19 528.553,-717.991 533.787,-713.343"/>
</g>
<!-- CEN.MI\nNDC.MI -->
<g id="node21" class="node"><title>CEN.MI\nNDC.MI</title>
<path fill="#eeeeee" stroke="black" d="M528.717,-262C528.717,-262 486.717,-262 486.717,-262 480.717,-262 474.717,-256 474.717,-250 474.717,-250 474.717,-236 474.717,-236 474.717,-230 480.717,-224 486.717,-224 486.717,-224 528.717,-224 528.717,-224 534.717,-224 540.717,-230 540.717,-236 540.717,-236 540.717,-250 540.717,-250 540.717,-256 534.717,-262 528.717,-262"/>
<text text-anchor="middle" x="507.717" y="-246.8" font-family="Times,serif" font-size="14.00">CEN.MI</text>
<text text-anchor="middle" x="507.717" y="-231.8" font-family="Times,serif" font-size="14.00">NDC.MI</text>
</g>
<!-- CEN.MI\nNDC.MI&#45;&gt;CEN.Midwest\nNDC.Midwest -->
<g id="edge22" class="edge"><title>CEN.MI\nNDC.MI&#45;&gt;CEN.Midwest\nNDC.Midwest</title>
<path fill="none" stroke="#000000" d="M474.466,-253.749C462.273,-258.36 448.494,-264.247 436.664,-271 407.618,-287.581 377.758,-311.172 356.674,-329.134"/>
<polygon fill="#000000" stroke="#000000" points="354.329,-326.534 349.043,-335.716 358.902,-331.835 354.329,-326.534"/>
</g>
<!-- CEN.VA\nNDC.VA -->
<g id="node22" class="node"><title>CEN.VA\nNDC.VA</title>
<path fill="#eeeeee" stroke="black" d="M672.77,-1465C672.77,-1465 628.77,-1465 628.77,-1465 622.77,-1465 616.77,-1459 616.77,-1453 616.77,-1453 616.77,-1439 616.77,-1439 616.77,-1433 622.77,-1427 628.77,-1427 628.77,-1427 672.77,-1427 672.77,-1427 678.77,-1427 684.77,-1433 684.77,-1439 684.77,-1439 684.77,-1453 684.77,-1453 684.77,-1459 678.77,-1465 672.77,-1465"/>
<text text-anchor="middle" x="650.77" y="-1449.8" font-family="Times,serif" font-size="14.00">CEN.VA</text>
<text text-anchor="middle" x="650.77" y="-1434.8" font-family="Times,serif" font-size="14.00">NDC.VA</text>
</g>
<!-- CEN.VA\nNDC.VA&#45;&gt;NDC.Southeast -->
<g id="edge65" class="edge"><title>CEN.VA\nNDC.VA&#45;&gt;NDC.Southeast</title>
<path fill="none" stroke="#000000" d="M621.722,-1426.98C619.055,-1424.23 616.649,-1421.23 614.77,-1418 563.805,-1330.49 642.511,-1271.7 578.77,-1193 575.877,-1189.43 572.451,-1186.33 568.695,-1183.64"/>
<polygon fill="#000000" stroke="#000000" points="570.388,-1180.57 560.022,-1178.38 566.758,-1186.56 570.388,-1180.57"/>
</g>
<!-- CEN.CA\nNDC.CA -->
<g id="node23" class="node"><title>CEN.CA\nNDC.CA</title>
<path fill="#eeeeee" stroke="black" d="M672.77,-793C672.77,-793 628.77,-793 628.77,-793 622.77,-793 616.77,-787 616.77,-781 616.77,-781 616.77,-767 616.77,-767 616.77,-761 622.77,-755 628.77,-755 628.77,-755 672.77,-755 672.77,-755 678.77,-755 684.77,-761 684.77,-767 684.77,-767 684.77,-781 684.77,-781 684.77,-787 678.77,-793 672.77,-793"/>
<text text-anchor="middle" x="650.77" y="-777.8" font-family="Times,serif" font-size="14.00">CEN.CA</text>
<text text-anchor="middle" x="650.77" y="-762.8" font-family="Times,serif" font-size="14.00">NDC.CA</text>
</g>
<!-- CEN.CA\nNDC.CA&#45;&gt;NDC.West -->
<g id="edge49" class="edge"><title>CEN.CA\nNDC.CA&#45;&gt;NDC.West</title>
<path fill="none" stroke="#000000" d="M617.763,-754.939C595.949,-741.948 567.042,-724.734 544.472,-711.293"/>
<polygon fill="#000000" stroke="#000000" points="546.234,-708.268 535.851,-706.159 542.652,-714.283 546.234,-708.268"/>
</g>
<!-- CEN.NY\nNDC.NY -->
<g id="node24" class="node"><title>CEN.NY\nNDC.NY</title>
<path fill="#eeeeee" stroke="black" d="M672.77,-1745C672.77,-1745 628.77,-1745 628.77,-1745 622.77,-1745 616.77,-1739 616.77,-1733 616.77,-1733 616.77,-1719 616.77,-1719 616.77,-1713 622.77,-1707 628.77,-1707 628.77,-1707 672.77,-1707 672.77,-1707 678.77,-1707 684.77,-1713 684.77,-1719 684.77,-1719 684.77,-1733 684.77,-1733 684.77,-1739 678.77,-1745 672.77,-1745"/>
<text text-anchor="middle" x="650.77" y="-1729.8" font-family="Times,serif" font-size="14.00">CEN.NY</text>
<text text-anchor="middle" x="650.77" y="-1714.8" font-family="Times,serif" font-size="14.00">NDC.NY</text>
</g>
<!-- CEN.NY\nNDC.NY&#45;&gt;CEN.Northeast -->
<g id="edge23" class="edge"><title>CEN.NY\nNDC.NY&#45;&gt;CEN.Northeast</title>
<path fill="none" stroke="#000000" d="M616.699,-1732.56C602.201,-1735.44 584.728,-1738.91 568.103,-1742.21"/>
<polygon fill="#000000" stroke="#000000" points="567.022,-1738.86 557.895,-1744.24 568.385,-1745.72 567.022,-1738.86"/>
</g>
<!-- CEN.MS\nNDC.MS -->
<g id="node25" class="node"><title>CEN.MS\nNDC.MS</title>
<path fill="#eeeeee" stroke="black" d="M673.27,-1409C673.27,-1409 628.27,-1409 628.27,-1409 622.27,-1409 616.27,-1403 616.27,-1397 616.27,-1397 616.27,-1383 616.27,-1383 616.27,-1377 622.27,-1371 628.27,-1371 628.27,-1371 673.27,-1371 673.27,-1371 679.27,-1371 685.27,-1377 685.27,-1383 685.27,-1383 685.27,-1397 685.27,-1397 685.27,-1403 679.27,-1409 673.27,-1409"/>
<text text-anchor="middle" x="650.77" y="-1393.8" font-family="Times,serif" font-size="14.00">CEN.MS</text>
<text text-anchor="middle" x="650.77" y="-1378.8" font-family="Times,serif" font-size="14.00">NDC.MS</text>
</g>
<!-- CEN.MS\nNDC.MS&#45;&gt;NDC.Southeast -->
<g id="edge55" class="edge"><title>CEN.MS\nNDC.MS&#45;&gt;NDC.Southeast</title>
<path fill="none" stroke="#000000" d="M621.885,-1370.88C619.188,-1368.15 616.732,-1365.18 614.77,-1362 574.435,-1296.65 628.618,-1251.42 578.77,-1193 575.737,-1189.45 572.181,-1186.36 568.306,-1183.68"/>
<polygon fill="#000000" stroke="#000000" points="569.789,-1180.49 559.396,-1178.43 566.235,-1186.52 569.789,-1180.49"/>
</g>
<!-- CEN.ID\nNDC.ID -->
<g id="node26" class="node"><title>CEN.ID\nNDC.ID</title>
<path fill="#eeeeee" stroke="black" d="M670.27,-737C670.27,-737 631.27,-737 631.27,-737 625.27,-737 619.27,-731 619.27,-725 619.27,-725 619.27,-711 619.27,-711 619.27,-705 625.27,-699 631.27,-699 631.27,-699 670.27,-699 670.27,-699 676.27,-699 682.27,-705 682.27,-711 682.27,-711 682.27,-725 682.27,-725 682.27,-731 676.27,-737 670.27,-737"/>
<text text-anchor="middle" x="650.77" y="-721.8" font-family="Times,serif" font-size="14.00">CEN.ID</text>
<text text-anchor="middle" x="650.77" y="-706.8" font-family="Times,serif" font-size="14.00">NDC.ID</text>
</g>
<!-- CEN.ID\nNDC.ID&#45;&gt;NDC.West -->
<g id="edge35" class="edge"><title>CEN.ID\nNDC.ID&#45;&gt;NDC.West</title>
<path fill="none" stroke="#000000" d="M619.163,-711.924C603.645,-708.844 584.281,-705 566.12,-701.395"/>
<polygon fill="#000000" stroke="#000000" points="566.677,-697.937 556.187,-699.423 565.314,-704.803 566.677,-697.937"/>
</g>
<!-- CEN.MN\nNDC.MN -->
<g id="node27" class="node"><title>CEN.MN\nNDC.MN</title>
<path fill="#eeeeee" stroke="black" d="M531.217,-206C531.217,-206 484.217,-206 484.217,-206 478.217,-206 472.217,-200 472.217,-194 472.217,-194 472.217,-180 472.217,-180 472.217,-174 478.217,-168 484.217,-168 484.217,-168 531.217,-168 531.217,-168 537.217,-168 543.217,-174 543.217,-180 543.217,-180 543.217,-194 543.217,-194 543.217,-200 537.217,-206 531.217,-206"/>
<text text-anchor="middle" x="507.717" y="-190.8" font-family="Times,serif" font-size="14.00">CEN.MN</text>
<text text-anchor="middle" x="507.717" y="-175.8" font-family="Times,serif" font-size="14.00">NDC.MN</text>
</g>
<!-- CEN.MN\nNDC.MN&#45;&gt;CEN.Midwest\nNDC.Midwest -->
<g id="edge67" class="edge"><title>CEN.MN\nNDC.MN&#45;&gt;CEN.Midwest\nNDC.Midwest</title>
<path fill="none" stroke="#000000" d="M472.04,-196.748C460.109,-201.13 447.13,-207.125 436.664,-215 395.686,-245.833 361.946,-295.808 343.373,-326.964"/>
<polygon fill="#000000" stroke="#000000" points="340.347,-325.205 338.323,-335.604 346.391,-328.737 340.347,-325.205"/>
</g>
<!-- CEN.NJ\nNDC.NJ -->
<g id="node28" class="node"><title>CEN.NJ\nNDC.NJ</title>
<path fill="#eeeeee" stroke="black" d="M670.77,-1689C670.77,-1689 630.77,-1689 630.77,-1689 624.77,-1689 618.77,-1683 618.77,-1677 618.77,-1677 618.77,-1663 618.77,-1663 618.77,-1657 624.77,-1651 630.77,-1651 630.77,-1651 670.77,-1651 670.77,-1651 676.77,-1651 682.77,-1657 682.77,-1663 682.77,-1663 682.77,-1677 682.77,-1677 682.77,-1683 676.77,-1689 670.77,-1689"/>
<text text-anchor="middle" x="650.77" y="-1673.8" font-family="Times,serif" font-size="14.00">CEN.NJ</text>
<text text-anchor="middle" x="650.77" y="-1658.8" font-family="Times,serif" font-size="14.00">NDC.NJ</text>
</g>
<!-- CEN.NJ\nNDC.NJ&#45;&gt;CEN.Northeast -->
<g id="edge66" class="edge"><title>CEN.NJ\nNDC.NJ&#45;&gt;CEN.Northeast</title>
<path fill="none" stroke="#000000" d="M618.466,-1688.64C597.636,-1701.05 570.113,-1717.44 547.841,-1730.7"/>
<polygon fill="#000000" stroke="#000000" points="545.767,-1727.86 538.966,-1735.99 549.348,-1733.88 545.767,-1727.86"/>
</g>
<!-- CEN.UT\nNDC.UT -->
<g id="node29" class="node"><title>CEN.UT\nNDC.UT</title>
<path fill="#eeeeee" stroke="black" d="M672.27,-681C672.27,-681 629.27,-681 629.27,-681 623.27,-681 617.27,-675 617.27,-669 617.27,-669 617.27,-655 617.27,-655 617.27,-649 623.27,-643 629.27,-643 629.27,-643 672.27,-643 672.27,-643 678.27,-643 684.27,-649 684.27,-655 684.27,-655 684.27,-669 684.27,-669 684.27,-675 678.27,-681 672.27,-681"/>
<text text-anchor="middle" x="650.77" y="-665.8" font-family="Times,serif" font-size="14.00">CEN.UT</text>
<text text-anchor="middle" x="650.77" y="-650.8" font-family="Times,serif" font-size="14.00">NDC.UT</text>
</g>
<!-- CEN.UT\nNDC.UT&#45;&gt;NDC.West -->
<g id="edge56" class="edge"><title>CEN.UT\nNDC.UT&#45;&gt;NDC.West</title>
<path fill="none" stroke="#000000" d="M617.055,-668.494C601.952,-671.492 583.564,-675.142 566.257,-678.578"/>
<polygon fill="#000000" stroke="#000000" points="565.352,-675.189 556.225,-680.569 566.715,-682.055 565.352,-675.189"/>
</g>
<!-- CEN.DE\nNDC.DE -->
<g id="node30" class="node"><title>CEN.DE\nNDC.DE</title>
<path fill="#eeeeee" stroke="black" d="M529.217,-1240C529.217,-1240 486.217,-1240 486.217,-1240 480.217,-1240 474.217,-1234 474.217,-1228 474.217,-1228 474.217,-1214 474.217,-1214 474.217,-1208 480.217,-1202 486.217,-1202 486.217,-1202 529.217,-1202 529.217,-1202 535.217,-1202 541.217,-1208 541.217,-1214 541.217,-1214 541.217,-1228 541.217,-1228 541.217,-1234 535.217,-1240 529.217,-1240"/>
<text text-anchor="middle" x="507.717" y="-1224.8" font-family="Times,serif" font-size="14.00">CEN.DE</text>
<text text-anchor="middle" x="507.717" y="-1209.8" font-family="Times,serif" font-size="14.00">NDC.DE</text>
</g>
<!-- CEN.DE\nNDC.DE&#45;&gt;CEN.South -->
<g id="edge24" class="edge"><title>CEN.DE\nNDC.DE&#45;&gt;CEN.South</title>
<path fill="none" stroke="#000000" d="M473.9,-1210.91C446.5,-1202.49 407.056,-1190.36 376.056,-1180.83"/>
<polygon fill="#000000" stroke="#000000" points="376.901,-1177.43 366.314,-1177.84 374.844,-1184.12 376.901,-1177.43"/>
</g>
<!-- CEN.DE\nNDC.DE&#45;&gt;NDC.Northeast -->
<g id="edge33" class="edge"><title>CEN.DE\nNDC.DE&#45;&gt;NDC.Northeast</title>
<path fill="none" stroke="#000000" d="M473.9,-1226.14C453.06,-1229.4 425.253,-1233.75 399.493,-1237.78"/>
<polygon fill="#000000" stroke="#000000" points="398.702,-1234.36 389.364,-1239.37 399.785,-1241.28 398.702,-1234.36"/>
</g>
<!-- CEN.NC\nNDC.NC -->
<g id="node31" class="node"><title>CEN.NC\nNDC.NC</title>
<path fill="#eeeeee" stroke="black" d="M672.77,-1353C672.77,-1353 628.77,-1353 628.77,-1353 622.77,-1353 616.77,-1347 616.77,-1341 616.77,-1341 616.77,-1327 616.77,-1327 616.77,-1321 622.77,-1315 628.77,-1315 628.77,-1315 672.77,-1315 672.77,-1315 678.77,-1315 684.77,-1321 684.77,-1327 684.77,-1327 684.77,-1341 684.77,-1341 684.77,-1347 678.77,-1353 672.77,-1353"/>
<text text-anchor="middle" x="650.77" y="-1337.8" font-family="Times,serif" font-size="14.00">CEN.NC</text>
<text text-anchor="middle" x="650.77" y="-1322.8" font-family="Times,serif" font-size="14.00">NDC.NC</text>
</g>
<!-- CEN.NC\nNDC.NC&#45;&gt;NDC.Southeast -->
<g id="edge53" class="edge"><title>CEN.NC\nNDC.NC&#45;&gt;NDC.Southeast</title>
<path fill="none" stroke="#000000" d="M622.19,-1314.68C619.439,-1311.99 616.886,-1309.08 614.77,-1306 584.911,-1262.56 614.917,-1231.36 578.77,-1193 575.426,-1189.45 571.564,-1186.36 567.406,-1183.68"/>
<polygon fill="#000000" stroke="#000000" points="568.964,-1180.54 558.528,-1178.71 565.546,-1186.65 568.964,-1180.54"/>
</g>
<!-- CEN.SC\nNDC.SC -->
<g id="node32" class="node"><title>CEN.SC\nNDC.SC</title>
<path fill="#eeeeee" stroke="black" d="M671.27,-1297C671.27,-1297 630.27,-1297 630.27,-1297 624.27,-1297 618.27,-1291 618.27,-1285 618.27,-1285 618.27,-1271 618.27,-1271 618.27,-1265 624.27,-1259 630.27,-1259 630.27,-1259 671.27,-1259 671.27,-1259 677.27,-1259 683.27,-1265 683.27,-1271 683.27,-1271 683.27,-1285 683.27,-1285 683.27,-1291 677.27,-1297 671.27,-1297"/>
<text text-anchor="middle" x="650.77" y="-1281.8" font-family="Times,serif" font-size="14.00">CEN.SC</text>
<text text-anchor="middle" x="650.77" y="-1266.8" font-family="Times,serif" font-size="14.00">NDC.SC</text>
</g>
<!-- CEN.SC\nNDC.SC&#45;&gt;NDC.Southeast -->
<g id="edge18" class="edge"><title>CEN.SC\nNDC.SC&#45;&gt;NDC.Southeast</title>
<path fill="none" stroke="#000000" d="M623.654,-1258.74C620.513,-1255.96 617.467,-1253.02 614.77,-1250 594.795,-1227.67 601.923,-1212.02 578.77,-1193 574.552,-1189.54 569.84,-1186.48 564.908,-1183.8"/>
<polygon fill="#000000" stroke="#000000" points="566.372,-1180.62 555.852,-1179.36 563.289,-1186.9 566.372,-1180.62"/>
</g>
<!-- CEN.AR\nNDC.AR -->
<g id="node33" class="node"><title>CEN.AR\nNDC.AR</title>
<path fill="#eeeeee" stroke="black" d="M672.77,-1241C672.77,-1241 628.77,-1241 628.77,-1241 622.77,-1241 616.77,-1235 616.77,-1229 616.77,-1229 616.77,-1215 616.77,-1215 616.77,-1209 622.77,-1203 628.77,-1203 628.77,-1203 672.77,-1203 672.77,-1203 678.77,-1203 684.77,-1209 684.77,-1215 684.77,-1215 684.77,-1229 684.77,-1229 684.77,-1235 678.77,-1241 672.77,-1241"/>
<text text-anchor="middle" x="650.77" y="-1225.8" font-family="Times,serif" font-size="14.00">CEN.AR</text>
<text text-anchor="middle" x="650.77" y="-1210.8" font-family="Times,serif" font-size="14.00">NDC.AR</text>
</g>
<!-- CEN.AR\nNDC.AR&#45;&gt;NDC.Southeast -->
<g id="edge60" class="edge"><title>CEN.AR\nNDC.AR&#45;&gt;NDC.Southeast</title>
<path fill="none" stroke="#000000" d="M616.594,-1208.29C604.687,-1203.41 591.146,-1197.91 578.77,-1193 572.107,-1190.36 565.073,-1187.6 558.136,-1184.91"/>
<polygon fill="#000000" stroke="#000000" points="559.369,-1181.63 548.78,-1181.28 556.841,-1188.16 559.369,-1181.63"/>
</g>
<!-- CEN.TX\nNDC.TX -->
<g id="node34" class="node"><title>CEN.TX\nNDC.TX</title>
<path fill="#eeeeee" stroke="black" d="M529.217,-1074C529.217,-1074 486.217,-1074 486.217,-1074 480.217,-1074 474.217,-1068 474.217,-1062 474.217,-1062 474.217,-1048 474.217,-1048 474.217,-1042 480.217,-1036 486.217,-1036 486.217,-1036 529.217,-1036 529.217,-1036 535.217,-1036 541.217,-1042 541.217,-1048 541.217,-1048 541.217,-1062 541.217,-1062 541.217,-1068 535.217,-1074 529.217,-1074"/>
<text text-anchor="middle" x="507.717" y="-1058.8" font-family="Times,serif" font-size="14.00">CEN.TX</text>
<text text-anchor="middle" x="507.717" y="-1043.8" font-family="Times,serif" font-size="14.00">NDC.TX</text>
</g>
<!-- CEN.TX\nNDC.TX&#45;&gt;CEN.South -->
<g id="edge50" class="edge"><title>CEN.TX\nNDC.TX&#45;&gt;CEN.South</title>
<path fill="none" stroke="#000000" d="M474.135,-1065.92C462.032,-1070.51 448.399,-1076.35 436.664,-1083 407.149,-1099.74 376.697,-1123.62 355.531,-1141.47"/>
<polygon fill="#000000" stroke="#000000" points="353.228,-1138.84 347.895,-1147.99 357.773,-1144.16 353.228,-1138.84"/>
</g>
<!-- CEN.TX\nNDC.TX&#45;&gt;NDC.Southwest -->
<g id="edge42" class="edge"><title>CEN.TX\nNDC.TX&#45;&gt;NDC.Southwest</title>
<path fill="none" stroke="#000000" d="M473.9,-1048.21C451.528,-1043.59 421.126,-1037.3 393.848,-1031.66"/>
<polygon fill="#000000" stroke="#000000" points="394.462,-1028.21 383.96,-1029.61 393.044,-1035.07 394.462,-1028.21"/>
</g>
<!-- CEN.OH\nNDC.OH -->
<g id="node35" class="node"><title>CEN.OH\nNDC.OH</title>
<path fill="#eeeeee" stroke="black" d="M529.717,-150C529.717,-150 485.717,-150 485.717,-150 479.717,-150 473.717,-144 473.717,-138 473.717,-138 473.717,-124 473.717,-124 473.717,-118 479.717,-112 485.717,-112 485.717,-112 529.717,-112 529.717,-112 535.717,-112 541.717,-118 541.717,-124 541.717,-124 541.717,-138 541.717,-138 541.717,-144 535.717,-150 529.717,-150"/>
<text text-anchor="middle" x="507.717" y="-134.8" font-family="Times,serif" font-size="14.00">CEN.OH</text>
<text text-anchor="middle" x="507.717" y="-119.8" font-family="Times,serif" font-size="14.00">NDC.OH</text>
</g>
<!-- CEN.OH\nNDC.OH&#45;&gt;CEN.Midwest\nNDC.Midwest -->
<g id="edge69" class="edge"><title>CEN.OH\nNDC.OH&#45;&gt;CEN.Midwest\nNDC.Midwest</title>
<path fill="none" stroke="#000000" d="M473.481,-139.123C460.885,-143.447 447.083,-149.825 436.664,-159 383.905,-205.462 351.403,-283.921 336.835,-326.104"/>
<polygon fill="#000000" stroke="#000000" points="333.458,-325.166 333.596,-335.76 340.094,-327.393 333.458,-325.166"/>
</g>
<!-- CEN.GA\nNDC.GA -->
<g id="node36" class="node"><title>CEN.GA\nNDC.GA</title>
<path fill="#eeeeee" stroke="black" d="M672.77,-1185C672.77,-1185 628.77,-1185 628.77,-1185 622.77,-1185 616.77,-1179 616.77,-1173 616.77,-1173 616.77,-1159 616.77,-1159 616.77,-1153 622.77,-1147 628.77,-1147 628.77,-1147 672.77,-1147 672.77,-1147 678.77,-1147 684.77,-1153 684.77,-1159 684.77,-1159 684.77,-1173 684.77,-1173 684.77,-1179 678.77,-1185 672.77,-1185"/>
<text text-anchor="middle" x="650.77" y="-1169.8" font-family="Times,serif" font-size="14.00">CEN.GA</text>
<text text-anchor="middle" x="650.77" y="-1154.8" font-family="Times,serif" font-size="14.00">NDC.GA</text>
</g>
<!-- CEN.GA\nNDC.GA&#45;&gt;NDC.Southeast -->
<g id="edge7" class="edge"><title>CEN.GA\nNDC.GA&#45;&gt;NDC.Southeast</title>
<path fill="none" stroke="#000000" d="M616.699,-1166C608.238,-1166 598.764,-1166 589.037,-1166"/>
<polygon fill="#000000" stroke="#000000" points="588.84,-1162.5 578.84,-1166 588.84,-1169.5 588.84,-1162.5"/>
</g>
<!-- CEN.KS\nNDC.KS -->
<g id="node37" class="node"><title>CEN.KS\nNDC.KS</title>
<path fill="#eeeeee" stroke="black" d="M528.717,-654C528.717,-654 486.717,-654 486.717,-654 480.717,-654 474.717,-648 474.717,-642 474.717,-642 474.717,-628 474.717,-628 474.717,-622 480.717,-616 486.717,-616 486.717,-616 528.717,-616 528.717,-616 534.717,-616 540.717,-622 540.717,-628 540.717,-628 540.717,-642 540.717,-642 540.717,-648 534.717,-654 528.717,-654"/>
<text text-anchor="middle" x="507.717" y="-638.8" font-family="Times,serif" font-size="14.00">CEN.KS</text>
<text text-anchor="middle" x="507.717" y="-623.8" font-family="Times,serif" font-size="14.00">NDC.KS</text>
</g>
<!-- CEN.KS\nNDC.KS&#45;&gt;CEN.Midwest\nNDC.Midwest -->
<g id="edge62" class="edge"><title>CEN.KS\nNDC.KS&#45;&gt;CEN.Midwest\nNDC.Midwest</title>
<path fill="none" stroke="#000000" d="M474.428,-627.869C461.377,-623.629 446.991,-617.046 436.664,-607 371.788,-543.887 343.255,-435.726 332.846,-384.091"/>
<polygon fill="#000000" stroke="#000000" points="336.28,-383.412 330.947,-374.257 329.407,-384.739 336.28,-383.412"/>
</g>
<!-- CEN.ND\nNDC.ND -->
<g id="node38" class="node"><title>CEN.ND\nNDC.ND</title>
<path fill="#eeeeee" stroke="black" d="M529.717,-598C529.717,-598 485.717,-598 485.717,-598 479.717,-598 473.717,-592 473.717,-586 473.717,-586 473.717,-572 473.717,-572 473.717,-566 479.717,-560 485.717,-560 485.717,-560 529.717,-560 529.717,-560 535.717,-560 541.717,-566 541.717,-572 541.717,-572 541.717,-586 541.717,-586 541.717,-592 535.717,-598 529.717,-598"/>
<text text-anchor="middle" x="507.717" y="-582.8" font-family="Times,serif" font-size="14.00">CEN.ND</text>
<text text-anchor="middle" x="507.717" y="-567.8" font-family="Times,serif" font-size="14.00">NDC.ND</text>
</g>
<!-- CEN.ND\nNDC.ND&#45;&gt;CEN.Midwest\nNDC.Midwest -->
<g id="edge25" class="edge"><title>CEN.ND\nNDC.ND&#45;&gt;CEN.Midwest\nNDC.Midwest</title>
<path fill="none" stroke="#000000" d="M473.481,-570.877C460.885,-566.553 447.083,-560.175 436.664,-551 383.905,-504.538 351.403,-426.079 336.835,-383.896"/>
<polygon fill="#000000" stroke="#000000" points="340.094,-382.607 333.596,-374.24 333.458,-384.834 340.094,-382.607"/>
</g>
<!-- CEN.NE\nNDC.NE -->
<g id="node39" class="node"><title>CEN.NE\nNDC.NE</title>
<path fill="#eeeeee" stroke="black" d="M529.217,-542C529.217,-542 486.217,-542 486.217,-542 480.217,-542 474.217,-536 474.217,-530 474.217,-530 474.217,-516 474.217,-516 474.217,-510 480.217,-504 486.217,-504 486.217,-504 529.217,-504 529.217,-504 535.217,-504 541.217,-510 541.217,-516 541.217,-516 541.217,-530 541.217,-530 541.217,-536 535.217,-542 529.217,-542"/>
<text text-anchor="middle" x="507.717" y="-526.8" font-family="Times,serif" font-size="14.00">CEN.NE</text>
<text text-anchor="middle" x="507.717" y="-511.8" font-family="Times,serif" font-size="14.00">NDC.NE</text>
</g>
<!-- CEN.NE\nNDC.NE&#45;&gt;CEN.Midwest\nNDC.Midwest -->
<g id="edge41" class="edge"><title>CEN.NE\nNDC.NE&#45;&gt;CEN.Midwest\nNDC.Midwest</title>
<path fill="none" stroke="#000000" d="M474.176,-514.023C461.675,-509.582 447.758,-503.347 436.664,-495 395.686,-464.167 361.946,-414.192 343.373,-383.036"/>
<polygon fill="#000000" stroke="#000000" points="346.391,-381.263 338.323,-374.396 340.347,-384.795 346.391,-381.263"/>
</g>
<!-- CEN.KY\nNDC.KY -->
<g id="node40" class="node"><title>CEN.KY\nNDC.KY</title>
<path fill="#eeeeee" stroke="black" d="M672.77,-1129C672.77,-1129 628.77,-1129 628.77,-1129 622.77,-1129 616.77,-1123 616.77,-1117 616.77,-1117 616.77,-1103 616.77,-1103 616.77,-1097 622.77,-1091 628.77,-1091 628.77,-1091 672.77,-1091 672.77,-1091 678.77,-1091 684.77,-1097 684.77,-1103 684.77,-1103 684.77,-1117 684.77,-1117 684.77,-1123 678.77,-1129 672.77,-1129"/>
<text text-anchor="middle" x="650.77" y="-1113.8" font-family="Times,serif" font-size="14.00">CEN.KY</text>
<text text-anchor="middle" x="650.77" y="-1098.8" font-family="Times,serif" font-size="14.00">NDC.KY</text>
</g>
<!-- CEN.KY\nNDC.KY&#45;&gt;NDC.Southeast -->
<g id="edge45" class="edge"><title>CEN.KY\nNDC.KY&#45;&gt;NDC.Southeast</title>
<path fill="none" stroke="#000000" d="M616.594,-1123.71C604.687,-1128.59 591.146,-1134.09 578.77,-1139 572.107,-1141.64 565.073,-1144.4 558.136,-1147.09"/>
<polygon fill="#000000" stroke="#000000" points="556.841,-1143.84 548.78,-1150.72 559.369,-1150.37 556.841,-1143.84"/>
</g>
<!-- CEN.MT\nNDC.MT -->
<g id="node41" class="node"><title>CEN.MT\nNDC.MT</title>
<path fill="#eeeeee" stroke="black" d="M673.77,-625C673.77,-625 627.77,-625 627.77,-625 621.77,-625 615.77,-619 615.77,-613 615.77,-613 615.77,-599 615.77,-599 615.77,-593 621.77,-587 627.77,-587 627.77,-587 673.77,-587 673.77,-587 679.77,-587 685.77,-593 685.77,-599 685.77,-599 685.77,-613 685.77,-613 685.77,-619 679.77,-625 673.77,-625"/>
<text text-anchor="middle" x="650.77" y="-609.8" font-family="Times,serif" font-size="14.00">CEN.MT</text>
<text text-anchor="middle" x="650.77" y="-594.8" font-family="Times,serif" font-size="14.00">NDC.MT</text>
</g>
<!-- CEN.MT\nNDC.MT&#45;&gt;NDC.West -->
<g id="edge14" class="edge"><title>CEN.MT\nNDC.MT&#45;&gt;NDC.West</title>
<path fill="none" stroke="#000000" d="M625.662,-625.269C622.011,-628.192 618.289,-631.175 614.77,-634 598.748,-646.862 596.569,-652.738 578.77,-663 571.942,-666.937 564.431,-670.52 556.941,-673.697"/>
<polygon fill="#000000" stroke="#000000" points="555.481,-670.512 547.517,-677.501 558.101,-677.004 555.481,-670.512"/>
</g>
<!-- CEN.NV\nNDC.NV -->
<g id="node42" class="node"><title>CEN.NV\nNDC.NV</title>
<path fill="#eeeeee" stroke="black" d="M672.77,-569C672.77,-569 628.77,-569 628.77,-569 622.77,-569 616.77,-563 616.77,-557 616.77,-557 616.77,-543 616.77,-543 616.77,-537 622.77,-531 628.77,-531 628.77,-531 672.77,-531 672.77,-531 678.77,-531 684.77,-537 684.77,-543 684.77,-543 684.77,-557 684.77,-557 684.77,-563 678.77,-569 672.77,-569"/>
<text text-anchor="middle" x="650.77" y="-553.8" font-family="Times,serif" font-size="14.00">CEN.NV</text>
<text text-anchor="middle" x="650.77" y="-538.8" font-family="Times,serif" font-size="14.00">NDC.NV</text>
</g>
<!-- CEN.NV\nNDC.NV&#45;&gt;NDC.West -->
<g id="edge11" class="edge"><title>CEN.NV\nNDC.NV&#45;&gt;NDC.West</title>
<path fill="none" stroke="#000000" d="M622.818,-569.188C619.886,-571.941 617.119,-574.899 614.77,-578 589.995,-610.702 608.251,-634.469 578.77,-663 573.861,-667.75 568.027,-671.687 561.851,-674.945"/>
<polygon fill="#000000" stroke="#000000" points="560.21,-671.848 552.627,-679.247 563.169,-678.192 560.21,-671.848"/>
</g>
<!-- CEN.PA\nNDC.PA -->
<g id="node43" class="node"><title>CEN.PA\nNDC.PA</title>
<path fill="#eeeeee" stroke="black" d="M671.77,-1633C671.77,-1633 629.77,-1633 629.77,-1633 623.77,-1633 617.77,-1627 617.77,-1621 617.77,-1621 617.77,-1607 617.77,-1607 617.77,-1601 623.77,-1595 629.77,-1595 629.77,-1595 671.77,-1595 671.77,-1595 677.77,-1595 683.77,-1601 683.77,-1607 683.77,-1607 683.77,-1621 683.77,-1621 683.77,-1627 677.77,-1633 671.77,-1633"/>
<text text-anchor="middle" x="650.77" y="-1617.8" font-family="Times,serif" font-size="14.00">CEN.PA</text>
<text text-anchor="middle" x="650.77" y="-1602.8" font-family="Times,serif" font-size="14.00">NDC.PA</text>
</g>
<!-- CEN.PA\nNDC.PA&#45;&gt;CEN.Northeast -->
<g id="edge6" class="edge"><title>CEN.PA\nNDC.PA&#45;&gt;CEN.Northeast</title>
<path fill="none" stroke="#000000" d="M624.934,-1633.16C621.456,-1636.05 617.977,-1639.05 614.77,-1642 584.447,-1669.89 552.265,-1704.71 531.412,-1728.06"/>
<polygon fill="#000000" stroke="#000000" points="528.553,-1726.01 524.53,-1735.81 533.787,-1730.66 528.553,-1726.01"/>
</g>
<!-- CEN.Midwest\nNDC.Midwest&#45;&gt;NDC.USA -->
<g id="edge58" class="edge"><title>CEN.Midwest\nNDC.Midwest&#45;&gt;NDC.USA</title>
<path fill="none" stroke="#000000" d="M321.143,-374.127C298.346,-467.815 198.467,-878.27 171.305,-989.893"/>
<polygon fill="#000000" stroke="#000000" points="167.872,-989.197 168.908,-999.741 174.674,-990.852 167.872,-989.197"/>
</g>
<!-- CEN.SD\nNDC.SD -->
<g id="node45" class="node"><title>CEN.SD\nNDC.SD</title>
<path fill="#eeeeee" stroke="black" d="M528.717,-486C528.717,-486 486.717,-486 486.717,-486 480.717,-486 474.717,-480 474.717,-474 474.717,-474 474.717,-460 474.717,-460 474.717,-454 480.717,-448 486.717,-448 486.717,-448 528.717,-448 528.717,-448 534.717,-448 540.717,-454 540.717,-460 540.717,-460 540.717,-474 540.717,-474 540.717,-480 534.717,-486 528.717,-486"/>
<text text-anchor="middle" x="507.717" y="-470.8" font-family="Times,serif" font-size="14.00">CEN.SD</text>
<text text-anchor="middle" x="507.717" y="-455.8" font-family="Times,serif" font-size="14.00">NDC.SD</text>
</g>
<!-- CEN.SD\nNDC.SD&#45;&gt;CEN.Midwest\nNDC.Midwest -->
<g id="edge64" class="edge"><title>CEN.SD\nNDC.SD&#45;&gt;CEN.Midwest\nNDC.Midwest</title>
<path fill="none" stroke="#000000" d="M474.466,-456.251C462.273,-451.64 448.494,-445.753 436.664,-439 407.618,-422.419 377.758,-398.828 356.674,-380.866"/>
<polygon fill="#000000" stroke="#000000" points="358.902,-378.165 349.043,-374.284 354.329,-383.466 358.902,-378.165"/>
</g>
<!-- CEN.WI\nNDC.WI -->
<g id="node46" class="node"><title>CEN.WI\nNDC.WI</title>
<path fill="#eeeeee" stroke="black" d="M529.217,-430C529.217,-430 486.217,-430 486.217,-430 480.217,-430 474.217,-424 474.217,-418 474.217,-418 474.217,-404 474.217,-404 474.217,-398 480.217,-392 486.217,-392 486.217,-392 529.217,-392 529.217,-392 535.217,-392 541.217,-398 541.217,-404 541.217,-404 541.217,-418 541.217,-418 541.217,-424 535.217,-430 529.217,-430"/>
<text text-anchor="middle" x="507.717" y="-414.8" font-family="Times,serif" font-size="14.00">CEN.WI</text>
<text text-anchor="middle" x="507.717" y="-399.8" font-family="Times,serif" font-size="14.00">NDC.WI</text>
</g>
<!-- CEN.WI\nNDC.WI&#45;&gt;CEN.Midwest\nNDC.Midwest -->
<g id="edge36" class="edge"><title>CEN.WI\nNDC.WI&#45;&gt;CEN.Midwest\nNDC.Midwest</title>
<path fill="none" stroke="#000000" d="M473.9,-400.729C449.156,-392.984 414.591,-382.165 385.292,-372.995"/>
<polygon fill="#000000" stroke="#000000" points="386.168,-369.602 375.579,-369.955 384.077,-376.283 386.168,-369.602"/>
</g>
<!-- CEN.IA\nNDC.IA -->
<g id="node47" class="node"><title>CEN.IA\nNDC.IA</title>
<path fill="#eeeeee" stroke="black" d="M527.217,-374C527.217,-374 488.217,-374 488.217,-374 482.217,-374 476.217,-368 476.217,-362 476.217,-362 476.217,-348 476.217,-348 476.217,-342 482.217,-336 488.217,-336 488.217,-336 527.217,-336 527.217,-336 533.217,-336 539.217,-342 539.217,-348 539.217,-348 539.217,-362 539.217,-362 539.217,-368 533.217,-374 527.217,-374"/>
<text text-anchor="middle" x="507.717" y="-358.8" font-family="Times,serif" font-size="14.00">CEN.IA</text>
<text text-anchor="middle" x="507.717" y="-343.8" font-family="Times,serif" font-size="14.00">NDC.IA</text>
</g>
<!-- CEN.IA\nNDC.IA&#45;&gt;CEN.Midwest\nNDC.Midwest -->
<g id="edge46" class="edge"><title>CEN.IA\nNDC.IA&#45;&gt;CEN.Midwest\nNDC.Midwest</title>
<path fill="none" stroke="#000000" d="M475.96,-355C451.292,-355 415.963,-355 385.99,-355"/>
<polygon fill="#000000" stroke="#000000" points="385.638,-351.5 375.638,-355 385.638,-358.5 385.638,-351.5"/>
</g>
<!-- CEN.RI\nNDC.RI -->
<g id="node48" class="node"><title>CEN.RI\nNDC.RI</title>
<path fill="#eeeeee" stroke="black" d="M669.77,-1577C669.77,-1577 631.77,-1577 631.77,-1577 625.77,-1577 619.77,-1571 619.77,-1565 619.77,-1565 619.77,-1551 619.77,-1551 619.77,-1545 625.77,-1539 631.77,-1539 631.77,-1539 669.77,-1539 669.77,-1539 675.77,-1539 681.77,-1545 681.77,-1551 681.77,-1551 681.77,-1565 681.77,-1565 681.77,-1571 675.77,-1577 669.77,-1577"/>
<text text-anchor="middle" x="650.77" y="-1561.8" font-family="Times,serif" font-size="14.00">CEN.RI</text>
<text text-anchor="middle" x="650.77" y="-1546.8" font-family="Times,serif" font-size="14.00">NDC.RI</text>
</g>
<!-- CEN.RI\nNDC.RI&#45;&gt;CEN.Northeast -->
<g id="edge10" class="edge"><title>CEN.RI\nNDC.RI&#45;&gt;CEN.Northeast</title>
<path fill="none" stroke="#000000" d="M623.654,-1577.26C620.512,-1580.04 617.467,-1582.98 614.77,-1586 574.841,-1630.66 540.279,-1692.04 522.179,-1726.91"/>
<polygon fill="#000000" stroke="#000000" points="518.964,-1725.5 517.519,-1736 525.194,-1728.7 518.964,-1725.5"/>
</g>
<!-- CEN.IL\nNDC.IL -->
<g id="node49" class="node"><title>CEN.IL\nNDC.IL</title>
<path fill="#eeeeee" stroke="black" d="M526.717,-318C526.717,-318 488.717,-318 488.717,-318 482.717,-318 476.717,-312 476.717,-306 476.717,-306 476.717,-292 476.717,-292 476.717,-286 482.717,-280 488.717,-280 488.717,-280 526.717,-280 526.717,-280 532.717,-280 538.717,-286 538.717,-292 538.717,-292 538.717,-306 538.717,-306 538.717,-312 532.717,-318 526.717,-318"/>
<text text-anchor="middle" x="507.717" y="-302.8" font-family="Times,serif" font-size="14.00">CEN.IL</text>
<text text-anchor="middle" x="507.717" y="-287.8" font-family="Times,serif" font-size="14.00">NDC.IL</text>
</g>
<!-- CEN.IL\nNDC.IL&#45;&gt;CEN.Midwest\nNDC.Midwest -->
<g id="edge43" class="edge"><title>CEN.IL\nNDC.IL&#45;&gt;CEN.Midwest\nNDC.Midwest</title>
<path fill="none" stroke="#000000" d="M476.366,-308.5C451.446,-316.299 415.45,-327.566 385.131,-337.055"/>
<polygon fill="#000000" stroke="#000000" points="384.006,-333.74 375.508,-340.067 386.097,-340.42 384.006,-333.74"/>
</g>
<!-- CEN.OR\nNDC.OR -->
<g id="node50" class="node"><title>CEN.OR\nNDC.OR</title>
<path fill="#eeeeee" stroke="black" d="M672.77,-513C672.77,-513 628.77,-513 628.77,-513 622.77,-513 616.77,-507 616.77,-501 616.77,-501 616.77,-487 616.77,-487 616.77,-481 622.77,-475 628.77,-475 628.77,-475 672.77,-475 672.77,-475 678.77,-475 684.77,-481 684.77,-487 684.77,-487 684.77,-501 684.77,-501 684.77,-507 678.77,-513 672.77,-513"/>
<text text-anchor="middle" x="650.77" y="-497.8" font-family="Times,serif" font-size="14.00">CEN.OR</text>
<text text-anchor="middle" x="650.77" y="-482.8" font-family="Times,serif" font-size="14.00">NDC.OR</text>
</g>
<!-- CEN.OR\nNDC.OR&#45;&gt;NDC.West -->
<g id="edge28" class="edge"><title>CEN.OR\nNDC.OR&#45;&gt;NDC.West</title>
<path fill="none" stroke="#000000" d="M622.01,-513.2C619.291,-515.916 616.795,-518.861 614.77,-522 579.704,-576.346 621.729,-614.651 578.77,-663 574.452,-667.86 569.157,-671.85 563.431,-675.127"/>
<polygon fill="#000000" stroke="#000000" points="561.57,-672.142 554.155,-679.709 564.671,-678.418 561.57,-672.142"/>
</g>
<!-- CEN.VT\nNDC.VT -->
<g id="node51" class="node"><title>CEN.VT\nNDC.VT</title>
<path fill="#eeeeee" stroke="black" d="M672.27,-2025C672.27,-2025 629.27,-2025 629.27,-2025 623.27,-2025 617.27,-2019 617.27,-2013 617.27,-2013 617.27,-1999 617.27,-1999 617.27,-1993 623.27,-1987 629.27,-1987 629.27,-1987 672.27,-1987 672.27,-1987 678.27,-1987 684.27,-1993 684.27,-1999 684.27,-1999 684.27,-2013 684.27,-2013 684.27,-2019 678.27,-2025 672.27,-2025"/>
<text text-anchor="middle" x="650.77" y="-2009.8" font-family="Times,serif" font-size="14.00">CEN.VT</text>
<text text-anchor="middle" x="650.77" y="-1994.8" font-family="Times,serif" font-size="14.00">NDC.VT</text>
</g>
<!-- CEN.VT\nNDC.VT&#45;&gt;CEN.Northeast -->
<g id="edge48" class="edge"><title>CEN.VT\nNDC.VT&#45;&gt;CEN.Northeast</title>
<path fill="none" stroke="#000000" d="M622.942,-1986.72C619.989,-1983.98 617.183,-1981.05 614.77,-1978 565.372,-1915.54 531.968,-1826.31 517.251,-1781.66"/>
<polygon fill="#000000" stroke="#000000" points="520.559,-1780.52 514.153,-1772.08 513.898,-1782.67 520.559,-1780.52"/>
</g>
<!-- CEN.OK\nNDC.OK -->
<g id="node52" class="node"><title>CEN.OK\nNDC.OK</title>
<path fill="#eeeeee" stroke="black" d="M529.717,-1130C529.717,-1130 485.717,-1130 485.717,-1130 479.717,-1130 473.717,-1124 473.717,-1118 473.717,-1118 473.717,-1104 473.717,-1104 473.717,-1098 479.717,-1092 485.717,-1092 485.717,-1092 529.717,-1092 529.717,-1092 535.717,-1092 541.717,-1098 541.717,-1104 541.717,-1104 541.717,-1118 541.717,-1118 541.717,-1124 535.717,-1130 529.717,-1130"/>
<text text-anchor="middle" x="507.717" y="-1114.8" font-family="Times,serif" font-size="14.00">CEN.OK</text>
<text text-anchor="middle" x="507.717" y="-1099.8" font-family="Times,serif" font-size="14.00">NDC.OK</text>
</g>
<!-- CEN.OK\nNDC.OK&#45;&gt;CEN.South -->
<g id="edge31" class="edge"><title>CEN.OK\nNDC.OK&#45;&gt;CEN.South</title>
<path fill="none" stroke="#000000" d="M473.483,-1121.22C446.126,-1129.63 406.972,-1141.66 376.143,-1151.14"/>
<polygon fill="#000000" stroke="#000000" points="374.982,-1147.83 366.452,-1154.12 377.039,-1154.52 374.982,-1147.83"/>
</g>
<!-- CEN.OK\nNDC.OK&#45;&gt;NDC.Southwest -->
<g id="edge30" class="edge"><title>CEN.OK\nNDC.OK&#45;&gt;NDC.Southwest</title>
<path fill="none" stroke="#000000" d="M473.46,-1098.95C461.662,-1094.35 448.405,-1088.81 436.664,-1083 411.629,-1070.62 384.669,-1054.55 363.841,-1041.48"/>
<polygon fill="#000000" stroke="#000000" points="365.635,-1038.47 355.313,-1036.08 361.892,-1044.39 365.635,-1038.47"/>
</g>
<!-- CEN.WV\nNDC.WV -->
<g id="node53" class="node"><title>CEN.WV\nNDC.WV</title>
<path fill="#eeeeee" stroke="black" d="M674.77,-1073C674.77,-1073 626.77,-1073 626.77,-1073 620.77,-1073 614.77,-1067 614.77,-1061 614.77,-1061 614.77,-1047 614.77,-1047 614.77,-1041 620.77,-1035 626.77,-1035 626.77,-1035 674.77,-1035 674.77,-1035 680.77,-1035 686.77,-1041 686.77,-1047 686.77,-1047 686.77,-1061 686.77,-1061 686.77,-1067 680.77,-1073 674.77,-1073"/>
<text text-anchor="middle" x="650.77" y="-1057.8" font-family="Times,serif" font-size="14.00">CEN.WV</text>
<text text-anchor="middle" x="650.77" y="-1042.8" font-family="Times,serif" font-size="14.00">NDC.WV</text>
</g>
<!-- CEN.WV\nNDC.WV&#45;&gt;NDC.Southeast -->
<g id="edge34" class="edge"><title>CEN.WV\nNDC.WV&#45;&gt;NDC.Southeast</title>
<path fill="none" stroke="#000000" d="M623.654,-1073.26C620.513,-1076.04 617.467,-1078.98 614.77,-1082 594.795,-1104.33 601.923,-1119.98 578.77,-1139 574.552,-1142.46 569.84,-1145.52 564.908,-1148.2"/>
<polygon fill="#000000" stroke="#000000" points="563.289,-1145.1 555.852,-1152.64 566.372,-1151.38 563.289,-1145.1"/>
</g>
<!-- CEN.CO\nNDC.CO -->
<g id="node54" class="node"><title>CEN.CO\nNDC.CO</title>
<path fill="#eeeeee" stroke="black" d="M672.77,-457C672.77,-457 628.77,-457 628.77,-457 622.77,-457 616.77,-451 616.77,-445 616.77,-445 616.77,-431 616.77,-431 616.77,-425 622.77,-419 628.77,-419 628.77,-419 672.77,-419 672.77,-419 678.77,-419 684.77,-425 684.77,-431 684.77,-431 684.77,-445 684.77,-445 684.77,-451 678.77,-457 672.77,-457"/>
<text text-anchor="middle" x="650.77" y="-441.8" font-family="Times,serif" font-size="14.00">CEN.CO</text>
<text text-anchor="middle" x="650.77" y="-426.8" font-family="Times,serif" font-size="14.00">NDC.CO</text>
</g>
<!-- CEN.CO\nNDC.CO&#45;&gt;NDC.West -->
<g id="edge26" class="edge"><title>CEN.CO\nNDC.CO&#45;&gt;NDC.West</title>
<path fill="none" stroke="#000000" d="M621.793,-457.065C619.113,-459.805 616.685,-462.793 614.77,-466 569.131,-542.414 635.551,-594.459 578.77,-663 574.623,-668.006 569.432,-672.086 563.763,-675.412"/>
<polygon fill="#000000" stroke="#000000" points="561.908,-672.426 554.541,-680.04 565.048,-678.683 561.908,-672.426"/>
</g>
<!-- CEN.MO\nNDC.MO -->
<g id="node55" class="node"><title>CEN.MO\nNDC.MO</title>
<path fill="#eeeeee" stroke="black" d="M531.217,-94C531.217,-94 484.217,-94 484.217,-94 478.217,-94 472.217,-88 472.217,-82 472.217,-82 472.217,-68 472.217,-68 472.217,-62 478.217,-56 484.217,-56 484.217,-56 531.217,-56 531.217,-56 537.217,-56 543.217,-62 543.217,-68 543.217,-68 543.217,-82 543.217,-82 543.217,-88 537.217,-94 531.217,-94"/>
<text text-anchor="middle" x="507.717" y="-78.8" font-family="Times,serif" font-size="14.00">CEN.MO</text>
<text text-anchor="middle" x="507.717" y="-63.8" font-family="Times,serif" font-size="14.00">NDC.MO</text>
</g>
<!-- CEN.MO\nNDC.MO&#45;&gt;CEN.Midwest\nNDC.Midwest -->
<g id="edge19" class="edge"><title>CEN.MO\nNDC.MO&#45;&gt;CEN.Midwest\nNDC.Midwest</title>
<path fill="none" stroke="#000000" d="M471.921,-82.9692C459.563,-87.2232 446.334,-93.5932 436.664,-103 371.788,-166.113 343.255,-274.274 332.846,-325.909"/>
<polygon fill="#000000" stroke="#000000" points="329.407,-325.261 330.947,-335.743 336.28,-326.588 329.407,-325.261"/>
</g>
<!-- CEN.NH\nNDC.NH -->
<g id="node56" class="node"><title>CEN.NH\nNDC.NH</title>
<path fill="#eeeeee" stroke="black" d="M672.77,-1969C672.77,-1969 628.77,-1969 628.77,-1969 622.77,-1969 616.77,-1963 616.77,-1957 616.77,-1957 616.77,-1943 616.77,-1943 616.77,-1937 622.77,-1931 628.77,-1931 628.77,-1931 672.77,-1931 672.77,-1931 678.77,-1931 684.77,-1937 684.77,-1943 684.77,-1943 684.77,-1957 684.77,-1957 684.77,-1963 678.77,-1969 672.77,-1969"/>
<text text-anchor="middle" x="650.77" y="-1953.8" font-family="Times,serif" font-size="14.00">CEN.NH</text>
<text text-anchor="middle" x="650.77" y="-1938.8" font-family="Times,serif" font-size="14.00">NDC.NH</text>
</g>
<!-- CEN.NH\nNDC.NH&#45;&gt;CEN.Northeast -->
<g id="edge52" class="edge"><title>CEN.NH\nNDC.NH&#45;&gt;CEN.Northeast</title>
<path fill="none" stroke="#000000" d="M623.654,-1930.74C620.512,-1927.96 617.467,-1925.02 614.77,-1922 574.841,-1877.34 540.279,-1815.96 522.179,-1781.09"/>
<polygon fill="#000000" stroke="#000000" points="525.194,-1779.3 517.519,-1772 518.964,-1782.5 525.194,-1779.3"/>
</g>
<!-- CEN.LA\nNDC.LA -->
<g id="node57" class="node"><title>CEN.LA\nNDC.LA</title>
<path fill="#eeeeee" stroke="black" d="M672.27,-1017C672.27,-1017 629.27,-1017 629.27,-1017 623.27,-1017 617.27,-1011 617.27,-1005 617.27,-1005 617.27,-991 617.27,-991 617.27,-985 623.27,-979 629.27,-979 629.27,-979 672.27,-979 672.27,-979 678.27,-979 684.27,-985 684.27,-991 684.27,-991 684.27,-1005 684.27,-1005 684.27,-1011 678.27,-1017 672.27,-1017"/>
<text text-anchor="middle" x="650.77" y="-1001.8" font-family="Times,serif" font-size="14.00">CEN.LA</text>
<text text-anchor="middle" x="650.77" y="-986.8" font-family="Times,serif" font-size="14.00">NDC.LA</text>
</g>
<!-- CEN.LA\nNDC.LA&#45;&gt;NDC.Southeast -->
<g id="edge32" class="edge"><title>CEN.LA\nNDC.LA&#45;&gt;NDC.Southeast</title>
<path fill="none" stroke="#000000" d="M622.19,-1017.32C619.439,-1020.01 616.886,-1022.92 614.77,-1026 584.911,-1069.44 614.917,-1100.64 578.77,-1139 575.426,-1142.55 571.564,-1145.64 567.406,-1148.32"/>
<polygon fill="#000000" stroke="#000000" points="565.546,-1145.35 558.528,-1153.29 568.964,-1151.46 565.546,-1145.35"/>
</g>
<!-- CEN.ME\nNDC.ME -->
<g id="node58" class="node"><title>CEN.ME\nNDC.ME</title>
<path fill="#eeeeee" stroke="black" d="M673.77,-1913C673.77,-1913 627.77,-1913 627.77,-1913 621.77,-1913 615.77,-1907 615.77,-1901 615.77,-1901 615.77,-1887 615.77,-1887 615.77,-1881 621.77,-1875 627.77,-1875 627.77,-1875 673.77,-1875 673.77,-1875 679.77,-1875 685.77,-1881 685.77,-1887 685.77,-1887 685.77,-1901 685.77,-1901 685.77,-1907 679.77,-1913 673.77,-1913"/>
<text text-anchor="middle" x="650.77" y="-1897.8" font-family="Times,serif" font-size="14.00">CEN.ME</text>
<text text-anchor="middle" x="650.77" y="-1882.8" font-family="Times,serif" font-size="14.00">NDC.ME</text>
</g>
<!-- CEN.ME\nNDC.ME&#45;&gt;CEN.Northeast -->
<g id="edge20" class="edge"><title>CEN.ME\nNDC.ME&#45;&gt;CEN.Northeast</title>
<path fill="none" stroke="#000000" d="M624.934,-1874.84C621.456,-1871.95 617.977,-1868.95 614.77,-1866 584.447,-1838.11 552.265,-1803.29 531.412,-1779.94"/>
<polygon fill="#000000" stroke="#000000" points="533.787,-1777.34 524.53,-1772.19 528.553,-1781.99 533.787,-1777.34"/>
</g>
<!-- CEN.AL\nNDC.AL -->
<g id="node59" class="node"><title>CEN.AL\nNDC.AL</title>
<path fill="#eeeeee" stroke="black" d="M672.27,-961C672.27,-961 629.27,-961 629.27,-961 623.27,-961 617.27,-955 617.27,-949 617.27,-949 617.27,-935 617.27,-935 617.27,-929 623.27,-923 629.27,-923 629.27,-923 672.27,-923 672.27,-923 678.27,-923 684.27,-929 684.27,-935 684.27,-935 684.27,-949 684.27,-949 684.27,-955 678.27,-961 672.27,-961"/>
<text text-anchor="middle" x="650.77" y="-945.8" font-family="Times,serif" font-size="14.00">CEN.AL</text>
<text text-anchor="middle" x="650.77" y="-930.8" font-family="Times,serif" font-size="14.00">NDC.AL</text>
</g>
<!-- CEN.AL\nNDC.AL&#45;&gt;NDC.Southeast -->
<g id="edge68" class="edge"><title>CEN.AL\nNDC.AL&#45;&gt;NDC.Southeast</title>
<path fill="none" stroke="#000000" d="M621.885,-961.121C619.188,-963.851 616.732,-966.821 614.77,-970 574.435,-1035.35 628.618,-1080.58 578.77,-1139 575.737,-1142.55 572.181,-1145.64 568.306,-1148.32"/>
<polygon fill="#000000" stroke="#000000" points="566.235,-1145.48 559.396,-1153.57 569.789,-1151.51 566.235,-1145.48"/>
</g>
<!-- CEN.WY\nNDC.WY -->
<g id="node60" class="node"><title>CEN.WY\nNDC.WY</title>
<path fill="#eeeeee" stroke="black" d="M674.77,-401C674.77,-401 626.77,-401 626.77,-401 620.77,-401 614.77,-395 614.77,-389 614.77,-389 614.77,-375 614.77,-375 614.77,-369 620.77,-363 626.77,-363 626.77,-363 674.77,-363 674.77,-363 680.77,-363 686.77,-369 686.77,-375 686.77,-375 686.77,-389 686.77,-389 686.77,-395 680.77,-401 674.77,-401"/>
<text text-anchor="middle" x="650.77" y="-385.8" font-family="Times,serif" font-size="14.00">CEN.WY</text>
<text text-anchor="middle" x="650.77" y="-370.8" font-family="Times,serif" font-size="14.00">NDC.WY</text>
</g>
<!-- CEN.WY\nNDC.WY&#45;&gt;NDC.West -->
<g id="edge47" class="edge"><title>CEN.WY\nNDC.WY&#45;&gt;NDC.West</title>
<path fill="none" stroke="#000000" d="M621.336,-401.337C618.811,-403.996 616.544,-406.891 614.77,-410 558.464,-508.638 649.489,-574.126 578.77,-663 574.775,-668.02 569.727,-672.107 564.179,-675.436"/>
<polygon fill="#000000" stroke="#000000" points="562.436,-672.396 555.127,-680.066 565.623,-678.628 562.436,-672.396"/>
</g>
<!-- CEN.FL\nNDC.FL -->
<g id="node61" class="node"><title>CEN.FL\nNDC.FL</title>
<path fill="#eeeeee" stroke="black" d="M671.27,-905C671.27,-905 630.27,-905 630.27,-905 624.27,-905 618.27,-899 618.27,-893 618.27,-893 618.27,-879 618.27,-879 618.27,-873 624.27,-867 630.27,-867 630.27,-867 671.27,-867 671.27,-867 677.27,-867 683.27,-873 683.27,-879 683.27,-879 683.27,-893 683.27,-893 683.27,-899 677.27,-905 671.27,-905"/>
<text text-anchor="middle" x="650.77" y="-889.8" font-family="Times,serif" font-size="14.00">CEN.FL</text>
<text text-anchor="middle" x="650.77" y="-874.8" font-family="Times,serif" font-size="14.00">NDC.FL</text>
</g>
<!-- CEN.FL\nNDC.FL&#45;&gt;NDC.Southeast -->
<g id="edge12" class="edge"><title>CEN.FL\nNDC.FL&#45;&gt;NDC.Southeast</title>
<path fill="none" stroke="#000000" d="M621.722,-905.024C619.055,-907.771 616.649,-910.772 614.77,-914 563.805,-1001.51 642.511,-1060.3 578.77,-1139 575.877,-1142.57 572.451,-1145.67 568.695,-1148.36"/>
<polygon fill="#000000" stroke="#000000" points="566.758,-1145.44 560.022,-1153.62 570.388,-1151.43 566.758,-1145.44"/>
</g>
<!-- Legend -->
<g id="node62" class="node"><title>Legend</title>
<path fill="white" stroke="black" d="M790.77,-482C790.77,-482 734.77,-482 734.77,-482 728.77,-482 722.77,-476 722.77,-470 722.77,-470 722.77,-294 722.77,-294 722.77,-288 728.77,-282 734.77,-282 734.77,-282 790.77,-282 790.77,-282 796.77,-282 802.77,-288 802.77,-294 802.77,-294 802.77,-470 802.77,-470 802.77,-476 796.77,-482 790.77,-482"/>
<polygon fill="none" stroke="black" points="722.77,-457 722.77,-482 802.77,-482 802.77,-457 722.77,-457"/>
<text text-anchor="start" x="739.77" y="-465.8" font-family="Arial Black" font-size="14.00"> Nodes</text>
<polygon fill="#ccffcc" stroke="none" points="722.77,-432 722.77,-457 778.77,-457 778.77,-432 722.77,-432"/>
<polygon fill="none" stroke="black" points="722.77,-432 722.77,-457 778.77,-457 778.77,-432 722.77,-432"/>
<text text-anchor="start" x="736.77" y="-440.8" font-family="Times,serif" font-size="14.00">CEN</text>
<polygon fill="none" stroke="black" points="778.77,-432 778.77,-457 802.77,-457 802.77,-432 778.77,-432"/>
<text text-anchor="start" x="787.27" y="-440.8" font-family="Times,serif" font-size="14.00">7</text>
<polygon fill="#ffffcc" stroke="none" points="722.77,-407 722.77,-432 778.77,-432 778.77,-407 722.77,-407"/>
<polygon fill="none" stroke="black" points="722.77,-407 722.77,-432 778.77,-432 778.77,-407 722.77,-407"/>
<text text-anchor="start" x="736.27" y="-415.8" font-family="Times,serif" font-size="14.00">NDC</text>
<polygon fill="none" stroke="black" points="778.77,-407 778.77,-432 802.77,-432 802.77,-407 778.77,-407"/>
<text text-anchor="start" x="787.27" y="-415.8" font-family="Times,serif" font-size="14.00">5</text>
<polygon fill="#eeeeee" stroke="none" points="722.77,-382 722.77,-407 778.77,-407 778.77,-382 722.77,-382"/>
<polygon fill="none" stroke="black" points="722.77,-382 722.77,-407 778.77,-407 778.77,-382 722.77,-382"/>
<text text-anchor="start" x="735.27" y="-390.8" font-family="Times,serif" font-size="14.00">comb</text>
<polygon fill="none" stroke="black" points="778.77,-382 778.77,-407 802.77,-407 802.77,-382 778.77,-382"/>
<text text-anchor="start" x="783.77" y="-390.8" font-family="Times,serif" font-size="14.00">49</text>
<polygon fill="none" stroke="black" points="722.77,-357 722.77,-382 802.77,-382 802.77,-357 722.77,-357"/>
<text text-anchor="start" x="738.27" y="-365.8" font-family="Arial Black" font-size="14.00"> Edges </text>
<polygon fill="none" stroke="black" points="722.77,-332 722.77,-357 778.77,-357 778.77,-332 722.77,-332"/>
<text text-anchor="start" x="727.77" y="-340.8" font-family="Times,serif" font-size="14.00" fill="#0000ff">overlaps</text>
<polygon fill="none" stroke="black" points="778.77,-332 778.77,-357 802.77,-357 802.77,-332 778.77,-332"/>
<text text-anchor="start" x="787.27" y="-340.8" font-family="Times,serif" font-size="14.00">5</text>
<polygon fill="none" stroke="black" points="722.77,-307 722.77,-332 778.77,-332 778.77,-307 722.77,-307"/>
<text text-anchor="start" x="736.77" y="-315.8" font-family="Times,serif" font-size="14.00" fill="#000000">input</text>
<polygon fill="none" stroke="black" points="778.77,-307 778.77,-332 802.77,-332 802.77,-307 778.77,-307"/>
<text text-anchor="start" x="783.77" y="-315.8" font-family="Times,serif" font-size="14.00">64</text>
<polygon fill="none" stroke="black" points="722.77,-282 722.77,-307 778.77,-307 778.77,-282 722.77,-282"/>
<text text-anchor="start" x="729.27" y="-290.8" font-family="Times,serif" font-size="14.00" fill="#ff0000">inferred</text>
<polygon fill="none" stroke="black" points="778.77,-282 778.77,-307 802.77,-307 802.77,-282 778.77,-282"/>
<text text-anchor="start" x="787.27" y="-290.8" font-family="Times,serif" font-size="14.00">4</text>
</g>
</g>
</svg>
