<?xml version="1.0" encoding="UTF-8" standalone="no"?>
<!DOCTYPE svg PUBLIC "-//W3C//DTD SVG 1.1//EN"
 "http://www.w3.org/Graphics/SVG/1.1/DTD/svg11.dtd">
<!-- Generated by graphviz version 2.38.0 (20140413.2041)
 -->
<!-- Title: %3 Pages: 1 -->
<svg width="635pt" height="857pt"
 viewBox="0.00 0.00 634.82 857.02" xmlns="http://www.w3.org/2000/svg" xmlns:xlink="http://www.w3.org/1999/xlink">
<g id="graph0" class="graph" transform="scale(1 1) rotate(0) translate(4 853.016)">
<title>%3</title>
<polygon fill="white" stroke="none" points="-4,4 -4,-853.016 630.815,-853.016 630.815,4 -4,4"/>
<!-- CEN.Midwest -->
<g id="node1" class="node"><title>CEN.Midwest</title>
<polygon fill="#ffffcc" stroke="black" points="482.013,-300.56 482.013,-315.472 442.962,-326.016 387.736,-326.016 348.685,-315.472 348.685,-300.56 387.736,-290.016 442.962,-290.016 482.013,-300.56"/>
<text text-anchor="middle" x="415.349" y="-304.316" font-family="Times,serif" font-size="14.00">CEN.Midwest</text>
</g>
<!-- CEN.USA -->
<g id="node2" class="node"><title>CEN.USA</title>
<polygon fill="#ffffcc" stroke="black" points="626.874,-300.56 626.874,-315.472 596.344,-326.016 553.169,-326.016 522.64,-315.472 522.64,-300.56 553.169,-290.016 596.344,-290.016 626.874,-300.56"/>
<text text-anchor="middle" x="574.757" y="-304.316" font-family="Times,serif" font-size="14.00">CEN.USA</text>
</g>
<!-- CEN.Midwest&#45;&gt;CEN.USA -->
<g id="edge2" class="edge"><title>CEN.Midwest&#45;&gt;CEN.USA</title>
<path fill="none" stroke="#000000" d="M482.192,-308.016C492.196,-308.016 502.486,-308.016 512.389,-308.016"/>
<polygon fill="#000000" stroke="#000000" points="512.542,-311.516 522.542,-308.016 512.542,-304.516 512.542,-311.516"/>
</g>
<!-- CEN.West -->
<g id="node3" class="node"><title>CEN.West</title>
<polygon fill="#ffffcc" stroke="black" points="468.78,-207.56 468.78,-222.472 437.481,-233.016 393.217,-233.016 361.918,-222.472 361.918,-207.56 393.217,-197.016 437.481,-197.016 468.78,-207.56"/>
<text text-anchor="middle" x="415.349" y="-211.316" font-family="Times,serif" font-size="14.00">CEN.West</text>
</g>
<!-- CEN.West&#45;&gt;CEN.USA -->
<g id="edge3" class="edge"><title>CEN.West&#45;&gt;CEN.USA</title>
<path fill="none" stroke="#000000" d="M461.589,-225.125C475.953,-229.423 491.518,-235.275 504.699,-243.016 522.382,-253.401 539.206,-269.068 551.82,-282.418"/>
<polygon fill="#000000" stroke="#000000" points="549.395,-284.952 558.736,-289.953 554.553,-280.219 549.395,-284.952"/>
</g>
<!-- CEN.Northeast -->
<g id="node4" class="node"><title>CEN.Northeast</title>
<polygon fill="#ffffcc" stroke="black" points="485.548,-499.56 485.548,-514.472 444.427,-525.016 386.272,-525.016 345.15,-514.472 345.15,-499.56 386.272,-489.016 444.427,-489.016 485.548,-499.56"/>
<text text-anchor="middle" x="415.349" y="-503.316" font-family="Times,serif" font-size="14.00">CEN.Northeast</text>
</g>
<!-- CEN.Northeast&#45;&gt;CEN.USA -->
<g id="edge1" class="edge"><title>CEN.Northeast&#45;&gt;CEN.USA</title>
<path fill="none" stroke="#000000" d="M430.596,-489.005C458.562,-453.649 520.736,-375.046 553.17,-334.042"/>
<polygon fill="#000000" stroke="#000000" points="555.97,-336.144 559.429,-326.13 550.48,-331.801 555.97,-336.144"/>
</g>
<!-- CEN.South -->
<g id="node5" class="node"><title>CEN.South</title>
<polygon fill="#ffffcc" stroke="black" points="471.001,-346.56 471.001,-361.472 438.401,-372.016 392.297,-372.016 359.697,-361.472 359.697,-346.56 392.297,-336.016 438.401,-336.016 471.001,-346.56"/>
<text text-anchor="middle" x="415.349" y="-350.316" font-family="Times,serif" font-size="14.00">CEN.South</text>
</g>
<!-- CEN.South&#45;&gt;CEN.USA -->
<g id="edge4" class="edge"><title>CEN.South&#45;&gt;CEN.USA</title>
<path fill="none" stroke="#000000" d="M457.295,-342.05C477.913,-336.025 503.061,-328.676 524.704,-322.351"/>
<polygon fill="#000000" stroke="#000000" points="525.757,-325.69 534.373,-319.525 523.793,-318.971 525.757,-325.69"/>
</g>
<!-- TZ.Eastern -->
<g id="node6" class="node"><title>TZ.Eastern</title>
<polygon fill="#ccffcc" stroke="black" points="285.5,-550.016 208.5,-550.016 208.5,-514.016 285.5,-514.016 285.5,-550.016"/>
<text text-anchor="middle" x="247" y="-528.316" font-family="Times,serif" font-size="14.00">TZ.Eastern</text>
</g>
<!-- TZ.Eastern&#45;&gt;CEN.Midwest -->
<g id="edge25" class="edge"><title>TZ.Eastern&#45;&gt;CEN.Midwest</title>
<path fill="none" stroke="#aa00ff" stroke-width="3" stroke-dasharray="1,5" d="M285.296,-513.922C300.729,-504.493 317.262,-491.46 327,-475.016 360.088,-419.139 303.486,-379.953 345,-330.016 346.731,-327.934 348.658,-326.046 350.737,-324.335"/>
<polygon fill="#aa00ff" stroke="#aa00ff" stroke-width="3" points="353.019,-327.021 359.41,-318.571 349.144,-321.191 353.019,-327.021"/>
<text text-anchor="middle" x="318.5" y="-498.816" font-family="Times,serif" font-size="14.00">!</text>
</g>
<!-- TZ.Eastern&#45;&gt;CEN.USA -->
<g id="edge17" class="edge"><title>TZ.Eastern&#45;&gt;CEN.USA</title>
<path fill="none" stroke="#aa00ff" stroke-width="3" stroke-dasharray="1,5" d="M259.17,-550.248C269.97,-565.962 287.922,-587.564 310,-597.016 369.894,-622.658 316.026,-704.771 485.699,-534.016 541.184,-478.177 562.591,-383.378 570.103,-336.293"/>
<polygon fill="#aa00ff" stroke="#aa00ff" stroke-width="3" points="573.595,-336.608 571.615,-326.2 566.672,-335.571 573.595,-336.608"/>
<text text-anchor="middle" x="415.349" y="-642.816" font-family="Times,serif" font-size="14.00">&lt;</text>
</g>
<!-- TZ.Eastern&#45;&gt;CEN.West -->
<g id="edge10" class="edge"><title>TZ.Eastern&#45;&gt;CEN.West</title>
<path fill="none" stroke="#aa00ff" stroke-width="3" stroke-dasharray="1,5" d="M263.239,-513.608C281.796,-490.059 312.46,-447.245 327,-405.016 339.224,-369.514 321.24,-266.089 345,-237.016 347.788,-233.605 351.103,-230.715 354.75,-228.268"/>
<polygon fill="#aa00ff" stroke="#aa00ff" stroke-width="3" points="356.684,-231.199 363.771,-223.323 353.319,-225.061 356.684,-231.199"/>
<text text-anchor="middle" x="318.5" y="-445.816" font-family="Times,serif" font-size="14.00">!</text>
</g>
<!-- TZ.Eastern&#45;&gt;CEN.Northeast -->
<g id="edge29" class="edge"><title>TZ.Eastern&#45;&gt;CEN.Northeast</title>
<path fill="none" stroke="#aa00ff" stroke-width="3" stroke-dasharray="1,5" d="M263.232,-550.084C278.581,-565.96 303.321,-585.333 327,-577.016 352.053,-568.216 375.247,-548.867 391.429,-532.738"/>
<polygon fill="#aa00ff" stroke="#aa00ff" stroke-width="3" points="394.345,-534.758 398.787,-525.139 389.316,-529.889 394.345,-534.758"/>
<text text-anchor="middle" x="318.5" y="-581.816" font-family="Times,serif" font-size="14.00">&gt;</text>
</g>
<!-- TZ.Eastern&#45;&gt;CEN.South -->
<g id="edge21" class="edge"><title>TZ.Eastern&#45;&gt;CEN.South</title>
<path fill="none" stroke="#aa00ff" stroke-width="3" stroke-dasharray="1,5" d="M285.51,-537.18C299.718,-537.204 315.278,-534.686 327,-526.016 344.651,-512.961 335.687,-499.897 345,-480.016 361.414,-444.975 383.368,-406.186 398.14,-381.027"/>
<polygon fill="#aa00ff" stroke="#aa00ff" stroke-width="3" points="401.16,-382.797 403.234,-372.407 395.134,-379.235 401.16,-382.797"/>
<text text-anchor="middle" x="318.5" y="-536.816" font-family="Times,serif" font-size="14.00">&gt;&lt;</text>
</g>
<!-- TZ.Pacific -->
<g id="node7" class="node"><title>TZ.Pacific</title>
<polygon fill="#ccffcc" stroke="black" points="284,-792.016 210,-792.016 210,-756.016 284,-756.016 284,-792.016"/>
<text text-anchor="middle" x="247" y="-770.316" font-family="Times,serif" font-size="14.00">TZ.Pacific</text>
</g>
<!-- TZ.Pacific&#45;&gt;CEN.Midwest -->
<g id="edge20" class="edge"><title>TZ.Pacific&#45;&gt;CEN.Midwest</title>
<path fill="none" stroke="#aa00ff" stroke-width="3" stroke-dasharray="1,5" d="M284.248,-757.242C300.27,-747.819 317.581,-734.418 327,-717.016 347.491,-679.159 318.776,-364.153 345,-330.016 346.65,-327.869 348.509,-325.927 350.532,-324.171"/>
<polygon fill="#aa00ff" stroke="#aa00ff" stroke-width="3" points="352.814,-326.848 359.045,-318.279 348.83,-321.092 352.814,-326.848"/>
<text text-anchor="middle" x="318.5" y="-740.816" font-family="Times,serif" font-size="14.00">!</text>
</g>
<!-- TZ.Pacific&#45;&gt;CEN.USA -->
<g id="edge18" class="edge"><title>TZ.Pacific&#45;&gt;CEN.USA</title>
<path fill="none" stroke="#aa00ff" stroke-width="3" stroke-dasharray="1,5" d="M256.614,-792.097C269.861,-817.164 296.882,-857.91 327,-844.016 425.674,-798.497 435.864,-754.583 485.699,-658.016 542.759,-547.448 564.281,-397.819 571.066,-336.256"/>
<polygon fill="#aa00ff" stroke="#aa00ff" stroke-width="3" points="574.564,-336.459 572.133,-326.147 567.602,-335.725 574.564,-336.459"/>
<text text-anchor="middle" x="415.349" y="-837.816" font-family="Times,serif" font-size="14.00">&lt;</text>
</g>
<!-- TZ.Pacific&#45;&gt;CEN.West -->
<g id="edge19" class="edge"><title>TZ.Pacific&#45;&gt;CEN.West</title>
<path fill="none" stroke="#aa00ff" stroke-width="3" stroke-dasharray="1,5" d="M258.788,-755.96C276.763,-724.805 312.316,-658.379 327,-597.016 336.321,-558.066 320.547,-268.734 345,-237.016 347.69,-233.527 350.933,-230.581 354.531,-228.094"/>
<polygon fill="#aa00ff" stroke="#aa00ff" stroke-width="3" points="356.457,-231.026 363.471,-223.085 353.036,-224.919 356.457,-231.026"/>
<text text-anchor="middle" x="318.5" y="-650.816" font-family="Times,serif" font-size="14.00">&lt;</text>
</g>
<!-- TZ.Pacific&#45;&gt;CEN.Northeast -->
<g id="edge16" class="edge"><title>TZ.Pacific&#45;&gt;CEN.Northeast</title>
<path fill="none" stroke="#aa00ff" stroke-width="3" stroke-dasharray="1,5" d="M262.332,-792.293C279.157,-811.602 307.264,-836.962 327,-819.016 358.215,-790.632 332.364,-670.269 345,-630.016 356.198,-594.344 378.668,-557.519 395.004,-533.576"/>
<polygon fill="#aa00ff" stroke="#aa00ff" stroke-width="3" points="398.091,-535.268 400.928,-525.06 392.345,-531.27 398.091,-535.268"/>
<text text-anchor="middle" x="318.5" y="-828.816" font-family="Times,serif" font-size="14.00">!</text>
</g>
<!-- TZ.Pacific&#45;&gt;CEN.South -->
<g id="edge15" class="edge"><title>TZ.Pacific&#45;&gt;CEN.South</title>
<path fill="none" stroke="#aa00ff" stroke-width="3" stroke-dasharray="1,5" d="M284.193,-780.848C299.412,-781.545 316.083,-779.08 327,-768.016 349.519,-745.193 336.054,-510.805 345,-480.016 355.735,-443.072 378.669,-404.956 395.229,-380.461"/>
<polygon fill="#aa00ff" stroke="#aa00ff" stroke-width="3" points="398.213,-382.3 401.008,-372.081 392.45,-378.327 398.213,-382.3"/>
<text text-anchor="middle" x="318.5" y="-780.816" font-family="Times,serif" font-size="14.00">!</text>
</g>
<!-- TZ.Central -->
<g id="node8" class="node"><title>TZ.Central</title>
<polygon fill="#ccffcc" stroke="black" points="285.5,-298.016 208.5,-298.016 208.5,-262.016 285.5,-262.016 285.5,-298.016"/>
<text text-anchor="middle" x="247" y="-276.316" font-family="Times,serif" font-size="14.00">TZ.Central</text>
</g>
<!-- TZ.Central&#45;&gt;CEN.Midwest -->
<g id="edge11" class="edge"><title>TZ.Central&#45;&gt;CEN.Midwest</title>
<path fill="none" stroke="#aa00ff" stroke-width="3" stroke-dasharray="1,5" d="M285.747,-286.37C303.788,-289.406 325.943,-293.135 346.749,-296.637"/>
<polygon fill="#aa00ff" stroke="#aa00ff" stroke-width="3" points="346.388,-300.126 356.83,-298.334 347.55,-293.223 346.388,-300.126"/>
<text text-anchor="middle" x="318.5" y="-296.816" font-family="Times,serif" font-size="14.00">&gt;&lt;</text>
</g>
<!-- TZ.Central&#45;&gt;CEN.USA -->
<g id="edge13" class="edge"><title>TZ.Central&#45;&gt;CEN.USA</title>
<path fill="none" stroke="#aa00ff" stroke-width="3" stroke-dasharray="1,5" d="M285.582,-271.415C332.887,-262.038 416.349,-250.324 485.699,-266.016 504.066,-270.172 523.088,-278.64 538.733,-286.89"/>
<polygon fill="#aa00ff" stroke="#aa00ff" stroke-width="3" points="537.068,-289.969 547.523,-291.689 540.423,-283.825 537.068,-289.969"/>
<text text-anchor="middle" x="415.349" y="-269.816" font-family="Times,serif" font-size="14.00">&lt;</text>
</g>
<!-- TZ.Central&#45;&gt;CEN.West -->
<g id="edge22" class="edge"><title>TZ.Central&#45;&gt;CEN.West</title>
<path fill="none" stroke="#aa00ff" stroke-width="3" stroke-dasharray="1,5" d="M264.046,-261.993C275.599,-250.266 292.227,-235.76 310,-228.016 322.929,-222.382 337.557,-218.965 351.681,-216.939"/>
<polygon fill="#aa00ff" stroke="#aa00ff" stroke-width="3" points="352.343,-220.385 361.845,-215.699 351.495,-213.436 352.343,-220.385"/>
<text text-anchor="middle" x="318.5" y="-231.816" font-family="Times,serif" font-size="14.00">&gt;&lt;</text>
</g>
<!-- TZ.Central&#45;&gt;CEN.Northeast -->
<g id="edge26" class="edge"><title>TZ.Central&#45;&gt;CEN.Northeast</title>
<path fill="none" stroke="#aa00ff" stroke-width="3" stroke-dasharray="1,5" d="M261.332,-298.209C290.654,-338.222 360.848,-434.008 395.012,-480.628"/>
<polygon fill="#aa00ff" stroke="#aa00ff" stroke-width="3" points="392.22,-482.739 400.954,-488.737 397.866,-478.602 392.22,-482.739"/>
<text text-anchor="middle" x="318.5" y="-389.816" font-family="Times,serif" font-size="14.00">!</text>
</g>
<!-- TZ.Central&#45;&gt;CEN.South -->
<g id="edge23" class="edge"><title>TZ.Central&#45;&gt;CEN.South</title>
<path fill="none" stroke="#aa00ff" stroke-width="3" stroke-dasharray="1,5" d="M278.303,-298.136C297.082,-308.888 321.942,-322.277 345,-332.016 350.803,-334.467 356.978,-336.798 363.158,-338.963"/>
<polygon fill="#aa00ff" stroke="#aa00ff" stroke-width="3" points="362.229,-342.343 372.823,-342.221 364.465,-335.71 362.229,-342.343"/>
<text text-anchor="middle" x="318.5" y="-326.816" font-family="Times,serif" font-size="14.00">&gt;&lt;</text>
</g>
<!-- TZ.USA -->
<g id="node9" class="node"><title>TZ.USA</title>
<polygon fill="#ccffcc" stroke="black" points="165,-221.016 101,-221.016 101,-185.016 165,-185.016 165,-221.016"/>
<text text-anchor="middle" x="133" y="-199.316" font-family="Times,serif" font-size="14.00">TZ.USA</text>
</g>
<!-- TZ.USA&#45;&gt;CEN.USA -->
<g id="edge12" class="edge"><title>TZ.USA&#45;&gt;CEN.USA</title>
<path fill="none" stroke="#aa00ff" stroke-width="3" stroke-dasharray="1,5" d="M135.42,-184.795C139.23,-150.103 153.011,-75.2409 202,-44.0159 308.807,24.0617 388.902,10.6705 485.699,-71.0159 549.453,-124.819 567.079,-229.36 571.929,-279.649"/>
<polygon fill="#aa00ff" stroke="#aa00ff" stroke-width="3" points="568.458,-280.138 572.804,-289.801 575.433,-279.538 568.458,-280.138"/>
<text text-anchor="middle" x="318.5" y="-5.81593" font-family="Times,serif" font-size="14.00">==</text>
</g>
<!-- TZ.USA&#45;&gt;CEN.West -->
<g id="edge9" class="edge"><title>TZ.USA&#45;&gt;CEN.West</title>
<path fill="none" stroke="#aa00ff" stroke-width="3" stroke-dasharray="1,5" d="M137.193,-184.837C143.544,-154.832 160.87,-95.7077 202,-70.0159 249.125,-40.5799 278.708,-40.5372 327,-68.0159 371.854,-93.5383 396.07,-152.184 406.993,-187.198"/>
<polygon fill="#aa00ff" stroke="#aa00ff" stroke-width="3" points="403.648,-188.229 409.846,-196.821 410.359,-186.239 403.648,-188.229"/>
<text text-anchor="middle" x="247" y="-73.8159" font-family="Times,serif" font-size="14.00">&gt;</text>
</g>
<!-- TZ.USA&#45;&gt;TZ.Eastern -->
<g id="edge8" class="edge"><title>TZ.USA&#45;&gt;TZ.Eastern</title>
<path fill="none" stroke="#000000" d="M143.47,-230.835C165.804,-296.439 221.276,-459.389 239.838,-513.915"/>
<polygon fill="#000000" stroke="#000000" points="146.717,-229.512 140.181,-221.173 140.091,-231.767 146.717,-229.512"/>
</g>
<!-- TZ.USA&#45;&gt;TZ.Pacific -->
<g id="edge5" class="edge"><title>TZ.USA&#45;&gt;TZ.Pacific</title>
<path fill="none" stroke="#000000" d="M139.229,-231.069C150.468,-291.215 177.867,-437.023 202,-559.016 216.455,-632.085 234.493,-718.94 242.211,-755.911"/>
<polygon fill="#000000" stroke="#000000" points="142.66,-230.374 137.384,-221.186 135.779,-231.659 142.66,-230.374"/>
</g>
<!-- TZ.USA&#45;&gt;TZ.Central -->
<g id="edge6" class="edge"><title>TZ.USA&#45;&gt;TZ.Central</title>
<path fill="none" stroke="#000000" d="M168.544,-226.765C184.963,-238.053 204.281,-251.334 219.517,-261.809"/>
<polygon fill="#000000" stroke="#000000" points="170.482,-223.85 160.259,-221.069 166.517,-229.618 170.482,-223.85"/>
</g>
<!-- TZ.Mountain -->
<g id="node10" class="node"><title>TZ.Mountain</title>
<polygon fill="#ccffcc" stroke="black" points="292,-130.016 202,-130.016 202,-94.0159 292,-94.0159 292,-130.016"/>
<text text-anchor="middle" x="247" y="-108.316" font-family="Times,serif" font-size="14.00">TZ.Mountain</text>
</g>
<!-- TZ.USA&#45;&gt;TZ.Mountain -->
<g id="edge7" class="edge"><title>TZ.USA&#45;&gt;TZ.Mountain</title>
<path fill="none" stroke="#000000" d="M164.344,-178.361C183.054,-163.16 206.637,-143.998 223.643,-130.181"/>
<polygon fill="#000000" stroke="#000000" points="161.95,-175.797 156.396,-184.819 166.364,-181.23 161.95,-175.797"/>
</g>
<!-- TZ.Mountain&#45;&gt;CEN.Midwest -->
<g id="edge24" class="edge"><title>TZ.Mountain&#45;&gt;CEN.Midwest</title>
<path fill="none" stroke="#aa00ff" stroke-width="3" stroke-dasharray="1,5" d="M292.061,-110.31C304.964,-112.088 318.004,-116.502 327,-126.016 373.132,-174.804 305.499,-221.72 345,-276.016 349.036,-281.563 354.272,-286.175 360.06,-290.003"/>
<polygon fill="#aa00ff" stroke="#aa00ff" stroke-width="3" points="358.445,-293.112 368.858,-295.069 361.938,-287.046 358.445,-293.112"/>
<text text-anchor="middle" x="318.5" y="-129.816" font-family="Times,serif" font-size="14.00">&gt;&lt;</text>
</g>
<!-- TZ.Mountain&#45;&gt;CEN.USA -->
<g id="edge27" class="edge"><title>TZ.Mountain&#45;&gt;CEN.USA</title>
<path fill="none" stroke="#aa00ff" stroke-width="3" stroke-dasharray="1,5" d="M285.151,-93.9479C287.535,-92.38 289.841,-90.7329 292,-89.0159 301.621,-81.3639 298.832,-73.1525 310,-68.0159 316.864,-64.8588 319.765,-65.8391 327,-68.0159 407.987,-92.3825 426.092,-113.019 485.699,-173.016 517.947,-205.476 544.925,-251.547 560.209,-280.598"/>
<polygon fill="#aa00ff" stroke="#aa00ff" stroke-width="3" points="557.238,-282.472 564.935,-289.753 563.458,-279.262 557.238,-282.472"/>
<text text-anchor="middle" x="415.349" y="-176.816" font-family="Times,serif" font-size="14.00">&lt;</text>
</g>
<!-- TZ.Mountain&#45;&gt;CEN.West -->
<g id="edge28" class="edge"><title>TZ.Mountain&#45;&gt;CEN.West</title>
<path fill="none" stroke="#aa00ff" stroke-width="3" stroke-dasharray="1,5" d="M265.602,-93.9649C281.842,-79.5942 306.472,-63.6281 327,-75.0159 369.909,-98.8198 394.502,-153.442 406.08,-186.988"/>
<polygon fill="#aa00ff" stroke="#aa00ff" stroke-width="3" points="402.813,-188.258 409.261,-196.664 409.463,-186.071 402.813,-188.258"/>
<text text-anchor="middle" x="318.5" y="-78.8159" font-family="Times,serif" font-size="14.00">&gt;&lt;</text>
</g>
<!-- TZ.Mountain&#45;&gt;CEN.South -->
<g id="edge14" class="edge"><title>TZ.Mountain&#45;&gt;CEN.South</title>
<path fill="none" stroke="#aa00ff" stroke-width="3" stroke-dasharray="1,5" d="M269.64,-130.204C288.119,-147.064 313.75,-173.877 327,-203.016 350.963,-255.712 307.657,-287.782 345,-332.016 347.674,-335.183 350.801,-337.899 354.222,-340.229"/>
<polygon fill="#aa00ff" stroke="#aa00ff" stroke-width="3" points="352.802,-343.444 363.24,-345.259 356.211,-337.331 352.802,-343.444"/>
<text text-anchor="middle" x="318.5" y="-206.816" font-family="Times,serif" font-size="14.00">&gt;&lt;</text>
</g>
<!-- Legend -->
<g id="node11" class="node"><title>Legend</title>
<polygon fill="white" stroke="black" points="83,-290.516 0,-290.516 0,-115.516 83,-115.516 83,-290.516"/>
<polygon fill="none" stroke="black" points="0.5,-265.016 0.5,-290.016 83.5,-290.016 83.5,-265.016 0.5,-265.016"/>
<text text-anchor="start" x="19" y="-273.816" font-family="Arial Black" font-size="14.00"> Nodes</text>
<polygon fill="#ffffcc" stroke="none" points="0.5,-240.016 0.5,-265.016 59.5,-265.016 59.5,-240.016 0.5,-240.016"/>
<polygon fill="none" stroke="black" points="0.5,-240.016 0.5,-265.016 59.5,-265.016 59.5,-240.016 0.5,-240.016"/>
<text text-anchor="start" x="16" y="-248.816" font-family="Times,serif" font-size="14.00">CEN</text>
<polygon fill="none" stroke="black" points="59.5,-240.016 59.5,-265.016 83.5,-265.016 83.5,-240.016 59.5,-240.016"/>
<text text-anchor="start" x="68" y="-248.816" font-family="Times,serif" font-size="14.00">5</text>
<polygon fill="#ccffcc" stroke="none" points="0.5,-215.016 0.5,-240.016 59.5,-240.016 59.5,-215.016 0.5,-215.016"/>
<polygon fill="none" stroke="black" points="0.5,-215.016 0.5,-240.016 59.5,-240.016 59.5,-215.016 0.5,-215.016"/>
<text text-anchor="start" x="21.5" y="-223.816" font-family="Times,serif" font-size="14.00">TZ</text>
<polygon fill="none" stroke="black" points="59.5,-215.016 59.5,-240.016 83.5,-240.016 83.5,-215.016 59.5,-215.016"/>
<text text-anchor="start" x="68" y="-223.816" font-family="Times,serif" font-size="14.00">5</text>
<polygon fill="none" stroke="black" points="0.5,-190.016 0.5,-215.016 83.5,-215.016 83.5,-190.016 0.5,-190.016"/>
<text text-anchor="start" x="17.5" y="-198.816" font-family="Arial Black" font-size="14.00"> Edges </text>
<polygon fill="none" stroke="black" points="0.5,-165.016 0.5,-190.016 59.5,-190.016 59.5,-165.016 0.5,-165.016"/>
<text text-anchor="start" x="5.5" y="-173.816" font-family="Times,serif" font-size="14.00" fill="#000000">isa_CEN</text>
<polygon fill="none" stroke="black" points="59.5,-165.016 59.5,-190.016 83.5,-190.016 83.5,-165.016 59.5,-165.016"/>
<text text-anchor="start" x="68" y="-173.816" font-family="Times,serif" font-size="14.00">4</text>
<polygon fill="none" stroke="black" points="0.5,-140.016 0.5,-165.016 59.5,-165.016 59.5,-140.016 0.5,-140.016"/>
<text text-anchor="start" x="10.5" y="-148.816" font-family="Times,serif" font-size="14.00" fill="#000000">isa_TZ</text>
<polygon fill="none" stroke="black" points="59.5,-140.016 59.5,-165.016 83.5,-165.016 83.5,-140.016 59.5,-140.016"/>
<text text-anchor="start" x="68" y="-148.816" font-family="Times,serif" font-size="14.00">4</text>
<polygon fill="none" stroke="black" points="0.5,-115.016 0.5,-140.016 59.5,-140.016 59.5,-115.016 0.5,-115.016"/>
<text text-anchor="start" x="19" y="-123.816" font-family="Times,serif" font-size="14.00" fill="#aa00ff">Art.</text>
<polygon fill="none" stroke="black" points="59.5,-115.016 59.5,-140.016 83.5,-140.016 83.5,-115.016 59.5,-115.016"/>
<text text-anchor="start" x="64.5" y="-123.816" font-family="Times,serif" font-size="14.00">21</text>
</g>
</g>
</svg>
