<?xml version="1.0" encoding="UTF-8" standalone="no"?>
<!DOCTYPE svg PUBLIC "-//W3C//DTD SVG 1.1//EN"
 "http://www.w3.org/Graphics/SVG/1.1/DTD/svg11.dtd">
<!-- Generated by graphviz version 2.38.0 (20140413.2041)
 -->
<!-- Title: %3 Pages: 1 -->
<svg width="660pt" height="860pt"
 viewBox="0.00 0.00 659.89 860.43" xmlns="http://www.w3.org/2000/svg" xmlns:xlink="http://www.w3.org/1999/xlink">
<g id="graph0" class="graph" transform="scale(1 1) rotate(0) translate(4 856.433)">
<title>%3</title>
<polygon fill="white" stroke="none" points="-4,4 -4,-856.433 655.885,-856.433 655.885,4 -4,4"/>
<!-- CEN.Midwest -->
<g id="node1" class="node"><title>CEN.Midwest</title>
<polygon fill="#ffffcc" stroke="black" points="501.066,-302.977 501.066,-317.889 460.182,-328.433 402.365,-328.433 361.482,-317.889 361.482,-302.977 402.365,-292.433 460.182,-292.433 501.066,-302.977"/>
<text text-anchor="middle" x="431.274" y="-306.733" font-family="Helvetica,sans-Serif" font-size="14.00">CEN.Midwest</text>
</g>
<!-- CEN.USA -->
<g id="node2" class="node"><title>CEN.USA</title>
<polygon fill="#ffffcc" stroke="black" points="652.055,-302.977 652.055,-317.889 620.224,-328.433 575.209,-328.433 543.378,-317.889 543.378,-302.977 575.209,-292.433 620.224,-292.433 652.055,-302.977"/>
<text text-anchor="middle" x="597.716" y="-306.733" font-family="Helvetica,sans-Serif" font-size="14.00">CEN.USA</text>
</g>
<!-- CEN.Midwest&#45;&gt;CEN.USA -->
<g id="edge2" class="edge"><title>CEN.Midwest&#45;&gt;CEN.USA</title>
<path fill="none" stroke="#000000" d="M501.059,-310.433C511.797,-310.433 522.85,-310.433 533.457,-310.433"/>
<polygon fill="#000000" stroke="#000000" points="533.465,-313.933 543.465,-310.433 533.465,-306.933 533.465,-313.933"/>
</g>
<!-- CEN.West -->
<g id="node3" class="node"><title>CEN.West</title>
<polygon fill="#ffffcc" stroke="black" points="487.333,-209.977 487.333,-224.889 454.494,-235.433 408.053,-235.433 375.214,-224.889 375.214,-209.977 408.053,-199.433 454.494,-199.433 487.333,-209.977"/>
<text text-anchor="middle" x="431.274" y="-213.733" font-family="Helvetica,sans-Serif" font-size="14.00">CEN.West</text>
</g>
<!-- CEN.West&#45;&gt;CEN.USA -->
<g id="edge3" class="edge"><title>CEN.West&#45;&gt;CEN.USA</title>
<path fill="none" stroke="#000000" d="M480.515,-227.343C495.546,-231.611 511.779,-237.495 525.547,-245.433 543.604,-255.843 560.937,-271.511 573.976,-284.855"/>
<polygon fill="#000000" stroke="#000000" points="571.706,-287.546 581.131,-292.386 576.781,-282.725 571.706,-287.546"/>
</g>
<!-- CEN.Northeast -->
<g id="node4" class="node"><title>CEN.Northeast</title>
<polygon fill="#ffffcc" stroke="black" points="506.322,-501.977 506.322,-516.889 462.36,-527.433 400.188,-527.433 356.226,-516.889 356.226,-501.977 400.188,-491.433 462.36,-491.433 506.322,-501.977"/>
<text text-anchor="middle" x="431.274" y="-505.733" font-family="Helvetica,sans-Serif" font-size="14.00">CEN.Northeast</text>
</g>
<!-- CEN.Northeast&#45;&gt;CEN.USA -->
<g id="edge1" class="edge"><title>CEN.Northeast&#45;&gt;CEN.USA</title>
<path fill="none" stroke="#000000" d="M447.157,-491.422C476.373,-456.066 541.326,-377.463 575.209,-336.459"/>
<polygon fill="#000000" stroke="#000000" points="578.076,-338.485 581.748,-328.547 572.68,-334.026 578.076,-338.485"/>
</g>
<!-- CEN.South -->
<g id="node5" class="node"><title>CEN.South</title>
<polygon fill="#ffffcc" stroke="black" points="490.461,-348.977 490.461,-363.889 455.79,-374.433 406.758,-374.433 372.087,-363.889 372.087,-348.977 406.758,-338.433 455.79,-338.433 490.461,-348.977"/>
<text text-anchor="middle" x="431.274" y="-352.733" font-family="Helvetica,sans-Serif" font-size="14.00">CEN.South</text>
</g>
<!-- CEN.South&#45;&gt;CEN.USA -->
<g id="edge4" class="edge"><title>CEN.South&#45;&gt;CEN.USA</title>
<path fill="none" stroke="#000000" d="M475.479,-344.347C497.031,-338.318 523.239,-330.987 545.767,-324.685"/>
<polygon fill="#000000" stroke="#000000" points="546.812,-328.027 555.499,-321.963 544.926,-321.286 546.812,-328.027"/>
</g>
<!-- TZ.Eastern -->
<g id="node6" class="node"><title>TZ.Eastern</title>
<polygon fill="#ccffcc" stroke="black" points="298,-552.433 215,-552.433 215,-516.433 298,-516.433 298,-552.433"/>
<text text-anchor="middle" x="256.5" y="-530.733" font-family="Helvetica,sans-Serif" font-size="14.00">TZ.Eastern</text>
</g>
<!-- TZ.Eastern&#45;&gt;CEN.Midwest -->
<g id="edge25" class="edge"><title>TZ.Eastern&#45;&gt;CEN.Midwest</title>
<path fill="none" stroke="#aa00ff" stroke-dasharray="5,2" d="M295.912,-516.241C311.515,-506.86 328.154,-493.892 338,-477.433 371.337,-421.704 314.008,-381.968 356,-332.433 360.174,-327.509 365.394,-323.658 371.121,-320.651"/>
<text text-anchor="middle" x="329.5" y="-499.233" font-family="Times,serif" font-size="14.00">!</text>
</g>
<!-- TZ.Eastern&#45;&gt;CEN.USA -->
<g id="edge17" class="edge"><title>TZ.Eastern&#45;&gt;CEN.USA</title>
<path fill="none" stroke="#aa00ff" stroke-dasharray="5,2" d="M269.045,-552.677C280.178,-568.398 298.609,-590.005 321,-599.433 383.294,-625.663 311.327,-727.419 506.547,-536.433 567.393,-476.907 588.318,-371.071 594.469,-328.707"/>
<text text-anchor="middle" x="431.274" y="-653.233" font-family="Times,serif" font-size="14.00">&lt;</text>
</g>
<!-- TZ.Eastern&#45;&gt;CEN.West -->
<g id="edge10" class="edge"><title>TZ.Eastern&#45;&gt;CEN.West</title>
<path fill="none" stroke="#aa00ff" stroke-dasharray="5,2" d="M273.034,-516.078C291.95,-492.582 323.203,-449.825 338,-407.433 350.374,-371.984 331.962,-268.276 356,-239.433 361.252,-233.131 368.218,-228.583 375.784,-225.311"/>
<text text-anchor="middle" x="329.5" y="-448.233" font-family="Times,serif" font-size="14.00">!</text>
</g>
<!-- TZ.Eastern&#45;&gt;CEN.Northeast -->
<g id="edge29" class="edge"><title>TZ.Eastern&#45;&gt;CEN.Northeast</title>
<path fill="none" stroke="#aa00ff" stroke-dasharray="5,2" d="M273.317,-552.714C288.978,-568.467 314.023,-587.499 338,-579.433 368.303,-569.24 396.559,-544.705 413.622,-527.576"/>
<text text-anchor="middle" x="329.5" y="-584.233" font-family="Times,serif" font-size="14.00">&gt;</text>
</g>
<!-- TZ.Eastern&#45;&gt;CEN.South -->
<g id="edge21" class="edge"><title>TZ.Eastern&#45;&gt;CEN.South</title>
<path fill="none" stroke="#aa00ff" stroke-dasharray="5,2" d="M298.188,-539.739C311.977,-539.495 326.727,-536.758 338,-528.433 355.66,-515.391 346.395,-502.174 356,-482.433 375.33,-442.702 402.696,-398.772 418.244,-374.705"/>
<text text-anchor="middle" x="329.5" y="-539.233" font-family="Times,serif" font-size="14.00">&gt;&lt;</text>
</g>
<!-- TZ.Pacific -->
<g id="node7" class="node"><title>TZ.Pacific</title>
<polygon fill="#ccffcc" stroke="black" points="295,-794.433 218,-794.433 218,-758.433 295,-758.433 295,-794.433"/>
<text text-anchor="middle" x="256.5" y="-772.733" font-family="Helvetica,sans-Serif" font-size="14.00">TZ.Pacific</text>
</g>
<!-- TZ.Pacific&#45;&gt;CEN.Midwest -->
<g id="edge20" class="edge"><title>TZ.Pacific&#45;&gt;CEN.Midwest</title>
<path fill="none" stroke="#aa00ff" stroke-dasharray="5,2" d="M295.259,-759.329C311.344,-749.967 328.549,-736.71 338,-719.433 358.659,-681.668 329.45,-366.316 356,-332.433 359.982,-327.352 365.081,-323.403 370.74,-320.34"/>
<text text-anchor="middle" x="329.5" y="-743.233" font-family="Times,serif" font-size="14.00">!</text>
</g>
<!-- TZ.Pacific&#45;&gt;CEN.USA -->
<g id="edge18" class="edge"><title>TZ.Pacific&#45;&gt;CEN.USA</title>
<path fill="none" stroke="#aa00ff" stroke-dasharray="5,2" d="M266.475,-794.762C280.02,-819.649 307.377,-859.609 338,-846.433 438.079,-803.371 454.082,-763.918 506.547,-668.433 571.672,-549.908 590.698,-383.562 595.374,-328.743"/>
<text text-anchor="middle" x="431.274" y="-841.233" font-family="Times,serif" font-size="14.00">&lt;</text>
</g>
<!-- TZ.Pacific&#45;&gt;CEN.West -->
<g id="edge19" class="edge"><title>TZ.Pacific&#45;&gt;CEN.West</title>
<path fill="none" stroke="#aa00ff" stroke-dasharray="5,2" d="M268.496,-758.407C286.817,-727.298 323.053,-660.939 338,-599.433 347.458,-560.516 331.243,-270.914 356,-239.433 361.071,-232.984 367.943,-228.36 375.469,-225.056"/>
<text text-anchor="middle" x="329.5" y="-653.233" font-family="Times,serif" font-size="14.00">&lt;</text>
</g>
<!-- TZ.Pacific&#45;&gt;CEN.Northeast -->
<g id="edge16" class="edge"><title>TZ.Pacific&#45;&gt;CEN.Northeast</title>
<path fill="none" stroke="#aa00ff" stroke-dasharray="5,2" d="M271.832,-794.456C288.971,-813.892 317.862,-839.745 338,-821.433 369.215,-793.05 342.765,-672.493 356,-632.433 369.382,-591.93 398.026,-550.656 415.572,-527.713"/>
<text text-anchor="middle" x="329.5" y="-831.233" font-family="Times,serif" font-size="14.00">!</text>
</g>
<!-- TZ.Pacific&#45;&gt;CEN.South -->
<g id="edge15" class="edge"><title>TZ.Pacific&#45;&gt;CEN.South</title>
<path fill="none" stroke="#aa00ff" stroke-dasharray="5,2" d="M295.198,-783.489C310.48,-784.096 327.066,-781.498 338,-770.433 360.535,-747.626 346.601,-513.087 356,-482.433 368.804,-440.676 397.931,-398.152 415.667,-374.741"/>
<text text-anchor="middle" x="329.5" y="-783.233" font-family="Times,serif" font-size="14.00">!</text>
</g>
<!-- TZ.Central -->
<g id="node8" class="node"><title>TZ.Central</title>
<polygon fill="#ccffcc" stroke="black" points="296.5,-300.433 216.5,-300.433 216.5,-264.433 296.5,-264.433 296.5,-300.433"/>
<text text-anchor="middle" x="256.5" y="-278.733" font-family="Helvetica,sans-Serif" font-size="14.00">TZ.Central</text>
</g>
<!-- TZ.Central&#45;&gt;CEN.Midwest -->
<g id="edge11" class="edge"><title>TZ.Central&#45;&gt;CEN.Midwest</title>
<path fill="none" stroke="#aa00ff" stroke-dasharray="5,2" d="M296.705,-288.787C318.409,-292.304 345.846,-296.75 370.198,-300.697"/>
<text text-anchor="middle" x="329.5" y="-299.233" font-family="Times,serif" font-size="14.00">&gt;&lt;</text>
</g>
<!-- TZ.Central&#45;&gt;CEN.USA -->
<g id="edge13" class="edge"><title>TZ.Central&#45;&gt;CEN.USA</title>
<path fill="none" stroke="#aa00ff" stroke-dasharray="5,2" d="M296.856,-273.698C346.399,-264.183 433.824,-252.327 506.547,-268.433 528.972,-273.399 552.434,-284.542 569.802,-294.102"/>
<text text-anchor="middle" x="431.274" y="-272.233" font-family="Times,serif" font-size="14.00">&lt;</text>
</g>
<!-- TZ.Central&#45;&gt;CEN.West -->
<g id="edge22" class="edge"><title>TZ.Central&#45;&gt;CEN.West</title>
<path fill="none" stroke="#aa00ff" stroke-dasharray="5,2" d="M274.004,-264.381C285.867,-252.641 302.906,-238.132 321,-230.433 337.789,-223.29 357.258,-219.667 375.072,-217.932"/>
<text text-anchor="middle" x="329.5" y="-234.233" font-family="Times,serif" font-size="14.00">&gt;&lt;</text>
</g>
<!-- TZ.Central&#45;&gt;CEN.Northeast -->
<g id="edge26" class="edge"><title>TZ.Central&#45;&gt;CEN.Northeast</title>
<path fill="none" stroke="#aa00ff" stroke-dasharray="5,2" d="M271.347,-300.626C303.697,-343.129 383.946,-448.564 416.361,-491.154"/>
<text text-anchor="middle" x="329.5" y="-392.233" font-family="Times,serif" font-size="14.00">!</text>
</g>
<!-- TZ.Central&#45;&gt;CEN.South -->
<g id="edge23" class="edge"><title>TZ.Central&#45;&gt;CEN.South</title>
<path fill="none" stroke="#aa00ff" stroke-dasharray="5,2" d="M287.804,-300.436C306.912,-311.279 332.361,-324.803 356,-334.433 365.341,-338.238 375.584,-341.702 385.398,-344.698"/>
<text text-anchor="middle" x="329.5" y="-329.233" font-family="Times,serif" font-size="14.00">&gt;&lt;</text>
</g>
<!-- TZ.USA -->
<g id="node9" class="node"><title>TZ.USA</title>
<polygon fill="#ccffcc" stroke="black" points="173,-223.433 108,-223.433 108,-187.433 173,-187.433 173,-223.433"/>
<text text-anchor="middle" x="140.5" y="-201.733" font-family="Helvetica,sans-Serif" font-size="14.00">TZ.USA</text>
</g>
<!-- TZ.USA&#45;&gt;CEN.USA -->
<g id="edge12" class="edge"><title>TZ.USA&#45;&gt;CEN.USA</title>
<path fill="none" stroke="#aa00ff" stroke-dasharray="5,2" d="M142.983,-187.216C146.911,-152.528 160.944,-77.6751 210,-46.433 321.595,24.6377 404.468,11.7345 506.547,-72.433 576.264,-129.916 592.137,-247.435 595.701,-292.392"/>
<text text-anchor="middle" x="329.5" y="-6.23295" font-family="Times,serif" font-size="14.00">==</text>
</g>
<!-- TZ.USA&#45;&gt;CEN.West -->
<g id="edge9" class="edge"><title>TZ.USA&#45;&gt;CEN.West</title>
<path fill="none" stroke="#aa00ff" stroke-dasharray="5,2" d="M144.759,-187.247C151.22,-157.232 168.762,-98.0923 210,-72.433 258.308,-42.3746 288.21,-42.9001 338,-70.433 388.365,-98.2835 414.941,-166.404 425.189,-199.201"/>
<text text-anchor="middle" x="256.5" y="-76.233" font-family="Times,serif" font-size="14.00">&gt;</text>
</g>
<!-- TZ.USA&#45;&gt;TZ.Eastern -->
<g id="edge8" class="edge"><title>TZ.USA&#45;&gt;TZ.Eastern</title>
<path fill="none" stroke="#000000" d="M151.139,-233.252C173.872,-298.856 230.335,-461.806 249.228,-516.332"/>
<polygon fill="#000000" stroke="#000000" points="154.373,-231.893 147.792,-223.59 147.759,-234.185 154.373,-231.893"/>
</g>
<!-- TZ.USA&#45;&gt;TZ.Pacific -->
<g id="edge5" class="edge"><title>TZ.USA&#45;&gt;TZ.Pacific</title>
<path fill="none" stroke="#000000" d="M146.718,-233.497C157.944,-293.662 185.37,-439.506 210,-561.433 224.769,-634.545 243.516,-721.377 251.552,-758.335"/>
<polygon fill="#000000" stroke="#000000" points="150.148,-232.799 144.875,-223.61 143.266,-234.082 150.148,-232.799"/>
</g>
<!-- TZ.USA&#45;&gt;TZ.Central -->
<g id="edge6" class="edge"><title>TZ.USA&#45;&gt;TZ.Central</title>
<path fill="none" stroke="#000000" d="M176.661,-229.182C193.373,-240.47 213.036,-253.751 228.545,-264.226"/>
<polygon fill="#000000" stroke="#000000" points="178.474,-226.183 168.228,-223.486 174.556,-231.984 178.474,-226.183"/>
</g>
<!-- TZ.Mountain -->
<g id="node10" class="node"><title>TZ.Mountain</title>
<polygon fill="#ccffcc" stroke="black" points="303,-132.433 210,-132.433 210,-96.433 303,-96.433 303,-132.433"/>
<text text-anchor="middle" x="256.5" y="-110.733" font-family="Helvetica,sans-Serif" font-size="14.00">TZ.Mountain</text>
</g>
<!-- TZ.USA&#45;&gt;TZ.Mountain -->
<g id="edge7" class="edge"><title>TZ.USA&#45;&gt;TZ.Mountain</title>
<path fill="none" stroke="#000000" d="M172.13,-180.982C191.214,-165.749 215.357,-146.477 232.744,-132.598"/>
<polygon fill="#000000" stroke="#000000" points="169.927,-178.262 164.296,-187.236 174.295,-183.733 169.927,-178.262"/>
</g>
<!-- TZ.Mountain&#45;&gt;CEN.Midwest -->
<g id="edge24" class="edge"><title>TZ.Mountain&#45;&gt;CEN.Midwest</title>
<path fill="none" stroke="#aa00ff" stroke-dasharray="5,2" d="M303.225,-112.651C316.096,-114.493 329.018,-118.965 338,-128.433 384.21,-177.147 315.809,-224.645 356,-278.433 362.303,-286.869 371.288,-293.108 380.842,-297.714"/>
<text text-anchor="middle" x="329.5" y="-132.233" font-family="Times,serif" font-size="14.00">&gt;&lt;</text>
</g>
<!-- TZ.Mountain&#45;&gt;CEN.USA -->
<g id="edge27" class="edge"><title>TZ.Mountain&#45;&gt;CEN.USA</title>
<path fill="none" stroke="#aa00ff" stroke-dasharray="5,2" d="M296.387,-96.138C298.686,-94.6422 300.911,-93.0717 303,-91.433 312.673,-83.8466 309.832,-75.5696 321,-70.433 327.864,-67.2758 330.736,-68.3553 338,-70.433 422.855,-94.7019 443.158,-114.024 506.547,-175.433 543.39,-211.125 573.421,-264.301 587.705,-292.061"/>
<text text-anchor="middle" x="431.274" y="-179.233" font-family="Times,serif" font-size="14.00">&lt;</text>
</g>
<!-- TZ.Mountain&#45;&gt;CEN.West -->
<g id="edge28" class="edge"><title>TZ.Mountain&#45;&gt;CEN.West</title>
<path fill="none" stroke="#aa00ff" stroke-dasharray="5,2" d="M275.402,-96.4207C291.927,-82.0767 317.01,-66.1282 338,-77.433 386.439,-103.521 413.65,-167.397 424.575,-199.045"/>
<text text-anchor="middle" x="329.5" y="-81.233" font-family="Times,serif" font-size="14.00">&gt;&lt;</text>
</g>
<!-- TZ.Mountain&#45;&gt;CEN.South -->
<g id="edge14" class="edge"><title>TZ.Mountain&#45;&gt;CEN.South</title>
<path fill="none" stroke="#aa00ff" stroke-dasharray="5,2" d="M279.554,-132.536C298.386,-149.339 324.504,-176.118 338,-205.433 362.208,-258.017 318.234,-290.56 356,-334.433 361.089,-340.345 367.684,-344.707 374.842,-347.918"/>
<text text-anchor="middle" x="329.5" y="-209.233" font-family="Times,serif" font-size="14.00">&gt;&lt;</text>
</g>
<!-- Legend -->
<g id="node11" class="node"><title>Legend</title>
<polygon fill="white" stroke="black" points="90,-292.933 0,-292.933 0,-117.933 90,-117.933 90,-292.933"/>
<polygon fill="none" stroke="black" points="0,-267.433 0,-292.433 90,-292.433 90,-267.433 0,-267.433"/>
<text text-anchor="start" x="22" y="-276.233" font-family="Arial Black" font-size="14.00"> Nodes</text>
<polygon fill="#ffffcc" stroke="none" points="0,-242.433 0,-267.433 64,-267.433 64,-242.433 0,-242.433"/>
<polygon fill="none" stroke="black" points="0,-242.433 0,-267.433 64,-267.433 64,-242.433 0,-242.433"/>
<text text-anchor="start" x="17.5" y="-251.233" font-family="Helvetica,sans-Serif" font-size="14.00">CEN</text>
<polygon fill="none" stroke="black" points="64,-242.433 64,-267.433 90,-267.433 90,-242.433 64,-242.433"/>
<text text-anchor="start" x="73" y="-251.233" font-family="Helvetica,sans-Serif" font-size="14.00">5</text>
<polygon fill="#ccffcc" stroke="none" points="0,-217.433 0,-242.433 64,-242.433 64,-217.433 0,-217.433"/>
<polygon fill="none" stroke="black" points="0,-217.433 0,-242.433 64,-242.433 64,-217.433 0,-217.433"/>
<text text-anchor="start" x="23.5" y="-226.233" font-family="Helvetica,sans-Serif" font-size="14.00">TZ</text>
<polygon fill="none" stroke="black" points="64,-217.433 64,-242.433 90,-242.433 90,-217.433 64,-217.433"/>
<text text-anchor="start" x="73" y="-226.233" font-family="Helvetica,sans-Serif" font-size="14.00">5</text>
<polygon fill="none" stroke="black" points="0,-192.433 0,-217.433 90,-217.433 90,-192.433 0,-192.433"/>
<text text-anchor="start" x="20.5" y="-201.233" font-family="Arial Black" font-size="14.00"> Edges </text>
<polygon fill="none" stroke="black" points="0,-167.433 0,-192.433 64,-192.433 64,-167.433 0,-167.433"/>
<text text-anchor="start" x="5" y="-176.233" font-family="Helvetica,sans-Serif" font-size="14.00" fill="#000000">isa_CEN</text>
<polygon fill="none" stroke="black" points="64,-167.433 64,-192.433 90,-192.433 90,-167.433 64,-167.433"/>
<text text-anchor="start" x="73" y="-176.233" font-family="Helvetica,sans-Serif" font-size="14.00">4</text>
<polygon fill="none" stroke="black" points="0,-142.433 0,-167.433 64,-167.433 64,-142.433 0,-142.433"/>
<text text-anchor="start" x="11" y="-151.233" font-family="Helvetica,sans-Serif" font-size="14.00" fill="#000000">isa_TZ</text>
<polygon fill="none" stroke="black" points="64,-142.433 64,-167.433 90,-167.433 90,-142.433 64,-142.433"/>
<text text-anchor="start" x="73" y="-151.233" font-family="Helvetica,sans-Serif" font-size="14.00">4</text>
<polygon fill="none" stroke="black" points="0,-117.433 0,-142.433 64,-142.433 64,-117.433 0,-117.433"/>
<text text-anchor="start" x="21" y="-126.233" font-family="Helvetica,sans-Serif" font-size="14.00" fill="#aa00ff">Art.</text>
<polygon fill="none" stroke="black" points="64,-117.433 64,-142.433 90,-142.433 90,-117.433 64,-117.433"/>
<text text-anchor="start" x="69" y="-126.233" font-family="Helvetica,sans-Serif" font-size="14.00">21</text>
</g>
</g>
</svg>
