<?xml version="1.0" encoding="UTF-8" standalone="no"?>
<!DOCTYPE svg PUBLIC "-//W3C//DTD SVG 1.1//EN"
 "http://www.w3.org/Graphics/SVG/1.1/DTD/svg11.dtd">
<!-- Generated by graphviz version 2.38.0 (20140413.2041)
 -->
<!-- Title: %3 Pages: 1 -->
<svg width="671pt" height="1321pt"
 viewBox="0.00 0.00 671.15 1320.73" xmlns="http://www.w3.org/2000/svg" xmlns:xlink="http://www.w3.org/1999/xlink">
<g id="graph0" class="graph" transform="scale(1 1) rotate(0) translate(4 1316.73)">
<title>%3</title>
<polygon fill="white" stroke="none" points="-4,4 -4,-1316.73 667.152,-1316.73 667.152,4 -4,4"/>
<!-- CEN.Midwest -->
<g id="node1" class="node"><title>CEN.Midwest</title>
<polygon fill="#ffffcc" stroke="black" points="424.316,-584.273 424.316,-599.185 385.265,-609.729 330.039,-609.729 290.988,-599.185 290.988,-584.273 330.039,-573.729 385.265,-573.729 424.316,-584.273"/>
<text text-anchor="middle" x="357.652" y="-588.029" font-family="Times,serif" font-size="14.00">CEN.Midwest</text>
</g>
<!-- TZ.USA\nCEN.USA -->
<g id="node27" class="node"><title>TZ.USA\nCEN.USA</title>
<path fill="#eeeeee" stroke="black" d="M62,-681.729C62,-681.729 12,-681.729 12,-681.729 6,-681.729 0,-675.729 0,-669.729 0,-669.729 0,-655.729 0,-655.729 0,-649.729 6,-643.729 12,-643.729 12,-643.729 62,-643.729 62,-643.729 68,-643.729 74,-649.729 74,-655.729 74,-655.729 74,-669.729 74,-669.729 74,-675.729 68,-681.729 62,-681.729"/>
<text text-anchor="middle" x="37" y="-666.529" font-family="Times,serif" font-size="14.00">TZ.USA</text>
<text text-anchor="middle" x="37" y="-651.529" font-family="Times,serif" font-size="14.00">CEN.USA</text>
</g>
<!-- CEN.Midwest&#45;&gt;TZ.USA\nCEN.USA -->
<g id="edge1" class="edge"><title>CEN.Midwest&#45;&gt;TZ.USA\nCEN.USA</title>
<path fill="none" stroke="#761212" d="M290.761,-588.931C241.721,-588.752 173.744,-592.567 117,-610.729 99.3874,-616.367 81.9815,-627.108 68.0093,-637.372"/>
<polygon fill="#761212" stroke="#761212" points="65.6081,-634.802 59.7822,-643.651 69.855,-640.366 65.6081,-634.802"/>
<text text-anchor="middle" x="172.576" y="-614.529" font-family="Times,serif" font-size="14.00">1</text>
</g>
<!-- CEN.Northeast\nTZ.Eastern\\CEN.South -->
<g id="node2" class="node"><title>CEN.Northeast\nTZ.Eastern\\CEN.South</title>
<path fill="#eeeeee" stroke="black" d="M417.152,-1307.73C417.152,-1307.73 298.152,-1307.73 298.152,-1307.73 292.152,-1307.73 286.152,-1301.73 286.152,-1295.73 286.152,-1295.73 286.152,-1281.73 286.152,-1281.73 286.152,-1275.73 292.152,-1269.73 298.152,-1269.73 298.152,-1269.73 417.152,-1269.73 417.152,-1269.73 423.152,-1269.73 429.152,-1275.73 429.152,-1281.73 429.152,-1281.73 429.152,-1295.73 429.152,-1295.73 429.152,-1301.73 423.152,-1307.73 417.152,-1307.73"/>
<text text-anchor="middle" x="357.652" y="-1292.53" font-family="Times,serif" font-size="14.00">CEN.Northeast</text>
<text text-anchor="middle" x="357.652" y="-1277.53" font-family="Times,serif" font-size="14.00">TZ.Eastern\CEN.South</text>
</g>
<!-- TZ.Eastern -->
<g id="node17" class="node"><title>TZ.Eastern</title>
<polygon fill="#ccffcc" stroke="black" points="211.076,-1249.73 134.076,-1249.73 134.076,-1213.73 211.076,-1213.73 211.076,-1249.73"/>
<text text-anchor="middle" x="172.576" y="-1228.03" font-family="Times,serif" font-size="14.00">TZ.Eastern</text>
</g>
<!-- CEN.Northeast\nTZ.Eastern\\CEN.South&#45;&gt;TZ.Eastern -->
<g id="edge2" class="edge"><title>CEN.Northeast\nTZ.Eastern\\CEN.South&#45;&gt;TZ.Eastern</title>
<path fill="none" stroke="#761212" d="M295.436,-1269.67C271.169,-1262.11 243.696,-1253.56 220.987,-1246.49"/>
<polygon fill="#761212" stroke="#761212" points="221.832,-1243.09 211.244,-1243.46 219.752,-1249.77 221.832,-1243.09"/>
<text text-anchor="middle" x="249.652" y="-1258.53" font-family="Times,serif" font-size="14.00">1</text>
</g>
<!-- CEN.Northeast\nTZ.Eastern\\CEN.South&#45;&gt;TZ.USA\nCEN.USA -->
<g id="edge3" class="edge"><title>CEN.Northeast\nTZ.Eastern\\CEN.South&#45;&gt;TZ.USA\nCEN.USA</title>
<path fill="none" stroke="#761212" d="M285.906,-1298.18C217.137,-1302.83 119.202,-1295.93 92,-1224.73 54.1584,-1125.67 41.7089,-792.604 38.7611,-691.847"/>
<polygon fill="#761212" stroke="#761212" points="42.2578,-691.678 38.476,-681.781 35.2606,-691.876 42.2578,-691.678"/>
<text text-anchor="middle" x="172.576" y="-1301.53" font-family="Times,serif" font-size="14.00">1</text>
</g>
<!-- CEN.South -->
<g id="node3" class="node"><title>CEN.South</title>
<polygon fill="#ffffcc" stroke="black" points="228.228,-974.273 228.228,-989.185 195.628,-999.729 149.524,-999.729 116.924,-989.185 116.924,-974.273 149.524,-963.729 195.628,-963.729 228.228,-974.273"/>
<text text-anchor="middle" x="172.576" y="-978.029" font-family="Times,serif" font-size="14.00">CEN.South</text>
</g>
<!-- CEN.South&#45;&gt;TZ.USA\nCEN.USA -->
<g id="edge4" class="edge"><title>CEN.South&#45;&gt;TZ.USA\nCEN.USA</title>
<path fill="none" stroke="#761212" d="M128.55,-970.299C114.996,-964.684 101.182,-956.503 92,-944.729 61.4263,-905.529 45.7137,-756.221 40.2646,-692.183"/>
<polygon fill="#761212" stroke="#761212" points="43.7318,-691.641 39.421,-681.963 36.7555,-692.217 43.7318,-691.641"/>
<text text-anchor="middle" x="95.5" y="-954.529" font-family="Times,serif" font-size="14.00">1</text>
</g>
<!-- CEN.South\\TZ.Central -->
<g id="node4" class="node"><title>CEN.South\\TZ.Central</title>
<path fill="#eeeeee" stroke="black" d="M417.152,-1035.73C417.152,-1035.73 298.152,-1035.73 298.152,-1035.73 292.152,-1035.73 286.152,-1029.73 286.152,-1023.73 286.152,-1023.73 286.152,-1011.73 286.152,-1011.73 286.152,-1005.73 292.152,-999.729 298.152,-999.729 298.152,-999.729 417.152,-999.729 417.152,-999.729 423.152,-999.729 429.152,-1005.73 429.152,-1011.73 429.152,-1011.73 429.152,-1023.73 429.152,-1023.73 429.152,-1029.73 423.152,-1035.73 417.152,-1035.73"/>
<text text-anchor="middle" x="357.652" y="-1014.03" font-family="Times,serif" font-size="14.00">CEN.South\TZ.Central</text>
</g>
<!-- CEN.South\\TZ.Central&#45;&gt;CEN.South -->
<g id="edge5" class="edge"><title>CEN.South\\TZ.Central&#45;&gt;CEN.South</title>
<path fill="none" stroke="#761212" d="M286.132,-1003.86C268.197,-1000.34 249.123,-996.585 231.873,-993.193"/>
<polygon fill="#761212" stroke="#761212" points="232.436,-989.737 221.949,-991.241 231.085,-996.605 232.436,-989.737"/>
<text text-anchor="middle" x="249.652" y="-999.529" font-family="Times,serif" font-size="14.00">1</text>
</g>
<!-- CEN.South\\TZ.Central&#45;&gt;TZ.USA\nCEN.USA -->
<g id="edge6" class="edge"><title>CEN.South\\TZ.Central&#45;&gt;TZ.USA\nCEN.USA</title>
<path fill="none" stroke="#761212" d="M286.065,-1031.65C235.618,-1037.83 167.931,-1038.13 117,-1008.73 61.7044,-976.805 44.1631,-769.797 39.4876,-692.117"/>
<polygon fill="#761212" stroke="#761212" points="42.977,-691.829 38.9107,-682.046 35.9885,-692.23 42.977,-691.829"/>
<text text-anchor="middle" x="172.576" y="-1038.53" font-family="Times,serif" font-size="14.00">1</text>
</g>
<!-- CEN.South\\TZ.Eastern -->
<g id="node5" class="node"><title>CEN.South\\TZ.Eastern</title>
<path fill="#eeeeee" stroke="black" d="M417.152,-979.729C417.152,-979.729 298.152,-979.729 298.152,-979.729 292.152,-979.729 286.152,-973.729 286.152,-967.729 286.152,-967.729 286.152,-955.729 286.152,-955.729 286.152,-949.729 292.152,-943.729 298.152,-943.729 298.152,-943.729 417.152,-943.729 417.152,-943.729 423.152,-943.729 429.152,-949.729 429.152,-955.729 429.152,-955.729 429.152,-967.729 429.152,-967.729 429.152,-973.729 423.152,-979.729 417.152,-979.729"/>
<text text-anchor="middle" x="357.652" y="-958.029" font-family="Times,serif" font-size="14.00">CEN.South\TZ.Eastern</text>
</g>
<!-- CEN.South\\TZ.Eastern&#45;&gt;CEN.South -->
<g id="edge7" class="edge"><title>CEN.South\\TZ.Eastern&#45;&gt;CEN.South</title>
<path fill="none" stroke="#761212" d="M286.083,-964.122C272.789,-964.98 259.023,-966.146 246.152,-967.729 241.107,-968.35 235.886,-969.114 230.664,-969.961"/>
<polygon fill="#761212" stroke="#761212" points="229.929,-966.536 220.666,-971.679 231.115,-973.435 229.929,-966.536"/>
<text text-anchor="middle" x="249.652" y="-971.529" font-family="Times,serif" font-size="14.00">1</text>
</g>
<!-- CEN.South\\TZ.Eastern&#45;&gt;TZ.USA\nCEN.USA -->
<g id="edge8" class="edge"><title>CEN.South\\TZ.Eastern&#45;&gt;TZ.USA\nCEN.USA</title>
<path fill="none" stroke="#761212" d="M285.99,-948.812C220.33,-936.326 130.662,-917.856 117,-907.729 48.3094,-856.814 38.1664,-745.164 37.426,-691.995"/>
<polygon fill="#761212" stroke="#761212" points="40.9257,-691.866 37.3908,-681.878 33.9257,-691.89 40.9257,-691.866"/>
<text text-anchor="middle" x="172.576" y="-940.529" font-family="Times,serif" font-size="14.00">1</text>
</g>
<!-- CEN.South\\TZ.Mountain -->
<g id="node6" class="node"><title>CEN.South\\TZ.Mountain</title>
<path fill="#eeeeee" stroke="black" d="M423.652,-1148.73C423.652,-1148.73 291.652,-1148.73 291.652,-1148.73 285.652,-1148.73 279.652,-1142.73 279.652,-1136.73 279.652,-1136.73 279.652,-1124.73 279.652,-1124.73 279.652,-1118.73 285.652,-1112.73 291.652,-1112.73 291.652,-1112.73 423.652,-1112.73 423.652,-1112.73 429.652,-1112.73 435.652,-1118.73 435.652,-1124.73 435.652,-1124.73 435.652,-1136.73 435.652,-1136.73 435.652,-1142.73 429.652,-1148.73 423.652,-1148.73"/>
<text text-anchor="middle" x="357.652" y="-1127.03" font-family="Times,serif" font-size="14.00">CEN.South\TZ.Mountain</text>
</g>
<!-- CEN.South\\TZ.Mountain&#45;&gt;CEN.South -->
<g id="edge9" class="edge"><title>CEN.South\\TZ.Mountain&#45;&gt;CEN.South</title>
<path fill="none" stroke="#761212" d="M285.753,-1112.6C270.957,-1105.94 256.677,-1096.92 246.152,-1084.73 224.875,-1060.09 247.707,-1039.76 228.152,-1013.73 224.77,-1009.23 220.556,-1005.25 215.976,-1001.76"/>
<polygon fill="#761212" stroke="#761212" points="217.69,-998.693 207.442,-996.004 213.776,-1004.5 217.69,-998.693"/>
<text text-anchor="middle" x="249.652" y="-1094.53" font-family="Times,serif" font-size="14.00">1</text>
</g>
<!-- CEN.South\\TZ.Mountain&#45;&gt;TZ.USA\nCEN.USA -->
<g id="edge10" class="edge"><title>CEN.South\\TZ.Mountain&#45;&gt;TZ.USA\nCEN.USA</title>
<path fill="none" stroke="#761212" d="M279.581,-1142.4C219.985,-1146.71 139.82,-1141.4 92,-1092.73 63.8496,-1064.08 45.0887,-784.022 39.6402,-691.921"/>
<polygon fill="#761212" stroke="#761212" points="43.1317,-691.672 39.0559,-681.893 36.1436,-692.08 43.1317,-691.672"/>
<text text-anchor="middle" x="172.576" y="-1146.53" font-family="Times,serif" font-size="14.00">1</text>
</g>
<!-- CEN.West -->
<g id="node7" class="node"><title>CEN.West</title>
<polygon fill="#ffffcc" stroke="black" points="226.007,-57.2735 226.007,-72.1851 194.708,-82.7293 150.444,-82.7293 119.145,-72.1851 119.145,-57.2735 150.444,-46.7293 194.708,-46.7293 226.007,-57.2735"/>
<text text-anchor="middle" x="172.576" y="-61.0293" font-family="Times,serif" font-size="14.00">CEN.West</text>
</g>
<!-- CEN.West&#45;&gt;TZ.USA\nCEN.USA -->
<g id="edge11" class="edge"><title>CEN.West&#45;&gt;TZ.USA\nCEN.USA</title>
<path fill="none" stroke="#761212" d="M119.142,-71.737C108.747,-75.4935 98.9218,-81.1729 92,-89.7293 57.524,-132.347 42.4749,-522.935 38.8799,-633.619"/>
<polygon fill="#761212" stroke="#761212" points="35.3784,-633.616 38.5586,-643.722 42.3748,-633.838 35.3784,-633.616"/>
<text text-anchor="middle" x="95.5" y="-93.5293" font-family="Times,serif" font-size="14.00">1</text>
</g>
<!-- CEN.West\\TZ.Central -->
<g id="node8" class="node"><title>CEN.West\\TZ.Central</title>
<path fill="#eeeeee" stroke="black" d="M415.652,-130.729C415.652,-130.729 299.652,-130.729 299.652,-130.729 293.652,-130.729 287.652,-124.729 287.652,-118.729 287.652,-118.729 287.652,-106.729 287.652,-106.729 287.652,-100.729 293.652,-94.7293 299.652,-94.7293 299.652,-94.7293 415.652,-94.7293 415.652,-94.7293 421.652,-94.7293 427.652,-100.729 427.652,-106.729 427.652,-106.729 427.652,-118.729 427.652,-118.729 427.652,-124.729 421.652,-130.729 415.652,-130.729"/>
<text text-anchor="middle" x="357.652" y="-109.029" font-family="Times,serif" font-size="14.00">CEN.West\TZ.Central</text>
</g>
<!-- CEN.West\\TZ.Central&#45;&gt;CEN.West -->
<g id="edge12" class="edge"><title>CEN.West\\TZ.Central&#45;&gt;CEN.West</title>
<path fill="none" stroke="#761212" d="M287.96,-94.7193C267.31,-89.3052 245.003,-83.4566 225.62,-78.3744"/>
<polygon fill="#761212" stroke="#761212" points="226.335,-74.9437 215.774,-75.793 224.559,-81.7148 226.335,-74.9437"/>
<text text-anchor="middle" x="249.652" y="-88.5293" font-family="Times,serif" font-size="14.00">1</text>
</g>
<!-- CEN.West\\TZ.Central&#45;&gt;TZ.USA\nCEN.USA -->
<g id="edge13" class="edge"><title>CEN.West\\TZ.Central&#45;&gt;TZ.USA\nCEN.USA</title>
<path fill="none" stroke="#761212" d="M287.473,-111.584C226.397,-111.945 143.119,-116.218 117,-135.729 36.7276,-195.695 35.7378,-531.476 37.3339,-633.394"/>
<polygon fill="#761212" stroke="#761212" points="33.8377,-633.643 37.515,-643.579 40.8366,-633.518 33.8377,-633.643"/>
<text text-anchor="middle" x="172.576" y="-139.529" font-family="Times,serif" font-size="14.00">1</text>
</g>
<!-- CEN.West\\TZ.Mountain -->
<g id="node9" class="node"><title>CEN.West\\TZ.Mountain</title>
<path fill="#eeeeee" stroke="black" d="M422.152,-191.729C422.152,-191.729 293.152,-191.729 293.152,-191.729 287.152,-191.729 281.152,-185.729 281.152,-179.729 281.152,-179.729 281.152,-167.729 281.152,-167.729 281.152,-161.729 287.152,-155.729 293.152,-155.729 293.152,-155.729 422.152,-155.729 422.152,-155.729 428.152,-155.729 434.152,-161.729 434.152,-167.729 434.152,-167.729 434.152,-179.729 434.152,-179.729 434.152,-185.729 428.152,-191.729 422.152,-191.729"/>
<text text-anchor="middle" x="357.652" y="-170.029" font-family="Times,serif" font-size="14.00">CEN.West\TZ.Mountain</text>
</g>
<!-- CEN.West\\TZ.Mountain&#45;&gt;CEN.West -->
<g id="edge14" class="edge"><title>CEN.West\\TZ.Mountain&#45;&gt;CEN.West</title>
<path fill="none" stroke="#761212" d="M301.628,-155.699C291.119,-151.203 280.493,-145.875 271.152,-139.729 248.573,-124.874 249.539,-113.254 228.152,-96.7293 223.018,-92.7629 217.349,-88.9234 211.664,-85.3633"/>
<polygon fill="#761212" stroke="#761212" points="213.164,-82.1812 202.791,-80.0209 209.553,-88.1779 213.164,-82.1812"/>
<text text-anchor="middle" x="249.652" y="-128.529" font-family="Times,serif" font-size="14.00">1</text>
</g>
<!-- CEN.West\\TZ.Mountain&#45;&gt;TZ.USA\nCEN.USA -->
<g id="edge15" class="edge"><title>CEN.West\\TZ.Mountain&#45;&gt;TZ.USA\nCEN.USA</title>
<path fill="none" stroke="#761212" d="M281.024,-157.902C217.293,-149.574 130.518,-151.245 92,-210.729 46.4861,-281.017 39.3213,-544.658 38.2034,-633.382"/>
<polygon fill="#761212" stroke="#761212" points="34.702,-633.507 38.0928,-643.544 41.7015,-633.583 34.702,-633.507"/>
<text text-anchor="middle" x="172.576" y="-187.529" font-family="Times,serif" font-size="14.00">1</text>
</g>
<!-- TZ.Central -->
<g id="node10" class="node"><title>TZ.Central</title>
<polygon fill="#ccffcc" stroke="black" points="211.076,-754.729 134.076,-754.729 134.076,-718.729 211.076,-718.729 211.076,-754.729"/>
<text text-anchor="middle" x="172.576" y="-733.029" font-family="Times,serif" font-size="14.00">TZ.Central</text>
</g>
<!-- TZ.Central&#45;&gt;TZ.USA\nCEN.USA -->
<g id="edge16" class="edge"><title>TZ.Central&#45;&gt;TZ.USA\nCEN.USA</title>
<path fill="none" stroke="#761212" d="M133.687,-720.659C120.275,-714.569 105.237,-707.273 92,-699.729 85.5512,-696.054 78.878,-691.846 72.5148,-687.616"/>
<polygon fill="#761212" stroke="#761212" points="74.3177,-684.61 64.0799,-681.882 70.3824,-690.399 74.3177,-684.61"/>
<text text-anchor="middle" x="95.5" y="-706.529" font-family="Times,serif" font-size="14.00">1</text>
</g>
<!-- TZ.Central*CEN.Midwest\nCEN.Midwest\\TZ.Mountain -->
<g id="node11" class="node"><title>TZ.Central*CEN.Midwest\nCEN.Midwest\\TZ.Mountain</title>
<path fill="#eeeeee" stroke="black" d="M649.652,-756.729C649.652,-756.729 500.652,-756.729 500.652,-756.729 494.652,-756.729 488.652,-750.729 488.652,-744.729 488.652,-744.729 488.652,-730.729 488.652,-730.729 488.652,-724.729 494.652,-718.729 500.652,-718.729 500.652,-718.729 649.652,-718.729 649.652,-718.729 655.652,-718.729 661.652,-724.729 661.652,-730.729 661.652,-730.729 661.652,-744.729 661.652,-744.729 661.652,-750.729 655.652,-756.729 649.652,-756.729"/>
<text text-anchor="middle" x="575.152" y="-741.529" font-family="Times,serif" font-size="14.00">TZ.Central*CEN.Midwest</text>
<text text-anchor="middle" x="575.152" y="-726.529" font-family="Times,serif" font-size="14.00">CEN.Midwest\TZ.Mountain</text>
</g>
<!-- TZ.Central*CEN.Midwest\nCEN.Midwest\\TZ.Mountain&#45;&gt;CEN.Midwest -->
<g id="edge17" class="edge"><title>TZ.Central*CEN.Midwest\nCEN.Midwest\\TZ.Mountain&#45;&gt;CEN.Midwest</title>
<path fill="none" stroke="#761212" d="M545.979,-718.642C506.914,-692.176 436.317,-644.347 393.836,-615.566"/>
<polygon fill="#761212" stroke="#761212" points="395.717,-612.613 385.475,-609.902 391.791,-618.409 395.717,-612.613"/>
<text text-anchor="middle" x="465.652" y="-668.529" font-family="Times,serif" font-size="14.00">1</text>
</g>
<!-- TZ.Central*CEN.Midwest\nCEN.Midwest\\TZ.Mountain&#45;&gt;TZ.Central -->
<g id="edge18" class="edge"><title>TZ.Central*CEN.Midwest\nCEN.Midwest\\TZ.Mountain&#45;&gt;TZ.Central</title>
<path fill="none" stroke="#761212" d="M488.218,-737.515C406.606,-737.311 286.9,-737.012 221.162,-736.848"/>
<polygon fill="#761212" stroke="#761212" points="221.098,-733.348 211.09,-736.823 221.081,-740.348 221.098,-733.348"/>
<text text-anchor="middle" x="357.652" y="-740.529" font-family="Times,serif" font-size="14.00">1</text>
</g>
<!-- TZ.Central\\CEN.South -->
<g id="node15" class="node"><title>TZ.Central\\CEN.South</title>
<path fill="#eeeeee" stroke="black" d="M417.152,-701.729C417.152,-701.729 298.152,-701.729 298.152,-701.729 292.152,-701.729 286.152,-695.729 286.152,-689.729 286.152,-689.729 286.152,-677.729 286.152,-677.729 286.152,-671.729 292.152,-665.729 298.152,-665.729 298.152,-665.729 417.152,-665.729 417.152,-665.729 423.152,-665.729 429.152,-671.729 429.152,-677.729 429.152,-677.729 429.152,-689.729 429.152,-689.729 429.152,-695.729 423.152,-701.729 417.152,-701.729"/>
<text text-anchor="middle" x="357.652" y="-680.029" font-family="Times,serif" font-size="14.00">TZ.Central\CEN.South</text>
</g>
<!-- TZ.Central*CEN.Midwest\nCEN.Midwest\\TZ.Mountain&#45;&gt;TZ.Central\\CEN.South -->
<g id="edge19" class="edge"><title>TZ.Central*CEN.Midwest\nCEN.Midwest\\TZ.Mountain&#45;&gt;TZ.Central\\CEN.South</title>
<path fill="none" stroke="#761212" d="M507.059,-718.694C494.49,-715.272 481.441,-711.815 469.152,-708.729 459.494,-706.305 449.335,-703.861 439.25,-701.501"/>
<polygon fill="#761212" stroke="#761212" points="439.744,-698.023 429.212,-699.173 438.162,-704.842 439.744,-698.023"/>
<text text-anchor="middle" x="465.652" y="-712.529" font-family="Times,serif" font-size="14.00">1</text>
</g>
<!-- TZ.Central\\CEN.West -->
<g id="node16" class="node"><title>TZ.Central\\CEN.West</title>
<path fill="#eeeeee" stroke="black" d="M415.652,-923.729C415.652,-923.729 299.652,-923.729 299.652,-923.729 293.652,-923.729 287.652,-917.729 287.652,-911.729 287.652,-911.729 287.652,-899.729 287.652,-899.729 287.652,-893.729 293.652,-887.729 299.652,-887.729 299.652,-887.729 415.652,-887.729 415.652,-887.729 421.652,-887.729 427.652,-893.729 427.652,-899.729 427.652,-899.729 427.652,-911.729 427.652,-911.729 427.652,-917.729 421.652,-923.729 415.652,-923.729"/>
<text text-anchor="middle" x="357.652" y="-902.029" font-family="Times,serif" font-size="14.00">TZ.Central\CEN.West</text>
</g>
<!-- TZ.Central*CEN.Midwest\nCEN.Midwest\\TZ.Mountain&#45;&gt;TZ.Central\\CEN.West -->
<g id="edge20" class="edge"><title>TZ.Central*CEN.Midwest\nCEN.Midwest\\TZ.Mountain&#45;&gt;TZ.Central\\CEN.West</title>
<path fill="none" stroke="#761212" d="M566.685,-756.869C552.84,-789.597 519.895,-855.861 469.152,-887.729 459.604,-893.726 448.709,-897.929 437.569,-900.844"/>
<polygon fill="#761212" stroke="#761212" points="436.713,-897.449 427.743,-903.086 438.271,-904.273 436.713,-897.449"/>
<text text-anchor="middle" x="465.652" y="-894.529" font-family="Times,serif" font-size="14.00">1</text>
</g>
<!-- TZ.Central*CEN.Midwest\nCEN.Midwest\\TZ.Mountain&#45;&gt;TZ.USA\nCEN.USA -->
<g id="edge21" class="edge"><title>TZ.Central*CEN.Midwest\nCEN.Midwest\\TZ.Mountain&#45;&gt;TZ.USA\nCEN.USA</title>
<path fill="none" stroke="#761212" d="M558.389,-757.103C539.695,-778.385 506.344,-811.323 469.152,-824.729 432.321,-838.005 150.162,-833.539 117,-812.729 74.0009,-785.747 53.0823,-727.036 44.0095,-691.596"/>
<polygon fill="#761212" stroke="#761212" points="47.4028,-690.737 41.6591,-681.835 40.5973,-692.376 47.4028,-690.737"/>
<text text-anchor="middle" x="249.652" y="-833.529" font-family="Times,serif" font-size="14.00">1</text>
</g>
<!-- TZ.Central*CEN.South -->
<g id="node12" class="node"><title>TZ.Central*CEN.South</title>
<path fill="#eeeeee" stroke="black" d="M636.152,-1041.73C636.152,-1041.73 514.152,-1041.73 514.152,-1041.73 508.152,-1041.73 502.152,-1035.73 502.152,-1029.73 502.152,-1029.73 502.152,-1017.73 502.152,-1017.73 502.152,-1011.73 508.152,-1005.73 514.152,-1005.73 514.152,-1005.73 636.152,-1005.73 636.152,-1005.73 642.152,-1005.73 648.152,-1011.73 648.152,-1017.73 648.152,-1017.73 648.152,-1029.73 648.152,-1029.73 648.152,-1035.73 642.152,-1041.73 636.152,-1041.73"/>
<text text-anchor="middle" x="575.152" y="-1020.03" font-family="Times,serif" font-size="14.00">TZ.Central*CEN.South</text>
</g>
<!-- TZ.Central*CEN.South&#45;&gt;CEN.South\\TZ.Eastern -->
<g id="edge22" class="edge"><title>TZ.Central*CEN.South&#45;&gt;CEN.South\\TZ.Eastern</title>
<path fill="none" stroke="#761212" d="M501.977,-1013.47C488.497,-1010.46 474.709,-1006.62 462.152,-1001.73 453.415,-998.328 452.643,-994.704 444.152,-990.729 438.786,-988.218 433.141,-985.816 427.416,-983.546"/>
<polygon fill="#761212" stroke="#761212" points="428.332,-980.149 417.741,-979.853 425.836,-986.689 428.332,-980.149"/>
<text text-anchor="middle" x="465.652" y="-1007.53" font-family="Times,serif" font-size="14.00">1</text>
</g>
<!-- TZ.Central*CEN.South&#45;&gt;CEN.South\\TZ.Mountain -->
<g id="edge23" class="edge"><title>TZ.Central*CEN.South&#45;&gt;CEN.South\\TZ.Mountain</title>
<path fill="none" stroke="#761212" d="M555.19,-1041.74C535.267,-1059.71 502.278,-1086.87 469.152,-1102.73 461.647,-1106.32 453.626,-1109.49 445.462,-1112.28"/>
<polygon fill="#761212" stroke="#761212" points="444.281,-1108.98 435.834,-1115.38 446.425,-1115.64 444.281,-1108.98"/>
<text text-anchor="middle" x="465.652" y="-1108.53" font-family="Times,serif" font-size="14.00">1</text>
</g>
<!-- TZ.Central\\CEN.Midwest -->
<g id="node14" class="node"><title>TZ.Central\\CEN.Midwest</title>
<path fill="#eeeeee" stroke="black" d="M425.152,-807.729C425.152,-807.729 290.152,-807.729 290.152,-807.729 284.152,-807.729 278.152,-801.729 278.152,-795.729 278.152,-795.729 278.152,-783.729 278.152,-783.729 278.152,-777.729 284.152,-771.729 290.152,-771.729 290.152,-771.729 425.152,-771.729 425.152,-771.729 431.152,-771.729 437.152,-777.729 437.152,-783.729 437.152,-783.729 437.152,-795.729 437.152,-795.729 437.152,-801.729 431.152,-807.729 425.152,-807.729"/>
<text text-anchor="middle" x="357.652" y="-786.029" font-family="Times,serif" font-size="14.00">TZ.Central\CEN.Midwest</text>
</g>
<!-- TZ.Central*CEN.South&#45;&gt;TZ.Central\\CEN.Midwest -->
<g id="edge24" class="edge"><title>TZ.Central*CEN.South&#45;&gt;TZ.Central\\CEN.Midwest</title>
<path fill="none" stroke="#761212" d="M553.564,-1005.72C529.813,-984.311 490.409,-946.799 462.152,-909.729 452.493,-897.059 453.739,-891.454 444.152,-878.729 426.821,-855.728 404.119,-832.344 386.463,-815.322"/>
<polygon fill="#761212" stroke="#761212" points="388.4,-812.333 378.744,-807.972 383.573,-817.402 388.4,-812.333"/>
<text text-anchor="middle" x="465.652" y="-919.529" font-family="Times,serif" font-size="14.00">1</text>
</g>
<!-- TZ.Central*CEN.South&#45;&gt;TZ.Central\\CEN.West -->
<g id="edge25" class="edge"><title>TZ.Central*CEN.South&#45;&gt;TZ.Central\\CEN.West</title>
<path fill="none" stroke="#761212" d="M527.874,-1005.62C506.199,-995.559 481.054,-981.464 462.152,-963.729 451.089,-953.35 456.031,-944.163 444.152,-934.729 441.43,-932.568 438.539,-930.564 435.527,-928.705"/>
<polygon fill="#761212" stroke="#761212" points="437.206,-925.634 426.764,-923.845 433.811,-931.756 437.206,-925.634"/>
<text text-anchor="middle" x="465.652" y="-971.529" font-family="Times,serif" font-size="14.00">1</text>
</g>
<!-- TZ.Central*CEN.South&#45;&gt;TZ.USA\nCEN.USA -->
<g id="edge26" class="edge"><title>TZ.Central*CEN.South&#45;&gt;TZ.USA\nCEN.USA</title>
<path fill="none" stroke="#761212" d="M502.152,-1036.92C483.333,-1039.94 463.031,-1042.82 444.152,-1044.73 407.973,-1048.39 147.574,-1073.42 117,-1053.73 55.7797,-1014.31 41.8308,-775.832 38.8012,-691.913"/>
<polygon fill="#761212" stroke="#761212" points="42.2953,-691.676 38.4627,-681.799 35.2993,-691.91 42.2953,-691.676"/>
<text text-anchor="middle" x="249.652" y="-1062.53" font-family="Times,serif" font-size="14.00">1</text>
</g>
<!-- TZ.Central*CEN.West -->
<g id="node13" class="node"><title>TZ.Central*CEN.West</title>
<path fill="#eeeeee" stroke="black" d="M634.652,-538.729C634.652,-538.729 515.652,-538.729 515.652,-538.729 509.652,-538.729 503.652,-532.729 503.652,-526.729 503.652,-526.729 503.652,-514.729 503.652,-514.729 503.652,-508.729 509.652,-502.729 515.652,-502.729 515.652,-502.729 634.652,-502.729 634.652,-502.729 640.652,-502.729 646.652,-508.729 646.652,-514.729 646.652,-514.729 646.652,-526.729 646.652,-526.729 646.652,-532.729 640.652,-538.729 634.652,-538.729"/>
<text text-anchor="middle" x="575.152" y="-517.029" font-family="Times,serif" font-size="14.00">TZ.Central*CEN.West</text>
</g>
<!-- TZ.Central*CEN.West&#45;&gt;CEN.West\\TZ.Mountain -->
<g id="edge27" class="edge"><title>TZ.Central*CEN.West&#45;&gt;CEN.West\\TZ.Mountain</title>
<path fill="none" stroke="#761212" d="M551.739,-502.664C531.476,-485.016 502.535,-456.266 487.152,-424.729 466.587,-382.568 481.871,-365.882 469.152,-320.729 460.984,-291.734 460.812,-282.827 444.152,-257.729 429.282,-235.328 407.641,-214.141 389.853,-198.649"/>
<polygon fill="#761212" stroke="#761212" points="391.87,-195.77 381.989,-191.948 387.33,-201.098 391.87,-195.77"/>
<text text-anchor="middle" x="465.652" y="-324.529" font-family="Times,serif" font-size="14.00">1</text>
</g>
<!-- TZ.Central*CEN.West&#45;&gt;TZ.Central\\CEN.Midwest -->
<g id="edge28" class="edge"><title>TZ.Central*CEN.West&#45;&gt;TZ.Central\\CEN.Midwest</title>
<path fill="none" stroke="#761212" d="M525.891,-538.848C511.163,-546.735 496.427,-557.503 487.152,-571.729 441.051,-642.443 513.155,-708.106 444.152,-756.729 438.646,-760.609 432.624,-764.107 426.407,-767.245"/>
<polygon fill="#761212" stroke="#761212" points="424.748,-764.157 417.194,-771.587 427.732,-770.489 424.748,-764.157"/>
<text text-anchor="middle" x="465.652" y="-741.529" font-family="Times,serif" font-size="14.00">1</text>
</g>
<!-- TZ.Central*CEN.West&#45;&gt;TZ.Central\\CEN.South -->
<g id="edge29" class="edge"><title>TZ.Central*CEN.West&#45;&gt;TZ.Central\\CEN.South</title>
<path fill="none" stroke="#761212" d="M537.869,-538.812C521.621,-547.693 502.671,-559.179 487.152,-571.729 465.137,-589.532 465.061,-599.64 444.152,-618.729 428.35,-633.155 409.535,-647.709 393.584,-659.376"/>
<polygon fill="#761212" stroke="#761212" points="391.108,-656.848 385.054,-665.543 395.209,-662.521 391.108,-656.848"/>
<text text-anchor="middle" x="465.652" y="-602.529" font-family="Times,serif" font-size="14.00">1</text>
</g>
<!-- TZ.Central*CEN.West&#45;&gt;TZ.USA\nCEN.USA -->
<g id="edge30" class="edge"><title>TZ.Central*CEN.West&#45;&gt;TZ.USA\nCEN.USA</title>
<path fill="none" stroke="#761212" d="M503.621,-506.035C489.589,-505.607 475.175,-507.014 462.152,-511.729 452.36,-515.274 453.576,-522.298 444.152,-526.729 310.304,-589.667 248.742,-520.496 117,-587.729 94.4174,-599.254 73.8218,-619.276 59.3252,-635.736"/>
<polygon fill="#761212" stroke="#761212" points="56.5477,-633.599 52.7167,-643.477 61.8715,-638.144 56.5477,-633.599"/>
<text text-anchor="middle" x="249.652" y="-559.529" font-family="Times,serif" font-size="14.00">1</text>
</g>
<!-- TZ.Central\\CEN.Midwest&#45;&gt;TZ.Central -->
<g id="edge31" class="edge"><title>TZ.Central\\CEN.Midwest&#45;&gt;TZ.Central</title>
<path fill="none" stroke="#761212" d="M294.415,-771.712C270.306,-764.732 243.165,-756.875 220.721,-750.378"/>
<polygon fill="#761212" stroke="#761212" points="221.67,-747.009 211.091,-747.59 219.724,-753.733 221.67,-747.009"/>
<text text-anchor="middle" x="249.652" y="-761.529" font-family="Times,serif" font-size="14.00">1</text>
</g>
<!-- TZ.Central\\CEN.Midwest&#45;&gt;TZ.USA\nCEN.USA -->
<g id="edge32" class="edge"><title>TZ.Central\\CEN.Midwest&#45;&gt;TZ.USA\nCEN.USA</title>
<path fill="none" stroke="#761212" d="M278.085,-796.22C228.902,-796.788 165.827,-790.884 117,-763.729 87.2866,-747.205 64.9091,-714.449 51.6899,-690.71"/>
<polygon fill="#761212" stroke="#761212" points="54.7206,-688.956 46.9141,-681.793 48.5498,-692.261 54.7206,-688.956"/>
<text text-anchor="middle" x="172.576" y="-797.529" font-family="Times,serif" font-size="14.00">1</text>
</g>
<!-- TZ.Central\\CEN.South&#45;&gt;TZ.Central -->
<g id="edge33" class="edge"><title>TZ.Central\\CEN.South&#45;&gt;TZ.Central</title>
<path fill="none" stroke="#761212" d="M286.102,-698.076C272.742,-701.247 258.948,-704.836 246.152,-708.729 237.887,-711.244 229.221,-714.25 220.87,-717.345"/>
<polygon fill="#761212" stroke="#761212" points="219.362,-714.174 211.255,-720.995 221.846,-720.718 219.362,-714.174"/>
<text text-anchor="middle" x="249.652" y="-712.529" font-family="Times,serif" font-size="14.00">1</text>
</g>
<!-- TZ.Central\\CEN.South&#45;&gt;TZ.USA\nCEN.USA -->
<g id="edge34" class="edge"><title>TZ.Central\\CEN.South&#45;&gt;TZ.USA\nCEN.USA</title>
<path fill="none" stroke="#761212" d="M285.933,-679.069C224.566,-675.025 137.486,-669.286 84.5309,-665.796"/>
<polygon fill="#761212" stroke="#761212" points="84.6213,-662.294 74.4127,-665.129 84.1609,-669.279 84.6213,-662.294"/>
<text text-anchor="middle" x="172.576" y="-678.529" font-family="Times,serif" font-size="14.00">1</text>
</g>
<!-- TZ.Central\\CEN.West&#45;&gt;TZ.Central -->
<g id="edge35" class="edge"><title>TZ.Central\\CEN.West&#45;&gt;TZ.Central</title>
<path fill="none" stroke="#761212" d="M298.256,-887.613C279.088,-878.978 259.342,-866.717 246.152,-849.729 223.535,-820.6 249.866,-798.537 228.152,-768.729 225.642,-765.284 222.638,-762.147 219.349,-759.305"/>
<polygon fill="#761212" stroke="#761212" points="221.344,-756.426 211.252,-753.203 217.131,-762.017 221.344,-756.426"/>
<text text-anchor="middle" x="249.652" y="-860.529" font-family="Times,serif" font-size="14.00">1</text>
</g>
<!-- TZ.Central\\CEN.West&#45;&gt;TZ.USA\nCEN.USA -->
<g id="edge36" class="edge"><title>TZ.Central\\CEN.West&#45;&gt;TZ.USA\nCEN.USA</title>
<path fill="none" stroke="#761212" d="M287.39,-898.57C218.733,-890.104 119.887,-873.775 92,-847.729 48.342,-806.954 39.3149,-733.067 37.8489,-692.089"/>
<polygon fill="#761212" stroke="#761212" points="41.3446,-691.857 37.6177,-681.939 34.3465,-692.016 41.3446,-691.857"/>
<text text-anchor="middle" x="172.576" y="-892.529" font-family="Times,serif" font-size="14.00">1</text>
</g>
<!-- TZ.Eastern&#45;&gt;TZ.USA\nCEN.USA -->
<g id="edge37" class="edge"><title>TZ.Eastern&#45;&gt;TZ.USA\nCEN.USA</title>
<path fill="none" stroke="#761212" d="M133.875,-1225.4C118.501,-1220.85 102.018,-1213.06 92,-1199.73 61.3244,-1158.9 43.7331,-798.156 39.1879,-691.996"/>
<polygon fill="#761212" stroke="#761212" points="42.6839,-691.826 38.7657,-681.982 35.6901,-692.121 42.6839,-691.826"/>
<text text-anchor="middle" x="95.5" y="-1209.53" font-family="Times,serif" font-size="14.00">1</text>
</g>
<!-- TZ.Eastern*CEN.South -->
<g id="node18" class="node"><title>TZ.Eastern*CEN.South</title>
<path fill="#eeeeee" stroke="black" d="M636.152,-1195.73C636.152,-1195.73 514.152,-1195.73 514.152,-1195.73 508.152,-1195.73 502.152,-1189.73 502.152,-1183.73 502.152,-1183.73 502.152,-1171.73 502.152,-1171.73 502.152,-1165.73 508.152,-1159.73 514.152,-1159.73 514.152,-1159.73 636.152,-1159.73 636.152,-1159.73 642.152,-1159.73 648.152,-1165.73 648.152,-1171.73 648.152,-1171.73 648.152,-1183.73 648.152,-1183.73 648.152,-1189.73 642.152,-1195.73 636.152,-1195.73"/>
<text text-anchor="middle" x="575.152" y="-1174.03" font-family="Times,serif" font-size="14.00">TZ.Eastern*CEN.South</text>
</g>
<!-- TZ.Eastern*CEN.South&#45;&gt;CEN.South\\TZ.Central -->
<g id="edge38" class="edge"><title>TZ.Eastern*CEN.South&#45;&gt;CEN.South\\TZ.Central</title>
<path fill="none" stroke="#761212" d="M556.108,-1159.61C535.889,-1139.79 501.67,-1107.65 469.152,-1083.73 447.733,-1067.97 422.35,-1052.6 401.317,-1040.66"/>
<polygon fill="#761212" stroke="#761212" points="403.026,-1037.61 392.593,-1035.77 399.6,-1043.72 403.026,-1037.61"/>
<text text-anchor="middle" x="465.652" y="-1087.53" font-family="Times,serif" font-size="14.00">1</text>
</g>
<!-- TZ.Eastern*CEN.South&#45;&gt;CEN.South\\TZ.Mountain -->
<g id="edge39" class="edge"><title>TZ.Eastern*CEN.South&#45;&gt;CEN.South\\TZ.Mountain</title>
<path fill="none" stroke="#761212" d="M502.094,-1162.01C484.047,-1158.08 464.494,-1153.81 445.801,-1149.74"/>
<polygon fill="#761212" stroke="#761212" points="446.335,-1146.27 435.819,-1147.56 444.843,-1153.11 446.335,-1146.27"/>
<text text-anchor="middle" x="465.652" y="-1157.53" font-family="Times,serif" font-size="14.00">1</text>
</g>
<!-- TZ.Eastern*CEN.South&#45;&gt;TZ.Eastern -->
<g id="edge40" class="edge"><title>TZ.Eastern*CEN.South&#45;&gt;TZ.Eastern</title>
<path fill="none" stroke="#761212" d="M516.276,-1195.78C501.073,-1199.95 484.603,-1203.97 469.152,-1206.73 382.592,-1222.21 280.008,-1228.16 221.283,-1230.41"/>
<polygon fill="#761212" stroke="#761212" points="221.059,-1226.91 211.193,-1230.77 221.313,-1233.91 221.059,-1226.91"/>
<text text-anchor="middle" x="357.652" y="-1231.53" font-family="Times,serif" font-size="14.00">1</text>
</g>
<!-- TZ.Eastern*CEN.South&#45;&gt;TZ.USA\nCEN.USA -->
<g id="edge41" class="edge"><title>TZ.Eastern*CEN.South&#45;&gt;TZ.USA\nCEN.USA</title>
<path fill="none" stroke="#761212" d="M501.864,-1184.08C389.195,-1192.53 178.261,-1202.09 117,-1161.73 38.0172,-1109.7 36.0443,-791.188 37.3833,-692.113"/>
<polygon fill="#761212" stroke="#761212" points="40.8858,-691.975 37.544,-681.921 33.8867,-691.865 40.8858,-691.975"/>
<text text-anchor="middle" x="249.652" y="-1192.53" font-family="Times,serif" font-size="14.00">1</text>
</g>
<!-- TZ.Mountain -->
<g id="node19" class="node"><title>TZ.Mountain</title>
<polygon fill="#ccffcc" stroke="black" points="217.576,-420.729 127.576,-420.729 127.576,-384.729 217.576,-384.729 217.576,-420.729"/>
<text text-anchor="middle" x="172.576" y="-399.029" font-family="Times,serif" font-size="14.00">TZ.Mountain</text>
</g>
<!-- TZ.Mountain&#45;&gt;TZ.USA\nCEN.USA -->
<g id="edge42" class="edge"><title>TZ.Mountain&#45;&gt;TZ.USA\nCEN.USA</title>
<path fill="none" stroke="#761212" d="M127.408,-408.084C114.423,-411.708 101.24,-417.734 92,-427.729 64.3702,-457.619 47.5571,-577.704 41.0708,-633.706"/>
<polygon fill="#761212" stroke="#761212" points="37.5872,-633.364 39.9453,-643.693 44.5432,-634.148 37.5872,-633.364"/>
<text text-anchor="middle" x="95.5" y="-431.529" font-family="Times,serif" font-size="14.00">1</text>
</g>
<!-- TZ.Mountain*CEN.Midwest\nCEN.Midwest\\TZ.Central -->
<g id="node20" class="node"><title>TZ.Mountain*CEN.Midwest\nCEN.Midwest\\TZ.Central</title>
<path fill="#eeeeee" stroke="black" d="M651.152,-415.729C651.152,-415.729 499.152,-415.729 499.152,-415.729 493.152,-415.729 487.152,-409.729 487.152,-403.729 487.152,-403.729 487.152,-389.729 487.152,-389.729 487.152,-383.729 493.152,-377.729 499.152,-377.729 499.152,-377.729 651.152,-377.729 651.152,-377.729 657.152,-377.729 663.152,-383.729 663.152,-389.729 663.152,-389.729 663.152,-403.729 663.152,-403.729 663.152,-409.729 657.152,-415.729 651.152,-415.729"/>
<text text-anchor="middle" x="575.152" y="-400.529" font-family="Times,serif" font-size="14.00">TZ.Mountain*CEN.Midwest</text>
<text text-anchor="middle" x="575.152" y="-385.529" font-family="Times,serif" font-size="14.00">CEN.Midwest\TZ.Central</text>
</g>
<!-- TZ.Mountain*CEN.Midwest\nCEN.Midwest\\TZ.Central&#45;&gt;CEN.Midwest -->
<g id="edge43" class="edge"><title>TZ.Mountain*CEN.Midwest\nCEN.Midwest\\TZ.Central&#45;&gt;CEN.Midwest</title>
<path fill="none" stroke="#761212" d="M557.986,-415.915C538.121,-439.017 502.888,-478.482 469.152,-508.729 445.233,-530.175 416.106,-551.893 393.763,-567.731"/>
<polygon fill="#761212" stroke="#761212" points="391.724,-564.886 385.557,-573.501 395.75,-570.612 391.724,-564.886"/>
<text text-anchor="middle" x="465.652" y="-517.529" font-family="Times,serif" font-size="14.00">1</text>
</g>
<!-- TZ.Mountain*CEN.Midwest\nCEN.Midwest\\TZ.Central&#45;&gt;TZ.Mountain -->
<g id="edge44" class="edge"><title>TZ.Mountain*CEN.Midwest\nCEN.Midwest\\TZ.Central&#45;&gt;TZ.Mountain</title>
<path fill="none" stroke="#761212" d="M486.739,-398.039C407.964,-399.219 294.601,-400.917 228.071,-401.913"/>
<polygon fill="#761212" stroke="#761212" points="227.755,-398.417 217.808,-402.067 227.86,-405.417 227.755,-398.417"/>
<text text-anchor="middle" x="357.652" y="-405.529" font-family="Times,serif" font-size="14.00">1</text>
</g>
<!-- TZ.Mountain\\CEN.South -->
<g id="node24" class="node"><title>TZ.Mountain\\CEN.South</title>
<path fill="#eeeeee" stroke="black" d="M423.652,-302.729C423.652,-302.729 291.652,-302.729 291.652,-302.729 285.652,-302.729 279.652,-296.729 279.652,-290.729 279.652,-290.729 279.652,-278.729 279.652,-278.729 279.652,-272.729 285.652,-266.729 291.652,-266.729 291.652,-266.729 423.652,-266.729 423.652,-266.729 429.652,-266.729 435.652,-272.729 435.652,-278.729 435.652,-278.729 435.652,-290.729 435.652,-290.729 435.652,-296.729 429.652,-302.729 423.652,-302.729"/>
<text text-anchor="middle" x="357.652" y="-281.029" font-family="Times,serif" font-size="14.00">TZ.Mountain\CEN.South</text>
</g>
<!-- TZ.Mountain*CEN.Midwest\nCEN.Midwest\\TZ.Central&#45;&gt;TZ.Mountain\\CEN.South -->
<g id="edge45" class="edge"><title>TZ.Mountain*CEN.Midwest\nCEN.Midwest\\TZ.Central&#45;&gt;TZ.Mountain\\CEN.South</title>
<path fill="none" stroke="#761212" d="M538.673,-377.629C512.601,-363.658 476.272,-344.328 444.152,-327.729 431.205,-321.039 417.093,-313.885 404.134,-307.371"/>
<polygon fill="#761212" stroke="#761212" points="405.443,-304.112 394.935,-302.757 402.304,-310.369 405.443,-304.112"/>
<text text-anchor="middle" x="465.652" y="-345.529" font-family="Times,serif" font-size="14.00">1</text>
</g>
<!-- TZ.Mountain\\CEN.West -->
<g id="node25" class="node"><title>TZ.Mountain\\CEN.West</title>
<path fill="#eeeeee" stroke="black" d="M422.152,-517.729C422.152,-517.729 293.152,-517.729 293.152,-517.729 287.152,-517.729 281.152,-511.729 281.152,-505.729 281.152,-505.729 281.152,-493.729 281.152,-493.729 281.152,-487.729 287.152,-481.729 293.152,-481.729 293.152,-481.729 422.152,-481.729 422.152,-481.729 428.152,-481.729 434.152,-487.729 434.152,-493.729 434.152,-493.729 434.152,-505.729 434.152,-505.729 434.152,-511.729 428.152,-517.729 422.152,-517.729"/>
<text text-anchor="middle" x="357.652" y="-496.029" font-family="Times,serif" font-size="14.00">TZ.Mountain\CEN.West</text>
</g>
<!-- TZ.Mountain*CEN.Midwest\nCEN.Midwest\\TZ.Central&#45;&gt;TZ.Mountain\\CEN.West -->
<g id="edge46" class="edge"><title>TZ.Mountain*CEN.Midwest\nCEN.Midwest\\TZ.Central&#45;&gt;TZ.Mountain\\CEN.West</title>
<path fill="none" stroke="#761212" d="M486.935,-414.768C477.943,-419.012 469.447,-424.254 462.152,-430.729 447.268,-443.94 458.891,-458.358 444.152,-471.729 442.46,-473.264 440.682,-474.715 438.834,-476.087"/>
<polygon fill="#761212" stroke="#761212" points="436.812,-473.226 430.328,-481.606 440.622,-479.099 436.812,-473.226"/>
<text text-anchor="middle" x="465.652" y="-434.529" font-family="Times,serif" font-size="14.00">1</text>
</g>
<!-- TZ.Mountain*CEN.Midwest\nCEN.Midwest\\TZ.Central&#45;&gt;TZ.USA\nCEN.USA -->
<g id="edge47" class="edge"><title>TZ.Mountain*CEN.Midwest\nCEN.Midwest\\TZ.Central&#45;&gt;TZ.USA\nCEN.USA</title>
<path fill="none" stroke="#761212" d="M502.3,-377.663C421.234,-357.166 294.401,-328.429 246.152,-335.729 186.737,-344.719 164.016,-338.308 117,-375.729 76.3033,-408.121 50.7629,-567.018 41.7056,-633.45"/>
<polygon fill="#761212" stroke="#761212" points="38.1984,-633.273 40.3464,-643.647 45.137,-634.198 38.1984,-633.273"/>
<text text-anchor="middle" x="249.652" y="-339.529" font-family="Times,serif" font-size="14.00">1</text>
</g>
<!-- TZ.Mountain*CEN.South -->
<g id="node21" class="node"><title>TZ.Mountain*CEN.South</title>
<path fill="#eeeeee" stroke="black" d="M642.652,-616.729C642.652,-616.729 507.652,-616.729 507.652,-616.729 501.652,-616.729 495.652,-610.729 495.652,-604.729 495.652,-604.729 495.652,-592.729 495.652,-592.729 495.652,-586.729 501.652,-580.729 507.652,-580.729 507.652,-580.729 642.652,-580.729 642.652,-580.729 648.652,-580.729 654.652,-586.729 654.652,-592.729 654.652,-592.729 654.652,-604.729 654.652,-604.729 654.652,-610.729 648.652,-616.729 642.652,-616.729"/>
<text text-anchor="middle" x="575.152" y="-595.029" font-family="Times,serif" font-size="14.00">TZ.Mountain*CEN.South</text>
</g>
<!-- TZ.Mountain*CEN.South&#45;&gt;CEN.South\\TZ.Central -->
<g id="edge48" class="edge"><title>TZ.Mountain*CEN.South&#45;&gt;CEN.South\\TZ.Central</title>
<path fill="none" stroke="#761212" d="M554.525,-617.08C533.998,-637.551 502.653,-672.687 487.152,-709.729 462.935,-767.601 484.09,-788.799 469.152,-849.729 467.009,-858.47 464.386,-860.012 462.152,-868.729 448.76,-920.97 478.743,-947.355 444.152,-988.729 442.22,-991.04 440.096,-993.168 437.82,-995.126"/>
<polygon fill="#761212" stroke="#761212" points="435.57,-992.435 429.553,-1001.16 439.695,-998.091 435.57,-992.435"/>
<text text-anchor="middle" x="465.652" y="-872.529" font-family="Times,serif" font-size="14.00">1</text>
</g>
<!-- TZ.Mountain*CEN.South&#45;&gt;CEN.South\\TZ.Eastern -->
<g id="edge49" class="edge"><title>TZ.Mountain*CEN.South&#45;&gt;CEN.South\\TZ.Eastern</title>
<path fill="none" stroke="#761212" d="M555.387,-616.922C535.295,-637.524 504.033,-673.026 487.152,-709.729 463.478,-761.202 472.825,-779.088 462.152,-834.729 453.809,-878.221 473.109,-899.225 444.152,-932.729 442.182,-935.008 440.026,-937.109 437.723,-939.044"/>
<polygon fill="#761212" stroke="#761212" points="435.48,-936.346 429.383,-945.011 439.553,-942.039 435.48,-936.346"/>
<text text-anchor="middle" x="465.652" y="-838.529" font-family="Times,serif" font-size="14.00">1</text>
</g>
<!-- TZ.Mountain\\CEN.Midwest -->
<g id="node23" class="node"><title>TZ.Mountain\\CEN.Midwest</title>
<path fill="#eeeeee" stroke="black" d="M432.152,-462.729C432.152,-462.729 283.152,-462.729 283.152,-462.729 277.152,-462.729 271.152,-456.729 271.152,-450.729 271.152,-450.729 271.152,-438.729 271.152,-438.729 271.152,-432.729 277.152,-426.729 283.152,-426.729 283.152,-426.729 432.152,-426.729 432.152,-426.729 438.152,-426.729 444.152,-432.729 444.152,-438.729 444.152,-438.729 444.152,-450.729 444.152,-450.729 444.152,-456.729 438.152,-462.729 432.152,-462.729"/>
<text text-anchor="middle" x="357.652" y="-441.029" font-family="Times,serif" font-size="14.00">TZ.Mountain\CEN.Midwest</text>
</g>
<!-- TZ.Mountain*CEN.South&#45;&gt;TZ.Mountain\\CEN.Midwest -->
<g id="edge50" class="edge"><title>TZ.Mountain*CEN.South&#45;&gt;TZ.Mountain\\CEN.Midwest</title>
<path fill="none" stroke="#761212" d="M529.788,-580.628C514.493,-572.517 498.397,-561.602 487.152,-547.729 471.222,-528.077 483.372,-514.652 469.152,-493.729 460.995,-481.728 456.833,-479.782 444.152,-472.729 440.285,-470.579 436.227,-468.561 432.067,-466.674"/>
<polygon fill="#761212" stroke="#761212" points="433.406,-463.44 422.834,-462.748 430.667,-469.882 433.406,-463.44"/>
<text text-anchor="middle" x="465.652" y="-497.529" font-family="Times,serif" font-size="14.00">1</text>
</g>
<!-- TZ.Mountain*CEN.South&#45;&gt;TZ.Mountain\\CEN.West -->
<g id="edge51" class="edge"><title>TZ.Mountain*CEN.South&#45;&gt;TZ.Mountain\\CEN.West</title>
<path fill="none" stroke="#761212" d="M534.626,-580.571C498.78,-564.104 445.822,-539.775 407.371,-522.111"/>
<polygon fill="#761212" stroke="#761212" points="408.475,-518.766 397.927,-517.772 405.553,-525.127 408.475,-518.766"/>
<text text-anchor="middle" x="465.652" y="-553.529" font-family="Times,serif" font-size="14.00">1</text>
</g>
<!-- TZ.Mountain*CEN.South&#45;&gt;TZ.USA\nCEN.USA -->
<g id="edge52" class="edge"><title>TZ.Mountain*CEN.South&#45;&gt;TZ.USA\nCEN.USA</title>
<path fill="none" stroke="#761212" d="M495.481,-606.568C484.233,-608.266 472.854,-610.302 462.152,-612.729 453.928,-614.595 452.391,-616.932 444.152,-618.729 315.759,-646.744 160.46,-657.256 84.4605,-660.925"/>
<polygon fill="#761212" stroke="#761212" points="84.1006,-657.438 74.2739,-661.398 84.4257,-664.43 84.1006,-657.438"/>
<text text-anchor="middle" x="249.652" y="-652.529" font-family="Times,serif" font-size="14.00">1</text>
</g>
<!-- TZ.Mountain*CEN.West -->
<g id="node22" class="node"><title>TZ.Mountain*CEN.West</title>
<path fill="#eeeeee" stroke="black" d="M641.152,-228.729C641.152,-228.729 509.152,-228.729 509.152,-228.729 503.152,-228.729 497.152,-222.729 497.152,-216.729 497.152,-216.729 497.152,-204.729 497.152,-204.729 497.152,-198.729 503.152,-192.729 509.152,-192.729 509.152,-192.729 641.152,-192.729 641.152,-192.729 647.152,-192.729 653.152,-198.729 653.152,-204.729 653.152,-204.729 653.152,-216.729 653.152,-216.729 653.152,-222.729 647.152,-228.729 641.152,-228.729"/>
<text text-anchor="middle" x="575.152" y="-207.029" font-family="Times,serif" font-size="14.00">TZ.Mountain*CEN.West</text>
</g>
<!-- TZ.Mountain*CEN.West&#45;&gt;CEN.West\\TZ.Central -->
<g id="edge53" class="edge"><title>TZ.Mountain*CEN.West&#45;&gt;CEN.West\\TZ.Central</title>
<path fill="none" stroke="#761212" d="M539.469,-192.724C513.482,-179.462 476.913,-161.28 444.152,-146.729 434.954,-142.644 425.106,-138.511 415.483,-134.6"/>
<polygon fill="#761212" stroke="#761212" points="416.553,-131.258 405.969,-130.773 413.941,-137.752 416.553,-131.258"/>
<text text-anchor="middle" x="465.652" y="-160.529" font-family="Times,serif" font-size="14.00">1</text>
</g>
<!-- TZ.Mountain*CEN.West&#45;&gt;TZ.Mountain\\CEN.Midwest -->
<g id="edge54" class="edge"><title>TZ.Mountain*CEN.West&#45;&gt;TZ.Mountain\\CEN.Midwest</title>
<path fill="none" stroke="#761212" d="M512.292,-228.775C493.352,-237.299 474.324,-249.51 462.152,-266.729 424.667,-319.758 484.12,-360.547 444.152,-411.729 441.508,-415.115 438.47,-418.154 435.152,-420.881"/>
<polygon fill="#761212" stroke="#761212" points="433.085,-418.056 426.952,-426.696 437.134,-423.766 433.085,-418.056"/>
<text text-anchor="middle" x="465.652" y="-270.529" font-family="Times,serif" font-size="14.00">1</text>
</g>
<!-- TZ.Mountain*CEN.West&#45;&gt;TZ.Mountain\\CEN.South -->
<g id="edge55" class="edge"><title>TZ.Mountain*CEN.West&#45;&gt;TZ.Mountain\\CEN.South</title>
<path fill="none" stroke="#761212" d="M497.1,-219.599C485.234,-221.968 473.246,-224.958 462.152,-228.729 438.606,-236.732 414.052,-249.785 394.772,-261.277"/>
<polygon fill="#761212" stroke="#761212" points="392.758,-258.405 386.034,-266.593 396.396,-264.386 392.758,-258.405"/>
<text text-anchor="middle" x="465.652" y="-232.529" font-family="Times,serif" font-size="14.00">1</text>
</g>
<!-- TZ.Mountain*CEN.West&#45;&gt;TZ.USA\nCEN.USA -->
<g id="edge56" class="edge"><title>TZ.Mountain*CEN.West&#45;&gt;TZ.USA\nCEN.USA</title>
<path fill="none" stroke="#761212" d="M496.834,-209.635C383.1,-209.432 177.612,-214.844 117,-254.729 53.3496,-296.614 40.9528,-547.121 38.5634,-633.485"/>
<polygon fill="#761212" stroke="#761212" points="35.0607,-633.552 38.3085,-643.637 42.0585,-633.728 35.0607,-633.552"/>
<text text-anchor="middle" x="249.652" y="-225.529" font-family="Times,serif" font-size="14.00">1</text>
</g>
<!-- TZ.Mountain\\CEN.Midwest&#45;&gt;TZ.Mountain -->
<g id="edge57" class="edge"><title>TZ.Mountain\\CEN.Midwest&#45;&gt;TZ.Mountain</title>
<path fill="none" stroke="#761212" d="M277.949,-426.674C261.015,-422.789 243.484,-418.767 227.735,-415.154"/>
<polygon fill="#761212" stroke="#761212" points="228.197,-411.669 217.667,-412.844 226.632,-418.492 228.197,-411.669"/>
<text text-anchor="middle" x="249.652" y="-424.529" font-family="Times,serif" font-size="14.00">1</text>
</g>
<!-- TZ.Mountain\\CEN.Midwest&#45;&gt;TZ.USA\nCEN.USA -->
<g id="edge58" class="edge"><title>TZ.Mountain\\CEN.Midwest&#45;&gt;TZ.USA\nCEN.USA</title>
<path fill="none" stroke="#761212" d="M301.89,-462.798C279.902,-469.936 258.475,-476.7 253.152,-477.729 193.58,-489.247 168.955,-456.391 117,-487.729 65.6656,-518.693 47.4689,-592.52 41.1854,-633.704"/>
<polygon fill="#761212" stroke="#761212" points="37.7106,-633.28 39.8013,-643.667 44.6441,-634.244 37.7106,-633.28"/>
<text text-anchor="middle" x="172.576" y="-491.529" font-family="Times,serif" font-size="14.00">1</text>
</g>
<!-- TZ.Mountain\\CEN.South&#45;&gt;TZ.Mountain -->
<g id="edge59" class="edge"><title>TZ.Mountain\\CEN.South&#45;&gt;TZ.Mountain</title>
<path fill="none" stroke="#761212" d="M328.447,-302.908C296.639,-323.41 244.82,-356.81 209.981,-379.265"/>
<polygon fill="#761212" stroke="#761212" points="208.021,-376.364 201.512,-384.723 211.813,-382.248 208.021,-376.364"/>
<text text-anchor="middle" x="249.652" y="-358.529" font-family="Times,serif" font-size="14.00">1</text>
</g>
<!-- TZ.Mountain\\CEN.South&#45;&gt;TZ.USA\nCEN.USA -->
<g id="edge60" class="edge"><title>TZ.Mountain\\CEN.South&#45;&gt;TZ.USA\nCEN.USA</title>
<path fill="none" stroke="#761212" d="M289.974,-266.713C225.951,-253.961 133.085,-248.512 92,-309.729 56.4361,-362.72 43.1493,-558.779 39.3097,-633.524"/>
<polygon fill="#761212" stroke="#761212" points="35.8077,-633.48 38.8102,-643.64 42.7992,-633.825 35.8077,-633.48"/>
<text text-anchor="middle" x="172.576" y="-287.529" font-family="Times,serif" font-size="14.00">1</text>
</g>
<!-- TZ.Mountain\\CEN.West&#45;&gt;TZ.Mountain -->
<g id="edge61" class="edge"><title>TZ.Mountain\\CEN.West&#45;&gt;TZ.Mountain</title>
<path fill="none" stroke="#761212" d="M291.975,-481.607C284.77,-478.698 277.682,-475.412 271.152,-471.729 249.191,-459.344 248.665,-449.387 228.152,-434.729 224.013,-431.772 219.586,-428.837 215.109,-426.014"/>
<polygon fill="#761212" stroke="#761212" points="216.86,-422.982 206.504,-420.745 213.205,-428.952 216.86,-422.982"/>
<text text-anchor="middle" x="249.652" y="-462.529" font-family="Times,serif" font-size="14.00">1</text>
</g>
<!-- TZ.Mountain\\CEN.West&#45;&gt;TZ.USA\nCEN.USA -->
<g id="edge62" class="edge"><title>TZ.Mountain\\CEN.West&#45;&gt;TZ.USA\nCEN.USA</title>
<path fill="none" stroke="#761212" d="M280.965,-503.01C222.405,-506.23 146.487,-512.089 117,-521.729 70.5149,-536.927 50.7077,-596.79 42.7995,-633.453"/>
<polygon fill="#761212" stroke="#761212" points="39.306,-633.077 40.7912,-643.567 46.1719,-634.441 39.306,-633.077"/>
<text text-anchor="middle" x="172.576" y="-525.529" font-family="Times,serif" font-size="14.00">1</text>
</g>
<!-- TZ.Pacific -->
<g id="node26" class="node"><title>TZ.Pacific</title>
<polygon fill="#ccffcc" stroke="black" points="612.152,-89.7293 538.152,-89.7293 538.152,-53.7293 612.152,-53.7293 612.152,-89.7293"/>
<text text-anchor="middle" x="575.152" y="-68.0293" font-family="Times,serif" font-size="14.00">TZ.Pacific</text>
</g>
<!-- TZ.Pacific&#45;&gt;CEN.West -->
<g id="edge63" class="edge"><title>TZ.Pacific&#45;&gt;CEN.West</title>
<path fill="none" stroke="#761212" d="M537.897,-71.0958C469.608,-69.9024 321.168,-67.3084 236.348,-65.8262"/>
<polygon fill="#761212" stroke="#761212" points="236.388,-62.3265 226.329,-65.6511 236.266,-69.3254 236.388,-62.3265"/>
<text text-anchor="middle" x="357.652" y="-73.5293" font-family="Times,serif" font-size="14.00">1</text>
</g>
<!-- TZ.Pacific&#45;&gt;CEN.West\\TZ.Central -->
<g id="edge64" class="edge"><title>TZ.Pacific&#45;&gt;CEN.West\\TZ.Central</title>
<path fill="none" stroke="#761212" d="M537.992,-76.9841C516.006,-80.3173 487.395,-84.9005 462.152,-89.7293 454.247,-91.2414 446.023,-92.9079 437.82,-94.632"/>
<polygon fill="#761212" stroke="#761212" points="436.898,-91.2498 427.847,-96.757 438.357,-98.0961 436.898,-91.2498"/>
<text text-anchor="middle" x="465.652" y="-93.5293" font-family="Times,serif" font-size="14.00">1</text>
</g>
<!-- TZ.Pacific&#45;&gt;CEN.West\\TZ.Mountain -->
<g id="edge65" class="edge"><title>TZ.Pacific&#45;&gt;CEN.West\\TZ.Mountain</title>
<path fill="none" stroke="#761212" d="M541.76,-89.8677C515.738,-104.147 478.066,-124.167 444.152,-139.729 435.114,-143.877 425.416,-148.017 415.913,-151.909"/>
<polygon fill="#761212" stroke="#761212" points="414.468,-148.718 406.507,-155.71 417.09,-155.209 414.468,-148.718"/>
<text text-anchor="middle" x="465.652" y="-135.529" font-family="Times,serif" font-size="14.00">1</text>
</g>
<!-- TZ.Pacific&#45;&gt;TZ.USA\nCEN.USA -->
<g id="edge66" class="edge"><title>TZ.Pacific&#45;&gt;TZ.USA\nCEN.USA</title>
<path fill="none" stroke="#761212" d="M537.96,-56.2673C456.562,-24.0646 255.373,40.9373 117,-37.7293 98.1152,-48.4655 98.7227,-59.0724 92,-79.7293 57.8928,-184.531 42.8216,-530.099 39.0095,-633.346"/>
<polygon fill="#761212" stroke="#761212" points="35.5009,-633.524 38.6373,-643.644 42.4963,-633.777 35.5009,-633.524"/>
<text text-anchor="middle" x="249.652" y="-5.5293" font-family="Times,serif" font-size="14.00">1</text>
</g>
</g>
</svg>
