<?xml version="1.0" encoding="UTF-8" standalone="no"?>
<!DOCTYPE svg PUBLIC "-//W3C//DTD SVG 1.1//EN"
 "http://www.w3.org/Graphics/SVG/1.1/DTD/svg11.dtd">
<!-- Generated by graphviz version 2.38.0 (20140413.2041)
 -->
<!-- Title: %3 Pages: 1 -->
<svg width="761pt" height="1765pt"
 viewBox="0.00 0.00 761.15 1765.00" xmlns="http://www.w3.org/2000/svg" xmlns:xlink="http://www.w3.org/1999/xlink">
<g id="graph0" class="graph" transform="scale(1 1) rotate(0) translate(4 1761)">
<title>%3</title>
<polygon fill="white" stroke="none" points="-4,4 -4,-1761 757.152,-1761 757.152,4 -4,4"/>
<!-- CEN.Midwest -->
<g id="node1" class="node"><title>CEN.Midwest</title>
<polygon fill="#ffffcc" stroke="black" points="424.316,-930.544 424.316,-945.456 385.265,-956 330.039,-956 290.988,-945.456 290.988,-930.544 330.039,-920 385.265,-920 424.316,-930.544"/>
<text text-anchor="middle" x="357.652" y="-934.3" font-family="Times,serif" font-size="14.00">CEN.Midwest</text>
</g>
<!-- TZ.USA\nCEN.USA -->
<g id="node5" class="node"><title>TZ.USA\nCEN.USA</title>
<path fill="#eeeeee" stroke="black" d="M62,-897C62,-897 12,-897 12,-897 6,-897 0,-891 0,-885 0,-885 0,-871 0,-871 0,-865 6,-859 12,-859 12,-859 62,-859 62,-859 68,-859 74,-865 74,-871 74,-871 74,-885 74,-885 74,-891 68,-897 62,-897"/>
<text text-anchor="middle" x="37" y="-881.8" font-family="Times,serif" font-size="14.00">TZ.USA</text>
<text text-anchor="middle" x="37" y="-866.8" font-family="Times,serif" font-size="14.00">CEN.USA</text>
</g>
<!-- CEN.Midwest&#45;&gt;TZ.USA\nCEN.USA -->
<g id="edge27" class="edge"><title>CEN.Midwest&#45;&gt;TZ.USA\nCEN.USA</title>
<path fill="none" stroke="#761212" d="M290.926,-932.391C242.415,-927.422 175.026,-918.775 117,-905 106.095,-902.411 94.5699,-898.923 83.7942,-895.315"/>
<polygon fill="#761212" stroke="#761212" points="84.743,-891.939 74.1483,-891.989 82.4617,-898.557 84.743,-891.939"/>
<text text-anchor="middle" x="172.576" y="-927.8" font-family="Times,serif" font-size="14.00">1</text>
</g>
<!-- CEN.West -->
<g id="node2" class="node"><title>CEN.West</title>
<polygon fill="#ffffcc" stroke="black" points="226.007,-1613.54 226.007,-1628.46 194.708,-1639 150.444,-1639 119.145,-1628.46 119.145,-1613.54 150.444,-1603 194.708,-1603 226.007,-1613.54"/>
<text text-anchor="middle" x="172.576" y="-1617.3" font-family="Times,serif" font-size="14.00">CEN.West</text>
</g>
<!-- CEN.West&#45;&gt;TZ.USA\nCEN.USA -->
<g id="edge47" class="edge"><title>CEN.West&#45;&gt;TZ.USA\nCEN.USA</title>
<path fill="none" stroke="#761212" d="M139.797,-1606.32C122.573,-1596.6 102.679,-1582.1 92,-1563 59.6474,-1505.14 42.7646,-1031.28 38.8794,-907.493"/>
<polygon fill="#761212" stroke="#761212" points="42.3706,-907.15 38.5631,-897.263 35.3739,-907.366 42.3706,-907.15"/>
<text text-anchor="middle" x="95.5" y="-1574.8" font-family="Times,serif" font-size="14.00">1</text>
</g>
<!-- CEN.South -->
<g id="node3" class="node"><title>CEN.South</title>
<polygon fill="#ffffcc" stroke="black" points="228.228,-762.544 228.228,-777.456 195.628,-788 149.524,-788 116.924,-777.456 116.924,-762.544 149.524,-752 195.628,-752 228.228,-762.544"/>
<text text-anchor="middle" x="172.576" y="-766.3" font-family="Times,serif" font-size="14.00">CEN.South</text>
</g>
<!-- CEN.South&#45;&gt;TZ.USA\nCEN.USA -->
<g id="edge6" class="edge"><title>CEN.South&#45;&gt;TZ.USA\nCEN.USA</title>
<path fill="none" stroke="#761212" d="M146.279,-787.298C130.352,-798.465 109.559,-813.555 92,-828 82.9347,-835.457 73.4211,-844.002 64.9485,-851.893"/>
<polygon fill="#761212" stroke="#761212" points="62.3825,-849.502 57.503,-858.906 67.1821,-854.597 62.3825,-849.502"/>
<text text-anchor="middle" x="95.5" y="-831.8" font-family="Times,serif" font-size="14.00">1</text>
</g>
<!-- CEN.Northeast\nTZ.Eastern\\CEN.South -->
<g id="node4" class="node"><title>CEN.Northeast\nTZ.Eastern\\CEN.South</title>
<path fill="#eeeeee" stroke="black" d="M417.152,-38C417.152,-38 298.152,-38 298.152,-38 292.152,-38 286.152,-32 286.152,-26 286.152,-26 286.152,-12 286.152,-12 286.152,-6 292.152,-0 298.152,-0 298.152,-0 417.152,-0 417.152,-0 423.152,-0 429.152,-6 429.152,-12 429.152,-12 429.152,-26 429.152,-26 429.152,-32 423.152,-38 417.152,-38"/>
<text text-anchor="middle" x="357.652" y="-22.8" font-family="Times,serif" font-size="14.00">CEN.Northeast</text>
<text text-anchor="middle" x="357.652" y="-7.8" font-family="Times,serif" font-size="14.00">TZ.Eastern\CEN.South</text>
</g>
<!-- CEN.Northeast\nTZ.Eastern\\CEN.South&#45;&gt;TZ.USA\nCEN.USA -->
<g id="edge15" class="edge"><title>CEN.Northeast\nTZ.Eastern\\CEN.South&#45;&gt;TZ.USA\nCEN.USA</title>
<path fill="none" stroke="#761212" d="M286.031,-9.02861C234.759,-5.57886 166.061,-9.18457 117,-43 96.5433,-57.0999 98.5351,-69.0297 92,-93 52.0631,-239.486 40.7673,-723.457 38.4849,-848.372"/>
<polygon fill="#761212" stroke="#761212" points="34.9801,-848.621 38.3024,-858.682 41.979,-848.745 34.9801,-848.621"/>
<text text-anchor="middle" x="172.576" y="-46.8" font-family="Times,serif" font-size="14.00">1</text>
</g>
<!-- TZ.Eastern -->
<g id="node8" class="node"><title>TZ.Eastern</title>
<polygon fill="#ccffcc" stroke="black" points="211.076,-103 134.076,-103 134.076,-67 211.076,-67 211.076,-103"/>
<text text-anchor="middle" x="172.576" y="-81.3" font-family="Times,serif" font-size="14.00">TZ.Eastern</text>
</g>
<!-- CEN.Northeast\nTZ.Eastern\\CEN.South&#45;&gt;TZ.Eastern -->
<g id="edge65" class="edge"><title>CEN.Northeast\nTZ.Eastern\\CEN.South&#45;&gt;TZ.Eastern</title>
<path fill="none" stroke="#761212" d="M297.654,-38.063C280.938,-43.6513 262.771,-49.903 246.152,-56 237.822,-59.056 229.012,-62.4429 220.512,-65.7922"/>
<polygon fill="#761212" stroke="#761212" points="219.087,-62.592 211.087,-69.5382 221.673,-69.097 219.087,-62.592"/>
<text text-anchor="middle" x="249.652" y="-59.8" font-family="Times,serif" font-size="14.00">1</text>
</g>
<!-- TZ.Mountain*CEN.Midwest\nCEN.Midwest\\TZ.Central -->
<g id="node6" class="node"><title>TZ.Mountain*CEN.Midwest\nCEN.Midwest\\TZ.Central</title>
<path fill="#eeeeee" stroke="black" d="M651.152,-417C651.152,-417 499.152,-417 499.152,-417 493.152,-417 487.152,-411 487.152,-405 487.152,-405 487.152,-391 487.152,-391 487.152,-385 493.152,-379 499.152,-379 499.152,-379 651.152,-379 651.152,-379 657.152,-379 663.152,-385 663.152,-391 663.152,-391 663.152,-405 663.152,-405 663.152,-411 657.152,-417 651.152,-417"/>
<text text-anchor="middle" x="575.152" y="-401.8" font-family="Times,serif" font-size="14.00">TZ.Mountain*CEN.Midwest</text>
<text text-anchor="middle" x="575.152" y="-386.8" font-family="Times,serif" font-size="14.00">CEN.Midwest\TZ.Central</text>
</g>
<!-- TZ.Mountain*CEN.Midwest\nCEN.Midwest\\TZ.Central&#45;&gt;CEN.Midwest -->
<g id="edge38" class="edge"><title>TZ.Mountain*CEN.Midwest\nCEN.Midwest\\TZ.Central&#45;&gt;CEN.Midwest</title>
<path fill="none" stroke="#761212" d="M566.675,-417.267C549.796,-461.54 508.548,-574.245 487.152,-672 473.267,-735.437 483.056,-753.567 469.152,-817 466.955,-827.023 464.877,-829.108 462.152,-839 452.817,-872.882 468.726,-890.874 444.152,-916 440.495,-919.739 436.293,-922.873 431.758,-925.495"/>
<polygon fill="#761212" stroke="#761212" points="430.125,-922.397 422.679,-929.934 433.2,-928.686 430.125,-922.397"/>
<text text-anchor="middle" x="465.652" y="-842.8" font-family="Times,serif" font-size="14.00">1</text>
</g>
<!-- TZ.Mountain*CEN.Midwest\nCEN.Midwest\\TZ.Central&#45;&gt;TZ.USA\nCEN.USA -->
<g id="edge37" class="edge"><title>TZ.Mountain*CEN.Midwest\nCEN.Midwest\\TZ.Central&#45;&gt;TZ.USA\nCEN.USA</title>
<path fill="none" stroke="#761212" d="M525.144,-417.057C500.822,-426.461 470.976,-437.923 444.152,-448 371.662,-475.233 171.399,-512.889 117,-568 77.4653,-608.052 51.0166,-778.963 41.711,-848.448"/>
<polygon fill="#761212" stroke="#761212" points="38.1974,-848.323 40.3653,-858.694 45.1378,-849.235 38.1974,-848.323"/>
<text text-anchor="middle" x="249.652" y="-508.8" font-family="Times,serif" font-size="14.00">1</text>
</g>
<!-- TZ.Mountain -->
<g id="node9" class="node"><title>TZ.Mountain</title>
<polygon fill="#ccffcc" stroke="black" points="217.576,-417 127.576,-417 127.576,-381 217.576,-381 217.576,-417"/>
<text text-anchor="middle" x="172.576" y="-395.3" font-family="Times,serif" font-size="14.00">TZ.Mountain</text>
</g>
<!-- TZ.Mountain*CEN.Midwest\nCEN.Midwest\\TZ.Central&#45;&gt;TZ.Mountain -->
<g id="edge13" class="edge"><title>TZ.Mountain*CEN.Midwest\nCEN.Midwest\\TZ.Central&#45;&gt;TZ.Mountain</title>
<path fill="none" stroke="#761212" d="M486.933,-383.478C472.674,-381.616 458.029,-380.009 444.152,-379 367.465,-373.426 347.648,-371.241 271.152,-379 257.031,-380.432 241.934,-383.002 227.94,-385.833"/>
<polygon fill="#761212" stroke="#761212" points="227.04,-382.445 217.974,-387.927 228.48,-389.296 227.04,-382.445"/>
<text text-anchor="middle" x="357.652" y="-382.8" font-family="Times,serif" font-size="14.00">1</text>
</g>
<!-- TZ.Mountain\\CEN.West -->
<g id="node12" class="node"><title>TZ.Mountain\\CEN.West</title>
<polygon fill="#ccffcc" stroke="black" points="434.152,-582 281.152,-582 281.152,-546 434.152,-546 434.152,-582"/>
<text text-anchor="middle" x="357.652" y="-560.3" font-family="Times,serif" font-size="14.00">TZ.Mountain\CEN.West</text>
</g>
<!-- TZ.Mountain*CEN.Midwest\nCEN.Midwest\\TZ.Central&#45;&gt;TZ.Mountain\\CEN.West -->
<g id="edge1" class="edge"><title>TZ.Mountain*CEN.Midwest\nCEN.Midwest\\TZ.Central&#45;&gt;TZ.Mountain\\CEN.West</title>
<path fill="none" stroke="#761212" d="M560.392,-417.377C541.922,-442.296 507.026,-485.723 469.152,-514 459.276,-521.373 455.34,-520.83 444.152,-526 432.977,-531.164 420.927,-536.6 409.497,-541.695"/>
<polygon fill="#761212" stroke="#761212" points="407.793,-538.623 400.076,-545.882 410.636,-545.02 407.793,-538.623"/>
<text text-anchor="middle" x="465.652" y="-521.8" font-family="Times,serif" font-size="14.00">1</text>
</g>
<!-- TZ.Mountain\\CEN.South -->
<g id="node22" class="node"><title>TZ.Mountain\\CEN.South</title>
<polygon fill="#ccffcc" stroke="black" points="435.652,-305 279.652,-305 279.652,-269 435.652,-269 435.652,-305"/>
<text text-anchor="middle" x="357.652" y="-283.3" font-family="Times,serif" font-size="14.00">TZ.Mountain\CEN.South</text>
</g>
<!-- TZ.Mountain*CEN.Midwest\nCEN.Midwest\\TZ.Central&#45;&gt;TZ.Mountain\\CEN.South -->
<g id="edge54" class="edge"><title>TZ.Mountain*CEN.Midwest\nCEN.Midwest\\TZ.Central&#45;&gt;TZ.Mountain\\CEN.South</title>
<path fill="none" stroke="#761212" d="M547.358,-378.901C526.624,-364.623 496.865,-345.198 469.152,-331 453.405,-322.933 435.821,-315.337 419.393,-308.8"/>
<polygon fill="#761212" stroke="#761212" points="420.464,-305.461 409.876,-305.078 417.914,-311.98 420.464,-305.461"/>
<text text-anchor="middle" x="465.652" y="-334.8" font-family="Times,serif" font-size="14.00">1</text>
</g>
<!-- TZ.Central*CEN.Midwest\nCEN.Midwest\\TZ.Mountain -->
<g id="node7" class="node"><title>TZ.Central*CEN.Midwest\nCEN.Midwest\\TZ.Mountain</title>
<path fill="#eeeeee" stroke="black" d="M649.652,-1245C649.652,-1245 500.652,-1245 500.652,-1245 494.652,-1245 488.652,-1239 488.652,-1233 488.652,-1233 488.652,-1219 488.652,-1219 488.652,-1213 494.652,-1207 500.652,-1207 500.652,-1207 649.652,-1207 649.652,-1207 655.652,-1207 661.652,-1213 661.652,-1219 661.652,-1219 661.652,-1233 661.652,-1233 661.652,-1239 655.652,-1245 649.652,-1245"/>
<text text-anchor="middle" x="575.152" y="-1229.8" font-family="Times,serif" font-size="14.00">TZ.Central*CEN.Midwest</text>
<text text-anchor="middle" x="575.152" y="-1214.8" font-family="Times,serif" font-size="14.00">CEN.Midwest\TZ.Mountain</text>
</g>
<!-- TZ.Central*CEN.Midwest\nCEN.Midwest\\TZ.Mountain&#45;&gt;CEN.Midwest -->
<g id="edge56" class="edge"><title>TZ.Central*CEN.Midwest\nCEN.Midwest\\TZ.Mountain&#45;&gt;CEN.Midwest</title>
<path fill="none" stroke="#761212" d="M566.76,-1206.72C552.007,-1169.82 516.24,-1087.74 469.152,-1030 447.513,-1003.47 417.342,-978.957 393.993,-961.918"/>
<polygon fill="#761212" stroke="#761212" points="395.894,-958.974 385.728,-955.989 391.813,-964.662 395.894,-958.974"/>
<text text-anchor="middle" x="465.652" y="-1033.8" font-family="Times,serif" font-size="14.00">1</text>
</g>
<!-- TZ.Central*CEN.Midwest\nCEN.Midwest\\TZ.Mountain&#45;&gt;TZ.USA\nCEN.USA -->
<g id="edge14" class="edge"><title>TZ.Central*CEN.Midwest\nCEN.Midwest\\TZ.Mountain&#45;&gt;TZ.USA\nCEN.USA</title>
<path fill="none" stroke="#761212" d="M565.894,-1245.19C544.372,-1294.75 486.995,-1424 469.152,-1435 334.262,-1518.19 235.057,-1484.73 117,-1379 46.4252,-1315.8 38.6783,-1004.87 38.0021,-907.327"/>
<polygon fill="#761212" stroke="#761212" points="41.502,-907.263 37.953,-897.281 34.5021,-907.298 41.502,-907.263"/>
<text text-anchor="middle" x="249.652" y="-1471.8" font-family="Times,serif" font-size="14.00">1</text>
</g>
<!-- TZ.Central -->
<g id="node11" class="node"><title>TZ.Central</title>
<polygon fill="#ccffcc" stroke="black" points="211.076,-1222 134.076,-1222 134.076,-1186 211.076,-1186 211.076,-1222"/>
<text text-anchor="middle" x="172.576" y="-1200.3" font-family="Times,serif" font-size="14.00">TZ.Central</text>
</g>
<!-- TZ.Central*CEN.Midwest\nCEN.Midwest\\TZ.Mountain&#45;&gt;TZ.Central -->
<g id="edge41" class="edge"><title>TZ.Central*CEN.Midwest\nCEN.Midwest\\TZ.Mountain&#45;&gt;TZ.Central</title>
<path fill="none" stroke="#761212" d="M488.218,-1221.28C406.606,-1216.8 286.9,-1210.22 221.162,-1206.61"/>
<polygon fill="#761212" stroke="#761212" points="221.266,-1203.11 211.09,-1206.06 220.882,-1210.1 221.266,-1203.11"/>
<text text-anchor="middle" x="357.652" y="-1221.8" font-family="Times,serif" font-size="14.00">1</text>
</g>
<!-- TZ.Central\\CEN.West -->
<g id="node15" class="node"><title>TZ.Central\\CEN.West</title>
<polygon fill="#ccffcc" stroke="black" points="427.652,-1114 287.652,-1114 287.652,-1078 427.652,-1078 427.652,-1114"/>
<text text-anchor="middle" x="357.652" y="-1092.3" font-family="Times,serif" font-size="14.00">TZ.Central\CEN.West</text>
</g>
<!-- TZ.Central*CEN.Midwest\nCEN.Midwest\\TZ.Mountain&#45;&gt;TZ.Central\\CEN.West -->
<g id="edge57" class="edge"><title>TZ.Central*CEN.Midwest\nCEN.Midwest\\TZ.Mountain&#45;&gt;TZ.Central\\CEN.West</title>
<path fill="none" stroke="#761212" d="M542.354,-1206.82C503.741,-1183.52 438.651,-1144.26 397.215,-1119.26"/>
<polygon fill="#761212" stroke="#761212" points="398.866,-1116.17 388.496,-1114 395.251,-1122.17 398.866,-1116.17"/>
<text text-anchor="middle" x="465.652" y="-1164.8" font-family="Times,serif" font-size="14.00">1</text>
</g>
<!-- TZ.Central\\CEN.South -->
<g id="node21" class="node"><title>TZ.Central\\CEN.South</title>
<polygon fill="#ccffcc" stroke="black" points="429.152,-1379 286.152,-1379 286.152,-1343 429.152,-1343 429.152,-1379"/>
<text text-anchor="middle" x="357.652" y="-1357.3" font-family="Times,serif" font-size="14.00">TZ.Central\CEN.South</text>
</g>
<!-- TZ.Central*CEN.Midwest\nCEN.Midwest\\TZ.Mountain&#45;&gt;TZ.Central\\CEN.South -->
<g id="edge18" class="edge"><title>TZ.Central*CEN.Midwest\nCEN.Midwest\\TZ.Mountain&#45;&gt;TZ.Central\\CEN.South</title>
<path fill="none" stroke="#761212" d="M543.733,-1245.06C504.956,-1269.35 437.936,-1311.33 396.071,-1337.56"/>
<polygon fill="#761212" stroke="#761212" points="394.155,-1334.63 387.539,-1342.9 397.871,-1340.56 394.155,-1334.63"/>
<text text-anchor="middle" x="465.652" y="-1296.8" font-family="Times,serif" font-size="14.00">1</text>
</g>
<!-- TZ.Eastern&#45;&gt;TZ.USA\nCEN.USA -->
<g id="edge8" class="edge"><title>TZ.Eastern&#45;&gt;TZ.USA\nCEN.USA</title>
<path fill="none" stroke="#761212" d="M133.802,-83.7865C118.605,-85.3896 102.28,-90.1584 92,-102 42.272,-159.285 38.2371,-713.772 37.9941,-848.575"/>
<polygon fill="#761212" stroke="#761212" points="34.4938,-848.925 37.9816,-858.929 41.4937,-848.933 34.4938,-848.925"/>
<text text-anchor="middle" x="95.5" y="-105.8" font-family="Times,serif" font-size="14.00">1</text>
</g>
<!-- TZ.Mountain&#45;&gt;TZ.USA\nCEN.USA -->
<g id="edge52" class="edge"><title>TZ.Mountain&#45;&gt;TZ.USA\nCEN.USA</title>
<path fill="none" stroke="#761212" d="M127.176,-397.199C114.179,-398.972 101.047,-403.407 92,-413 62.0027,-444.807 44.2812,-751.684 39.3928,-848.733"/>
<polygon fill="#761212" stroke="#761212" points="35.8964,-848.576 38.8972,-858.737 42.8878,-848.922 35.8964,-848.576"/>
<text text-anchor="middle" x="95.5" y="-416.8" font-family="Times,serif" font-size="14.00">1</text>
</g>
<!-- TZ.Pacific -->
<g id="node10" class="node"><title>TZ.Pacific</title>
<polygon fill="#ccffcc" stroke="black" points="612.152,-1693 538.152,-1693 538.152,-1657 612.152,-1657 612.152,-1693"/>
<text text-anchor="middle" x="575.152" y="-1671.3" font-family="Times,serif" font-size="14.00">TZ.Pacific</text>
</g>
<!-- TZ.Pacific&#45;&gt;CEN.West -->
<g id="edge21" class="edge"><title>TZ.Pacific&#45;&gt;CEN.West</title>
<path fill="none" stroke="#761212" d="M537.912,-1680.2C480.261,-1687.22 364.625,-1696.16 271.152,-1671 248.926,-1665.02 225.926,-1653.53 207.842,-1643.07"/>
<polygon fill="#761212" stroke="#761212" points="209.248,-1639.84 198.864,-1637.74 205.67,-1645.86 209.248,-1639.84"/>
<text text-anchor="middle" x="357.652" y="-1690.8" font-family="Times,serif" font-size="14.00">1</text>
</g>
<!-- TZ.Pacific&#45;&gt;TZ.USA\nCEN.USA -->
<g id="edge46" class="edge"><title>TZ.Pacific&#45;&gt;TZ.USA\nCEN.USA</title>
<path fill="none" stroke="#761212" d="M538.002,-1690.45C454.043,-1723.65 243.401,-1791.17 117,-1693 53.6684,-1643.81 40.6053,-1048.18 38.3976,-907.595"/>
<polygon fill="#761212" stroke="#761212" points="41.8912,-907.14 38.2413,-897.194 34.892,-907.245 41.8912,-907.14"/>
<text text-anchor="middle" x="249.652" y="-1745.8" font-family="Times,serif" font-size="14.00">1</text>
</g>
<!-- CEN.West\\TZ.Mountain -->
<g id="node18" class="node"><title>CEN.West\\TZ.Mountain</title>
<polygon fill="#ccffcc" stroke="black" points="434.152,-1667 281.152,-1667 281.152,-1631 434.152,-1631 434.152,-1667"/>
<text text-anchor="middle" x="357.652" y="-1645.3" font-family="Times,serif" font-size="14.00">CEN.West\TZ.Mountain</text>
</g>
<!-- TZ.Pacific&#45;&gt;CEN.West\\TZ.Mountain -->
<g id="edge59" class="edge"><title>TZ.Pacific&#45;&gt;CEN.West\\TZ.Mountain</title>
<path fill="none" stroke="#761212" d="M538.082,-1670.65C512.456,-1667.56 476.929,-1663.27 444.246,-1659.33"/>
<polygon fill="#761212" stroke="#761212" points="444.555,-1655.84 434.208,-1658.12 443.716,-1662.79 444.555,-1655.84"/>
<text text-anchor="middle" x="465.652" y="-1665.8" font-family="Times,serif" font-size="14.00">1</text>
</g>
<!-- CEN.West\\TZ.Central -->
<g id="node23" class="node"><title>CEN.West\\TZ.Central</title>
<polygon fill="#ccffcc" stroke="black" points="427.652,-1569 287.652,-1569 287.652,-1533 427.652,-1533 427.652,-1569"/>
<text text-anchor="middle" x="357.652" y="-1547.3" font-family="Times,serif" font-size="14.00">CEN.West\TZ.Central</text>
</g>
<!-- TZ.Pacific&#45;&gt;CEN.West\\TZ.Central -->
<g id="edge19" class="edge"><title>TZ.Pacific&#45;&gt;CEN.West\\TZ.Central</title>
<path fill="none" stroke="#761212" d="M562.465,-1656.7C545.332,-1631.59 510.861,-1587.16 469.152,-1566 459.436,-1561.07 448.653,-1557.58 437.74,-1555.14"/>
<polygon fill="#761212" stroke="#761212" points="438.194,-1551.67 427.709,-1553.18 436.853,-1558.54 438.194,-1551.67"/>
<text text-anchor="middle" x="465.652" y="-1569.8" font-family="Times,serif" font-size="14.00">1</text>
</g>
<!-- TZ.Central&#45;&gt;TZ.USA\nCEN.USA -->
<g id="edge25" class="edge"><title>TZ.Central&#45;&gt;TZ.USA\nCEN.USA</title>
<path fill="none" stroke="#761212" d="M156.183,-1185.75C138.316,-1163.7 109.12,-1124.82 92,-1087 64.4197,-1026.07 49.0501,-948.52 42.27,-907.135"/>
<polygon fill="#761212" stroke="#761212" points="45.7151,-906.512 40.6923,-897.184 38.8015,-907.609 45.7151,-906.512"/>
<text text-anchor="middle" x="95.5" y="-1103.8" font-family="Times,serif" font-size="14.00">1</text>
</g>
<!-- TZ.Mountain\\CEN.West&#45;&gt;TZ.USA\nCEN.USA -->
<g id="edge32" class="edge"><title>TZ.Mountain\\CEN.West&#45;&gt;TZ.USA\nCEN.USA</title>
<path fill="none" stroke="#761212" d="M280.885,-564.748C228.945,-569.153 161.624,-583.07 117,-623 50.9216,-682.127 39.4864,-795.3 37.9263,-848.714"/>
<polygon fill="#761212" stroke="#761212" points="34.424,-848.8 37.7298,-858.866 41.4227,-848.935 34.424,-848.8"/>
<text text-anchor="middle" x="172.576" y="-626.8" font-family="Times,serif" font-size="14.00">1</text>
</g>
<!-- TZ.Mountain\\CEN.West&#45;&gt;TZ.Mountain -->
<g id="edge17" class="edge"><title>TZ.Mountain\\CEN.West&#45;&gt;TZ.Mountain</title>
<path fill="none" stroke="#761212" d="M344.489,-545.76C323.795,-515.965 279.003,-456.614 228.152,-421 227.642,-420.643 227.125,-420.29 226.603,-419.942"/>
<polygon fill="#761212" stroke="#761212" points="228.096,-416.759 217.703,-414.697 224.541,-422.79 228.096,-416.759"/>
<text text-anchor="middle" x="249.652" y="-443.8" font-family="Times,serif" font-size="14.00">1</text>
</g>
<!-- TZ.Central*CEN.South -->
<g id="node13" class="node"><title>TZ.Central*CEN.South</title>
<polygon fill="#ccffcc" stroke="black" points="648.152,-1002 502.152,-1002 502.152,-966 648.152,-966 648.152,-1002"/>
<text text-anchor="middle" x="575.152" y="-980.3" font-family="Times,serif" font-size="14.00">TZ.Central*CEN.South</text>
</g>
<!-- TZ.Central*CEN.South&#45;&gt;TZ.USA\nCEN.USA -->
<g id="edge50" class="edge"><title>TZ.Central*CEN.South&#45;&gt;TZ.USA\nCEN.USA</title>
<path fill="none" stroke="#761212" d="M502.139,-991.315C408.997,-997.767 243.694,-998.838 117,-943 96.7046,-934.055 77.4117,-918.371 62.9724,-904.65"/>
<polygon fill="#761212" stroke="#761212" points="65.061,-901.795 55.4744,-897.284 60.1556,-906.789 65.061,-901.795"/>
<text text-anchor="middle" x="249.652" y="-984.8" font-family="Times,serif" font-size="14.00">1</text>
</g>
<!-- CEN.South\\TZ.Mountain -->
<g id="node14" class="node"><title>CEN.South\\TZ.Mountain</title>
<polygon fill="#ccffcc" stroke="black" points="435.652,-738 279.652,-738 279.652,-702 435.652,-702 435.652,-738"/>
<text text-anchor="middle" x="357.652" y="-716.3" font-family="Times,serif" font-size="14.00">CEN.South\TZ.Mountain</text>
</g>
<!-- TZ.Central*CEN.South&#45;&gt;CEN.South\\TZ.Mountain -->
<g id="edge2" class="edge"><title>TZ.Central*CEN.South&#45;&gt;CEN.South\\TZ.Mountain</title>
<path fill="none" stroke="#761212" d="M566.714,-965.908C551.883,-931.316 515.988,-854.565 469.152,-802 448.808,-779.168 421.181,-758.667 398.641,-743.875"/>
<polygon fill="#761212" stroke="#761212" points="400.267,-740.759 389.963,-738.293 396.48,-746.646 400.267,-740.759"/>
<text text-anchor="middle" x="465.652" y="-805.8" font-family="Times,serif" font-size="14.00">1</text>
</g>
<!-- TZ.Central*CEN.South&#45;&gt;TZ.Central\\CEN.West -->
<g id="edge3" class="edge"><title>TZ.Central*CEN.South&#45;&gt;TZ.Central\\CEN.West</title>
<path fill="none" stroke="#761212" d="M547.183,-1002.28C526.357,-1016 496.561,-1034.79 469.152,-1049 451.896,-1057.95 432.552,-1066.61 414.93,-1074.01"/>
<polygon fill="#761212" stroke="#761212" points="413.239,-1070.92 405.342,-1077.98 415.92,-1077.39 413.239,-1070.92"/>
<text text-anchor="middle" x="465.652" y="-1054.8" font-family="Times,serif" font-size="14.00">1</text>
</g>
<!-- TZ.Central\\CEN.Midwest -->
<g id="node20" class="node"><title>TZ.Central\\CEN.Midwest</title>
<polygon fill="#ccffcc" stroke="black" points="437.152,-1279 278.152,-1279 278.152,-1243 437.152,-1243 437.152,-1279"/>
<text text-anchor="middle" x="357.652" y="-1257.3" font-family="Times,serif" font-size="14.00">TZ.Central\CEN.Midwest</text>
</g>
<!-- TZ.Central*CEN.South&#45;&gt;TZ.Central\\CEN.Midwest -->
<g id="edge48" class="edge"><title>TZ.Central*CEN.South&#45;&gt;TZ.Central\\CEN.Midwest</title>
<path fill="none" stroke="#761212" d="M557.149,-1002.35C532.256,-1030.27 486.244,-1086.11 462.152,-1142 446.003,-1179.46 471.068,-1201.35 444.152,-1232 442.639,-1233.72 441.02,-1235.34 439.312,-1236.87"/>
<polygon fill="#761212" stroke="#761212" points="437.149,-1234.12 431.306,-1242.95 441.385,-1239.69 437.149,-1234.12"/>
<text text-anchor="middle" x="465.652" y="-1145.8" font-family="Times,serif" font-size="14.00">1</text>
</g>
<!-- CEN.South\\TZ.Eastern -->
<g id="node27" class="node"><title>CEN.South\\TZ.Eastern</title>
<polygon fill="#ccffcc" stroke="black" points="429.152,-911 286.152,-911 286.152,-875 429.152,-875 429.152,-911"/>
<text text-anchor="middle" x="357.652" y="-889.3" font-family="Times,serif" font-size="14.00">CEN.South\TZ.Eastern</text>
</g>
<!-- TZ.Central*CEN.South&#45;&gt;CEN.South\\TZ.Eastern -->
<g id="edge35" class="edge"><title>TZ.Central*CEN.South&#45;&gt;CEN.South\\TZ.Eastern</title>
<path fill="none" stroke="#761212" d="M544.893,-965.89C519.147,-950.591 480.244,-928.995 444.152,-915 442.531,-914.371 440.885,-913.755 439.221,-913.152"/>
<polygon fill="#761212" stroke="#761212" points="440.115,-909.759 429.521,-909.835 437.85,-916.382 440.115,-909.759"/>
<text text-anchor="middle" x="465.652" y="-927.8" font-family="Times,serif" font-size="14.00">1</text>
</g>
<!-- CEN.South\\TZ.Mountain&#45;&gt;CEN.South -->
<g id="edge33" class="edge"><title>CEN.South\\TZ.Mountain&#45;&gt;CEN.South</title>
<path fill="none" stroke="#761212" d="M290.557,-738.051C269.266,-743.866 245.98,-750.226 225.828,-755.729"/>
<polygon fill="#761212" stroke="#761212" points="224.632,-752.428 215.908,-758.439 226.477,-759.18 224.632,-752.428"/>
<text text-anchor="middle" x="249.652" y="-752.8" font-family="Times,serif" font-size="14.00">1</text>
</g>
<!-- CEN.South\\TZ.Mountain&#45;&gt;TZ.USA\nCEN.USA -->
<g id="edge10" class="edge"><title>CEN.South\\TZ.Mountain&#45;&gt;TZ.USA\nCEN.USA</title>
<path fill="none" stroke="#761212" d="M283.391,-701.999C231.808,-693.823 163.867,-692.661 117,-728 76.9607,-758.19 55.2247,-814.635 45.1638,-849.015"/>
<polygon fill="#761212" stroke="#761212" points="41.7157,-848.351 42.4089,-858.923 48.4599,-850.227 41.7157,-848.351"/>
<text text-anchor="middle" x="172.576" y="-731.8" font-family="Times,serif" font-size="14.00">1</text>
</g>
<!-- TZ.Central\\CEN.West&#45;&gt;TZ.USA\nCEN.USA -->
<g id="edge64" class="edge"><title>TZ.Central\\CEN.West&#45;&gt;TZ.USA\nCEN.USA</title>
<path fill="none" stroke="#761212" d="M287.475,-1085.67C228.974,-1073.69 146.246,-1048.67 92,-998 65.9117,-973.633 51.5525,-934.305 44.3235,-907.357"/>
<polygon fill="#761212" stroke="#761212" points="47.6397,-906.192 41.8109,-897.344 40.8502,-907.896 47.6397,-906.192"/>
<text text-anchor="middle" x="172.576" y="-1072.8" font-family="Times,serif" font-size="14.00">1</text>
</g>
<!-- TZ.Central\\CEN.West&#45;&gt;TZ.Central -->
<g id="edge30" class="edge"><title>TZ.Central\\CEN.West&#45;&gt;TZ.Central</title>
<path fill="none" stroke="#761212" d="M326.009,-1114.08C294.986,-1132.38 246.886,-1160.75 213.031,-1180.72"/>
<polygon fill="#761212" stroke="#761212" points="211.153,-1177.77 204.319,-1185.86 214.71,-1183.8 211.153,-1177.77"/>
<text text-anchor="middle" x="249.652" y="-1162.8" font-family="Times,serif" font-size="14.00">1</text>
</g>
<!-- TZ.Mountain*CEN.South -->
<g id="node16" class="node"><title>TZ.Mountain*CEN.South</title>
<polygon fill="#ccffcc" stroke="black" points="654.652,-717 495.652,-717 495.652,-681 654.652,-681 654.652,-717"/>
<text text-anchor="middle" x="575.152" y="-695.3" font-family="Times,serif" font-size="14.00">TZ.Mountain*CEN.South</text>
</g>
<!-- TZ.Mountain*CEN.South&#45;&gt;TZ.USA\nCEN.USA -->
<g id="edge58" class="edge"><title>TZ.Mountain*CEN.South&#45;&gt;TZ.USA\nCEN.USA</title>
<path fill="none" stroke="#761212" d="M537.992,-717.203C479.493,-745.986 359.865,-802.106 253.152,-835 196.199,-852.555 128.498,-864.714 84.4595,-871.515"/>
<polygon fill="#761212" stroke="#761212" points="83.7049,-868.089 74.3418,-873.047 84.7532,-875.01 83.7049,-868.089"/>
<text text-anchor="middle" x="249.652" y="-839.8" font-family="Times,serif" font-size="14.00">1</text>
</g>
<!-- TZ.Mountain*CEN.South&#45;&gt;TZ.Mountain\\CEN.West -->
<g id="edge40" class="edge"><title>TZ.Mountain*CEN.South&#45;&gt;TZ.Mountain\\CEN.West</title>
<path fill="none" stroke="#761212" d="M545.089,-680.793C506.583,-656.671 438.599,-614.083 396.23,-587.541"/>
<polygon fill="#761212" stroke="#761212" points="397.931,-584.476 387.598,-582.133 394.214,-590.408 397.931,-584.476"/>
<text text-anchor="middle" x="465.652" y="-634.8" font-family="Times,serif" font-size="14.00">1</text>
</g>
<!-- TZ.Mountain\\CEN.Midwest -->
<g id="node17" class="node"><title>TZ.Mountain\\CEN.Midwest</title>
<polygon fill="#ccffcc" stroke="black" points="444.152,-439 271.152,-439 271.152,-403 444.152,-403 444.152,-439"/>
<text text-anchor="middle" x="357.652" y="-417.3" font-family="Times,serif" font-size="14.00">TZ.Mountain\CEN.Midwest</text>
</g>
<!-- TZ.Mountain*CEN.South&#45;&gt;TZ.Mountain\\CEN.Midwest -->
<g id="edge4" class="edge"><title>TZ.Mountain*CEN.South&#45;&gt;TZ.Mountain\\CEN.Midwest</title>
<path fill="none" stroke="#761212" d="M571.414,-680.992C563.721,-636.583 537.811,-520.882 469.152,-458 462.986,-452.353 455.931,-447.565 448.435,-443.506"/>
<polygon fill="#761212" stroke="#761212" points="449.974,-440.362 439.459,-439.067 446.872,-446.637 449.974,-440.362"/>
<text text-anchor="middle" x="465.652" y="-461.8" font-family="Times,serif" font-size="14.00">1</text>
</g>
<!-- CEN.South\\TZ.Central -->
<g id="node19" class="node"><title>CEN.South\\TZ.Central</title>
<polygon fill="#ccffcc" stroke="black" points="429.152,-673 286.152,-673 286.152,-637 429.152,-637 429.152,-673"/>
<text text-anchor="middle" x="357.652" y="-651.3" font-family="Times,serif" font-size="14.00">CEN.South\TZ.Central</text>
</g>
<!-- TZ.Mountain*CEN.South&#45;&gt;CEN.South\\TZ.Central -->
<g id="edge7" class="edge"><title>TZ.Mountain*CEN.South&#45;&gt;CEN.South\\TZ.Central</title>
<path fill="none" stroke="#761212" d="M495.437,-682.928C477.091,-679.183 457.533,-675.189 439.113,-671.428"/>
<polygon fill="#761212" stroke="#761212" points="439.804,-667.997 429.305,-669.426 438.403,-674.856 439.804,-667.997"/>
<text text-anchor="middle" x="465.652" y="-680.8" font-family="Times,serif" font-size="14.00">1</text>
</g>
<!-- TZ.Mountain*CEN.South&#45;&gt;CEN.South\\TZ.Eastern -->
<g id="edge29" class="edge"><title>TZ.Mountain*CEN.South&#45;&gt;CEN.South\\TZ.Eastern</title>
<path fill="none" stroke="#761212" d="M567.032,-717.18C553.202,-750.152 519.567,-819.916 469.152,-858 460.086,-864.848 449.644,-870.379 438.874,-874.839"/>
<polygon fill="#761212" stroke="#761212" points="437.436,-871.641 429.351,-878.489 439.942,-878.178 437.436,-871.641"/>
<text text-anchor="middle" x="465.652" y="-864.8" font-family="Times,serif" font-size="14.00">1</text>
</g>
<!-- TZ.Mountain\\CEN.Midwest&#45;&gt;TZ.USA\nCEN.USA -->
<g id="edge24" class="edge"><title>TZ.Mountain\\CEN.Midwest&#45;&gt;TZ.USA\nCEN.USA</title>
<path fill="none" stroke="#761212" d="M271.116,-429.522C209.854,-440.623 131.477,-466.178 92,-525 56.4361,-577.991 43.1493,-774.049 39.3097,-848.794"/>
<polygon fill="#761212" stroke="#761212" points="35.8077,-848.75 38.8102,-858.911 42.7992,-849.096 35.8077,-848.75"/>
<text text-anchor="middle" x="172.576" y="-496.8" font-family="Times,serif" font-size="14.00">1</text>
</g>
<!-- TZ.Mountain\\CEN.Midwest&#45;&gt;TZ.Mountain -->
<g id="edge51" class="edge"><title>TZ.Mountain\\CEN.Midwest&#45;&gt;TZ.Mountain</title>
<path fill="none" stroke="#761212" d="M271.01,-410.709C256.327,-408.944 241.44,-407.155 227.87,-405.524"/>
<polygon fill="#761212" stroke="#761212" points="228.121,-402.03 217.775,-404.311 227.286,-408.98 228.121,-402.03"/>
<text text-anchor="middle" x="249.652" y="-411.8" font-family="Times,serif" font-size="14.00">1</text>
</g>
<!-- CEN.West\\TZ.Mountain&#45;&gt;CEN.West -->
<g id="edge20" class="edge"><title>CEN.West\\TZ.Mountain&#45;&gt;CEN.West</title>
<path fill="none" stroke="#761212" d="M281.131,-1637.45C265.765,-1635.1 249.778,-1632.65 234.975,-1630.39"/>
<polygon fill="#761212" stroke="#761212" points="235.352,-1626.91 224.938,-1628.86 234.294,-1633.83 235.352,-1626.91"/>
<text text-anchor="middle" x="249.652" y="-1635.8" font-family="Times,serif" font-size="14.00">1</text>
</g>
<!-- CEN.West\\TZ.Mountain&#45;&gt;TZ.USA\nCEN.USA -->
<g id="edge5" class="edge"><title>CEN.West\\TZ.Mountain&#45;&gt;TZ.USA\nCEN.USA</title>
<path fill="none" stroke="#761212" d="M291.937,-1667C240.169,-1677.39 168.046,-1682.44 117,-1648 93.7303,-1632.3 98.7088,-1617.26 92,-1590 59.3158,-1457.21 42.859,-1024.45 38.9357,-907.41"/>
<polygon fill="#761212" stroke="#761212" points="42.4232,-906.969 38.5951,-897.09 35.427,-907.2 42.4232,-906.969"/>
<text text-anchor="middle" x="172.576" y="-1677.8" font-family="Times,serif" font-size="14.00">1</text>
</g>
<!-- CEN.South\\TZ.Central&#45;&gt;CEN.South -->
<g id="edge12" class="edge"><title>CEN.South\\TZ.Central&#45;&gt;CEN.South</title>
<path fill="none" stroke="#761212" d="M310.326,-673.071C297.316,-678.813 283.389,-685.612 271.152,-693 245.935,-708.224 219.868,-729.105 201.027,-745.281"/>
<polygon fill="#761212" stroke="#761212" points="198.669,-742.694 193.418,-751.896 203.261,-747.976 198.669,-742.694"/>
<text text-anchor="middle" x="249.652" y="-710.8" font-family="Times,serif" font-size="14.00">1</text>
</g>
<!-- CEN.South\\TZ.Central&#45;&gt;TZ.USA\nCEN.USA -->
<g id="edge34" class="edge"><title>CEN.South\\TZ.Central&#45;&gt;TZ.USA\nCEN.USA</title>
<path fill="none" stroke="#761212" d="M285.996,-643.525C234.205,-639.118 164.869,-642.034 117,-678 62.2888,-719.106 45.4241,-803.887 40.2578,-848.721"/>
<polygon fill="#761212" stroke="#761212" points="36.7741,-848.384 39.2274,-858.691 43.737,-849.104 36.7741,-848.384"/>
<text text-anchor="middle" x="172.576" y="-681.8" font-family="Times,serif" font-size="14.00">1</text>
</g>
<!-- TZ.Central\\CEN.Midwest&#45;&gt;TZ.USA\nCEN.USA -->
<g id="edge55" class="edge"><title>TZ.Central\\CEN.Midwest&#45;&gt;TZ.USA\nCEN.USA</title>
<path fill="none" stroke="#761212" d="M302.988,-1279.03C287.128,-1283.54 269.605,-1287.74 253.152,-1290 187.817,-1298.98 158.531,-1282.23 117,-1231 76.2899,-1180.78 49.9657,-983.037 41.2178,-907.525"/>
<polygon fill="#761212" stroke="#761212" points="44.6629,-906.843 40.0551,-897.302 37.7078,-907.634 44.6629,-906.843"/>
<text text-anchor="middle" x="172.576" y="-1295.8" font-family="Times,serif" font-size="14.00">1</text>
</g>
<!-- TZ.Central\\CEN.Midwest&#45;&gt;TZ.Central -->
<g id="edge9" class="edge"><title>TZ.Central\\CEN.Midwest&#45;&gt;TZ.Central</title>
<path fill="none" stroke="#761212" d="M298.725,-1242.96C273.702,-1235.17 244.786,-1226.17 221.057,-1218.78"/>
<polygon fill="#761212" stroke="#761212" points="221.82,-1215.36 211.232,-1215.72 219.739,-1222.04 221.82,-1215.36"/>
<text text-anchor="middle" x="249.652" y="-1230.8" font-family="Times,serif" font-size="14.00">1</text>
</g>
<!-- TZ.Central\\CEN.South&#45;&gt;TZ.USA\nCEN.USA -->
<g id="edge31" class="edge"><title>TZ.Central\\CEN.South&#45;&gt;TZ.USA\nCEN.USA</title>
<path fill="none" stroke="#761212" d="M285.904,-1365.32C232.499,-1364.56 161.115,-1354.34 117,-1311 59.2417,-1254.26 42.9734,-994.757 39.083,-907.056"/>
<polygon fill="#761212" stroke="#761212" points="42.5775,-906.85 38.6587,-897.006 35.5837,-907.145 42.5775,-906.85"/>
<text text-anchor="middle" x="172.576" y="-1363.8" font-family="Times,serif" font-size="14.00">1</text>
</g>
<!-- TZ.Central\\CEN.South&#45;&gt;TZ.Central -->
<g id="edge11" class="edge"><title>TZ.Central\\CEN.South&#45;&gt;TZ.Central</title>
<path fill="none" stroke="#761212" d="M335.197,-1342.72C317.893,-1327.97 292.934,-1306.67 271.152,-1288 247.884,-1268.05 221.551,-1245.38 202.109,-1228.62"/>
<polygon fill="#761212" stroke="#761212" points="204.351,-1225.93 194.492,-1222.05 199.78,-1231.23 204.351,-1225.93"/>
<text text-anchor="middle" x="249.652" y="-1274.8" font-family="Times,serif" font-size="14.00">1</text>
</g>
<!-- TZ.Mountain\\CEN.South&#45;&gt;TZ.USA\nCEN.USA -->
<g id="edge16" class="edge"><title>TZ.Mountain\\CEN.South&#45;&gt;TZ.USA\nCEN.USA</title>
<path fill="none" stroke="#761212" d="M279.405,-293.763C228.445,-301.74 162.875,-319.124 117,-357 40.6801,-420.013 36.9363,-748.677 37.6064,-848.934"/>
<polygon fill="#761212" stroke="#761212" points="34.1067,-848.991 37.6939,-858.96 41.1064,-848.93 34.1067,-848.991"/>
<text text-anchor="middle" x="172.576" y="-360.8" font-family="Times,serif" font-size="14.00">1</text>
</g>
<!-- TZ.Mountain\\CEN.South&#45;&gt;TZ.Mountain -->
<g id="edge36" class="edge"><title>TZ.Mountain\\CEN.South&#45;&gt;TZ.Mountain</title>
<path fill="none" stroke="#761212" d="M285.973,-305.04C272.214,-310.083 258.303,-316.34 246.152,-324 225.659,-336.918 206.777,-356.799 193.411,-372.847"/>
<polygon fill="#761212" stroke="#761212" points="190.519,-370.858 186.946,-380.832 195.959,-375.263 190.519,-370.858"/>
<text text-anchor="middle" x="249.652" y="-327.8" font-family="Times,serif" font-size="14.00">1</text>
</g>
<!-- CEN.West\\TZ.Central&#45;&gt;CEN.West -->
<g id="edge66" class="edge"><title>CEN.West\\TZ.Central&#45;&gt;CEN.West</title>
<path fill="none" stroke="#761212" d="M309.505,-1569.03C281.358,-1579.79 245.822,-1593.38 218.144,-1603.96"/>
<polygon fill="#761212" stroke="#761212" points="216.798,-1600.73 208.707,-1607.57 219.298,-1607.27 216.798,-1600.73"/>
<text text-anchor="middle" x="249.652" y="-1595.8" font-family="Times,serif" font-size="14.00">1</text>
</g>
<!-- CEN.West\\TZ.Central&#45;&gt;TZ.USA\nCEN.USA -->
<g id="edge43" class="edge"><title>CEN.West\\TZ.Central&#45;&gt;TZ.USA\nCEN.USA</title>
<path fill="none" stroke="#761212" d="M287.391,-1564.57C226.975,-1572.01 141.465,-1571.11 92,-1520 48.9088,-1475.48 39.9572,-1027.05 38.3291,-907.278"/>
<polygon fill="#761212" stroke="#761212" points="41.8259,-906.998 38.1972,-897.044 34.8264,-907.088 41.8259,-906.998"/>
<text text-anchor="middle" x="172.576" y="-1570.8" font-family="Times,serif" font-size="14.00">1</text>
</g>
<!-- TZ.Eastern*CEN.South -->
<g id="node24" class="node"><title>TZ.Eastern*CEN.South</title>
<polygon fill="#ccffcc" stroke="black" points="648.152,-183 502.152,-183 502.152,-147 648.152,-147 648.152,-183"/>
<text text-anchor="middle" x="575.152" y="-161.3" font-family="Times,serif" font-size="14.00">TZ.Eastern*CEN.South</text>
</g>
<!-- TZ.Eastern*CEN.South&#45;&gt;TZ.USA\nCEN.USA -->
<g id="edge60" class="edge"><title>TZ.Eastern*CEN.South&#45;&gt;TZ.USA\nCEN.USA</title>
<path fill="none" stroke="#761212" d="M502.113,-153.941C402.795,-143.029 223.982,-139.606 117,-234 70.2099,-275.284 45.2329,-727.578 39.3626,-848.448"/>
<polygon fill="#761212" stroke="#761212" points="35.8505,-848.62 38.8686,-858.776 42.8425,-848.955 35.8505,-848.62"/>
<text text-anchor="middle" x="249.652" y="-170.8" font-family="Times,serif" font-size="14.00">1</text>
</g>
<!-- TZ.Eastern*CEN.South&#45;&gt;TZ.Eastern -->
<g id="edge22" class="edge"><title>TZ.Eastern*CEN.South&#45;&gt;TZ.Eastern</title>
<path fill="none" stroke="#761212" d="M545.221,-146.905C519.682,-131.949 480.9,-111.658 444.152,-102 368.243,-82.0498 276.421,-80.8769 221.625,-82.4837"/>
<polygon fill="#761212" stroke="#761212" points="221.382,-78.9898 211.506,-82.8248 221.618,-85.9859 221.382,-78.9898"/>
<text text-anchor="middle" x="357.652" y="-105.8" font-family="Times,serif" font-size="14.00">1</text>
</g>
<!-- TZ.Eastern*CEN.South&#45;&gt;CEN.South\\TZ.Mountain -->
<g id="edge62" class="edge"><title>TZ.Eastern*CEN.South&#45;&gt;CEN.South\\TZ.Mountain</title>
<path fill="none" stroke="#761212" d="M521.815,-183.034C508.325,-190.239 495.321,-200.001 487.152,-213 467.967,-243.528 473.222,-501.175 469.152,-537 467.306,-553.244 454.197,-669.101 444.152,-682 439.86,-687.511 434.598,-692.243 428.812,-696.301"/>
<polygon fill="#761212" stroke="#761212" points="426.653,-693.523 420.013,-701.779 430.353,-699.465 426.653,-693.523"/>
<text text-anchor="middle" x="465.652" y="-594.8" font-family="Times,serif" font-size="14.00">1</text>
</g>
<!-- TZ.Eastern*CEN.South&#45;&gt;CEN.South\\TZ.Central -->
<g id="edge28" class="edge"><title>TZ.Eastern*CEN.South&#45;&gt;CEN.South\\TZ.Central</title>
<path fill="none" stroke="#761212" d="M521.928,-183.105C508.44,-190.312 495.409,-200.057 487.152,-213 456.002,-261.826 480.009,-416.111 469.152,-473 467.228,-483.079 464.658,-485.05 462.152,-495 451.551,-537.096 467.093,-554.147 444.152,-591 433.983,-607.336 418.007,-620.945 402.604,-631.354"/>
<polygon fill="#761212" stroke="#761212" points="400.656,-628.445 394.146,-636.804 404.448,-634.329 400.656,-628.445"/>
<text text-anchor="middle" x="465.652" y="-498.8" font-family="Times,serif" font-size="14.00">1</text>
</g>
<!-- TZ.Central*CEN.West -->
<g id="node25" class="node"><title>TZ.Central*CEN.West</title>
<polygon fill="#ccffcc" stroke="black" points="646.652,-1458 503.652,-1458 503.652,-1422 646.652,-1422 646.652,-1458"/>
<text text-anchor="middle" x="575.152" y="-1436.3" font-family="Times,serif" font-size="14.00">TZ.Central*CEN.West</text>
</g>
<!-- TZ.Central*CEN.West&#45;&gt;TZ.USA\nCEN.USA -->
<g id="edge45" class="edge"><title>TZ.Central*CEN.West&#45;&gt;TZ.USA\nCEN.USA</title>
<path fill="none" stroke="#761212" d="M526.2,-1458.11C432.289,-1490.1 223.981,-1543.32 117,-1432 43.9357,-1355.97 37.9783,-1010.57 37.8561,-907.266"/>
<polygon fill="#761212" stroke="#761212" points="41.356,-907.234 37.8624,-897.231 34.356,-907.229 41.356,-907.234"/>
<text text-anchor="middle" x="249.652" y="-1498.8" font-family="Times,serif" font-size="14.00">1</text>
</g>
<!-- TZ.Central*CEN.West&#45;&gt;CEN.West\\TZ.Mountain -->
<g id="edge23" class="edge"><title>TZ.Central*CEN.West&#45;&gt;CEN.West\\TZ.Mountain</title>
<path fill="none" stroke="#761212" d="M563.737,-1458.19C546.697,-1486.83 510.578,-1543.08 469.152,-1581 449.814,-1598.7 425.223,-1614.36 404.151,-1626.18"/>
<polygon fill="#761212" stroke="#761212" points="402.444,-1623.12 395.361,-1631 405.811,-1629.26 402.444,-1623.12"/>
<text text-anchor="middle" x="465.652" y="-1588.8" font-family="Times,serif" font-size="14.00">1</text>
</g>
<!-- TZ.Central*CEN.West&#45;&gt;TZ.Central\\CEN.Midwest -->
<g id="edge49" class="edge"><title>TZ.Central*CEN.West&#45;&gt;TZ.Central\\CEN.Midwest</title>
<path fill="none" stroke="#761212" d="M568.601,-1421.98C556.729,-1386.8 525.278,-1309.34 469.152,-1274 462.428,-1269.77 455.013,-1266.56 447.301,-1264.15"/>
<polygon fill="#761212" stroke="#761212" points="447.968,-1260.71 437.404,-1261.52 446.169,-1267.47 447.968,-1260.71"/>
<text text-anchor="middle" x="465.652" y="-1277.8" font-family="Times,serif" font-size="14.00">1</text>
</g>
<!-- TZ.Central*CEN.West&#45;&gt;TZ.Central\\CEN.South -->
<g id="edge63" class="edge"><title>TZ.Central*CEN.West&#45;&gt;TZ.Central\\CEN.South</title>
<path fill="none" stroke="#761212" d="M542.329,-1421.94C521.917,-1410.94 494.569,-1397.27 469.152,-1388 459.521,-1384.49 449.252,-1381.29 439.001,-1378.42"/>
<polygon fill="#761212" stroke="#761212" points="439.765,-1375 429.199,-1375.78 437.94,-1381.76 439.765,-1375"/>
<text text-anchor="middle" x="465.652" y="-1391.8" font-family="Times,serif" font-size="14.00">1</text>
</g>
<!-- TZ.Mountain*CEN.West -->
<g id="node26" class="node"><title>TZ.Mountain*CEN.West</title>
<polygon fill="#ccffcc" stroke="black" points="653.152,-258 497.152,-258 497.152,-222 653.152,-222 653.152,-258"/>
<text text-anchor="middle" x="575.152" y="-236.3" font-family="Times,serif" font-size="14.00">TZ.Mountain*CEN.West</text>
</g>
<!-- TZ.Mountain*CEN.West&#45;&gt;TZ.USA\nCEN.USA -->
<g id="edge53" class="edge"><title>TZ.Mountain*CEN.West&#45;&gt;TZ.USA\nCEN.USA</title>
<path fill="none" stroke="#761212" d="M496.931,-225.496C395.784,-211.335 219.314,-204.025 117,-300 36.3904,-375.615 35.8079,-742.419 37.3886,-848.94"/>
<polygon fill="#761212" stroke="#761212" points="33.8895,-849.032 37.5559,-858.972 40.8885,-848.915 33.8895,-849.032"/>
<text text-anchor="middle" x="249.652" y="-235.8" font-family="Times,serif" font-size="14.00">1</text>
</g>
<!-- TZ.Mountain*CEN.West&#45;&gt;TZ.Mountain\\CEN.Midwest -->
<g id="edge26" class="edge"><title>TZ.Mountain*CEN.West&#45;&gt;TZ.Mountain\\CEN.Midwest</title>
<path fill="none" stroke="#761212" d="M529.027,-258.007C505.883,-269.396 479.077,-286.294 462.152,-309 443.724,-333.721 463.405,-351.916 444.152,-376 437.104,-384.816 427.854,-392.107 418.046,-398.065"/>
<polygon fill="#761212" stroke="#761212" points="416.331,-395.014 409.326,-402.962 419.759,-401.117 416.331,-395.014"/>
<text text-anchor="middle" x="465.652" y="-312.8" font-family="Times,serif" font-size="14.00">1</text>
</g>
<!-- TZ.Mountain*CEN.West&#45;&gt;TZ.Mountain\\CEN.South -->
<g id="edge61" class="edge"><title>TZ.Mountain*CEN.West&#45;&gt;TZ.Mountain\\CEN.South</title>
<path fill="none" stroke="#761212" d="M497.071,-225.31C485.267,-225.102 473.305,-226.088 462.152,-229 436.573,-235.678 410.628,-250.238 391.112,-263.099"/>
<polygon fill="#761212" stroke="#761212" points="388.936,-260.345 382.623,-268.853 392.864,-266.14 388.936,-260.345"/>
<text text-anchor="middle" x="465.652" y="-232.8" font-family="Times,serif" font-size="14.00">1</text>
</g>
<!-- TZ.Mountain*CEN.West&#45;&gt;CEN.West\\TZ.Central -->
<g id="edge44" class="edge"><title>TZ.Mountain*CEN.West&#45;&gt;CEN.West\\TZ.Central</title>
<path fill="none" stroke="#761212" d="M556.709,-258.407C535.589,-282.064 501.116,-325.426 487.152,-370 452.833,-479.545 506.283,-1294.38 469.152,-1403 452.371,-1452.09 412.666,-1498.24 385.715,-1525.57"/>
<polygon fill="#761212" stroke="#761212" points="383.104,-1523.23 378.481,-1532.76 388.04,-1528.19 383.104,-1523.23"/>
<text text-anchor="middle" x="465.652" y="-1419.8" font-family="Times,serif" font-size="14.00">1</text>
</g>
<!-- CEN.South\\TZ.Eastern&#45;&gt;CEN.South -->
<g id="edge42" class="edge"><title>CEN.South\\TZ.Eastern&#45;&gt;CEN.South</title>
<path fill="none" stroke="#761212" d="M331.813,-874.921C311.007,-859.913 280.419,-838.164 253.152,-820 239.005,-810.576 223.194,-800.542 209.416,-791.955"/>
<polygon fill="#761212" stroke="#761212" points="211.036,-788.841 200.693,-786.542 207.344,-794.789 211.036,-788.841"/>
<text text-anchor="middle" x="249.652" y="-823.8" font-family="Times,serif" font-size="14.00">1</text>
</g>
<!-- CEN.South\\TZ.Eastern&#45;&gt;TZ.USA\nCEN.USA -->
<g id="edge39" class="edge"><title>CEN.South\\TZ.Eastern&#45;&gt;TZ.USA\nCEN.USA</title>
<path fill="none" stroke="#761212" d="M285.933,-889.671C224.566,-886.782 137.486,-882.683 84.5309,-880.19"/>
<polygon fill="#761212" stroke="#761212" points="84.5663,-876.688 74.4127,-879.714 84.237,-883.681 84.5663,-876.688"/>
<text text-anchor="middle" x="172.576" y="-889.8" font-family="Times,serif" font-size="14.00">1</text>
</g>
<!-- Legend -->
<g id="node28" class="node"><title>Legend</title>
<polygon fill="white" stroke="black" points="753.152,-240 681.152,-240 681.152,-90 753.152,-90 753.152,-240"/>
<polygon fill="none" stroke="black" points="681.152,-215 681.152,-240 753.152,-240 753.152,-215 681.152,-215"/>
<text text-anchor="start" x="694.152" y="-223.8" font-family="Arial Black" font-size="14.00"> Nodes</text>
<polygon fill="#ffffcc" stroke="none" points="681.152,-190 681.152,-215 729.152,-215 729.152,-190 681.152,-190"/>
<polygon fill="none" stroke="black" points="681.152,-190 681.152,-215 729.152,-215 729.152,-190 681.152,-190"/>
<text text-anchor="start" x="691.152" y="-198.8" font-family="Times,serif" font-size="14.00">CEN</text>
<polygon fill="none" stroke="black" points="729.152,-190 729.152,-215 753.152,-215 753.152,-190 729.152,-190"/>
<text text-anchor="start" x="737.652" y="-198.8" font-family="Times,serif" font-size="14.00">3</text>
<polygon fill="#eeeeee" stroke="none" points="681.152,-165 681.152,-190 729.152,-190 729.152,-165 681.152,-165"/>
<polygon fill="none" stroke="black" points="681.152,-165 681.152,-190 729.152,-190 729.152,-165 681.152,-165"/>
<text text-anchor="start" x="689.652" y="-173.8" font-family="Times,serif" font-size="14.00">comb</text>
<polygon fill="none" stroke="black" points="729.152,-165 729.152,-190 753.152,-190 753.152,-165 729.152,-165"/>
<text text-anchor="start" x="737.652" y="-173.8" font-family="Times,serif" font-size="14.00">4</text>
<polygon fill="#ccffcc" stroke="none" points="681.152,-140 681.152,-165 729.152,-165 729.152,-140 681.152,-140"/>
<polygon fill="none" stroke="black" points="681.152,-140 681.152,-165 729.152,-165 729.152,-140 681.152,-140"/>
<text text-anchor="start" x="696.652" y="-148.8" font-family="Times,serif" font-size="14.00">TZ</text>
<polygon fill="none" stroke="black" points="729.152,-140 729.152,-165 753.152,-165 753.152,-140 729.152,-140"/>
<text text-anchor="start" x="737.652" y="-148.8" font-family="Times,serif" font-size="14.00">4</text>
<polygon fill="none" stroke="black" points="681.152,-115 681.152,-140 753.152,-140 753.152,-115 681.152,-115"/>
<text text-anchor="start" x="692.652" y="-123.8" font-family="Arial Black" font-size="14.00"> Edges </text>
<polygon fill="none" stroke="black" points="681.152,-90 681.152,-115 729.152,-115 729.152,-90 681.152,-90"/>
<text text-anchor="start" x="686.152" y="-98.8" font-family="Times,serif" font-size="14.00" fill="#000000">default</text>
<polygon fill="none" stroke="black" points="729.152,-90 729.152,-115 753.152,-115 753.152,-90 729.152,-90"/>
<text text-anchor="start" x="734.152" y="-98.8" font-family="Times,serif" font-size="14.00">66</text>
</g>
</g>
</svg>
