<?xml version="1.0" encoding="UTF-8" standalone="no"?>
<!DOCTYPE svg PUBLIC "-//W3C//DTD SVG 1.1//EN"
 "http://www.w3.org/Graphics/SVG/1.1/DTD/svg11.dtd">
<!-- Generated by graphviz version 2.38.0 (20140413.2041)
 -->
<!-- Title: %3 Pages: 1 -->
<svg width="442pt" height="416pt"
 viewBox="0.00 0.00 442.36 416.00" xmlns="http://www.w3.org/2000/svg" xmlns:xlink="http://www.w3.org/1999/xlink">
<g id="graph0" class="graph" transform="scale(1 1) rotate(0) translate(4 412)">
<title>%3</title>
<polygon fill="white" stroke="none" points="-4,4 -4,-412 438.362,-412 438.362,4 -4,4"/>
<!-- CEN.Midwest -->
<g id="node1" class="node"><title>CEN.Midwest</title>
<polygon fill="#ffffcc" stroke="black" points="250.496,-382.544 250.496,-397.456 211.445,-408 156.219,-408 117.168,-397.456 117.168,-382.544 156.219,-372 211.445,-372 250.496,-382.544"/>
<text text-anchor="middle" x="183.832" y="-386.3" font-family="Times,serif" font-size="14.00">CEN.Midwest</text>
</g>
<!-- TZ.USA\nCEN.USA -->
<g id="node9" class="node"><title>TZ.USA\nCEN.USA</title>
<path fill="#eeeeee" stroke="black" d="M62,-227C62,-227 12,-227 12,-227 6,-227 0,-221 0,-215 0,-215 0,-201 0,-201 0,-195 6,-189 12,-189 12,-189 62,-189 62,-189 68,-189 74,-195 74,-201 74,-201 74,-215 74,-215 74,-221 68,-227 62,-227"/>
<text text-anchor="middle" x="37" y="-211.8" font-family="Times,serif" font-size="14.00">TZ.USA</text>
<text text-anchor="middle" x="37" y="-196.8" font-family="Times,serif" font-size="14.00">CEN.USA</text>
</g>
<!-- CEN.Midwest&#45;&gt;TZ.USA\nCEN.USA -->
<g id="edge1" class="edge"><title>CEN.Midwest&#45;&gt;TZ.USA\nCEN.USA</title>
<path fill="none" stroke="#761212" d="M138.807,-376.523C131.032,-372.912 123.391,-368.451 117,-363 77.8491,-329.605 55.819,-272.007 45.4619,-237.213"/>
<polygon fill="#761212" stroke="#761212" points="48.7165,-235.861 42.6164,-227.199 41.9831,-237.775 48.7165,-235.861"/>
<text text-anchor="middle" x="95.5" y="-345.8" font-family="Times,serif" font-size="14.00">1</text>
</g>
<!-- CEN.Northeast -->
<g id="node2" class="node"><title>CEN.Northeast</title>
<polygon fill="#ffffcc" stroke="black" points="434.212,-298.544 434.212,-313.456 393.09,-324 334.936,-324 293.814,-313.456 293.814,-298.544 334.936,-288 393.09,-288 434.212,-298.544"/>
<text text-anchor="middle" x="364.013" y="-302.3" font-family="Times,serif" font-size="14.00">CEN.Northeast</text>
</g>
<!-- TZ.Eastern -->
<g id="node6" class="node"><title>TZ.Eastern</title>
<polygon fill="#ccffcc" stroke="black" points="222.332,-354 145.332,-354 145.332,-318 222.332,-318 222.332,-354"/>
<text text-anchor="middle" x="183.832" y="-332.3" font-family="Times,serif" font-size="14.00">TZ.Eastern</text>
</g>
<!-- CEN.Northeast&#45;&gt;TZ.Eastern -->
<g id="edge2" class="edge"><title>CEN.Northeast&#45;&gt;TZ.Eastern</title>
<path fill="none" stroke="#761212" d="M303.681,-315.99C280.521,-319.889 254.33,-324.299 232.441,-327.984"/>
<polygon fill="#761212" stroke="#761212" points="231.673,-324.564 222.393,-329.676 232.836,-331.467 231.673,-324.564"/>
<text text-anchor="middle" x="272.164" y="-324.8" font-family="Times,serif" font-size="14.00">1</text>
</g>
<!-- CEN.Northeast&#45;&gt;TZ.USA\nCEN.USA -->
<g id="edge3" class="edge"><title>CEN.Northeast&#45;&gt;TZ.USA\nCEN.USA</title>
<path fill="none" stroke="#761212" d="M293.733,-299.437C243.343,-293.018 174.217,-280.752 117,-258 101.163,-251.702 85.0274,-242.159 71.5022,-233.093"/>
<polygon fill="#761212" stroke="#761212" points="73.2396,-230.039 63.0206,-227.242 69.2649,-235.801 73.2396,-230.039"/>
<text text-anchor="middle" x="183.832" y="-295.8" font-family="Times,serif" font-size="14.00">1</text>
</g>
<!-- CEN.South -->
<g id="node3" class="node"><title>CEN.South</title>
<polygon fill="#ffffcc" stroke="black" points="239.484,-223.544 239.484,-238.456 206.884,-249 160.78,-249 128.18,-238.456 128.18,-223.544 160.78,-213 206.884,-213 239.484,-223.544"/>
<text text-anchor="middle" x="183.832" y="-227.3" font-family="Times,serif" font-size="14.00">CEN.South</text>
</g>
<!-- CEN.South&#45;&gt;TZ.USA\nCEN.USA -->
<g id="edge4" class="edge"><title>CEN.South&#45;&gt;TZ.USA\nCEN.USA</title>
<path fill="none" stroke="#761212" d="M130.544,-222.696C115.402,-220.292 98.9853,-217.685 84.241,-215.343"/>
<polygon fill="#761212" stroke="#761212" points="84.7621,-211.882 74.3369,-213.77 83.6642,-218.796 84.7621,-211.882"/>
<text text-anchor="middle" x="95.5" y="-220.8" font-family="Times,serif" font-size="14.00">1</text>
</g>
<!-- CEN.West -->
<g id="node4" class="node"><title>CEN.West</title>
<polygon fill="#ffffcc" stroke="black" points="237.263,-169.544 237.263,-184.456 205.964,-195 161.7,-195 130.401,-184.456 130.401,-169.544 161.7,-159 205.964,-159 237.263,-169.544"/>
<text text-anchor="middle" x="183.832" y="-173.3" font-family="Times,serif" font-size="14.00">CEN.West</text>
</g>
<!-- CEN.West&#45;&gt;TZ.USA\nCEN.USA -->
<g id="edge5" class="edge"><title>CEN.West&#45;&gt;TZ.USA\nCEN.USA</title>
<path fill="none" stroke="#761212" d="M137.006,-186.809C120.26,-190.393 101.312,-194.449 84.5075,-198.045"/>
<polygon fill="#761212" stroke="#761212" points="83.4062,-194.702 74.3602,-200.217 84.8713,-201.547 83.4062,-194.702"/>
<text text-anchor="middle" x="95.5" y="-199.8" font-family="Times,serif" font-size="14.00">1</text>
</g>
<!-- TZ.Central -->
<g id="node5" class="node"><title>TZ.Central</title>
<polygon fill="#ccffcc" stroke="black" points="222.332,-90 145.332,-90 145.332,-54 222.332,-54 222.332,-90"/>
<text text-anchor="middle" x="183.832" y="-68.3" font-family="Times,serif" font-size="14.00">TZ.Central</text>
</g>
<!-- TZ.Central&#45;&gt;TZ.USA\nCEN.USA -->
<g id="edge6" class="edge"><title>TZ.Central&#45;&gt;TZ.USA\nCEN.USA</title>
<path fill="none" stroke="#761212" d="M145.045,-75.2094C127.302,-78.3907 106.844,-84.6659 92,-97 66.6479,-118.065 52.2668,-153.886 44.8252,-179.128"/>
<polygon fill="#761212" stroke="#761212" points="41.4169,-178.322 42.134,-188.893 48.1653,-180.182 41.4169,-178.322"/>
<text text-anchor="middle" x="95.5" y="-100.8" font-family="Times,serif" font-size="14.00">1</text>
</g>
<!-- TZ.Eastern&#45;&gt;TZ.USA\nCEN.USA -->
<g id="edge7" class="edge"><title>TZ.Eastern&#45;&gt;TZ.USA\nCEN.USA</title>
<path fill="none" stroke="#761212" d="M144.926,-326.62C127.365,-320.847 107.095,-312.002 92,-299 72.3824,-282.103 57.9983,-256.229 49.0312,-236.385"/>
<polygon fill="#761212" stroke="#761212" points="52.2405,-234.988 45.0651,-227.193 45.8132,-237.761 52.2405,-234.988"/>
<text text-anchor="middle" x="95.5" y="-306.8" font-family="Times,serif" font-size="14.00">1</text>
</g>
<!-- TZ.Mountain -->
<g id="node7" class="node"><title>TZ.Mountain</title>
<polygon fill="#ccffcc" stroke="black" points="228.832,-36 138.832,-36 138.832,-0 228.832,-0 228.832,-36"/>
<text text-anchor="middle" x="183.832" y="-14.3" font-family="Times,serif" font-size="14.00">TZ.Mountain</text>
</g>
<!-- TZ.Mountain&#45;&gt;TZ.USA\nCEN.USA -->
<g id="edge8" class="edge"><title>TZ.Mountain&#45;&gt;TZ.USA\nCEN.USA</title>
<path fill="none" stroke="#761212" d="M138.803,-32.6664C131.195,-36.1316 123.615,-40.2345 117,-45 72.3364,-77.1749 51.8165,-141.557 43.3047,-179.06"/>
<polygon fill="#761212" stroke="#761212" points="39.8741,-178.366 41.2123,-188.876 46.7203,-179.825 39.8741,-178.366"/>
<text text-anchor="middle" x="95.5" y="-72.8" font-family="Times,serif" font-size="14.00">1</text>
</g>
<!-- TZ.Pacific -->
<g id="node8" class="node"><title>TZ.Pacific</title>
<polygon fill="#ccffcc" stroke="black" points="401.013,-165 327.013,-165 327.013,-129 401.013,-129 401.013,-165"/>
<text text-anchor="middle" x="364.013" y="-143.3" font-family="Times,serif" font-size="14.00">TZ.Pacific</text>
</g>
<!-- TZ.Pacific&#45;&gt;CEN.West -->
<g id="edge9" class="edge"><title>TZ.Pacific&#45;&gt;CEN.West</title>
<path fill="none" stroke="#761212" d="M326.955,-153.071C303.421,-157.033 272.124,-162.303 244.89,-166.888"/>
<polygon fill="#761212" stroke="#761212" points="243.956,-163.496 234.676,-168.608 245.118,-170.399 243.956,-163.496"/>
<text text-anchor="middle" x="272.164" y="-165.8" font-family="Times,serif" font-size="14.00">1</text>
</g>
<!-- TZ.Pacific&#45;&gt;TZ.USA\nCEN.USA -->
<g id="edge10" class="edge"><title>TZ.Pacific&#45;&gt;TZ.USA\nCEN.USA</title>
<path fill="none" stroke="#761212" d="M326.907,-136.29C277.595,-123.623 187.285,-107.498 117,-135 93.3871,-144.239 72.5983,-164.214 58.2806,-180.937"/>
<polygon fill="#761212" stroke="#761212" points="55.4414,-178.879 51.7877,-188.824 60.8457,-183.328 55.4414,-178.879"/>
<text text-anchor="middle" x="183.832" y="-138.8" font-family="Times,serif" font-size="14.00">1</text>
</g>
</g>
</svg>
