<?xml version="1.0" encoding="UTF-8" standalone="no"?>
<!DOCTYPE svg PUBLIC "-//W3C//DTD SVG 1.1//EN"
 "http://www.w3.org/Graphics/SVG/1.1/DTD/svg11.dtd">
<!-- Generated by graphviz version 2.38.0 (20140413.2041)
 -->
<!-- Title: %3 Pages: 1 -->
<svg width="800pt" height="812pt"
 viewBox="0.00 0.00 800.15 811.50" xmlns="http://www.w3.org/2000/svg" xmlns:xlink="http://www.w3.org/1999/xlink">
<g id="graph0" class="graph" transform="scale(1 1) rotate(0) translate(4 807.5)">
<title>%3</title>
<polygon fill="white" stroke="none" points="-4,4 -4,-807.5 796.152,-807.5 796.152,4 -4,4"/>
<!-- TZ.Mountain -->
<g id="node1" class="node"><title>TZ.Mountain</title>
<polygon fill="#ccffcc" stroke="black" points="210.576,-668.5 120.576,-668.5 120.576,-632.5 210.576,-632.5 210.576,-668.5"/>
<text text-anchor="middle" x="165.576" y="-646.8" font-family="Times,serif" font-size="14.00">TZ.Mountain</text>
</g>
<!-- TZ.USA\nCEN.USA -->
<g id="node25" class="node"><title>TZ.USA\nCEN.USA</title>
<path fill="#eeeeee" stroke="black" d="M62,-472.5C62,-472.5 12,-472.5 12,-472.5 6,-472.5 0,-466.5 0,-460.5 0,-460.5 0,-446.5 0,-446.5 0,-440.5 6,-434.5 12,-434.5 12,-434.5 62,-434.5 62,-434.5 68,-434.5 74,-440.5 74,-446.5 74,-446.5 74,-460.5 74,-460.5 74,-466.5 68,-472.5 62,-472.5"/>
<text text-anchor="middle" x="37" y="-457.3" font-family="Times,serif" font-size="14.00">TZ.USA</text>
<text text-anchor="middle" x="37" y="-442.3" font-family="Times,serif" font-size="14.00">CEN.USA</text>
</g>
<!-- TZ.Mountain&#45;&gt;TZ.USA\nCEN.USA -->
<g id="edge59" class="edge"><title>TZ.Mountain&#45;&gt;TZ.USA\nCEN.USA</title>
<path fill="none" stroke="#000000" d="M143.23,-632.415C132.405,-622.534 119.562,-609.653 110,-596.5 83.4225,-559.939 61.5577,-512.125 49.1426,-482.107"/>
<polygon fill="#000000" stroke="#000000" points="52.3077,-480.599 45.3013,-472.651 45.8224,-483.233 52.3077,-480.599"/>
</g>
<!-- TZ.Eastern -->
<g id="node2" class="node"><title>TZ.Eastern</title>
<polygon fill="#ccffcc" stroke="black" points="382.152,-155.5 305.152,-155.5 305.152,-119.5 382.152,-119.5 382.152,-155.5"/>
<text text-anchor="middle" x="343.652" y="-133.8" font-family="Times,serif" font-size="14.00">TZ.Eastern</text>
</g>
<!-- TZ.Eastern&#45;&gt;TZ.USA\nCEN.USA -->
<g id="edge51" class="edge"><title>TZ.Eastern&#45;&gt;TZ.USA\nCEN.USA</title>
<path fill="none" stroke="#000000" d="M304.984,-145.584C289.522,-149.854 271.841,-156.009 257.152,-164.5 180.312,-208.917 162.496,-227.936 110,-299.5 81.0163,-339.012 59.3426,-392.049 47.6883,-424.448"/>
<polygon fill="#000000" stroke="#000000" points="44.2752,-423.603 44.26,-434.198 50.8789,-425.925 44.2752,-423.603"/>
</g>
<!-- TZ.Pacific -->
<g id="node3" class="node"><title>TZ.Pacific</title>
<polygon fill="#ccffcc" stroke="black" points="591.152,-587.5 517.152,-587.5 517.152,-551.5 591.152,-551.5 591.152,-587.5"/>
<text text-anchor="middle" x="554.152" y="-565.8" font-family="Times,serif" font-size="14.00">TZ.Pacific</text>
</g>
<!-- CEN.West\\TZ.Central -->
<g id="node7" class="node"><title>CEN.West\\TZ.Central</title>
<path fill="#ffffcc" stroke="black" stroke-dasharray="5,2" d="M401.652,-749.5C401.652,-749.5 285.652,-749.5 285.652,-749.5 279.652,-749.5 273.652,-743.5 273.652,-737.5 273.652,-737.5 273.652,-725.5 273.652,-725.5 273.652,-719.5 279.652,-713.5 285.652,-713.5 285.652,-713.5 401.652,-713.5 401.652,-713.5 407.652,-713.5 413.652,-719.5 413.652,-725.5 413.652,-725.5 413.652,-737.5 413.652,-737.5 413.652,-743.5 407.652,-749.5 401.652,-749.5"/>
<text text-anchor="middle" x="343.652" y="-727.8" font-family="Times,serif" font-size="14.00">CEN.West\TZ.Central</text>
</g>
<!-- TZ.Pacific&#45;&gt;CEN.West\\TZ.Central -->
<g id="edge69" class="edge"><title>TZ.Pacific&#45;&gt;CEN.West\\TZ.Central</title>
<path fill="none" stroke="#ff0000" d="M517.059,-573.021C499.674,-576.459 479.71,-583.221 466.152,-596.5 430.004,-631.903 466.212,-669.008 430.152,-704.5 427.767,-706.848 425.179,-708.991 422.44,-710.949"/>
<polygon fill="#ff0000" stroke="#ff0000" points="420.482,-708.044 413.818,-716.281 424.164,-713.998 420.482,-708.044"/>
</g>
<!-- CEN.West\\TZ.Mountain -->
<g id="node8" class="node"><title>CEN.West\\TZ.Mountain</title>
<path fill="#ffffcc" stroke="black" stroke-dasharray="5,2" d="M408.152,-587.5C408.152,-587.5 279.152,-587.5 279.152,-587.5 273.152,-587.5 267.152,-581.5 267.152,-575.5 267.152,-575.5 267.152,-563.5 267.152,-563.5 267.152,-557.5 273.152,-551.5 279.152,-551.5 279.152,-551.5 408.152,-551.5 408.152,-551.5 414.152,-551.5 420.152,-557.5 420.152,-563.5 420.152,-563.5 420.152,-575.5 420.152,-575.5 420.152,-581.5 414.152,-587.5 408.152,-587.5"/>
<text text-anchor="middle" x="343.652" y="-565.8" font-family="Times,serif" font-size="14.00">CEN.West\TZ.Mountain</text>
</g>
<!-- TZ.Pacific&#45;&gt;CEN.West\\TZ.Mountain -->
<g id="edge85" class="edge"><title>TZ.Pacific&#45;&gt;CEN.West\\TZ.Mountain</title>
<path fill="none" stroke="#ff0000" d="M516.834,-569.5C492.934,-569.5 460.597,-569.5 430.4,-569.5"/>
<polygon fill="#ff0000" stroke="#ff0000" points="430.257,-566 420.257,-569.5 430.257,-573 430.257,-566"/>
</g>
<!-- TZ.Central -->
<g id="node4" class="node"><title>TZ.Central</title>
<polygon fill="#ccffcc" stroke="black" points="204.076,-344.5 127.076,-344.5 127.076,-308.5 204.076,-308.5 204.076,-344.5"/>
<text text-anchor="middle" x="165.576" y="-322.8" font-family="Times,serif" font-size="14.00">TZ.Central</text>
</g>
<!-- TZ.Central&#45;&gt;TZ.USA\nCEN.USA -->
<g id="edge53" class="edge"><title>TZ.Central&#45;&gt;TZ.USA\nCEN.USA</title>
<path fill="none" stroke="#000000" d="M146.441,-344.696C125.006,-366.202 89.1533,-402.175 64.5818,-426.829"/>
<polygon fill="#000000" stroke="#000000" points="61.9271,-424.535 57.3469,-434.088 66.8851,-429.476 61.9271,-424.535"/>
</g>
<!-- CEN.South\\TZ.Central -->
<g id="node5" class="node"><title>CEN.South\\TZ.Central</title>
<path fill="#ffffcc" stroke="black" stroke-dasharray="5,2" d="M403.152,-425.5C403.152,-425.5 284.152,-425.5 284.152,-425.5 278.152,-425.5 272.152,-419.5 272.152,-413.5 272.152,-413.5 272.152,-401.5 272.152,-401.5 272.152,-395.5 278.152,-389.5 284.152,-389.5 284.152,-389.5 403.152,-389.5 403.152,-389.5 409.152,-389.5 415.152,-395.5 415.152,-401.5 415.152,-401.5 415.152,-413.5 415.152,-413.5 415.152,-419.5 409.152,-425.5 403.152,-425.5"/>
<text text-anchor="middle" x="343.652" y="-403.8" font-family="Times,serif" font-size="14.00">CEN.South\TZ.Central</text>
</g>
<!-- CEN.South\\TZ.Central&#45;&gt;TZ.Mountain -->
<g id="edge40" class="edge"><title>CEN.South\\TZ.Central&#45;&gt;TZ.Mountain</title>
<path fill="none" stroke="#0000ff" stroke-dasharray="1,5" d="M271.746,-422.924C266.338,-426.094 261.359,-429.909 257.152,-434.5 207.321,-488.877 256.815,-531.939 221.152,-596.5 213.547,-610.267 201.357,-622.816 190.425,-632.344"/>
</g>
<!-- CEN.South\\TZ.Central&#45;&gt;TZ.Eastern -->
<g id="edge31" class="edge"><title>CEN.South\\TZ.Central&#45;&gt;TZ.Eastern</title>
<path fill="none" stroke="#0000ff" stroke-dasharray="1,5" d="M415.153,-397.319C428.484,-391.901 440.586,-383.742 448.152,-371.5 471.284,-334.071 471.284,-210.929 448.152,-173.5 434.482,-151.382 406.007,-142.593 382.229,-139.219"/>
</g>
<!-- CEN.South\\TZ.Eastern -->
<g id="node6" class="node"><title>CEN.South\\TZ.Eastern</title>
<path fill="#ffffcc" stroke="black" stroke-dasharray="5,2" d="M403.152,-479.5C403.152,-479.5 284.152,-479.5 284.152,-479.5 278.152,-479.5 272.152,-473.5 272.152,-467.5 272.152,-467.5 272.152,-455.5 272.152,-455.5 272.152,-449.5 278.152,-443.5 284.152,-443.5 284.152,-443.5 403.152,-443.5 403.152,-443.5 409.152,-443.5 415.152,-449.5 415.152,-455.5 415.152,-455.5 415.152,-467.5 415.152,-467.5 415.152,-473.5 409.152,-479.5 403.152,-479.5"/>
<text text-anchor="middle" x="343.652" y="-457.8" font-family="Times,serif" font-size="14.00">CEN.South\TZ.Eastern</text>
</g>
<!-- CEN.South\\TZ.Central&#45;&gt;CEN.South\\TZ.Eastern -->
<g id="edge37" class="edge"><title>CEN.South\\TZ.Central&#45;&gt;CEN.South\\TZ.Eastern</title>
<path fill="none" stroke="#0000ff" stroke-dasharray="1,5" d="M343.652,-425.641C343.652,-431.524 343.652,-437.407 343.652,-443.29"/>
</g>
<!-- CEN.South\\TZ.Mountain -->
<g id="node9" class="node"><title>CEN.South\\TZ.Mountain</title>
<path fill="#ffffcc" stroke="black" stroke-dasharray="5,2" d="M409.652,-209.5C409.652,-209.5 277.652,-209.5 277.652,-209.5 271.652,-209.5 265.652,-203.5 265.652,-197.5 265.652,-197.5 265.652,-185.5 265.652,-185.5 265.652,-179.5 271.652,-173.5 277.652,-173.5 277.652,-173.5 409.652,-173.5 409.652,-173.5 415.652,-173.5 421.652,-179.5 421.652,-185.5 421.652,-185.5 421.652,-197.5 421.652,-197.5 421.652,-203.5 415.652,-209.5 409.652,-209.5"/>
<text text-anchor="middle" x="343.652" y="-187.8" font-family="Times,serif" font-size="14.00">CEN.South\TZ.Mountain</text>
</g>
<!-- CEN.South\\TZ.Central&#45;&gt;CEN.South\\TZ.Mountain -->
<g id="edge45" class="edge"><title>CEN.South\\TZ.Central&#45;&gt;CEN.South\\TZ.Mountain</title>
<path fill="none" stroke="#0000ff" stroke-dasharray="1,5" d="M415.153,-397.319C428.484,-391.901 440.586,-383.742 448.152,-371.5 464.975,-344.279 464.975,-254.721 448.152,-227.5 441.847,-217.298 432.392,-209.932 421.7,-204.625"/>
</g>
<!-- TZ.Mountain\\CEN.West -->
<g id="node10" class="node"><title>TZ.Mountain\\CEN.West</title>
<path fill="#ccffcc" stroke="black" stroke-dasharray="5,2" d="M408.152,-641.5C408.152,-641.5 279.152,-641.5 279.152,-641.5 273.152,-641.5 267.152,-635.5 267.152,-629.5 267.152,-629.5 267.152,-617.5 267.152,-617.5 267.152,-611.5 273.152,-605.5 279.152,-605.5 279.152,-605.5 408.152,-605.5 408.152,-605.5 414.152,-605.5 420.152,-611.5 420.152,-617.5 420.152,-617.5 420.152,-629.5 420.152,-629.5 420.152,-635.5 414.152,-641.5 408.152,-641.5"/>
<text text-anchor="middle" x="343.652" y="-619.8" font-family="Times,serif" font-size="14.00">TZ.Mountain\CEN.West</text>
</g>
<!-- CEN.South\\TZ.Central&#45;&gt;TZ.Mountain\\CEN.West -->
<g id="edge28" class="edge"><title>CEN.South\\TZ.Central&#45;&gt;TZ.Mountain\\CEN.West</title>
<path fill="none" stroke="#0000ff" stroke-dasharray="1,5" d="M415.153,-417.681C428.484,-423.099 440.586,-431.258 448.152,-443.5 464.975,-470.721 464.975,-560.279 448.152,-587.5 441.544,-598.192 431.477,-605.769 420.153,-611.125"/>
</g>
<!-- TZ.Mountain\\CEN.Midwest -->
<g id="node15" class="node"><title>TZ.Mountain\\CEN.Midwest</title>
<path fill="#ccffcc" stroke="black" stroke-dasharray="5,2" d="M418.152,-695.5C418.152,-695.5 269.152,-695.5 269.152,-695.5 263.152,-695.5 257.152,-689.5 257.152,-683.5 257.152,-683.5 257.152,-671.5 257.152,-671.5 257.152,-665.5 263.152,-659.5 269.152,-659.5 269.152,-659.5 418.152,-659.5 418.152,-659.5 424.152,-659.5 430.152,-665.5 430.152,-671.5 430.152,-671.5 430.152,-683.5 430.152,-683.5 430.152,-689.5 424.152,-695.5 418.152,-695.5"/>
<text text-anchor="middle" x="343.652" y="-673.8" font-family="Times,serif" font-size="14.00">TZ.Mountain\CEN.Midwest</text>
</g>
<!-- CEN.South\\TZ.Central&#45;&gt;TZ.Mountain\\CEN.Midwest -->
<g id="edge13" class="edge"><title>CEN.South\\TZ.Central&#45;&gt;TZ.Mountain\\CEN.Midwest</title>
<path fill="none" stroke="#0000ff" stroke-dasharray="1,5" d="M415.153,-417.681C428.484,-423.099 440.586,-431.258 448.152,-443.5 471.284,-480.929 471.284,-604.071 448.152,-641.5 443.612,-648.845 437.44,-654.721 430.348,-659.416"/>
</g>
<!-- CEN.South -->
<g id="node18" class="node"><title>CEN.South</title>
<polygon fill="#ffffcc" stroke="black" points="221.228,-415.044 221.228,-429.956 188.628,-440.5 142.524,-440.5 109.924,-429.956 109.924,-415.044 142.524,-404.5 188.628,-404.5 221.228,-415.044"/>
<text text-anchor="middle" x="165.576" y="-418.8" font-family="Times,serif" font-size="14.00">CEN.South</text>
</g>
<!-- CEN.South\\TZ.Central&#45;&gt;CEN.South -->
<g id="edge68" class="edge"><title>CEN.South\\TZ.Central&#45;&gt;CEN.South</title>
<path fill="none" stroke="#ff0000" d="M272.05,-413.515C258.555,-414.664 244.491,-415.862 231.195,-416.995"/>
<polygon fill="#ff0000" stroke="#ff0000" points="230.867,-413.51 221.2,-417.847 231.461,-420.485 230.867,-413.51"/>
</g>
<!-- CEN.South\\TZ.Eastern&#45;&gt;TZ.Mountain -->
<g id="edge49" class="edge"><title>CEN.South\\TZ.Eastern&#45;&gt;TZ.Mountain</title>
<path fill="none" stroke="#0000ff" stroke-dasharray="1,5" d="M271.827,-477.631C266.471,-480.654 261.478,-484.241 257.152,-488.5 221.092,-523.992 247.866,-553.531 221.152,-596.5 212.707,-610.084 200.187,-622.798 189.268,-632.473"/>
</g>
<!-- CEN.South\\TZ.Eastern&#45;&gt;TZ.Central -->
<g id="edge16" class="edge"><title>CEN.South\\TZ.Eastern&#45;&gt;TZ.Central</title>
<path fill="none" stroke="#0000ff" stroke-dasharray="1,5" d="M273.378,-443.463C267.692,-440.848 262.198,-437.875 257.152,-434.5 247.693,-428.175 204.164,-374.028 181.067,-344.89"/>
</g>
<!-- CEN.South\\TZ.Eastern&#45;&gt;CEN.South\\TZ.Mountain -->
<g id="edge21" class="edge"><title>CEN.South\\TZ.Eastern&#45;&gt;CEN.South\\TZ.Mountain</title>
<path fill="none" stroke="#0000ff" stroke-dasharray="1,5" d="M415.153,-451.319C428.484,-445.901 440.586,-437.742 448.152,-425.5 471.284,-388.071 471.284,-264.929 448.152,-227.5 441.847,-217.298 432.392,-209.932 421.7,-204.625"/>
</g>
<!-- CEN.South\\TZ.Eastern&#45;&gt;TZ.Mountain\\CEN.West -->
<g id="edge10" class="edge"><title>CEN.South\\TZ.Eastern&#45;&gt;TZ.Mountain\\CEN.West</title>
<path fill="none" stroke="#0000ff" stroke-dasharray="1,5" d="M415.153,-471.681C428.484,-477.099 440.586,-485.258 448.152,-497.5 469.181,-531.526 469.181,-553.474 448.152,-587.5 441.544,-598.192 431.477,-605.769 420.153,-611.125"/>
</g>
<!-- TZ.Central\\CEN.West -->
<g id="node11" class="node"><title>TZ.Central\\CEN.West</title>
<path fill="#ccffcc" stroke="black" stroke-dasharray="5,2" d="M401.652,-263.5C401.652,-263.5 285.652,-263.5 285.652,-263.5 279.652,-263.5 273.652,-257.5 273.652,-251.5 273.652,-251.5 273.652,-239.5 273.652,-239.5 273.652,-233.5 279.652,-227.5 285.652,-227.5 285.652,-227.5 401.652,-227.5 401.652,-227.5 407.652,-227.5 413.652,-233.5 413.652,-239.5 413.652,-239.5 413.652,-251.5 413.652,-251.5 413.652,-257.5 407.652,-263.5 401.652,-263.5"/>
<text text-anchor="middle" x="343.652" y="-241.8" font-family="Times,serif" font-size="14.00">TZ.Central\CEN.West</text>
</g>
<!-- CEN.South\\TZ.Eastern&#45;&gt;TZ.Central\\CEN.West -->
<g id="edge8" class="edge"><title>CEN.South\\TZ.Eastern&#45;&gt;TZ.Central\\CEN.West</title>
<path fill="none" stroke="#0000ff" stroke-dasharray="1,5" d="M415.153,-451.319C428.484,-445.901 440.586,-437.742 448.152,-425.5 464.975,-398.279 464.975,-308.721 448.152,-281.5 440.334,-268.85 427.672,-260.559 413.816,-255.149"/>
</g>
<!-- TZ.Central\\CEN.Midwest -->
<g id="node13" class="node"><title>TZ.Central\\CEN.Midwest</title>
<path fill="#ccffcc" stroke="black" stroke-dasharray="5,2" d="M411.152,-317.5C411.152,-317.5 276.152,-317.5 276.152,-317.5 270.152,-317.5 264.152,-311.5 264.152,-305.5 264.152,-305.5 264.152,-293.5 264.152,-293.5 264.152,-287.5 270.152,-281.5 276.152,-281.5 276.152,-281.5 411.152,-281.5 411.152,-281.5 417.152,-281.5 423.152,-287.5 423.152,-293.5 423.152,-293.5 423.152,-305.5 423.152,-305.5 423.152,-311.5 417.152,-317.5 411.152,-317.5"/>
<text text-anchor="middle" x="343.652" y="-295.8" font-family="Times,serif" font-size="14.00">TZ.Central\CEN.Midwest</text>
</g>
<!-- CEN.South\\TZ.Eastern&#45;&gt;TZ.Central\\CEN.Midwest -->
<g id="edge48" class="edge"><title>CEN.South\\TZ.Eastern&#45;&gt;TZ.Central\\CEN.Midwest</title>
<path fill="none" stroke="#0000ff" stroke-dasharray="1,5" d="M415.153,-451.319C428.484,-445.901 440.586,-437.742 448.152,-425.5 469.181,-391.474 469.181,-369.526 448.152,-335.5 442.149,-325.788 433.292,-318.646 423.231,-313.403"/>
</g>
<!-- CEN.South\\TZ.Eastern&#45;&gt;TZ.Mountain\\CEN.Midwest -->
<g id="edge36" class="edge"><title>CEN.South\\TZ.Eastern&#45;&gt;TZ.Mountain\\CEN.Midwest</title>
<path fill="none" stroke="#0000ff" stroke-dasharray="1,5" d="M415.153,-471.681C428.484,-477.099 440.586,-485.258 448.152,-497.5 464.975,-524.721 464.975,-614.279 448.152,-641.5 443.612,-648.845 437.44,-654.721 430.348,-659.416"/>
</g>
<!-- CEN.South\\TZ.Eastern&#45;&gt;CEN.South -->
<g id="edge84" class="edge"><title>CEN.South\\TZ.Eastern&#45;&gt;CEN.South</title>
<path fill="none" stroke="#ff0000" d="M272.05,-445.862C255.725,-442.246 238.567,-438.446 222.945,-434.985"/>
<polygon fill="#ff0000" stroke="#ff0000" points="223.444,-431.511 212.924,-432.766 221.931,-438.346 223.444,-431.511"/>
</g>
<!-- CEN.West\\TZ.Central&#45;&gt;TZ.Mountain -->
<g id="edge26" class="edge"><title>CEN.West\\TZ.Central&#45;&gt;TZ.Mountain</title>
<path fill="none" stroke="#0000ff" stroke-dasharray="1,5" d="M279.457,-713.377C271.842,-710.658 264.253,-707.686 257.152,-704.5 234.602,-694.383 210.647,-679.919 193.04,-668.507"/>
</g>
<!-- CEN.West\\TZ.Central&#45;&gt;CEN.West\\TZ.Mountain -->
<g id="edge19" class="edge"><title>CEN.West\\TZ.Central&#45;&gt;CEN.West\\TZ.Mountain</title>
<path fill="none" stroke="#0000ff" stroke-dasharray="1,5" d="M413.816,-721.851C427.672,-716.441 440.334,-708.15 448.152,-695.5 469.181,-661.474 469.181,-639.526 448.152,-605.5 441.544,-594.808 431.477,-587.231 420.153,-581.875"/>
</g>
<!-- TZ.Mountain\\CEN.South -->
<g id="node12" class="node"><title>TZ.Mountain\\CEN.South</title>
<path fill="#ccffcc" stroke="black" stroke-dasharray="5,2" d="M409.652,-803.5C409.652,-803.5 277.652,-803.5 277.652,-803.5 271.652,-803.5 265.652,-797.5 265.652,-791.5 265.652,-791.5 265.652,-779.5 265.652,-779.5 265.652,-773.5 271.652,-767.5 277.652,-767.5 277.652,-767.5 409.652,-767.5 409.652,-767.5 415.652,-767.5 421.652,-773.5 421.652,-779.5 421.652,-779.5 421.652,-791.5 421.652,-791.5 421.652,-797.5 415.652,-803.5 409.652,-803.5"/>
<text text-anchor="middle" x="343.652" y="-781.8" font-family="Times,serif" font-size="14.00">TZ.Mountain\CEN.South</text>
</g>
<!-- CEN.West\\TZ.Central&#45;&gt;TZ.Mountain\\CEN.South -->
<g id="edge44" class="edge"><title>CEN.West\\TZ.Central&#45;&gt;TZ.Mountain\\CEN.South</title>
<path fill="none" stroke="#0000ff" stroke-dasharray="1,5" d="M343.652,-749.641C343.652,-755.524 343.652,-761.407 343.652,-767.29"/>
</g>
<!-- CEN.West\\TZ.Central&#45;&gt;TZ.Mountain\\CEN.Midwest -->
<g id="edge23" class="edge"><title>CEN.West\\TZ.Central&#45;&gt;TZ.Mountain\\CEN.Midwest</title>
<path fill="none" stroke="#0000ff" stroke-dasharray="1,5" d="M343.652,-713.29C343.652,-707.407 343.652,-701.524 343.652,-695.641"/>
</g>
<!-- CEN.West -->
<g id="node17" class="node"><title>CEN.West</title>
<polygon fill="#ffffcc" stroke="black" points="219.007,-562.044 219.007,-576.956 187.708,-587.5 143.444,-587.5 112.145,-576.956 112.145,-562.044 143.444,-551.5 187.708,-551.5 219.007,-562.044"/>
<text text-anchor="middle" x="165.576" y="-565.8" font-family="Times,serif" font-size="14.00">CEN.West</text>
</g>
<!-- CEN.West\\TZ.Central&#45;&gt;CEN.West -->
<g id="edge92" class="edge"><title>CEN.West\\TZ.Central&#45;&gt;CEN.West</title>
<path fill="none" stroke="#ff0000" d="M273.521,-715.574C267.604,-712.51 262.027,-708.856 257.152,-704.5 227.775,-678.251 243.541,-655.915 221.152,-623.5 213.932,-613.047 204.523,-602.892 195.556,-594.262"/>
<polygon fill="#ff0000" stroke="#ff0000" points="197.888,-591.652 188.185,-587.399 193.118,-596.775 197.888,-591.652"/>
</g>
<!-- CEN.West\\TZ.Mountain&#45;&gt;TZ.Central -->
<g id="edge2" class="edge"><title>CEN.West\\TZ.Mountain&#45;&gt;TZ.Central</title>
<path fill="none" stroke="#0000ff" stroke-dasharray="1,5" d="M267.862,-551.495C263.962,-548.889 260.344,-545.909 257.152,-542.5 211.177,-493.4 250.693,-455.93 221.152,-395.5 211.828,-376.427 196.539,-357.724 184.512,-344.612"/>
</g>
<!-- CEN.West\\TZ.Mountain&#45;&gt;TZ.Central\\CEN.Midwest -->
<g id="edge4" class="edge"><title>CEN.West\\TZ.Mountain&#45;&gt;TZ.Central\\CEN.Midwest</title>
<path fill="none" stroke="#0000ff" stroke-dasharray="1,5" d="M420.153,-557.125C431.477,-551.769 441.544,-544.192 448.152,-533.5 471.284,-496.071 471.284,-372.929 448.152,-335.5 442.149,-325.788 433.292,-318.646 423.231,-313.403"/>
</g>
<!-- TZ.Central\\CEN.South -->
<g id="node14" class="node"><title>TZ.Central\\CEN.South</title>
<path fill="#ccffcc" stroke="black" stroke-dasharray="5,2" d="M403.152,-371.5C403.152,-371.5 284.152,-371.5 284.152,-371.5 278.152,-371.5 272.152,-365.5 272.152,-359.5 272.152,-359.5 272.152,-347.5 272.152,-347.5 272.152,-341.5 278.152,-335.5 284.152,-335.5 284.152,-335.5 403.152,-335.5 403.152,-335.5 409.152,-335.5 415.152,-341.5 415.152,-347.5 415.152,-347.5 415.152,-359.5 415.152,-359.5 415.152,-365.5 409.152,-371.5 403.152,-371.5"/>
<text text-anchor="middle" x="343.652" y="-349.8" font-family="Times,serif" font-size="14.00">TZ.Central\CEN.South</text>
</g>
<!-- CEN.West\\TZ.Mountain&#45;&gt;TZ.Central\\CEN.South -->
<g id="edge29" class="edge"><title>CEN.West\\TZ.Mountain&#45;&gt;TZ.Central\\CEN.South</title>
<path fill="none" stroke="#0000ff" stroke-dasharray="1,5" d="M420.153,-557.125C431.477,-551.769 441.544,-544.192 448.152,-533.5 464.975,-506.279 464.975,-416.721 448.152,-389.5 440.586,-377.258 428.484,-369.099 415.153,-363.681"/>
</g>
<!-- CEN.West\\TZ.Mountain&#45;&gt;CEN.West -->
<g id="edge70" class="edge"><title>CEN.West\\TZ.Mountain&#45;&gt;CEN.West</title>
<path fill="none" stroke="#ff0000" d="M266.958,-569.5C254.36,-569.5 241.419,-569.5 229.192,-569.5"/>
<polygon fill="#ff0000" stroke="#ff0000" points="229.114,-566 219.114,-569.5 229.114,-573 229.114,-566"/>
</g>
<!-- CEN.South\\TZ.Mountain&#45;&gt;TZ.Eastern -->
<g id="edge7" class="edge"><title>CEN.South\\TZ.Mountain&#45;&gt;TZ.Eastern</title>
<path fill="none" stroke="#0000ff" stroke-dasharray="1,5" d="M343.652,-173.29C343.652,-167.407 343.652,-161.524 343.652,-155.641"/>
</g>
<!-- CEN.South\\TZ.Mountain&#45;&gt;TZ.Central -->
<g id="edge9" class="edge"><title>CEN.South\\TZ.Mountain&#45;&gt;TZ.Central</title>
<path fill="none" stroke="#0000ff" stroke-dasharray="1,5" d="M273.378,-209.537C267.692,-212.152 262.198,-215.125 257.152,-218.5 221.349,-242.441 191.964,-284.51 177.095,-308.465"/>
</g>
<!-- CEN.South\\TZ.Mountain&#45;&gt;TZ.Central\\CEN.West -->
<g id="edge32" class="edge"><title>CEN.South\\TZ.Mountain&#45;&gt;TZ.Central\\CEN.West</title>
<path fill="none" stroke="#0000ff" stroke-dasharray="1,5" d="M343.652,-209.641C343.652,-215.524 343.652,-221.407 343.652,-227.29"/>
</g>
<!-- CEN.South\\TZ.Mountain&#45;&gt;TZ.Central\\CEN.Midwest -->
<g id="edge3" class="edge"><title>CEN.South\\TZ.Mountain&#45;&gt;TZ.Central\\CEN.Midwest</title>
<path fill="none" stroke="#0000ff" stroke-dasharray="1,5" d="M421.7,-204.625C432.392,-209.932 441.847,-217.298 448.152,-227.5 456.564,-241.11 456.564,-249.89 448.152,-263.5 442.149,-273.212 433.292,-280.354 423.231,-285.597"/>
</g>
<!-- CEN.South\\TZ.Mountain&#45;&gt;CEN.South -->
<g id="edge76" class="edge"><title>CEN.South\\TZ.Mountain&#45;&gt;CEN.South</title>
<path fill="none" stroke="#ff0000" d="M267.943,-209.581C264.023,-212.168 260.378,-215.124 257.152,-218.5 214.248,-263.392 248.992,-297.994 221.152,-353.5 213.344,-369.067 201.664,-384.455 191.111,-396.736"/>
<polygon fill="#ff0000" stroke="#ff0000" points="188.398,-394.52 184.391,-404.328 193.64,-399.16 188.398,-394.52"/>
</g>
<!-- TZ.Mountain\\CEN.West&#45;&gt;TZ.Mountain -->
<g id="edge78" class="edge"><title>TZ.Mountain\\CEN.West&#45;&gt;TZ.Mountain</title>
<path fill="none" stroke="#ff0000" d="M266.958,-635.107C251.507,-637.476 235.539,-639.925 221.008,-642.153"/>
<polygon fill="#ff0000" stroke="#ff0000" points="220.063,-638.757 210.709,-643.732 221.124,-645.676 220.063,-638.757"/>
</g>
<!-- TZ.Central\\CEN.West&#45;&gt;TZ.Central -->
<g id="edge75" class="edge"><title>TZ.Central\\CEN.West&#45;&gt;TZ.Central</title>
<path fill="none" stroke="#ff0000" d="M279.457,-263.623C271.842,-266.342 264.253,-269.314 257.152,-272.5 238.126,-281.036 218.099,-292.667 201.728,-302.948"/>
<polygon fill="#ff0000" stroke="#ff0000" points="199.587,-300.163 193.04,-308.493 203.352,-306.064 199.587,-300.163"/>
</g>
<!-- TZ.Mountain\\CEN.South&#45;&gt;TZ.Mountain -->
<g id="edge91" class="edge"><title>TZ.Mountain\\CEN.South&#45;&gt;TZ.Mountain</title>
<path fill="none" stroke="#ff0000" d="M273.378,-767.463C267.692,-764.848 262.198,-761.875 257.152,-758.5 225.265,-737.178 198.469,-701.476 182.484,-676.998"/>
<polygon fill="#ff0000" stroke="#ff0000" points="185.418,-675.09 177.095,-668.535 179.514,-678.85 185.418,-675.09"/>
</g>
<!-- TZ.Mountain\\CEN.South&#45;&gt;TZ.Mountain\\CEN.West -->
<g id="edge39" class="edge"><title>TZ.Mountain\\CEN.South&#45;&gt;TZ.Mountain\\CEN.West</title>
<path fill="none" stroke="#0000ff" stroke-dasharray="1,5" d="M421.7,-772.375C432.392,-767.068 441.847,-759.702 448.152,-749.5 469.181,-715.474 469.181,-693.526 448.152,-659.5 441.544,-648.808 431.477,-641.231 420.153,-635.875"/>
</g>
<!-- TZ.Central\\CEN.Midwest&#45;&gt;TZ.Central -->
<g id="edge66" class="edge"><title>TZ.Central\\CEN.Midwest&#45;&gt;TZ.Central</title>
<path fill="none" stroke="#ff0000" d="M264.14,-311.539C247.301,-314.121 229.991,-316.776 214.714,-319.118"/>
<polygon fill="#ff0000" stroke="#ff0000" points="213.847,-315.71 204.493,-320.686 214.908,-322.629 213.847,-315.71"/>
</g>
<!-- TZ.Central\\CEN.Midwest&#45;&gt;TZ.Central\\CEN.West -->
<g id="edge25" class="edge"><title>TZ.Central\\CEN.Midwest&#45;&gt;TZ.Central\\CEN.West</title>
<path fill="none" stroke="#0000ff" stroke-dasharray="1,5" d="M343.652,-281.29C343.652,-275.407 343.652,-269.524 343.652,-263.641"/>
</g>
<!-- TZ.Central\\CEN.Midwest&#45;&gt;TZ.Central\\CEN.South -->
<g id="edge17" class="edge"><title>TZ.Central\\CEN.Midwest&#45;&gt;TZ.Central\\CEN.South</title>
<path fill="none" stroke="#0000ff" stroke-dasharray="1,5" d="M343.652,-317.641C343.652,-323.524 343.652,-329.407 343.652,-335.29"/>
</g>
<!-- TZ.Central\\CEN.South&#45;&gt;TZ.Central -->
<g id="edge67" class="edge"><title>TZ.Central\\CEN.South&#45;&gt;TZ.Central</title>
<path fill="none" stroke="#ff0000" d="M272.05,-342.674C252.695,-339.706 232.169,-336.558 214.419,-333.836"/>
<polygon fill="#ff0000" stroke="#ff0000" points="214.733,-330.344 204.318,-332.288 213.672,-337.263 214.733,-330.344"/>
</g>
<!-- TZ.Central\\CEN.South&#45;&gt;TZ.Central\\CEN.West -->
<g id="edge24" class="edge"><title>TZ.Central\\CEN.South&#45;&gt;TZ.Central\\CEN.West</title>
<path fill="none" stroke="#0000ff" stroke-dasharray="1,5" d="M415.153,-343.319C428.484,-337.901 440.586,-329.742 448.152,-317.5 456.564,-303.89 456.564,-295.11 448.152,-281.5 440.334,-268.85 427.672,-260.559 413.816,-255.149"/>
</g>
<!-- TZ.Mountain\\CEN.Midwest&#45;&gt;TZ.Mountain -->
<g id="edge81" class="edge"><title>TZ.Mountain\\CEN.Midwest&#45;&gt;TZ.Mountain</title>
<path fill="none" stroke="#ff0000" d="M256.935,-664.356C244.748,-662.487 232.502,-660.609 221.131,-658.866"/>
<polygon fill="#ff0000" stroke="#ff0000" points="221.377,-655.363 210.962,-657.306 220.316,-662.282 221.377,-655.363"/>
</g>
<!-- TZ.Mountain\\CEN.Midwest&#45;&gt;TZ.Mountain\\CEN.West -->
<g id="edge6" class="edge"><title>TZ.Mountain\\CEN.Midwest&#45;&gt;TZ.Mountain\\CEN.West</title>
<path fill="none" stroke="#0000ff" stroke-dasharray="1,5" d="M343.652,-659.29C343.652,-653.407 343.652,-647.524 343.652,-641.641"/>
</g>
<!-- TZ.Mountain\\CEN.Midwest&#45;&gt;TZ.Mountain\\CEN.South -->
<g id="edge18" class="edge"><title>TZ.Mountain\\CEN.Midwest&#45;&gt;TZ.Mountain\\CEN.South</title>
<path fill="none" stroke="#0000ff" stroke-dasharray="1,5" d="M430.348,-695.584C437.44,-700.279 443.612,-706.155 448.152,-713.5 456.564,-727.11 456.564,-735.89 448.152,-749.5 441.847,-759.702 432.392,-767.068 421.7,-772.375"/>
</g>
<!-- CEN.Midwest -->
<g id="node16" class="node"><title>CEN.Midwest</title>
<polygon fill="#ffffcc" stroke="black" points="410.316,-508.044 410.316,-522.956 371.265,-533.5 316.039,-533.5 276.988,-522.956 276.988,-508.044 316.039,-497.5 371.265,-497.5 410.316,-508.044"/>
<text text-anchor="middle" x="343.652" y="-511.8" font-family="Times,serif" font-size="14.00">CEN.Midwest</text>
</g>
<!-- CEN.Midwest&#45;&gt;TZ.Mountain -->
<g id="edge12" class="edge"><title>CEN.Midwest&#45;&gt;TZ.Mountain</title>
<path fill="none" stroke="#0000ff" stroke-dasharray="1,5" d="M288.865,-526.389C277.689,-530.266 266.486,-535.487 257.152,-542.5 234.091,-559.826 239.498,-574.242 221.152,-596.5 210.639,-609.254 197.506,-622.322 186.758,-632.408"/>
</g>
<!-- CEN.Midwest&#45;&gt;TZ.Central -->
<g id="edge27" class="edge"><title>CEN.Midwest&#45;&gt;TZ.Central</title>
<path fill="none" stroke="#0000ff" stroke-dasharray="1,5" d="M285.86,-505.428C275.376,-501.508 265.211,-496.063 257.152,-488.5 224.833,-458.17 243.146,-433.98 221.152,-395.5 210.541,-376.936 195.213,-358.04 183.502,-344.728"/>
</g>
<!-- CEN.Midwest&#45;&gt;TZ.Mountain\\CEN.West -->
<g id="edge15" class="edge"><title>CEN.Midwest&#45;&gt;TZ.Mountain\\CEN.West</title>
<path fill="none" stroke="#0000ff" stroke-dasharray="1,5" d="M408.946,-523.378C424.666,-528.693 439.426,-537.381 448.152,-551.5 456.564,-565.11 456.564,-573.89 448.152,-587.5 441.544,-598.192 431.477,-605.769 420.153,-611.125"/>
</g>
<!-- CEN.Midwest&#45;&gt;TZ.Central\\CEN.West -->
<g id="edge5" class="edge"><title>CEN.Midwest&#45;&gt;TZ.Central\\CEN.West</title>
<path fill="none" stroke="#0000ff" stroke-dasharray="1,5" d="M408.946,-507.622C424.666,-502.307 439.426,-493.619 448.152,-479.5 471.284,-442.071 471.284,-318.929 448.152,-281.5 440.334,-268.85 427.672,-260.559 413.816,-255.149"/>
</g>
<!-- CEN.Midwest&#45;&gt;TZ.Mountain\\CEN.South -->
<g id="edge14" class="edge"><title>CEN.Midwest&#45;&gt;TZ.Mountain\\CEN.South</title>
<path fill="none" stroke="#0000ff" stroke-dasharray="1,5" d="M408.946,-523.378C424.666,-528.693 439.426,-537.381 448.152,-551.5 471.284,-588.929 471.284,-712.071 448.152,-749.5 441.847,-759.702 432.392,-767.068 421.7,-772.375"/>
</g>
<!-- CEN.Midwest&#45;&gt;TZ.Central\\CEN.South -->
<g id="edge20" class="edge"><title>CEN.Midwest&#45;&gt;TZ.Central\\CEN.South</title>
<path fill="none" stroke="#0000ff" stroke-dasharray="1,5" d="M408.946,-507.622C424.666,-502.307 439.426,-493.619 448.152,-479.5 469.181,-445.474 469.181,-423.526 448.152,-389.5 440.586,-377.258 428.484,-369.099 415.153,-363.681"/>
</g>
<!-- CEN.Midwest&#45;&gt;TZ.USA\nCEN.USA -->
<g id="edge54" class="edge"><title>CEN.Midwest&#45;&gt;TZ.USA\nCEN.USA</title>
<path fill="none" stroke="#000000" d="M289.237,-504.629C231.081,-492.794 139.038,-474.062 83.9828,-462.858"/>
<polygon fill="#000000" stroke="#000000" points="84.6469,-459.421 74.1498,-460.857 83.2509,-466.281 84.6469,-459.421"/>
</g>
<!-- CEN.West&#45;&gt;TZ.Mountain -->
<g id="edge41" class="edge"><title>CEN.West&#45;&gt;TZ.Mountain</title>
<path fill="none" stroke="#0000ff" stroke-dasharray="1,5" d="M165.576,-587.535C165.576,-602.457 165.576,-617.378 165.576,-632.299"/>
</g>
<!-- CEN.West&#45;&gt;TZ.Central -->
<g id="edge34" class="edge"><title>CEN.West&#45;&gt;TZ.Central</title>
<path fill="none" stroke="#0000ff" stroke-dasharray="1,5" d="M189.472,-551.799C206.928,-537.271 229.212,-514.992 239.152,-489.5 252.876,-454.303 253.098,-439.609 239.152,-404.5 229.393,-379.933 207.823,-358.621 190.547,-344.512"/>
</g>
<!-- CEN.West&#45;&gt;TZ.Mountain\\CEN.South -->
<g id="edge1" class="edge"><title>CEN.West&#45;&gt;TZ.Mountain\\CEN.South</title>
<path fill="none" stroke="#0000ff" stroke-dasharray="1,5" d="M189.348,-587.074C200.424,-596.722 213.059,-609.549 221.152,-623.5 252.311,-677.213 214.248,-713.608 257.152,-758.5 260.378,-761.876 264.023,-764.832 267.943,-767.419"/>
</g>
<!-- CEN.West&#45;&gt;TZ.Central\\CEN.Midwest -->
<g id="edge47" class="edge"><title>CEN.West&#45;&gt;TZ.Central\\CEN.Midwest</title>
<path fill="none" stroke="#0000ff" stroke-dasharray="1,5" d="M175.919,-551.138C187.517,-527.885 207.44,-486.4 221.152,-449.5 240.992,-396.107 217.303,-367.2 257.152,-326.5 260.419,-323.163 264.094,-320.238 268.038,-317.673"/>
</g>
<!-- CEN.West&#45;&gt;TZ.Central\\CEN.South -->
<g id="edge33" class="edge"><title>CEN.West&#45;&gt;TZ.Central\\CEN.South</title>
<path fill="none" stroke="#0000ff" stroke-dasharray="1,5" d="M174.782,-551.39C195.738,-505.281 250.076,-386.642 257.152,-380.5 261.619,-376.622 266.643,-373.301 271.962,-370.456"/>
</g>
<!-- CEN.West&#45;&gt;TZ.Mountain\\CEN.Midwest -->
<g id="edge11" class="edge"><title>CEN.West&#45;&gt;TZ.Mountain\\CEN.Midwest</title>
<path fill="none" stroke="#0000ff" stroke-dasharray="1,5" d="M185.099,-587.777C206.741,-608.818 241.571,-641.625 257.152,-650.5 262.968,-653.813 269.243,-656.775 275.657,-659.41"/>
</g>
<!-- CEN.West&#45;&gt;TZ.USA\nCEN.USA -->
<g id="edge58" class="edge"><title>CEN.West&#45;&gt;TZ.USA\nCEN.USA</title>
<path fill="none" stroke="#000000" d="M144.798,-551.375C123.718,-532.056 90.1538,-501.296 66.283,-479.42"/>
<polygon fill="#000000" stroke="#000000" points="68.6386,-476.831 58.9014,-472.655 63.9091,-481.992 68.6386,-476.831"/>
</g>
<!-- CEN.South&#45;&gt;TZ.Mountain -->
<g id="edge43" class="edge"><title>CEN.South&#45;&gt;TZ.Mountain</title>
<path fill="none" stroke="#0000ff" stroke-dasharray="1,5" d="M180.158,-440.791C198.139,-464.631 227.721,-508.386 239.152,-551.5 243.252,-566.966 245.841,-572.965 239.152,-587.5 230.504,-606.29 213.181,-621.567 197.516,-632.37"/>
</g>
<!-- CEN.South&#45;&gt;TZ.Eastern -->
<g id="edge42" class="edge"><title>CEN.South&#45;&gt;TZ.Eastern</title>
<path fill="none" stroke="#0000ff" stroke-dasharray="1,5" d="M185.088,-404.253C197.215,-391.223 212.39,-372.67 221.152,-353.5 256.698,-275.728 200.347,-228.415 257.152,-164.5 269.251,-150.887 288.149,-144.077 305.105,-140.696"/>
</g>
<!-- CEN.South&#45;&gt;TZ.Central -->
<g id="edge35" class="edge"><title>CEN.South&#45;&gt;TZ.Central</title>
<path fill="none" stroke="#0000ff" stroke-dasharray="1,5" d="M165.576,-404.307C165.576,-384.496 165.576,-364.686 165.576,-344.875"/>
</g>
<!-- CEN.South&#45;&gt;TZ.Mountain\\CEN.West -->
<g id="edge38" class="edge"><title>CEN.South&#45;&gt;TZ.Mountain\\CEN.West</title>
<path fill="none" stroke="#0000ff" stroke-dasharray="1,5" d="M175.06,-440.669C194.959,-482.994 243.947,-585.415 257.152,-596.5 261.205,-599.903 265.69,-602.878 270.421,-605.479"/>
</g>
<!-- CEN.South&#45;&gt;TZ.Central\\CEN.West -->
<g id="edge46" class="edge"><title>CEN.South&#45;&gt;TZ.Central\\CEN.West</title>
<path fill="none" stroke="#0000ff" stroke-dasharray="1,5" d="M182.977,-404.395C194.586,-390.99 210.011,-371.93 221.152,-353.5 241.532,-319.786 227.775,-298.749 257.152,-272.5 262.027,-268.144 267.604,-264.49 273.521,-261.426"/>
</g>
<!-- CEN.South&#45;&gt;TZ.Central\\CEN.Midwest -->
<g id="edge22" class="edge"><title>CEN.South&#45;&gt;TZ.Central\\CEN.Midwest</title>
<path fill="none" stroke="#0000ff" stroke-dasharray="1,5" d="M179.201,-404.284C195.038,-382.74 224.151,-347.197 257.152,-326.5 262.427,-323.192 268.141,-320.258 274.028,-317.663"/>
</g>
<!-- CEN.South&#45;&gt;TZ.Mountain\\CEN.Midwest -->
<g id="edge30" class="edge"><title>CEN.South&#45;&gt;TZ.Mountain\\CEN.Midwest</title>
<path fill="none" stroke="#0000ff" stroke-dasharray="1,5" d="M175.501,-440.541C186.841,-463.802 206.676,-505.647 221.152,-542.5 239.651,-589.593 221.092,-615.008 257.152,-650.5 260.591,-653.885 264.451,-656.846 268.579,-659.436"/>
</g>
<!-- CEN.South&#45;&gt;TZ.USA\nCEN.USA -->
<g id="edge60" class="edge"><title>CEN.South&#45;&gt;TZ.USA\nCEN.USA</title>
<path fill="none" stroke="#000000" d="M120.306,-433.342C108.498,-436.234 95.7171,-439.364 83.8279,-442.276"/>
<polygon fill="#000000" stroke="#000000" points="82.9719,-438.882 74.0916,-444.661 84.6372,-445.681 82.9719,-438.882"/>
</g>
<!-- TZ.Central*CEN.South -->
<g id="node19" class="node"><title>TZ.Central*CEN.South</title>
<path fill="#eeeeee" stroke="black" stroke-width="2" d="M615.152,-284.5C615.152,-284.5 493.152,-284.5 493.152,-284.5 487.152,-284.5 481.152,-278.5 481.152,-272.5 481.152,-272.5 481.152,-260.5 481.152,-260.5 481.152,-254.5 487.152,-248.5 493.152,-248.5 493.152,-248.5 615.152,-248.5 615.152,-248.5 621.152,-248.5 627.152,-254.5 627.152,-260.5 627.152,-260.5 627.152,-272.5 627.152,-272.5 627.152,-278.5 621.152,-284.5 615.152,-284.5"/>
<text text-anchor="middle" x="554.152" y="-262.8" font-family="Times,serif" font-size="14.00">TZ.Central*CEN.South</text>
</g>
<!-- TZ.Central*CEN.South&#45;&gt;CEN.South\\TZ.Eastern -->
<g id="edge88" class="edge"><title>TZ.Central*CEN.South&#45;&gt;CEN.South\\TZ.Eastern</title>
<path fill="none" stroke="#ff0000" d="M509.527,-284.514C493.945,-292.837 477.466,-304.116 466.152,-318.5 432.779,-360.929 468.228,-396.235 430.152,-434.5 428.23,-436.431 426.172,-438.224 424.005,-439.889"/>
<polygon fill="#ff0000" stroke="#ff0000" points="421.598,-437.282 415.162,-445.698 425.442,-443.133 421.598,-437.282"/>
</g>
<!-- TZ.Central*CEN.South&#45;&gt;CEN.South\\TZ.Mountain -->
<g id="edge63" class="edge"><title>TZ.Central*CEN.South&#45;&gt;CEN.South\\TZ.Mountain</title>
<path fill="none" stroke="#ff0000" d="M509.009,-248.457C485.697,-239.136 456.526,-227.799 430.152,-218.5 424.697,-216.577 419.025,-214.643 413.313,-212.742"/>
<polygon fill="#ff0000" stroke="#ff0000" points="414.286,-209.378 403.694,-209.583 412.102,-216.029 414.286,-209.378"/>
</g>
<!-- TZ.Central*CEN.South&#45;&gt;TZ.Central\\CEN.West -->
<g id="edge64" class="edge"><title>TZ.Central*CEN.South&#45;&gt;TZ.Central\\CEN.West</title>
<path fill="none" stroke="#ff0000" d="M481.106,-259.244C462.648,-257.384 442.696,-255.375 423.896,-253.481"/>
<polygon fill="#ff0000" stroke="#ff0000" points="424.188,-249.993 413.888,-252.473 423.486,-256.958 424.188,-249.993"/>
</g>
<!-- TZ.Central*CEN.South&#45;&gt;TZ.Central\\CEN.Midwest -->
<g id="edge82" class="edge"><title>TZ.Central*CEN.South&#45;&gt;TZ.Central\\CEN.Midwest</title>
<path fill="none" stroke="#ff0000" d="M481.106,-277.903C465.85,-280.318 449.574,-282.894 433.771,-285.395"/>
<polygon fill="#ff0000" stroke="#ff0000" points="432.801,-282.005 423.471,-287.025 433.895,-288.919 432.801,-282.005"/>
</g>
<!-- TZ.Mountain*CEN.South -->
<g id="node20" class="node"><title>TZ.Mountain*CEN.South</title>
<path fill="#eeeeee" stroke="black" stroke-width="2" d="M621.652,-486.5C621.652,-486.5 486.652,-486.5 486.652,-486.5 480.652,-486.5 474.652,-480.5 474.652,-474.5 474.652,-474.5 474.652,-462.5 474.652,-462.5 474.652,-456.5 480.652,-450.5 486.652,-450.5 486.652,-450.5 621.652,-450.5 621.652,-450.5 627.652,-450.5 633.652,-456.5 633.652,-462.5 633.652,-462.5 633.652,-474.5 633.652,-474.5 633.652,-480.5 627.652,-486.5 621.652,-486.5"/>
<text text-anchor="middle" x="554.152" y="-464.8" font-family="Times,serif" font-size="14.00">TZ.Mountain*CEN.South</text>
</g>
<!-- TZ.Mountain*CEN.South&#45;&gt;CEN.South\\TZ.Central -->
<g id="edge87" class="edge"><title>TZ.Mountain*CEN.South&#45;&gt;CEN.South\\TZ.Central</title>
<path fill="none" stroke="#ff0000" d="M491.441,-450.446C467.695,-443.498 440.395,-435.511 415.828,-428.324"/>
<polygon fill="#ff0000" stroke="#ff0000" points="416.785,-424.957 406.204,-425.508 414.819,-431.675 416.785,-424.957"/>
</g>
<!-- TZ.Mountain*CEN.South&#45;&gt;CEN.South\\TZ.Eastern -->
<g id="edge74" class="edge"><title>TZ.Mountain*CEN.South&#45;&gt;CEN.South\\TZ.Eastern</title>
<path fill="none" stroke="#ff0000" d="M474.624,-465.864C458.621,-465.326 441.755,-464.76 425.667,-464.22"/>
<polygon fill="#ff0000" stroke="#ff0000" points="425.336,-460.707 415.224,-463.869 425.101,-467.703 425.336,-460.707"/>
</g>
<!-- TZ.Mountain*CEN.South&#45;&gt;TZ.Mountain\\CEN.West -->
<g id="edge77" class="edge"><title>TZ.Mountain*CEN.South&#45;&gt;TZ.Mountain\\CEN.West</title>
<path fill="none" stroke="#ff0000" d="M528.279,-486.642C509.935,-500.706 484.997,-521.313 466.152,-542.5 446.981,-564.052 453.213,-579.174 430.152,-596.5 428.332,-597.867 426.441,-599.167 424.492,-600.401"/>
<polygon fill="#ff0000" stroke="#ff0000" points="422.613,-597.443 415.629,-605.409 426.057,-603.537 422.613,-597.443"/>
</g>
<!-- TZ.Mountain*CEN.South&#45;&gt;TZ.Mountain\\CEN.Midwest -->
<g id="edge79" class="edge"><title>TZ.Mountain*CEN.South&#45;&gt;TZ.Mountain\\CEN.Midwest</title>
<path fill="none" stroke="#ff0000" d="M524.499,-486.718C505.549,-500.089 481.464,-519.821 466.152,-542.5 437.84,-584.434 466.212,-615.008 430.152,-650.5 429.077,-651.558 427.961,-652.574 426.809,-653.551"/>
<polygon fill="#ff0000" stroke="#ff0000" points="424.749,-650.721 418.724,-659.436 428.869,-656.381 424.749,-650.721"/>
</g>
<!-- TZ.Mountain*CEN.West -->
<g id="node21" class="node"><title>TZ.Mountain*CEN.West</title>
<path fill="#eeeeee" stroke="black" stroke-width="2" d="M620.152,-749.5C620.152,-749.5 488.152,-749.5 488.152,-749.5 482.152,-749.5 476.152,-743.5 476.152,-737.5 476.152,-737.5 476.152,-725.5 476.152,-725.5 476.152,-719.5 482.152,-713.5 488.152,-713.5 488.152,-713.5 620.152,-713.5 620.152,-713.5 626.152,-713.5 632.152,-719.5 632.152,-725.5 632.152,-725.5 632.152,-737.5 632.152,-737.5 632.152,-743.5 626.152,-749.5 620.152,-749.5"/>
<text text-anchor="middle" x="554.152" y="-727.8" font-family="Times,serif" font-size="14.00">TZ.Mountain*CEN.West</text>
</g>
<!-- TZ.Mountain*CEN.West&#45;&gt;CEN.West\\TZ.Central -->
<g id="edge80" class="edge"><title>TZ.Mountain*CEN.West&#45;&gt;CEN.West\\TZ.Central</title>
<path fill="none" stroke="#ff0000" d="M476.106,-731.5C459.199,-731.5 441.265,-731.5 424.259,-731.5"/>
<polygon fill="#ff0000" stroke="#ff0000" points="423.808,-728 413.808,-731.5 423.808,-735 423.808,-728"/>
</g>
<!-- TZ.Mountain*CEN.West&#45;&gt;TZ.Mountain\\CEN.South -->
<g id="edge86" class="edge"><title>TZ.Mountain*CEN.West&#45;&gt;TZ.Mountain\\CEN.South</title>
<path fill="none" stroke="#ff0000" d="M483.434,-749.556C464.395,-754.487 443.623,-759.867 424.086,-764.927"/>
<polygon fill="#ff0000" stroke="#ff0000" points="423.107,-761.565 414.303,-767.461 424.862,-768.342 423.107,-761.565"/>
</g>
<!-- TZ.Mountain*CEN.West&#45;&gt;TZ.Mountain\\CEN.Midwest -->
<g id="edge65" class="edge"><title>TZ.Mountain*CEN.West&#45;&gt;TZ.Mountain\\CEN.Midwest</title>
<path fill="none" stroke="#ff0000" d="M483.434,-713.444C464.395,-708.513 443.623,-703.133 424.086,-698.073"/>
<polygon fill="#ff0000" stroke="#ff0000" points="424.862,-694.658 414.303,-695.539 423.107,-701.435 424.862,-694.658"/>
</g>
<!-- TZ.Central*CEN.West -->
<g id="node22" class="node"><title>TZ.Central*CEN.West</title>
<path fill="#eeeeee" stroke="black" stroke-width="2" d="M613.652,-419.5C613.652,-419.5 494.652,-419.5 494.652,-419.5 488.652,-419.5 482.652,-413.5 482.652,-407.5 482.652,-407.5 482.652,-395.5 482.652,-395.5 482.652,-389.5 488.652,-383.5 494.652,-383.5 494.652,-383.5 613.652,-383.5 613.652,-383.5 619.652,-383.5 625.652,-389.5 625.652,-395.5 625.652,-395.5 625.652,-407.5 625.652,-407.5 625.652,-413.5 619.652,-419.5 613.652,-419.5"/>
<text text-anchor="middle" x="554.152" y="-397.8" font-family="Times,serif" font-size="14.00">TZ.Central*CEN.West</text>
</g>
<!-- TZ.Central*CEN.West&#45;&gt;CEN.West\\TZ.Mountain -->
<g id="edge72" class="edge"><title>TZ.Central*CEN.West&#45;&gt;CEN.West\\TZ.Mountain</title>
<path fill="none" stroke="#ff0000" d="M496.351,-419.645C485.23,-425.254 474.457,-432.425 466.152,-441.5 433.979,-476.656 464.459,-509.424 430.152,-542.5 429.066,-543.547 427.94,-544.553 426.779,-545.52"/>
<polygon fill="#ff0000" stroke="#ff0000" points="424.731,-542.682 418.644,-551.354 428.81,-548.37 424.731,-542.682"/>
</g>
<!-- TZ.Central*CEN.West&#45;&gt;TZ.Central\\CEN.Midwest -->
<g id="edge83" class="edge"><title>TZ.Central*CEN.West&#45;&gt;TZ.Central\\CEN.Midwest</title>
<path fill="none" stroke="#ff0000" d="M482.46,-383.85C476.717,-381.152 471.193,-378.054 466.152,-374.5 444.357,-359.134 451.908,-341.92 430.152,-326.5 428.243,-325.147 426.263,-323.86 424.228,-322.635"/>
<polygon fill="#ff0000" stroke="#ff0000" points="425.457,-319.322 414.994,-317.659 422.136,-325.484 425.457,-319.322"/>
</g>
<!-- TZ.Central*CEN.West&#45;&gt;TZ.Central\\CEN.South -->
<g id="edge90" class="edge"><title>TZ.Central*CEN.West&#45;&gt;TZ.Central\\CEN.South</title>
<path fill="none" stroke="#ff0000" d="M482.563,-385.249C464.052,-380.988 443.955,-376.361 424.976,-371.992"/>
<polygon fill="#ff0000" stroke="#ff0000" points="425.698,-368.567 415.168,-369.734 424.128,-375.388 425.698,-368.567"/>
</g>
<!-- TZ.Eastern*CEN.South -->
<g id="node23" class="node"><title>TZ.Eastern*CEN.South</title>
<path fill="#eeeeee" stroke="black" stroke-width="2" d="M615.152,-210.5C615.152,-210.5 493.152,-210.5 493.152,-210.5 487.152,-210.5 481.152,-204.5 481.152,-198.5 481.152,-198.5 481.152,-186.5 481.152,-186.5 481.152,-180.5 487.152,-174.5 493.152,-174.5 493.152,-174.5 615.152,-174.5 615.152,-174.5 621.152,-174.5 627.152,-180.5 627.152,-186.5 627.152,-186.5 627.152,-198.5 627.152,-198.5 627.152,-204.5 621.152,-210.5 615.152,-210.5"/>
<text text-anchor="middle" x="554.152" y="-188.8" font-family="Times,serif" font-size="14.00">TZ.Eastern*CEN.South</text>
</g>
<!-- TZ.Eastern*CEN.South&#45;&gt;TZ.Eastern -->
<g id="edge71" class="edge"><title>TZ.Eastern*CEN.South&#45;&gt;TZ.Eastern</title>
<path fill="none" stroke="#ff0000" d="M484.881,-174.491C454.524,-166.483 419.527,-157.251 392.089,-150.014"/>
<polygon fill="#ff0000" stroke="#ff0000" points="392.907,-146.61 382.345,-147.443 391.122,-153.378 392.907,-146.61"/>
</g>
<!-- TZ.Eastern*CEN.South&#45;&gt;CEN.South\\TZ.Central -->
<g id="edge73" class="edge"><title>TZ.Eastern*CEN.South&#45;&gt;CEN.South\\TZ.Central</title>
<path fill="none" stroke="#ff0000" d="M503.295,-210.558C489.535,-217.686 475.764,-227.185 466.152,-239.5 426.358,-290.486 474.589,-333.506 430.152,-380.5 428.28,-382.479 426.265,-384.314 424.134,-386.015"/>
<polygon fill="#ff0000" stroke="#ff0000" points="421.718,-383.425 415.405,-391.934 425.646,-389.219 421.718,-383.425"/>
</g>
<!-- TZ.Eastern*CEN.South&#45;&gt;CEN.South\\TZ.Mountain -->
<g id="edge89" class="edge"><title>TZ.Eastern*CEN.South&#45;&gt;CEN.South\\TZ.Mountain</title>
<path fill="none" stroke="#ff0000" d="M481.106,-192.154C465.217,-192.078 448.222,-191.997 431.808,-191.918"/>
<polygon fill="#ff0000" stroke="#ff0000" points="431.695,-188.418 421.678,-191.869 431.661,-195.417 431.695,-188.418"/>
</g>
<!-- CEN.Northeast\nTZ.Eastern\\CEN.South -->
<g id="node24" class="node"><title>CEN.Northeast\nTZ.Eastern\\CEN.South</title>
<path fill="#eeeeee" stroke="black" d="M613.652,-156.5C613.652,-156.5 494.652,-156.5 494.652,-156.5 488.652,-156.5 482.652,-150.5 482.652,-144.5 482.652,-144.5 482.652,-130.5 482.652,-130.5 482.652,-124.5 488.652,-118.5 494.652,-118.5 494.652,-118.5 613.652,-118.5 613.652,-118.5 619.652,-118.5 625.652,-124.5 625.652,-130.5 625.652,-130.5 625.652,-144.5 625.652,-144.5 625.652,-150.5 619.652,-156.5 613.652,-156.5"/>
<text text-anchor="middle" x="554.152" y="-141.3" font-family="Times,serif" font-size="14.00">CEN.Northeast</text>
<text text-anchor="middle" x="554.152" y="-126.3" font-family="Times,serif" font-size="14.00">TZ.Eastern\CEN.South</text>
</g>
<!-- CEN.Northeast\nTZ.Eastern\\CEN.South&#45;&gt;TZ.Eastern -->
<g id="edge56" class="edge"><title>CEN.Northeast\nTZ.Eastern\\CEN.South&#45;&gt;TZ.Eastern</title>
<path fill="none" stroke="#000000" d="M482.563,-137.5C452.943,-137.5 419.262,-137.5 392.6,-137.5"/>
<polygon fill="#000000" stroke="#000000" points="392.379,-134 382.379,-137.5 392.379,-141 392.379,-134"/>
</g>
<!-- TZ.Mountain*CEN.Midwest\nCEN.Midwest\\TZ.Central -->
<g id="node26" class="node"><title>TZ.Mountain*CEN.Midwest\nCEN.Midwest\\TZ.Central</title>
<path fill="#eeeeee" stroke="black" d="M630.152,-643.5C630.152,-643.5 478.152,-643.5 478.152,-643.5 472.152,-643.5 466.152,-637.5 466.152,-631.5 466.152,-631.5 466.152,-617.5 466.152,-617.5 466.152,-611.5 472.152,-605.5 478.152,-605.5 478.152,-605.5 630.152,-605.5 630.152,-605.5 636.152,-605.5 642.152,-611.5 642.152,-617.5 642.152,-617.5 642.152,-631.5 642.152,-631.5 642.152,-637.5 636.152,-643.5 630.152,-643.5"/>
<text text-anchor="middle" x="554.152" y="-628.3" font-family="Times,serif" font-size="14.00">TZ.Mountain*CEN.Midwest</text>
<text text-anchor="middle" x="554.152" y="-613.3" font-family="Times,serif" font-size="14.00">CEN.Midwest\TZ.Central</text>
</g>
<!-- TZ.Mountain*CEN.Midwest\nCEN.Midwest\\TZ.Central&#45;&gt;TZ.Mountain\\CEN.West -->
<g id="edge50" class="edge"><title>TZ.Mountain*CEN.Midwest\nCEN.Midwest\\TZ.Central&#45;&gt;TZ.Mountain\\CEN.West</title>
<path fill="none" stroke="#000000" d="M465.937,-624.082C454.199,-624.025 442.165,-623.968 430.452,-623.912"/>
<polygon fill="#000000" stroke="#000000" points="430.273,-620.411 420.257,-623.863 430.24,-627.411 430.273,-620.411"/>
</g>
<!-- TZ.Mountain*CEN.Midwest\nCEN.Midwest\\TZ.Central&#45;&gt;TZ.Mountain\\CEN.South -->
<g id="edge61" class="edge"><title>TZ.Mountain*CEN.Midwest\nCEN.Midwest\\TZ.Central&#45;&gt;TZ.Mountain\\CEN.South</title>
<path fill="none" stroke="#000000" d="M529.554,-643.509C511.185,-658.916 485.626,-681.735 466.152,-704.5 447.402,-726.419 453.213,-741.174 430.152,-758.5 428.332,-759.867 426.441,-761.167 424.492,-762.401"/>
<polygon fill="#000000" stroke="#000000" points="422.613,-759.443 415.629,-767.409 426.057,-765.537 422.613,-759.443"/>
</g>
<!-- TZ.Mountain*CEN.Midwest\nCEN.Midwest\\TZ.Central&#45;&gt;CEN.Midwest -->
<g id="edge55" class="edge"><title>TZ.Mountain*CEN.Midwest\nCEN.Midwest\\TZ.Central&#45;&gt;CEN.Midwest</title>
<path fill="none" stroke="#000000" d="M480.492,-605.412C475.428,-602.804 470.583,-599.848 466.152,-596.5 443.138,-579.111 453.213,-559.826 430.152,-542.5 423.443,-537.46 415.769,-533.345 407.832,-529.989"/>
<polygon fill="#000000" stroke="#000000" points="409.029,-526.699 398.438,-526.389 406.523,-533.236 409.029,-526.699"/>
</g>
<!-- TZ.Central*CEN.Midwest\nCEN.Midwest\\TZ.Mountain -->
<g id="node27" class="node"><title>TZ.Central*CEN.Midwest\nCEN.Midwest\\TZ.Mountain</title>
<path fill="#eeeeee" stroke="black" d="M628.652,-365.5C628.652,-365.5 479.652,-365.5 479.652,-365.5 473.652,-365.5 467.652,-359.5 467.652,-353.5 467.652,-353.5 467.652,-339.5 467.652,-339.5 467.652,-333.5 473.652,-327.5 479.652,-327.5 479.652,-327.5 628.652,-327.5 628.652,-327.5 634.652,-327.5 640.652,-333.5 640.652,-339.5 640.652,-339.5 640.652,-353.5 640.652,-353.5 640.652,-359.5 634.652,-365.5 628.652,-365.5"/>
<text text-anchor="middle" x="554.152" y="-350.3" font-family="Times,serif" font-size="14.00">TZ.Central*CEN.Midwest</text>
<text text-anchor="middle" x="554.152" y="-335.3" font-family="Times,serif" font-size="14.00">CEN.Midwest\TZ.Mountain</text>
</g>
<!-- TZ.Central*CEN.Midwest\nCEN.Midwest\\TZ.Mountain&#45;&gt;TZ.Central\\CEN.West -->
<g id="edge62" class="edge"><title>TZ.Central*CEN.Midwest\nCEN.Midwest\\TZ.Mountain&#45;&gt;TZ.Central\\CEN.West</title>
<path fill="none" stroke="#000000" d="M521.853,-327.419C487.018,-306.221 434.951,-274.665 430.152,-272.5 426.05,-270.65 421.785,-268.873 417.445,-267.177"/>
<polygon fill="#000000" stroke="#000000" points="418.452,-263.817 407.859,-263.596 416.002,-270.374 418.452,-263.817"/>
</g>
<!-- TZ.Central*CEN.Midwest\nCEN.Midwest\\TZ.Mountain&#45;&gt;TZ.Central\\CEN.South -->
<g id="edge52" class="edge"><title>TZ.Central*CEN.Midwest\nCEN.Midwest\\TZ.Mountain&#45;&gt;TZ.Central\\CEN.South</title>
<path fill="none" stroke="#000000" d="M467.444,-349.377C453.661,-349.84 439.43,-350.318 425.759,-350.777"/>
<polygon fill="#000000" stroke="#000000" points="425.307,-347.29 415.43,-351.124 425.542,-354.286 425.307,-347.29"/>
</g>
<!-- TZ.Central*CEN.Midwest\nCEN.Midwest\\TZ.Mountain&#45;&gt;CEN.Midwest -->
<g id="edge57" class="edge"><title>TZ.Central*CEN.Midwest\nCEN.Midwest\\TZ.Mountain&#45;&gt;CEN.Midwest</title>
<path fill="none" stroke="#000000" d="M477.304,-365.545C473.273,-368.156 469.508,-371.125 466.152,-374.5 428.684,-412.174 467.722,-450.929 430.152,-488.5 424.855,-493.797 418.528,-498.057 411.745,-501.482"/>
<polygon fill="#000000" stroke="#000000" points="410.01,-498.422 402.268,-505.654 412.83,-504.828 410.01,-498.422"/>
</g>
<!-- Legend -->
<g id="node28" class="node"><title>Legend</title>
<path fill="white" stroke="black" d="M780.152,-275C780.152,-275 690.152,-275 690.152,-275 684.152,-275 678.152,-269 678.152,-263 678.152,-263 678.152,-12 678.152,-12 678.152,-6 684.152,-0 690.152,-0 690.152,-0 780.152,-0 780.152,-0 786.152,-0 792.152,-6 792.152,-12 792.152,-12 792.152,-263 792.152,-263 792.152,-269 786.152,-275 780.152,-275"/>
<polygon fill="none" stroke="black" points="678.152,-249.5 678.152,-274.5 792.152,-274.5 792.152,-249.5 678.152,-249.5"/>
<text text-anchor="start" x="712.152" y="-258.3" font-family="Arial Black" font-size="14.00"> Nodes</text>
<polygon fill="#ccffcc" stroke="none" points="678.152,-224.5 678.152,-249.5 768.152,-249.5 768.152,-224.5 678.152,-224.5"/>
<polygon fill="none" stroke="black" points="678.152,-224.5 678.152,-249.5 768.152,-249.5 768.152,-224.5 678.152,-224.5"/>
<text text-anchor="start" x="714.652" y="-233.3" font-family="Times,serif" font-size="14.00">TZ</text>
<polygon fill="none" stroke="black" points="768.152,-224.5 768.152,-249.5 792.152,-249.5 792.152,-224.5 768.152,-224.5"/>
<text text-anchor="start" x="776.652" y="-233.3" font-family="Times,serif" font-size="14.00">4</text>
<polygon fill="#ffffcc" stroke="none" points="678.152,-199.5 678.152,-224.5 768.152,-224.5 768.152,-199.5 678.152,-199.5"/>
<polygon fill="none" stroke="black" points="678.152,-199.5 678.152,-224.5 768.152,-224.5 768.152,-199.5 678.152,-199.5"/>
<text text-anchor="start" x="706.152" y="-208.3" font-family="Times,serif" font-size="14.00">subT2</text>
<polygon fill="none" stroke="black" points="768.152,-199.5 768.152,-224.5 792.152,-224.5 792.152,-199.5 768.152,-199.5"/>
<text text-anchor="start" x="776.652" y="-208.3" font-family="Times,serif" font-size="14.00">5</text>
<polygon fill="#ccffcc" stroke="none" points="678.152,-174.5 678.152,-199.5 768.152,-199.5 768.152,-174.5 678.152,-174.5"/>
<polygon fill="none" stroke="black" points="678.152,-174.5 678.152,-199.5 768.152,-199.5 768.152,-174.5 678.152,-174.5"/>
<text text-anchor="start" x="706.152" y="-183.3" font-family="Times,serif" font-size="14.00">subT1</text>
<polygon fill="none" stroke="black" points="768.152,-174.5 768.152,-199.5 792.152,-199.5 792.152,-174.5 768.152,-174.5"/>
<text text-anchor="start" x="776.652" y="-183.3" font-family="Times,serif" font-size="14.00">6</text>
<polygon fill="#ffffcc" stroke="none" points="678.152,-149.5 678.152,-174.5 768.152,-174.5 768.152,-149.5 678.152,-149.5"/>
<polygon fill="none" stroke="black" points="678.152,-149.5 678.152,-174.5 768.152,-174.5 768.152,-149.5 678.152,-149.5"/>
<text text-anchor="start" x="709.152" y="-158.3" font-family="Times,serif" font-size="14.00">CEN</text>
<polygon fill="none" stroke="black" points="768.152,-149.5 768.152,-174.5 792.152,-174.5 792.152,-149.5 768.152,-149.5"/>
<text text-anchor="start" x="776.652" y="-158.3" font-family="Times,serif" font-size="14.00">3</text>
<polygon fill="#eeeeee" stroke="none" points="678.152,-124.5 678.152,-149.5 768.152,-149.5 768.152,-124.5 678.152,-124.5"/>
<polygon fill="none" stroke="black" points="678.152,-124.5 678.152,-149.5 768.152,-149.5 768.152,-124.5 678.152,-124.5"/>
<text text-anchor="start" x="683.152" y="-133.3" font-family="Times,serif" font-size="14.00">intersectComb</text>
<polygon fill="none" stroke="black" points="768.152,-124.5 768.152,-149.5 792.152,-149.5 792.152,-124.5 768.152,-124.5"/>
<text text-anchor="start" x="776.652" y="-133.3" font-family="Times,serif" font-size="14.00">5</text>
<polygon fill="#eeeeee" stroke="none" points="678.152,-99.5 678.152,-124.5 768.152,-124.5 768.152,-99.5 678.152,-99.5"/>
<polygon fill="none" stroke="black" points="678.152,-99.5 678.152,-124.5 768.152,-124.5 768.152,-99.5 678.152,-99.5"/>
<text text-anchor="start" x="707.652" y="-108.3" font-family="Times,serif" font-size="14.00">comb</text>
<polygon fill="none" stroke="black" points="768.152,-99.5 768.152,-124.5 792.152,-124.5 792.152,-99.5 768.152,-99.5"/>
<text text-anchor="start" x="776.652" y="-108.3" font-family="Times,serif" font-size="14.00">4</text>
<polygon fill="none" stroke="black" points="678.152,-74.5 678.152,-99.5 792.152,-99.5 792.152,-74.5 678.152,-74.5"/>
<text text-anchor="start" x="710.652" y="-83.3" font-family="Arial Black" font-size="14.00"> Edges </text>
<polygon fill="none" stroke="black" points="678.152,-49.5 678.152,-74.5 768.152,-74.5 768.152,-49.5 678.152,-49.5"/>
<text text-anchor="start" x="700.152" y="-58.3" font-family="Times,serif" font-size="14.00" fill="#0000ff">overlaps</text>
<polygon fill="none" stroke="black" points="768.152,-49.5 768.152,-74.5 792.152,-74.5 792.152,-49.5 768.152,-49.5"/>
<text text-anchor="start" x="773.152" y="-58.3" font-family="Times,serif" font-size="14.00">49</text>
<polygon fill="none" stroke="black" points="678.152,-24.5 678.152,-49.5 768.152,-49.5 768.152,-24.5 678.152,-24.5"/>
<text text-anchor="start" x="709.152" y="-33.3" font-family="Times,serif" font-size="14.00" fill="#000000">input</text>
<polygon fill="none" stroke="black" points="768.152,-24.5 768.152,-49.5 792.152,-49.5 792.152,-24.5 768.152,-24.5"/>
<text text-anchor="start" x="773.152" y="-33.3" font-family="Times,serif" font-size="14.00">13</text>
<polygon fill="none" stroke="black" points="678.152,0.5 678.152,-24.5 768.152,-24.5 768.152,0.5 678.152,0.5"/>
<text text-anchor="start" x="701.652" y="-8.3" font-family="Times,serif" font-size="14.00" fill="#ff0000">inferred</text>
<polygon fill="none" stroke="black" points="768.152,0.5 768.152,-24.5 792.152,-24.5 792.152,0.5 768.152,0.5"/>
<text text-anchor="start" x="773.152" y="-8.3" font-family="Times,serif" font-size="14.00">30</text>
</g>
</g>
</svg>
