<?xml version="1.0" encoding="UTF-8" standalone="no"?>
<!DOCTYPE svg PUBLIC "-//W3C//DTD SVG 1.1//EN"
 "http://www.w3.org/Graphics/SVG/1.1/DTD/svg11.dtd">
<!-- Generated by graphviz version 2.38.0 (20140413.2041)
 -->
<!-- Title: %3 Pages: 1 -->
<svg width="532pt" height="380pt"
 viewBox="0.00 0.00 532.36 380.00" xmlns="http://www.w3.org/2000/svg" xmlns:xlink="http://www.w3.org/1999/xlink">
<g id="graph0" class="graph" transform="scale(1 1) rotate(0) translate(4 376)">
<title>%3</title>
<polygon fill="white" stroke="none" points="-4,4 -4,-376 528.362,-376 528.362,4 -4,4"/>
<!-- CEN.Northeast -->
<g id="node1" class="node"><title>CEN.Northeast</title>
<polygon fill="#ffffcc" stroke="black" points="434.212,-324.544 434.212,-339.456 393.09,-350 334.936,-350 293.814,-339.456 293.814,-324.544 334.936,-314 393.09,-314 434.212,-324.544"/>
<text text-anchor="middle" x="364.013" y="-328.3" font-family="Times,serif" font-size="14.00">CEN.Northeast</text>
</g>
<!-- TZ.USA\nCEN.USA -->
<g id="node5" class="node"><title>TZ.USA\nCEN.USA</title>
<path fill="#eeeeee" stroke="black" d="M62,-202C62,-202 12,-202 12,-202 6,-202 0,-196 0,-190 0,-190 0,-176 0,-176 0,-170 6,-164 12,-164 12,-164 62,-164 62,-164 68,-164 74,-170 74,-176 74,-176 74,-190 74,-190 74,-196 68,-202 62,-202"/>
<text text-anchor="middle" x="37" y="-186.8" font-family="Times,serif" font-size="14.00">TZ.USA</text>
<text text-anchor="middle" x="37" y="-171.8" font-family="Times,serif" font-size="14.00">CEN.USA</text>
</g>
<!-- CEN.Northeast&#45;&gt;TZ.USA\nCEN.USA -->
<g id="edge2" class="edge"><title>CEN.Northeast&#45;&gt;TZ.USA\nCEN.USA</title>
<path fill="none" stroke="#761212" d="M316.554,-345.484C264.012,-357.856 177.866,-369.186 117,-332 73.9071,-305.672 53.0211,-247.187 43.9795,-211.826"/>
<polygon fill="#761212" stroke="#761212" points="47.378,-210.989 41.6382,-202.084 40.5718,-212.625 47.378,-210.989"/>
<text text-anchor="middle" x="183.832" y="-360.8" font-family="Times,serif" font-size="14.00">1</text>
</g>
<!-- TZ.Eastern -->
<g id="node6" class="node"><title>TZ.Eastern</title>
<polygon fill="#ccffcc" stroke="black" points="222.332,-329 145.332,-329 145.332,-293 222.332,-293 222.332,-329"/>
<text text-anchor="middle" x="183.832" y="-307.3" font-family="Times,serif" font-size="14.00">TZ.Eastern</text>
</g>
<!-- CEN.Northeast&#45;&gt;TZ.Eastern -->
<g id="edge7" class="edge"><title>CEN.Northeast&#45;&gt;TZ.Eastern</title>
<path fill="none" stroke="#761212" d="M295.65,-324.061C274.682,-321.59 252.005,-318.917 232.659,-316.637"/>
<polygon fill="#761212" stroke="#761212" points="232.921,-313.144 222.58,-315.449 232.102,-320.095 232.921,-313.144"/>
<text text-anchor="middle" x="272.164" y="-324.8" font-family="Times,serif" font-size="14.00">1</text>
</g>
<!-- CEN.Midwest -->
<g id="node2" class="node"><title>CEN.Midwest</title>
<polygon fill="#ffffcc" stroke="black" points="250.496,-252.544 250.496,-267.456 211.445,-278 156.219,-278 117.168,-267.456 117.168,-252.544 156.219,-242 211.445,-242 250.496,-252.544"/>
<text text-anchor="middle" x="183.832" y="-256.3" font-family="Times,serif" font-size="14.00">CEN.Midwest</text>
</g>
<!-- CEN.Midwest&#45;&gt;TZ.USA\nCEN.USA -->
<g id="edge4" class="edge"><title>CEN.Midwest&#45;&gt;TZ.USA\nCEN.USA</title>
<path fill="none" stroke="#761212" d="M140.398,-246.245C132.476,-243.199 124.374,-239.748 117,-236 101.272,-228.005 84.9132,-217.454 71.1895,-207.871"/>
<polygon fill="#761212" stroke="#761212" points="73.193,-205.002 63.0142,-202.062 69.1382,-210.707 73.193,-205.002"/>
<text text-anchor="middle" x="95.5" y="-228.8" font-family="Times,serif" font-size="14.00">1</text>
</g>
<!-- CEN.South -->
<g id="node3" class="node"><title>CEN.South</title>
<polygon fill="#ffffcc" stroke="black" points="239.484,-201.544 239.484,-216.456 206.884,-227 160.78,-227 128.18,-216.456 128.18,-201.544 160.78,-191 206.884,-191 239.484,-201.544"/>
<text text-anchor="middle" x="183.832" y="-205.3" font-family="Times,serif" font-size="14.00">CEN.South</text>
</g>
<!-- CEN.South&#45;&gt;TZ.USA\nCEN.USA -->
<g id="edge6" class="edge"><title>CEN.South&#45;&gt;TZ.USA\nCEN.USA</title>
<path fill="none" stroke="#761212" d="M132.583,-199.979C116.766,-197.14 99.3881,-194.02 83.8906,-191.238"/>
<polygon fill="#761212" stroke="#761212" points="84.4745,-187.787 74.0134,-189.465 83.2376,-194.677 84.4745,-187.787"/>
<text text-anchor="middle" x="95.5" y="-196.8" font-family="Times,serif" font-size="14.00">1</text>
</g>
<!-- CEN.West -->
<g id="node4" class="node"><title>CEN.West</title>
<polygon fill="#ffffcc" stroke="black" points="237.263,-150.544 237.263,-165.456 205.964,-176 161.7,-176 130.401,-165.456 130.401,-150.544 161.7,-140 205.964,-140 237.263,-150.544"/>
<text text-anchor="middle" x="183.832" y="-154.3" font-family="Times,serif" font-size="14.00">CEN.West</text>
</g>
<!-- CEN.West&#45;&gt;TZ.USA\nCEN.USA -->
<g id="edge8" class="edge"><title>CEN.West&#45;&gt;TZ.USA\nCEN.USA</title>
<path fill="none" stroke="#761212" d="M130.406,-165.641C117.808,-167.599 104.408,-169.781 92,-172 89.4865,-172.449 86.9103,-172.925 84.3116,-173.416"/>
<polygon fill="#761212" stroke="#761212" points="83.4138,-170.024 74.263,-175.364 84.7464,-176.896 83.4138,-170.024"/>
<text text-anchor="middle" x="95.5" y="-175.8" font-family="Times,serif" font-size="14.00">1</text>
</g>
<!-- TZ.Eastern&#45;&gt;TZ.USA\nCEN.USA -->
<g id="edge9" class="edge"><title>TZ.Eastern&#45;&gt;TZ.USA\nCEN.USA</title>
<path fill="none" stroke="#761212" d="M145.093,-301.395C135.376,-297.844 125.322,-293.137 117,-287 89.451,-266.686 66.9217,-234.165 53.0717,-210.898"/>
<polygon fill="#761212" stroke="#761212" points="56.0607,-209.075 48.0236,-202.172 50.0015,-212.581 56.0607,-209.075"/>
<text text-anchor="middle" x="95.5" y="-273.8" font-family="Times,serif" font-size="14.00">1</text>
</g>
<!-- TZ.Mountain -->
<g id="node7" class="node"><title>TZ.Mountain</title>
<polygon fill="#ccffcc" stroke="black" points="228.832,-87 138.832,-87 138.832,-51 228.832,-51 228.832,-87"/>
<text text-anchor="middle" x="183.832" y="-65.3" font-family="Times,serif" font-size="14.00">TZ.Mountain</text>
</g>
<!-- TZ.Mountain&#45;&gt;TZ.USA\nCEN.USA -->
<g id="edge10" class="edge"><title>TZ.Mountain&#45;&gt;TZ.USA\nCEN.USA</title>
<path fill="none" stroke="#761212" d="M138.671,-67.8742C122.757,-69.4111 105.43,-73.5276 92,-83 67.9829,-99.94 53.6327,-131.023 45.831,-154.055"/>
<polygon fill="#761212" stroke="#761212" points="42.4656,-153.089 42.7876,-163.679 49.1399,-155.2 42.4656,-153.089"/>
<text text-anchor="middle" x="95.5" y="-86.8" font-family="Times,serif" font-size="14.00">1</text>
</g>
<!-- TZ.Central -->
<g id="node8" class="node"><title>TZ.Central</title>
<polygon fill="#ccffcc" stroke="black" points="222.332,-36 145.332,-36 145.332,-0 222.332,-0 222.332,-36"/>
<text text-anchor="middle" x="183.832" y="-14.3" font-family="Times,serif" font-size="14.00">TZ.Central</text>
</g>
<!-- TZ.Central&#45;&gt;TZ.USA\nCEN.USA -->
<g id="edge3" class="edge"><title>TZ.Central&#45;&gt;TZ.USA\nCEN.USA</title>
<path fill="none" stroke="#761212" d="M145.073,-27.2841C126.446,-33.7516 105.198,-44.3002 92,-61 69.8117,-89.0749 54.7375,-127.696 46.2718,-153.91"/>
<polygon fill="#761212" stroke="#761212" points="42.8736,-153.051 43.2486,-163.639 49.5583,-155.128 42.8736,-153.051"/>
<text text-anchor="middle" x="95.5" y="-64.8" font-family="Times,serif" font-size="14.00">1</text>
</g>
<!-- TZ.Pacific -->
<g id="node9" class="node"><title>TZ.Pacific</title>
<polygon fill="#ccffcc" stroke="black" points="401.013,-153 327.013,-153 327.013,-117 401.013,-117 401.013,-153"/>
<text text-anchor="middle" x="364.013" y="-131.3" font-family="Times,serif" font-size="14.00">TZ.Pacific</text>
</g>
<!-- TZ.Pacific&#45;&gt;CEN.West -->
<g id="edge1" class="edge"><title>TZ.Pacific&#45;&gt;CEN.West</title>
<path fill="none" stroke="#761212" d="M326.955,-139.654C304.142,-142.599 274.035,-146.485 247.405,-149.923"/>
<polygon fill="#761212" stroke="#761212" points="246.862,-146.464 237.392,-151.215 247.758,-153.406 246.862,-146.464"/>
<text text-anchor="middle" x="272.164" y="-150.8" font-family="Times,serif" font-size="14.00">1</text>
</g>
<!-- TZ.Pacific&#45;&gt;TZ.USA\nCEN.USA -->
<g id="edge5" class="edge"><title>TZ.Pacific&#45;&gt;TZ.USA\nCEN.USA</title>
<path fill="none" stroke="#761212" d="M326.69,-122.984C277.517,-108.748 187.78,-90.0274 117,-116 95.0035,-124.072 74.9342,-141.282 60.5279,-156.238"/>
<polygon fill="#761212" stroke="#761212" points="57.7577,-154.078 53.5304,-163.793 62.8934,-158.835 57.7577,-154.078"/>
<text text-anchor="middle" x="183.832" y="-119.8" font-family="Times,serif" font-size="14.00">1</text>
</g>
<!-- Legend -->
<g id="node10" class="node"><title>Legend</title>
<polygon fill="white" stroke="black" points="524.362,-210 452.362,-210 452.362,-60 524.362,-60 524.362,-210"/>
<polygon fill="none" stroke="black" points="452.362,-185 452.362,-210 524.362,-210 524.362,-185 452.362,-185"/>
<text text-anchor="start" x="465.362" y="-193.8" font-family="Arial Black" font-size="14.00"> Nodes</text>
<polygon fill="#ffffcc" stroke="none" points="452.362,-160 452.362,-185 500.362,-185 500.362,-160 452.362,-160"/>
<polygon fill="none" stroke="black" points="452.362,-160 452.362,-185 500.362,-185 500.362,-160 452.362,-160"/>
<text text-anchor="start" x="462.362" y="-168.8" font-family="Times,serif" font-size="14.00">CEN</text>
<polygon fill="none" stroke="black" points="500.362,-160 500.362,-185 524.362,-185 524.362,-160 500.362,-160"/>
<text text-anchor="start" x="508.862" y="-168.8" font-family="Times,serif" font-size="14.00">4</text>
<polygon fill="#eeeeee" stroke="none" points="452.362,-135 452.362,-160 500.362,-160 500.362,-135 452.362,-135"/>
<polygon fill="none" stroke="black" points="452.362,-135 452.362,-160 500.362,-160 500.362,-135 452.362,-135"/>
<text text-anchor="start" x="460.862" y="-143.8" font-family="Times,serif" font-size="14.00">comb</text>
<polygon fill="none" stroke="black" points="500.362,-135 500.362,-160 524.362,-160 524.362,-135 500.362,-135"/>
<text text-anchor="start" x="508.862" y="-143.8" font-family="Times,serif" font-size="14.00">1</text>
<polygon fill="#ccffcc" stroke="none" points="452.362,-110 452.362,-135 500.362,-135 500.362,-110 452.362,-110"/>
<polygon fill="none" stroke="black" points="452.362,-110 452.362,-135 500.362,-135 500.362,-110 452.362,-110"/>
<text text-anchor="start" x="467.862" y="-118.8" font-family="Times,serif" font-size="14.00">TZ</text>
<polygon fill="none" stroke="black" points="500.362,-110 500.362,-135 524.362,-135 524.362,-110 500.362,-110"/>
<text text-anchor="start" x="508.862" y="-118.8" font-family="Times,serif" font-size="14.00">4</text>
<polygon fill="none" stroke="black" points="452.362,-85 452.362,-110 524.362,-110 524.362,-85 452.362,-85"/>
<text text-anchor="start" x="463.862" y="-93.8" font-family="Arial Black" font-size="14.00"> Edges </text>
<polygon fill="none" stroke="black" points="452.362,-60 452.362,-85 500.362,-85 500.362,-60 452.362,-60"/>
<text text-anchor="start" x="457.362" y="-68.8" font-family="Times,serif" font-size="14.00" fill="#000000">default</text>
<polygon fill="none" stroke="black" points="500.362,-60 500.362,-85 524.362,-85 524.362,-60 500.362,-60"/>
<text text-anchor="start" x="505.362" y="-68.8" font-family="Times,serif" font-size="14.00">10</text>
</g>
</g>
</svg>
