<?xml version="1.0" encoding="UTF-8" standalone="no"?>
<!DOCTYPE svg PUBLIC "-//W3C//DTD SVG 1.1//EN"
 "http://www.w3.org/Graphics/SVG/1.1/DTD/svg11.dtd">
<!-- Generated by graphviz version 2.38.0 (20140413.2041)
 -->
<!-- Title: %3 Pages: 1 -->
<svg width="757pt" height="456pt"
 viewBox="0.00 0.00 756.87 456.00" xmlns="http://www.w3.org/2000/svg" xmlns:xlink="http://www.w3.org/1999/xlink">
<g id="graph0" class="graph" transform="scale(1 1) rotate(0) translate(4 452)">
<title>%3</title>
<polygon fill="white" stroke="none" points="-4,4 -4,-452 752.872,-452 752.872,4 -4,4"/>
<!-- 1.A -->
<g id="node1" class="node"><title>1.A</title>
<polygon fill="#ccffcc" stroke="black" points="133,-250 79,-250 79,-214 133,-214 133,-250"/>
<text text-anchor="middle" x="106" y="-228.3" font-family="Helvetica,sans-Serif" font-size="14.00">1.A</text>
</g>
<!-- 1.I -->
<g id="node2" class="node"><title>1.I</title>
<polygon fill="#ccffcc" stroke="black" points="224,-326 170,-326 170,-290 224,-290 224,-326"/>
<text text-anchor="middle" x="197" y="-304.3" font-family="Helvetica,sans-Serif" font-size="14.00">1.I</text>
</g>
<!-- 1.A&#45;&gt;1.I -->
<g id="edge3" class="edge"><title>1.A&#45;&gt;1.I</title>
<path fill="none" stroke="#000000" d="M126.176,-258.515C133.331,-267.294 141.935,-276.681 151,-284 156.649,-288.561 163.296,-292.663 169.722,-296.131"/>
<polygon fill="#000000" stroke="#000000" points="128.716,-256.082 119.791,-250.372 123.207,-260.401 128.716,-256.082"/>
</g>
<!-- 1.F -->
<g id="node5" class="node"><title>1.F</title>
<polygon fill="#ccffcc" stroke="black" points="315,-347 261,-347 261,-311 315,-311 315,-347"/>
<text text-anchor="middle" x="288" y="-325.3" font-family="Helvetica,sans-Serif" font-size="14.00">1.F</text>
</g>
<!-- 1.A&#45;&gt;1.F -->
<g id="edge5" class="edge"><title>1.A&#45;&gt;1.F</title>
<path fill="none" stroke="#000000" d="M142.602,-245.629C166.267,-255.214 197.709,-268.974 224,-284 237.887,-291.937 252.476,-302.219 264.114,-310.95"/>
<polygon fill="#000000" stroke="#000000" points="143.881,-242.371 133.297,-241.912 141.285,-248.872 143.881,-242.371"/>
</g>
<!-- 1.B -->
<g id="node7" class="node"><title>1.B</title>
<polygon fill="#ccffcc" stroke="black" points="224,-212 170,-212 170,-176 224,-176 224,-212"/>
<text text-anchor="middle" x="197" y="-190.3" font-family="Helvetica,sans-Serif" font-size="14.00">1.B</text>
</g>
<!-- 1.A&#45;&gt;1.B -->
<g id="edge4" class="edge"><title>1.A&#45;&gt;1.B</title>
<path fill="none" stroke="#000000" d="M142.514,-216.837C151.682,-212.922 161.381,-208.781 169.966,-205.116"/>
<polygon fill="#000000" stroke="#000000" points="141.044,-213.659 133.222,-220.804 143.793,-220.096 141.044,-213.659"/>
</g>
<!-- 2.A -->
<g id="node14" class="node"><title>2.A</title>
<polygon fill="#ffffcc" stroke="black" points="748.872,-224.544 748.872,-239.456 733.056,-250 710.689,-250 694.872,-239.456 694.872,-224.544 710.689,-214 733.056,-214 748.872,-224.544"/>
<text text-anchor="middle" x="721.872" y="-228.3" font-family="Helvetica,sans-Serif" font-size="14.00">2.A</text>
</g>
<!-- 1.A&#45;&gt;2.A -->
<g id="edge22" class="edge"><title>1.A&#45;&gt;2.A</title>
<path fill="none" stroke="#aa00ff" stroke-dasharray="5,2" d="M109.931,-213.795C119.246,-159.104 150.272,-0 196,-0 196,-0 196,-0 631.872,-0 677.601,-0 708.627,-159.104 717.941,-213.795"/>
<text text-anchor="middle" x="395" y="-3.8" font-family="Times,serif" font-size="14.00">==</text>
</g>
<!-- 1.D -->
<g id="node3" class="node"><title>1.D</title>
<polygon fill="#ccffcc" stroke="black" points="315,-170 261,-170 261,-134 315,-134 315,-170"/>
<text text-anchor="middle" x="288" y="-148.3" font-family="Helvetica,sans-Serif" font-size="14.00">1.D</text>
</g>
<!-- 2C+ -->
<g id="node18" class="node"><title>2C+</title>
<ellipse fill="#ffffff" stroke="black" cx="395" cy="-151" rx="18" ry="18"/>
<text text-anchor="middle" x="395" y="-147.3" font-family="Helvetica,sans-Serif" font-size="14.00">+</text>
</g>
<!-- 1.D&#45;&gt;2C+ -->
<g id="edge21" class="edge"><title>1.D&#45;&gt;2C+</title>
<path fill="none" stroke="#aa00ff" stroke-dasharray="5,2" d="M315.225,-151.75C334.541,-151.566 360.251,-151.321 376.961,-151.162"/>
<text text-anchor="middle" x="341.5" y="-155.8" font-family="Times,serif" font-size="14.00">in</text>
</g>
<!-- 1.E -->
<g id="node4" class="node"><title>1.E</title>
<polygon fill="#ccffcc" stroke="black" points="315,-94 261,-94 261,-58 315,-58 315,-94"/>
<text text-anchor="middle" x="288" y="-72.3" font-family="Helvetica,sans-Serif" font-size="14.00">1.E</text>
</g>
<!-- 2.E -->
<g id="node17" class="node"><title>2.E</title>
<polygon fill="#ffffcc" stroke="black" points="494,-38.5442 494,-53.4558 478.184,-64 455.816,-64 440,-53.4558 440,-38.5442 455.816,-28 478.184,-28 494,-38.5442"/>
<text text-anchor="middle" x="467" y="-42.3" font-family="Helvetica,sans-Serif" font-size="14.00">2.E</text>
</g>
<!-- 1.E&#45;&gt;2.E -->
<g id="edge25" class="edge"><title>1.E&#45;&gt;2.E</title>
<path fill="none" stroke="#aa00ff" stroke-dasharray="5,2" d="M315.117,-71.5734C348.582,-65.9014 406.26,-56.1255 439.776,-50.4448"/>
<text text-anchor="middle" x="341.5" y="-72.8" font-family="Times,serif" font-size="14.00">==</text>
</g>
<!-- 1.G -->
<g id="node6" class="node"><title>1.G</title>
<polygon fill="#ccffcc" stroke="black" points="422,-393 368,-393 368,-357 422,-357 422,-393"/>
<text text-anchor="middle" x="395" y="-371.3" font-family="Helvetica,sans-Serif" font-size="14.00">1.G</text>
</g>
<!-- 1.F&#45;&gt;1.G -->
<g id="edge8" class="edge"><title>1.F&#45;&gt;1.G</title>
<path fill="none" stroke="#000000" d="M324.652,-344.619C338.772,-350.805 354.712,-357.788 367.745,-363.498"/>
<polygon fill="#000000" stroke="#000000" points="325.789,-341.296 315.225,-340.489 322.98,-347.708 325.789,-341.296"/>
</g>
<!-- 1.H -->
<g id="node9" class="node"><title>1.H</title>
<polygon fill="#ccffcc" stroke="black" points="422,-347 368,-347 368,-311 422,-311 422,-347"/>
<text text-anchor="middle" x="395" y="-325.3" font-family="Helvetica,sans-Serif" font-size="14.00">1.H</text>
</g>
<!-- 1.F&#45;&gt;1.H -->
<g id="edge1" class="edge"><title>1.F&#45;&gt;1.H</title>
<path fill="none" stroke="#000000" d="M325.469,-329C339.384,-329 354.962,-329 367.745,-329"/>
<polygon fill="#000000" stroke="#000000" points="325.225,-325.5 315.225,-329 325.225,-332.5 325.225,-325.5"/>
</g>
<!-- 2.B -->
<g id="node13" class="node"><title>2.B</title>
<polygon fill="#ffffcc" stroke="black" points="657.872,-224.544 657.872,-239.456 642.056,-250 619.689,-250 603.872,-239.456 603.872,-224.544 619.689,-214 642.056,-214 657.872,-224.544"/>
<text text-anchor="middle" x="630.872" y="-228.3" font-family="Helvetica,sans-Serif" font-size="14.00">2.B</text>
</g>
<!-- 1.F&#45;&gt;2.B -->
<g id="edge17" class="edge"><title>1.F&#45;&gt;2.B</title>
<path fill="none" stroke="#aa00ff" stroke-dasharray="5,2" d="M315.168,-319.485C330.475,-314.063 350.225,-307.313 368,-302 463.792,-273.367 489.781,-273.613 585.872,-246 592.036,-244.229 598.644,-242.197 604.817,-240.241"/>
<text text-anchor="middle" x="467" y="-285.8" font-family="Times,serif" font-size="14.00">&gt;&lt;</text>
</g>
<!-- 2.F -->
<g id="node16" class="node"><title>2.F</title>
<polygon fill="#ffffcc" stroke="black" points="657.872,-366.544 657.872,-381.456 642.056,-392 619.689,-392 603.872,-381.456 603.872,-366.544 619.689,-356 642.056,-356 657.872,-366.544"/>
<text text-anchor="middle" x="630.872" y="-370.3" font-family="Helvetica,sans-Serif" font-size="14.00">2.F</text>
</g>
<!-- 1.F&#45;&gt;2.F -->
<g id="edge18" class="edge"><title>1.F&#45;&gt;2.F</title>
<path fill="none" stroke="#aa00ff" stroke-dasharray="5,2" d="M302.779,-347.228C317.025,-364.565 340.948,-389.761 368,-402 448.758,-438.537 482.178,-443.148 566.872,-417 584.84,-411.453 602.258,-398.829 614.209,-388.687"/>
<text text-anchor="middle" x="467" y="-436.8" font-family="Times,serif" font-size="14.00">&gt;&lt;</text>
</g>
<!-- 2.G -->
<g id="node15" class="node"><title>2.G</title>
<polygon fill="#ffffcc" stroke="black" points="566.809,-388.544 566.809,-403.456 550.774,-414 528.098,-414 512.064,-403.456 512.064,-388.544 528.098,-378 550.774,-378 566.809,-388.544"/>
<text text-anchor="middle" x="539.436" y="-392.3" font-family="Helvetica,sans-Serif" font-size="14.00">2.G</text>
</g>
<!-- 1.G&#45;&gt;2.G -->
<g id="edge20" class="edge"><title>1.G&#45;&gt;2.G</title>
<path fill="none" stroke="#aa00ff" stroke-dasharray="5,2" d="M422.125,-378.852C447.664,-382.617 486.347,-388.32 511.994,-392.102"/>
<text text-anchor="middle" x="467" y="-392.8" font-family="Times,serif" font-size="14.00">==</text>
</g>
<!-- 1.B&#45;&gt;1.D -->
<g id="edge7" class="edge"><title>1.B&#45;&gt;1.D</title>
<path fill="none" stroke="#000000" d="M233.514,-177.24C242.682,-172.914 252.381,-168.337 260.966,-164.286"/>
<polygon fill="#000000" stroke="#000000" points="231.771,-174.193 224.222,-181.626 234.759,-180.523 231.771,-174.193"/>
</g>
<!-- 1.B&#45;&gt;1.E -->
<g id="edge6" class="edge"><title>1.B&#45;&gt;1.E</title>
<path fill="none" stroke="#000000" d="M217.819,-167.723C234.731,-145.301 258.599,-113.656 273.419,-94.0059"/>
<polygon fill="#000000" stroke="#000000" points="214.939,-165.73 211.711,-175.821 220.527,-169.945 214.939,-165.73"/>
</g>
<!-- 1.C -->
<g id="node8" class="node"><title>1.C</title>
<polygon fill="#ccffcc" stroke="black" points="566.436,-190 512.436,-190 512.436,-154 566.436,-154 566.436,-190"/>
<text text-anchor="middle" x="539.436" y="-168.3" font-family="Helvetica,sans-Serif" font-size="14.00">1.C</text>
</g>
<!-- 1.B&#45;&gt;1.C -->
<g id="edge2" class="edge"><title>1.B&#45;&gt;1.C</title>
<path fill="none" stroke="#000000" d="M234.344,-193.809C290.296,-193.171 400.832,-190.544 494,-180 499.92,-179.33 506.241,-178.353 512.203,-177.31"/>
<polygon fill="#000000" stroke="#000000" points="234.19,-190.31 224.225,-193.909 234.259,-197.31 234.19,-190.31"/>
</g>
<!-- 1.B&#45;&gt;2.B -->
<g id="edge16" class="edge"><title>1.B&#45;&gt;2.B</title>
<path fill="none" stroke="#aa00ff" stroke-dasharray="5,2" d="M224.034,-211.665C241.157,-221.589 264.487,-232 287,-232 287,-232 287,-232 540.436,-232 561.708,-232 585.826,-232 603.652,-232"/>
<text text-anchor="middle" x="395" y="-235.8" font-family="Times,serif" font-size="14.00">&lt;</text>
</g>
<!-- 2.H -->
<g id="node11" class="node"><title>2.H</title>
<polygon fill="#ffffcc" stroke="black" points="566.436,-306.544 566.436,-321.456 550.62,-332 528.252,-332 512.436,-321.456 512.436,-306.544 528.252,-296 550.62,-296 566.436,-306.544"/>
<text text-anchor="middle" x="539.436" y="-310.3" font-family="Helvetica,sans-Serif" font-size="14.00">2.H</text>
</g>
<!-- 1.H&#45;&gt;2.H -->
<g id="edge19" class="edge"><title>1.H&#45;&gt;2.H</title>
<path fill="none" stroke="#aa00ff" stroke-dasharray="5,2" d="M422.125,-326.249C447.664,-323.559 486.347,-319.486 511.994,-316.785"/>
<text text-anchor="middle" x="467" y="-327.8" font-family="Times,serif" font-size="14.00">==</text>
</g>
<!-- 2.I -->
<g id="node10" class="node"><title>2.I</title>
<polygon fill="#ffffcc" stroke="black" points="566.436,-347.544 566.436,-362.456 550.62,-373 528.252,-373 512.436,-362.456 512.436,-347.544 528.252,-337 550.62,-337 566.436,-347.544"/>
<text text-anchor="middle" x="539.436" y="-351.3" font-family="Helvetica,sans-Serif" font-size="14.00">2.I</text>
</g>
<!-- 2.I&#45;&gt;2.F -->
<g id="edge15" class="edge"><title>2.I&#45;&gt;2.F</title>
<path fill="none" stroke="#000000" d="M566.786,-360.598C575.247,-362.395 584.77,-364.418 593.803,-366.337"/>
<polygon fill="#000000" stroke="#000000" points="593.202,-369.788 603.711,-368.442 594.656,-362.94 593.202,-369.788"/>
</g>
<!-- 2.H&#45;&gt;2.B -->
<g id="edge12" class="edge"><title>2.H&#45;&gt;2.B</title>
<path fill="none" stroke="#000000" d="M564.388,-305.054C571.735,-301.639 579.542,-297.273 585.872,-292 596.994,-282.737 606.809,-270.089 614.33,-258.793"/>
<polygon fill="#000000" stroke="#000000" points="617.437,-260.43 619.852,-250.114 611.531,-256.672 617.437,-260.43"/>
</g>
<!-- 2.C -->
<g id="node12" class="node"><title>2.C</title>
<polygon fill="#ffffcc" stroke="black" points="566.436,-107.544 566.436,-122.456 550.62,-133 528.252,-133 512.436,-122.456 512.436,-107.544 528.252,-97 550.62,-97 566.436,-107.544"/>
<text text-anchor="middle" x="539.436" y="-111.3" font-family="Helvetica,sans-Serif" font-size="14.00">2.C</text>
</g>
<!-- 2.C&#45;&gt;2.B -->
<g id="edge11" class="edge"><title>2.C&#45;&gt;2.B</title>
<path fill="none" stroke="#000000" d="M554.719,-130.638C558.741,-135.193 563.057,-140.229 566.872,-145 582.84,-164.968 599.774,-188.501 612.06,-206.054"/>
<polygon fill="#000000" stroke="#000000" points="609.447,-208.427 618.031,-214.637 615.193,-204.429 609.447,-208.427"/>
</g>
<!-- 2.B&#45;&gt;2.A -->
<g id="edge13" class="edge"><title>2.B&#45;&gt;2.A</title>
<path fill="none" stroke="#000000" d="M658.094,-232C666.423,-232 675.786,-232 684.688,-232"/>
<polygon fill="#000000" stroke="#000000" points="684.838,-235.5 694.838,-232 684.838,-228.5 684.838,-235.5"/>
</g>
<!-- 2.G&#45;&gt;2.F -->
<g id="edge14" class="edge"><title>2.G&#45;&gt;2.F</title>
<path fill="none" stroke="#000000" d="M567.27,-389.399C575.644,-387.339 585.02,-385.033 593.914,-382.845"/>
<polygon fill="#000000" stroke="#000000" points="594.799,-386.232 603.673,-380.445 593.126,-379.435 594.799,-386.232"/>
</g>
<!-- 2.F&#45;&gt;2.A -->
<g id="edge9" class="edge"><title>2.F&#45;&gt;2.A</title>
<path fill="none" stroke="#000000" d="M642.964,-356.303C658.354,-331.749 686.305,-287.153 704.209,-258.586"/>
<polygon fill="#000000" stroke="#000000" points="707.296,-260.252 709.641,-249.92 701.364,-256.535 707.296,-260.252"/>
</g>
<!-- 2.E&#45;&gt;2.B -->
<g id="edge10" class="edge"><title>2.E&#45;&gt;2.B</title>
<path fill="none" stroke="#000000" d="M494.151,-51.405C516.051,-57.1404 546.853,-68.1939 566.872,-88 599.289,-120.071 616.229,-171.632 624.085,-203.572"/>
<polygon fill="#000000" stroke="#000000" points="620.741,-204.645 626.41,-213.595 627.56,-203.063 620.741,-204.645"/>
</g>
<!-- 2C+&#45;&gt;1.C -->
<g id="edge24" class="edge"><title>2C+&#45;&gt;1.C</title>
<path fill="none" stroke="#aa00ff" stroke-dasharray="5,2" d="M423.092,-154.764C442.777,-157.525 470.052,-161.403 494,-165 499.87,-165.882 506.17,-166.857 512.129,-167.792"/>
<polygon fill="#aa00ff" stroke="#aa00ff" points="423.395,-151.272 413.007,-153.354 422.426,-158.205 423.395,-151.272"/>
<text text-anchor="middle" x="467" y="-168.8" font-family="Times,serif" font-size="14.00">in</text>
</g>
<!-- 2C+&#45;&gt;2.C -->
<g id="edge23" class="edge"><title>2C+&#45;&gt;2.C</title>
<path fill="none" stroke="#aa00ff" stroke-dasharray="5,2" d="M412.687,-146.335C420.898,-144.068 430.954,-141.336 440,-139 464.355,-132.711 492.216,-125.959 512.066,-121.224"/>
<text text-anchor="middle" x="467" y="-142.8" font-family="Times,serif" font-size="14.00">out</text>
</g>
<!-- Legend -->
<g id="node19" class="node"><title>Legend</title>
<polygon fill="white" stroke="black" points="61,-332 -3.55271e-15,-332 -3.55271e-15,-132 61,-132 61,-332"/>
<polygon fill="none" stroke="black" points="0.5,-307 0.5,-332 61.5,-332 61.5,-307 0.5,-307"/>
<text text-anchor="start" x="8" y="-315.8" font-family="Arial Black" font-size="14.00"> Nodes</text>
<polygon fill="#ccffcc" stroke="none" points="0.5,-282 0.5,-307 43.5,-307 43.5,-282 0.5,-282"/>
<polygon fill="none" stroke="black" points="0.5,-282 0.5,-307 43.5,-307 43.5,-282 0.5,-282"/>
<text text-anchor="start" x="18" y="-290.8" font-family="Helvetica,sans-Serif" font-size="14.00">1</text>
<polygon fill="none" stroke="black" points="43.5,-282 43.5,-307 61.5,-307 61.5,-282 43.5,-282"/>
<text text-anchor="start" x="48.5" y="-290.8" font-family="Helvetica,sans-Serif" font-size="14.00">9</text>
<polygon fill="#ffffcc" stroke="none" points="0.5,-257 0.5,-282 43.5,-282 43.5,-257 0.5,-257"/>
<polygon fill="none" stroke="black" points="0.5,-257 0.5,-282 43.5,-282 43.5,-257 0.5,-257"/>
<text text-anchor="start" x="18" y="-265.8" font-family="Helvetica,sans-Serif" font-size="14.00">2</text>
<polygon fill="none" stroke="black" points="43.5,-257 43.5,-282 61.5,-282 61.5,-257 43.5,-257"/>
<text text-anchor="start" x="48.5" y="-265.8" font-family="Helvetica,sans-Serif" font-size="14.00">8</text>
<polygon fill="#ffffff" stroke="none" points="0.5,-232 0.5,-257 43.5,-257 43.5,-232 0.5,-232"/>
<polygon fill="none" stroke="black" points="0.5,-232 0.5,-257 43.5,-257 43.5,-232 0.5,-232"/>
<text text-anchor="start" x="13" y="-240.8" font-family="Helvetica,sans-Serif" font-size="14.00">(+)</text>
<polygon fill="none" stroke="black" points="43.5,-232 43.5,-257 61.5,-257 61.5,-232 43.5,-232"/>
<text text-anchor="start" x="48.5" y="-240.8" font-family="Helvetica,sans-Serif" font-size="14.00">1</text>
<polygon fill="none" stroke="black" points="0.5,-207 0.5,-232 61.5,-232 61.5,-207 0.5,-207"/>
<text text-anchor="start" x="6.5" y="-215.8" font-family="Arial Black" font-size="14.00"> Edges </text>
<polygon fill="none" stroke="black" points="0.5,-182 0.5,-207 43.5,-207 43.5,-182 0.5,-182"/>
<text text-anchor="start" x="5.5" y="-190.8" font-family="Helvetica,sans-Serif" font-size="14.00" fill="#000000">isa_1</text>
<polygon fill="none" stroke="black" points="43.5,-182 43.5,-207 61.5,-207 61.5,-182 43.5,-182"/>
<text text-anchor="start" x="48.5" y="-190.8" font-family="Helvetica,sans-Serif" font-size="14.00">8</text>
<polygon fill="none" stroke="black" points="0.5,-157 0.5,-182 43.5,-182 43.5,-157 0.5,-157"/>
<text text-anchor="start" x="5.5" y="-165.8" font-family="Helvetica,sans-Serif" font-size="14.00" fill="#000000">isa_2</text>
<polygon fill="none" stroke="black" points="43.5,-157 43.5,-182 61.5,-182 61.5,-157 43.5,-157"/>
<text text-anchor="start" x="48.5" y="-165.8" font-family="Helvetica,sans-Serif" font-size="14.00">7</text>
<polygon fill="none" stroke="black" points="0.5,-132 0.5,-157 43.5,-157 43.5,-132 0.5,-132"/>
<text text-anchor="start" x="11" y="-140.8" font-family="Helvetica,sans-Serif" font-size="14.00" fill="#aa00ff">Art.</text>
<polygon fill="none" stroke="black" points="43.5,-132 43.5,-157 61.5,-157 61.5,-132 43.5,-132"/>
<text text-anchor="start" x="48.5" y="-140.8" font-family="Helvetica,sans-Serif" font-size="14.00">8</text>
</g>
</g>
</svg>
