<?xml version="1.0" encoding="UTF-8" standalone="no"?>
<!DOCTYPE svg PUBLIC "-//W3C//DTD SVG 1.1//EN"
 "http://www.w3.org/Graphics/SVG/1.1/DTD/svg11.dtd">
<!-- Generated by graphviz version 2.38.0 (20140413.2041)
 -->
<!-- Title: %3 Pages: 1 -->
<svg width="883pt" height="787pt"
 viewBox="0.00 0.00 882.93 786.50" xmlns="http://www.w3.org/2000/svg" xmlns:xlink="http://www.w3.org/1999/xlink">
<g id="graph0" class="graph" transform="scale(1 1) rotate(0) translate(4 782.5)">
<title>%3</title>
<polygon fill="white" stroke="none" points="-4,4 -4,-782.5 878.932,-782.5 878.932,4 -4,4"/>
<!-- CEN.Midwest -->
<g id="node1" class="node"><title>CEN.Midwest</title>
<polygon fill="#ffffcc" stroke="black" points="452.351,-591.044 452.351,-605.956 411.468,-616.5 353.651,-616.5 312.768,-605.956 312.768,-591.044 353.651,-580.5 411.468,-580.5 452.351,-591.044"/>
<text text-anchor="middle" x="382.56" y="-594.8" font-family="Helvetica,sans-Serif" font-size="14.00">CEN.Midwest</text>
</g>
<!-- TZ.USA\nCEN.USA -->
<g id="node11" class="node"><title>TZ.USA\nCEN.USA</title>
<path fill="#eeeeee" stroke="black" d="M65,-476.5C65,-476.5 12,-476.5 12,-476.5 6,-476.5 0,-470.5 0,-464.5 0,-464.5 0,-450.5 0,-450.5 0,-444.5 6,-438.5 12,-438.5 12,-438.5 65,-438.5 65,-438.5 71,-438.5 77,-444.5 77,-450.5 77,-450.5 77,-464.5 77,-464.5 77,-470.5 71,-476.5 65,-476.5"/>
<text text-anchor="middle" x="38.5" y="-461.3" font-family="Helvetica,sans-Serif" font-size="14.00">TZ.USA</text>
<text text-anchor="middle" x="38.5" y="-446.3" font-family="Helvetica,sans-Serif" font-size="14.00">CEN.USA</text>
</g>
<!-- CEN.Midwest&#45;&gt;TZ.USA\nCEN.USA -->
<g id="edge54" class="edge"><title>CEN.Midwest&#45;&gt;TZ.USA\nCEN.USA</title>
<path fill="none" stroke="#000000" d="M312.821,-592.268C256.097,-584.712 175.129,-568.206 113,-532.5 92.1366,-520.509 73.2483,-500.946 59.8446,-484.806"/>
<polygon fill="#000000" stroke="#000000" points="62.3486,-482.334 53.3538,-476.736 56.894,-486.721 62.3486,-482.334"/>
</g>
<!-- TZ.Mountain -->
<g id="node13" class="node"><title>TZ.Mountain</title>
<polygon fill="#afeeee" stroke="black" points="218.593,-427.5 125.593,-427.5 125.593,-391.5 218.593,-391.5 218.593,-427.5"/>
<text text-anchor="middle" x="172.093" y="-405.8" font-family="Helvetica,sans-Serif" font-size="14.00">TZ.Mountain</text>
</g>
<!-- CEN.Midwest&#45;&gt;TZ.Mountain -->
<g id="edge13" class="edge"><title>CEN.Midwest&#45;&gt;TZ.Mountain</title>
<path fill="none" stroke="#0000ff" stroke-dasharray="1,5" d="M312.654,-593.34C296.268,-589.29 279.878,-582.556 267.187,-571.5 233.767,-542.387 253.767,-516.639 231.187,-478.5 220.018,-459.635 203.691,-440.768 191.187,-427.543"/>
</g>
<!-- TZ.Central\\CEN.South -->
<g id="node14" class="node"><title>TZ.Central\\CEN.South</title>
<polygon fill="#afeeee" stroke="black" points="458.56,-670.5 306.56,-670.5 306.56,-634.5 458.56,-634.5 458.56,-670.5"/>
<text text-anchor="middle" x="382.56" y="-648.8" font-family="Helvetica,sans-Serif" font-size="14.00">TZ.Central\CEN.South</text>
</g>
<!-- CEN.Midwest&#45;&gt;TZ.Central\\CEN.South -->
<g id="edge22" class="edge"><title>CEN.Midwest&#45;&gt;TZ.Central\\CEN.South</title>
<path fill="none" stroke="#0000ff" stroke-dasharray="1,5" d="M382.56,-616.641C382.56,-622.524 382.56,-628.407 382.56,-634.29"/>
</g>
<!-- TZ.Mountain\\CEN.South -->
<g id="node15" class="node"><title>TZ.Mountain\\CEN.South</title>
<polygon fill="#afeeee" stroke="black" points="464.56,-454.5 300.56,-454.5 300.56,-418.5 464.56,-418.5 464.56,-454.5"/>
<text text-anchor="middle" x="382.56" y="-432.8" font-family="Helvetica,sans-Serif" font-size="14.00">TZ.Mountain\CEN.South</text>
</g>
<!-- CEN.Midwest&#45;&gt;TZ.Mountain\\CEN.South -->
<g id="edge15" class="edge"><title>CEN.Midwest&#45;&gt;TZ.Mountain\\CEN.South</title>
<path fill="none" stroke="#0000ff" stroke-dasharray="1,5" d="M452.503,-598.179C477.403,-594.015 502.567,-584.126 515.932,-562.5 536.962,-528.474 536.962,-506.526 515.932,-472.5 504.773,-454.444 485.39,-444.57 464.803,-439.379"/>
</g>
<!-- TZ.Central\\CEN.West -->
<g id="node18" class="node"><title>TZ.Central\\CEN.West</title>
<polygon fill="#afeeee" stroke="black" points="456.56,-508.5 308.56,-508.5 308.56,-472.5 456.56,-472.5 456.56,-508.5"/>
<text text-anchor="middle" x="382.56" y="-486.8" font-family="Helvetica,sans-Serif" font-size="14.00">TZ.Central\CEN.West</text>
</g>
<!-- CEN.Midwest&#45;&gt;TZ.Central\\CEN.West -->
<g id="edge6" class="edge"><title>CEN.Midwest&#45;&gt;TZ.Central\\CEN.West</title>
<path fill="none" stroke="#0000ff" stroke-dasharray="1,5" d="M452.503,-598.179C477.403,-594.015 502.567,-584.126 515.932,-562.5 524.344,-548.89 524.344,-540.11 515.932,-526.5 503.323,-506.098 480.214,-496.142 456.732,-491.584"/>
</g>
<!-- TZ.Central -->
<g id="node20" class="node"><title>TZ.Central</title>
<polygon fill="#afeeee" stroke="black" points="212.093,-523.5 132.093,-523.5 132.093,-487.5 212.093,-487.5 212.093,-523.5"/>
<text text-anchor="middle" x="172.093" y="-501.8" font-family="Helvetica,sans-Serif" font-size="14.00">TZ.Central</text>
</g>
<!-- CEN.Midwest&#45;&gt;TZ.Central -->
<g id="edge29" class="edge"><title>CEN.Midwest&#45;&gt;TZ.Central</title>
<path fill="none" stroke="#0000ff" stroke-dasharray="1,5" d="M321.379,-588.781C303.474,-584.709 284.126,-579.1 267.187,-571.5 239.879,-559.248 212.268,-538.694 194.085,-523.774"/>
</g>
<!-- TZ.Mountain\\CEN.West -->
<g id="node22" class="node"><title>TZ.Mountain\\CEN.West</title>
<polygon fill="#afeeee" stroke="black" points="463.06,-346.5 302.06,-346.5 302.06,-310.5 463.06,-310.5 463.06,-346.5"/>
<text text-anchor="middle" x="382.56" y="-324.8" font-family="Helvetica,sans-Serif" font-size="14.00">TZ.Mountain\CEN.West</text>
</g>
<!-- CEN.Midwest&#45;&gt;TZ.Mountain\\CEN.West -->
<g id="edge16" class="edge"><title>CEN.Midwest&#45;&gt;TZ.Mountain\\CEN.West</title>
<path fill="none" stroke="#0000ff" stroke-dasharray="1,5" d="M452.503,-598.179C477.403,-594.015 502.567,-584.126 515.932,-562.5 539.064,-525.071 539.064,-401.929 515.932,-364.5 504.521,-346.036 484.51,-336.128 463.405,-331.034"/>
</g>
<!-- CEN.West -->
<g id="node2" class="node"><title>CEN.West</title>
<polygon fill="#ffffcc" stroke="black" points="228.153,-699.044 228.153,-713.956 195.314,-724.5 148.873,-724.5 116.034,-713.956 116.034,-699.044 148.873,-688.5 195.314,-688.5 228.153,-699.044"/>
<text text-anchor="middle" x="172.093" y="-702.8" font-family="Helvetica,sans-Serif" font-size="14.00">CEN.West</text>
</g>
<!-- CEN.West&#45;&gt;TZ.USA\nCEN.USA -->
<g id="edge57" class="edge"><title>CEN.West&#45;&gt;TZ.USA\nCEN.USA</title>
<path fill="none" stroke="#000000" d="M161.417,-688.19C138.619,-645.052 81.4146,-536.81 54.2561,-485.421"/>
<polygon fill="#000000" stroke="#000000" points="57.3167,-483.722 49.5497,-476.516 51.1278,-486.993 57.3167,-483.722"/>
</g>
<!-- CEN.West&#45;&gt;TZ.Mountain -->
<g id="edge42" class="edge"><title>CEN.West&#45;&gt;TZ.Mountain</title>
<path fill="none" stroke="#0000ff" stroke-dasharray="1,5" d="M186.723,-688.373C205.49,-663.834 237.065,-617.878 249.187,-572.5 258.937,-536.002 263.542,-522.444 249.187,-487.5 238.986,-462.667 216.635,-441.527 198.612,-427.546"/>
</g>
<!-- CEN.West&#45;&gt;TZ.Central\\CEN.South -->
<g id="edge35" class="edge"><title>CEN.West&#45;&gt;TZ.Central\\CEN.South</title>
<path fill="none" stroke="#0000ff" stroke-dasharray="1,5" d="M213.734,-694.381C230.269,-689.569 249.593,-684.098 267.187,-679.5 279.82,-676.198 293.285,-672.86 306.376,-669.71"/>
</g>
<!-- CEN.West&#45;&gt;TZ.Mountain\\CEN.South -->
<g id="edge1" class="edge"><title>CEN.West&#45;&gt;TZ.Mountain\\CEN.South</title>
<path fill="none" stroke="#0000ff" stroke-dasharray="1,5" d="M178.999,-688.449C196.692,-634.824 249.15,-479.211 267.187,-463.5 276.725,-455.192 288.352,-449.324 300.496,-445.202"/>
</g>
<!-- TZ.Central\\CEN.Midwest -->
<g id="node16" class="node"><title>TZ.Central\\CEN.Midwest</title>
<polygon fill="#afeeee" stroke="black" points="466.06,-562.5 299.06,-562.5 299.06,-526.5 466.06,-526.5 466.06,-562.5"/>
<text text-anchor="middle" x="382.56" y="-540.8" font-family="Helvetica,sans-Serif" font-size="14.00">TZ.Central\CEN.Midwest</text>
</g>
<!-- CEN.West&#45;&gt;TZ.Central\\CEN.Midwest -->
<g id="edge47" class="edge"><title>CEN.West&#45;&gt;TZ.Central\\CEN.Midwest</title>
<path fill="none" stroke="#0000ff" stroke-dasharray="1,5" d="M180.494,-688.439C193.482,-659.101 223.239,-601.37 267.187,-571.5 276.72,-565.02 287.617,-560.085 298.81,-556.329"/>
</g>
<!-- CEN.West&#45;&gt;TZ.Central -->
<g id="edge11" class="edge"><title>CEN.West&#45;&gt;TZ.Central</title>
<path fill="none" stroke="#0000ff" stroke-dasharray="1,5" d="M172.093,-688.277C172.093,-633.371 172.093,-578.465 172.093,-523.559"/>
</g>
<!-- TZ.Mountain\\CEN.Midwest -->
<g id="node21" class="node"><title>TZ.Mountain\\CEN.Midwest</title>
<polygon fill="#afeeee" stroke="black" points="472.06,-400.5 293.06,-400.5 293.06,-364.5 472.06,-364.5 472.06,-400.5"/>
<text text-anchor="middle" x="382.56" y="-378.8" font-family="Helvetica,sans-Serif" font-size="14.00">TZ.Mountain\CEN.Midwest</text>
</g>
<!-- CEN.West&#45;&gt;TZ.Mountain\\CEN.Midwest -->
<g id="edge12" class="edge"><title>CEN.West&#45;&gt;TZ.Mountain\\CEN.Midwest</title>
<path fill="none" stroke="#0000ff" stroke-dasharray="1,5" d="M179.425,-688.286C190.351,-656.693 213.294,-589.637 231.187,-532.5 248.209,-478.143 225.859,-448.697 267.187,-409.5 274.588,-402.48 283.462,-397.172 292.949,-393.176"/>
</g>
<!-- CEN.South -->
<g id="node3" class="node"><title>CEN.South</title>
<polygon fill="#ffffcc" stroke="black" points="231.28,-240.044 231.28,-254.956 196.609,-265.5 147.577,-265.5 112.906,-254.956 112.906,-240.044 147.577,-229.5 196.609,-229.5 231.28,-240.044"/>
<text text-anchor="middle" x="172.093" y="-243.8" font-family="Helvetica,sans-Serif" font-size="14.00">CEN.South</text>
</g>
<!-- CEN.South&#45;&gt;TZ.USA\nCEN.USA -->
<g id="edge59" class="edge"><title>CEN.South&#45;&gt;TZ.USA\nCEN.USA</title>
<path fill="none" stroke="#000000" d="M159.646,-265.769C136.586,-302.568 84.4166,-385.821 57.0328,-429.521"/>
<polygon fill="#000000" stroke="#000000" points="53.9292,-427.882 51.585,-438.214 59.8608,-431.599 53.9292,-427.882"/>
</g>
<!-- CEN.South&#45;&gt;TZ.Mountain -->
<g id="edge41" class="edge"><title>CEN.South&#45;&gt;TZ.Mountain</title>
<path fill="none" stroke="#0000ff" stroke-dasharray="1,5" d="M172.093,-265.535C172.093,-307.431 172.093,-349.327 172.093,-391.223"/>
</g>
<!-- CEN.South&#45;&gt;TZ.Central\\CEN.Midwest -->
<g id="edge24" class="edge"><title>CEN.South&#45;&gt;TZ.Central\\CEN.Midwest</title>
<path fill="none" stroke="#0000ff" stroke-dasharray="1,5" d="M181.846,-265.509C194.041,-291.081 216.32,-339.585 231.187,-382.5 251.513,-441.176 222.651,-474.227 267.187,-517.5 276.039,-526.102 287.096,-532.146 298.82,-536.36"/>
</g>
<!-- TZ.Eastern -->
<g id="node17" class="node"><title>TZ.Eastern</title>
<polygon fill="#afeeee" stroke="black" points="424.06,-130.5 341.06,-130.5 341.06,-94.5 424.06,-94.5 424.06,-130.5"/>
<text text-anchor="middle" x="382.56" y="-108.8" font-family="Helvetica,sans-Serif" font-size="14.00">TZ.Eastern</text>
</g>
<!-- CEN.South&#45;&gt;TZ.Eastern -->
<g id="edge43" class="edge"><title>CEN.South&#45;&gt;TZ.Eastern</title>
<path fill="none" stroke="#0000ff" stroke-dasharray="1,5" d="M183.678,-229.49C198.947,-205.165 229.501,-162.242 267.187,-139.5 289.458,-126.06 317.916,-119.31 340.873,-115.92"/>
</g>
<!-- CEN.South&#45;&gt;TZ.Central\\CEN.West -->
<g id="edge46" class="edge"><title>CEN.South&#45;&gt;TZ.Central\\CEN.West</title>
<path fill="none" stroke="#0000ff" stroke-dasharray="1,5" d="M180.916,-265.749C203.13,-317.532 265.127,-461.779 267.187,-463.5 278.93,-473.309 293.61,-479.689 308.497,-483.805"/>
</g>
<!-- CEN.South&#45;&gt;TZ.Central -->
<g id="edge36" class="edge"><title>CEN.South&#45;&gt;TZ.Central</title>
<path fill="none" stroke="#0000ff" stroke-dasharray="1,5" d="M185.783,-265.823C204.431,-292.047 236.906,-342.541 249.187,-391.5 253.08,-407.019 255.266,-412.7 249.187,-427.5 238.986,-452.333 216.635,-473.473 198.612,-487.454"/>
</g>
<!-- CEN.South&#45;&gt;TZ.Mountain\\CEN.Midwest -->
<g id="edge32" class="edge"><title>CEN.South&#45;&gt;TZ.Mountain\\CEN.Midwest</title>
<path fill="none" stroke="#0000ff" stroke-dasharray="1,5" d="M183.678,-265.51C198.947,-289.835 229.501,-332.758 267.187,-355.5 275.135,-360.296 283.87,-364.241 292.863,-367.484"/>
</g>
<!-- CEN.South&#45;&gt;TZ.Mountain\\CEN.West -->
<g id="edge39" class="edge"><title>CEN.South&#45;&gt;TZ.Mountain\\CEN.West</title>
<path fill="none" stroke="#0000ff" stroke-dasharray="1,5" d="M198.834,-264.998C217.192,-276.783 242.839,-291.876 267.187,-301.5 278.192,-305.85 290.081,-309.614 301.888,-312.836"/>
</g>
<!-- CEN.South\\TZ.Central -->
<g id="node4" class="node"><title>CEN.South\\TZ.Central</title>
<polygon fill="#ffffcc" stroke="black" points="489.421,-159.044 489.421,-173.956 426.823,-184.5 338.296,-184.5 275.698,-173.956 275.698,-159.044 338.296,-148.5 426.823,-148.5 489.421,-159.044"/>
<text text-anchor="middle" x="382.56" y="-162.8" font-family="Helvetica,sans-Serif" font-size="14.00">CEN.South\TZ.Central</text>
</g>
<!-- CEN.South\\TZ.Central&#45;&gt;CEN.South -->
<g id="edge69" class="edge"><title>CEN.South\\TZ.Central&#45;&gt;CEN.South</title>
<path fill="none" stroke="#ff0000" d="M310.411,-179.926C295.872,-183.602 280.848,-188.1 267.187,-193.5 246.454,-201.695 224.777,-213.856 207.462,-224.564"/>
<polygon fill="#ff0000" stroke="#ff0000" points="205.427,-221.709 198.834,-230.002 209.16,-227.631 205.427,-221.709"/>
</g>
<!-- CEN.South\\TZ.Eastern -->
<g id="node6" class="node"><title>CEN.South\\TZ.Eastern</title>
<polygon fill="#ffffcc" stroke="black" points="491.642,-267.044 491.642,-281.956 427.743,-292.5 337.376,-292.5 273.477,-281.956 273.477,-267.044 337.376,-256.5 427.743,-256.5 491.642,-267.044"/>
<text text-anchor="middle" x="382.56" y="-270.8" font-family="Helvetica,sans-Serif" font-size="14.00">CEN.South\TZ.Eastern</text>
</g>
<!-- CEN.South\\TZ.Central&#45;&gt;CEN.South\\TZ.Eastern -->
<g id="edge38" class="edge"><title>CEN.South\\TZ.Central&#45;&gt;CEN.South\\TZ.Eastern</title>
<path fill="none" stroke="#0000ff" stroke-dasharray="1,5" d="M482.458,-175.255C496.069,-181.078 508.052,-189.749 515.932,-202.5 524.344,-216.11 524.344,-224.89 515.932,-238.5 508.178,-251.047 496.452,-259.643 483.11,-265.463"/>
</g>
<!-- CEN.South\\TZ.Mountain -->
<g id="node7" class="node"><title>CEN.South\\TZ.Mountain</title>
<polygon fill="#ffffcc" stroke="black" points="497.805,-213.044 497.805,-227.956 430.296,-238.5 334.823,-238.5 267.314,-227.956 267.314,-213.044 334.823,-202.5 430.296,-202.5 497.805,-213.044"/>
<text text-anchor="middle" x="382.56" y="-216.8" font-family="Helvetica,sans-Serif" font-size="14.00">CEN.South\TZ.Mountain</text>
</g>
<!-- CEN.South\\TZ.Central&#45;&gt;CEN.South\\TZ.Mountain -->
<g id="edge45" class="edge"><title>CEN.South\\TZ.Central&#45;&gt;CEN.South\\TZ.Mountain</title>
<path fill="none" stroke="#0000ff" stroke-dasharray="1,5" d="M382.56,-184.641C382.56,-190.524 382.56,-196.407 382.56,-202.29"/>
</g>
<!-- CEN.South\\TZ.Central&#45;&gt;TZ.Mountain -->
<g id="edge40" class="edge"><title>CEN.South\\TZ.Central&#45;&gt;TZ.Mountain</title>
<path fill="none" stroke="#0000ff" stroke-dasharray="1,5" d="M295.519,-177.431C285.25,-181.349 275.486,-186.568 267.187,-193.5 265.127,-195.221 203.13,-339.468 180.916,-391.251"/>
</g>
<!-- CEN.South\\TZ.Central&#45;&gt;TZ.Eastern -->
<g id="edge33" class="edge"><title>CEN.South\\TZ.Central&#45;&gt;TZ.Eastern</title>
<path fill="none" stroke="#0000ff" stroke-dasharray="1,5" d="M382.56,-148.29C382.56,-142.407 382.56,-136.524 382.56,-130.641"/>
</g>
<!-- CEN.South\\TZ.Central&#45;&gt;TZ.Mountain\\CEN.Midwest -->
<g id="edge14" class="edge"><title>CEN.South\\TZ.Central&#45;&gt;TZ.Mountain\\CEN.Midwest</title>
<path fill="none" stroke="#0000ff" stroke-dasharray="1,5" d="M482.458,-175.255C496.069,-181.078 508.052,-189.749 515.932,-202.5 532.756,-229.721 532.756,-319.279 515.932,-346.5 506.097,-362.413 489.874,-371.972 472.068,-377.57"/>
</g>
<!-- CEN.South\\TZ.Central&#45;&gt;TZ.Mountain\\CEN.West -->
<g id="edge30" class="edge"><title>CEN.South\\TZ.Central&#45;&gt;TZ.Mountain\\CEN.West</title>
<path fill="none" stroke="#0000ff" stroke-dasharray="1,5" d="M482.458,-175.255C496.069,-181.078 508.052,-189.749 515.932,-202.5 536.962,-236.526 536.962,-258.474 515.932,-292.5 504.521,-310.964 484.51,-320.872 463.405,-325.966"/>
</g>
<!-- CEN.West\\TZ.Central -->
<g id="node5" class="node"><title>CEN.West\\TZ.Central</title>
<polygon fill="#ffffcc" stroke="black" points="486.793,-699.044 486.793,-713.956 425.735,-724.5 339.384,-724.5 278.326,-713.956 278.326,-699.044 339.384,-688.5 425.735,-688.5 486.793,-699.044"/>
<text text-anchor="middle" x="382.56" y="-702.8" font-family="Helvetica,sans-Serif" font-size="14.00">CEN.West\TZ.Central</text>
</g>
<!-- CEN.West\\TZ.Central&#45;&gt;CEN.West -->
<g id="edge92" class="edge"><title>CEN.West\\TZ.Central&#45;&gt;CEN.West</title>
<path fill="none" stroke="#ff0000" d="M278.243,-706.5C264.805,-706.5 251.347,-706.5 238.762,-706.5"/>
<polygon fill="#ff0000" stroke="#ff0000" points="238.415,-703 228.415,-706.5 238.415,-710 238.415,-703"/>
</g>
<!-- CEN.West\\TZ.Mountain -->
<g id="node8" class="node"><title>CEN.West\\TZ.Mountain</title>
<polygon fill="#ffffcc" stroke="black" points="495.585,-753.044 495.585,-767.956 429.376,-778.5 335.743,-778.5 269.534,-767.956 269.534,-753.044 335.743,-742.5 429.376,-742.5 495.585,-753.044"/>
<text text-anchor="middle" x="382.56" y="-756.8" font-family="Helvetica,sans-Serif" font-size="14.00">CEN.West\TZ.Mountain</text>
</g>
<!-- CEN.West\\TZ.Central&#45;&gt;CEN.West\\TZ.Mountain -->
<g id="edge20" class="edge"><title>CEN.West\\TZ.Central&#45;&gt;CEN.West\\TZ.Mountain</title>
<path fill="none" stroke="#0000ff" stroke-dasharray="1,5" d="M382.56,-724.641C382.56,-730.524 382.56,-736.407 382.56,-742.29"/>
</g>
<!-- CEN.West\\TZ.Central&#45;&gt;TZ.Mountain -->
<g id="edge28" class="edge"><title>CEN.West\\TZ.Central&#45;&gt;TZ.Mountain</title>
<path fill="none" stroke="#0000ff" stroke-dasharray="1,5" d="M292.196,-696.577C282.837,-692.451 274.2,-686.907 267.187,-679.5 204.789,-613.599 269.72,-560.668 231.187,-478.5 222.078,-459.076 206.081,-440.681 193.177,-427.776"/>
</g>
<!-- CEN.West\\TZ.Central&#45;&gt;TZ.Mountain\\CEN.South -->
<g id="edge44" class="edge"><title>CEN.West\\TZ.Central&#45;&gt;TZ.Mountain\\CEN.South</title>
<path fill="none" stroke="#0000ff" stroke-dasharray="1,5" d="M481.803,-698.022C495.685,-692.198 507.926,-683.455 515.932,-670.5 539.064,-633.071 539.064,-509.929 515.932,-472.5 504.773,-454.444 485.39,-444.57 464.803,-439.379"/>
</g>
<!-- CEN.West\\TZ.Central&#45;&gt;TZ.Mountain\\CEN.Midwest -->
<g id="edge25" class="edge"><title>CEN.West\\TZ.Central&#45;&gt;TZ.Mountain\\CEN.Midwest</title>
<path fill="none" stroke="#0000ff" stroke-dasharray="1,5" d="M481.803,-698.022C495.685,-692.198 507.926,-683.455 515.932,-670.5 530.653,-646.682 530.653,-442.318 515.932,-418.5 506.097,-402.587 489.874,-393.028 472.068,-387.43"/>
</g>
<!-- CEN.South\\TZ.Eastern&#45;&gt;CEN.South -->
<g id="edge85" class="edge"><title>CEN.South\\TZ.Eastern&#45;&gt;CEN.South</title>
<path fill="none" stroke="#ff0000" d="M295.565,-263.362C277.47,-261.019 258.618,-258.577 241.283,-256.332"/>
<polygon fill="#ff0000" stroke="#ff0000" points="241.636,-252.848 231.269,-255.035 240.736,-259.79 241.636,-252.848"/>
</g>
<!-- CEN.South\\TZ.Eastern&#45;&gt;CEN.South\\TZ.Mountain -->
<g id="edge23" class="edge"><title>CEN.South\\TZ.Eastern&#45;&gt;CEN.South\\TZ.Mountain</title>
<path fill="none" stroke="#0000ff" stroke-dasharray="1,5" d="M382.56,-256.29C382.56,-250.407 382.56,-244.524 382.56,-238.641"/>
</g>
<!-- CEN.South\\TZ.Eastern&#45;&gt;TZ.Mountain -->
<g id="edge49" class="edge"><title>CEN.South\\TZ.Eastern&#45;&gt;TZ.Mountain</title>
<path fill="none" stroke="#0000ff" stroke-dasharray="1,5" d="M301.521,-286.623C289.518,-290.332 277.668,-295.175 267.187,-301.5 229.501,-324.242 198.947,-367.165 183.678,-391.49"/>
</g>
<!-- CEN.South\\TZ.Eastern&#45;&gt;TZ.Central\\CEN.Midwest -->
<g id="edge48" class="edge"><title>CEN.South\\TZ.Eastern&#45;&gt;TZ.Central\\CEN.Midwest</title>
<path fill="none" stroke="#0000ff" stroke-dasharray="1,5" d="M483.11,-283.537C496.452,-289.357 508.178,-297.953 515.932,-310.5 539.064,-347.929 539.064,-471.071 515.932,-508.5 505.026,-526.147 486.262,-535.979 466.197,-541.262"/>
</g>
<!-- CEN.South\\TZ.Eastern&#45;&gt;TZ.Central\\CEN.West -->
<g id="edge9" class="edge"><title>CEN.South\\TZ.Eastern&#45;&gt;TZ.Central\\CEN.West</title>
<path fill="none" stroke="#0000ff" stroke-dasharray="1,5" d="M483.11,-283.537C496.452,-289.357 508.178,-297.953 515.932,-310.5 532.756,-337.721 532.756,-427.279 515.932,-454.5 503.323,-474.902 480.214,-484.858 456.732,-489.416"/>
</g>
<!-- CEN.South\\TZ.Eastern&#45;&gt;TZ.Central -->
<g id="edge17" class="edge"><title>CEN.South\\TZ.Eastern&#45;&gt;TZ.Central</title>
<path fill="none" stroke="#0000ff" stroke-dasharray="1,5" d="M292.5,-285.124C283.148,-289.137 274.43,-294.462 267.187,-301.5 222.651,-344.773 259.873,-381.426 231.187,-436.5 221.204,-455.666 205.102,-474.219 192.38,-487.251"/>
</g>
<!-- CEN.South\\TZ.Eastern&#45;&gt;TZ.Mountain\\CEN.Midwest -->
<g id="edge37" class="edge"><title>CEN.South\\TZ.Eastern&#45;&gt;TZ.Mountain\\CEN.Midwest</title>
<path fill="none" stroke="#0000ff" stroke-dasharray="1,5" d="M483.11,-283.537C496.452,-289.357 508.178,-297.953 515.932,-310.5 524.344,-324.11 524.344,-332.89 515.932,-346.5 506.097,-362.413 489.874,-371.972 472.068,-377.57"/>
</g>
<!-- CEN.South\\TZ.Eastern&#45;&gt;TZ.Mountain\\CEN.West -->
<g id="edge4" class="edge"><title>CEN.South\\TZ.Eastern&#45;&gt;TZ.Mountain\\CEN.West</title>
<path fill="none" stroke="#0000ff" stroke-dasharray="1,5" d="M382.56,-292.641C382.56,-298.524 382.56,-304.407 382.56,-310.29"/>
</g>
<!-- CEN.South\\TZ.Mountain&#45;&gt;CEN.South -->
<g id="edge77" class="edge"><title>CEN.South\\TZ.Mountain&#45;&gt;CEN.South</title>
<path fill="none" stroke="#ff0000" d="M292.849,-231.99C275.596,-234.224 257.762,-236.534 241.297,-238.666"/>
<polygon fill="#ff0000" stroke="#ff0000" points="240.706,-235.214 231.239,-239.969 241.605,-242.156 240.706,-235.214"/>
</g>
<!-- CEN.South\\TZ.Mountain&#45;&gt;TZ.Central\\CEN.Midwest -->
<g id="edge3" class="edge"><title>CEN.South\\TZ.Mountain&#45;&gt;TZ.Central\\CEN.Midwest</title>
<path fill="none" stroke="#0000ff" stroke-dasharray="1,5" d="M484.406,-230.114C497.21,-235.92 508.43,-244.361 515.932,-256.5 530.653,-280.318 530.653,-484.682 515.932,-508.5 505.026,-526.147 486.262,-535.979 466.197,-541.262"/>
</g>
<!-- CEN.South\\TZ.Mountain&#45;&gt;TZ.Eastern -->
<g id="edge8" class="edge"><title>CEN.South\\TZ.Mountain&#45;&gt;TZ.Eastern</title>
<path fill="none" stroke="#0000ff" stroke-dasharray="1,5" d="M484.406,-210.886C497.21,-205.08 508.43,-196.639 515.932,-184.5 524.344,-170.89 524.344,-162.11 515.932,-148.5 497.334,-118.407 455.891,-111.041 424.103,-110.202"/>
</g>
<!-- CEN.South\\TZ.Mountain&#45;&gt;TZ.Central\\CEN.West -->
<g id="edge34" class="edge"><title>CEN.South\\TZ.Mountain&#45;&gt;TZ.Central\\CEN.West</title>
<path fill="none" stroke="#0000ff" stroke-dasharray="1,5" d="M484.406,-230.114C497.21,-235.92 508.43,-244.361 515.932,-256.5 539.064,-293.929 539.064,-417.071 515.932,-454.5 503.323,-474.902 480.214,-484.858 456.732,-489.416"/>
</g>
<!-- CEN.South\\TZ.Mountain&#45;&gt;TZ.Central -->
<g id="edge10" class="edge"><title>CEN.South\\TZ.Mountain&#45;&gt;TZ.Central</title>
<path fill="none" stroke="#0000ff" stroke-dasharray="1,5" d="M290.04,-231.512C281.527,-235.506 273.677,-240.721 267.187,-247.5 208.054,-309.269 267.919,-359.281 231.187,-436.5 221.904,-456.015 205.748,-474.541 192.826,-487.473"/>
</g>
<!-- CEN.West\\TZ.Mountain&#45;&gt;CEN.West -->
<g id="edge71" class="edge"><title>CEN.West\\TZ.Mountain&#45;&gt;CEN.West</title>
<path fill="none" stroke="#ff0000" d="M316.105,-745.614C300.069,-741.811 282.978,-737.627 267.187,-733.5 253.029,-729.8 237.751,-725.535 223.708,-721.503"/>
<polygon fill="#ff0000" stroke="#ff0000" points="224.313,-718.034 213.734,-718.619 222.369,-724.759 224.313,-718.034"/>
</g>
<!-- CEN.West\\TZ.Mountain&#45;&gt;TZ.Central\\CEN.South -->
<g id="edge31" class="edge"><title>CEN.West\\TZ.Mountain&#45;&gt;TZ.Central\\CEN.South</title>
<path fill="none" stroke="#0000ff" stroke-dasharray="1,5" d="M484.083,-751.032C497.021,-745.222 508.367,-736.741 515.932,-724.5 524.344,-710.89 524.344,-702.11 515.932,-688.5 503.702,-668.71 481.591,-658.749 458.844,-654.009"/>
</g>
<!-- CEN.West\\TZ.Mountain&#45;&gt;TZ.Central\\CEN.Midwest -->
<g id="edge5" class="edge"><title>CEN.West\\TZ.Mountain&#45;&gt;TZ.Central\\CEN.Midwest</title>
<path fill="none" stroke="#0000ff" stroke-dasharray="1,5" d="M484.083,-751.032C497.021,-745.222 508.367,-736.741 515.932,-724.5 532.756,-697.279 532.756,-607.721 515.932,-580.5 505.026,-562.853 486.262,-553.021 466.197,-547.738"/>
</g>
<!-- CEN.West\\TZ.Mountain&#45;&gt;TZ.Central -->
<g id="edge2" class="edge"><title>CEN.West\\TZ.Mountain&#45;&gt;TZ.Central</title>
<path fill="none" stroke="#0000ff" stroke-dasharray="1,5" d="M293.944,-749.154C284.229,-745.278 275.03,-740.182 267.187,-733.5 233.368,-704.689 192.555,-572.79 178.304,-523.847"/>
</g>
<!-- CEN.Northeast\nTZ.Eastern\\CEN.South -->
<g id="node9" class="node"><title>CEN.Northeast\nTZ.Eastern\\CEN.South</title>
<path fill="#eeeeee" stroke="black" d="M689.932,-131.5C689.932,-131.5 558.932,-131.5 558.932,-131.5 552.932,-131.5 546.932,-125.5 546.932,-119.5 546.932,-119.5 546.932,-105.5 546.932,-105.5 546.932,-99.5 552.932,-93.5 558.932,-93.5 558.932,-93.5 689.932,-93.5 689.932,-93.5 695.932,-93.5 701.932,-99.5 701.932,-105.5 701.932,-105.5 701.932,-119.5 701.932,-119.5 701.932,-125.5 695.932,-131.5 689.932,-131.5"/>
<text text-anchor="middle" x="624.432" y="-116.3" font-family="Helvetica,sans-Serif" font-size="14.00">CEN.Northeast</text>
<text text-anchor="middle" x="624.432" y="-101.3" font-family="Helvetica,sans-Serif" font-size="14.00">TZ.Eastern\CEN.South</text>
</g>
<!-- CEN.Northeast\nTZ.Eastern\\CEN.South&#45;&gt;TZ.Eastern -->
<g id="edge61" class="edge"><title>CEN.Northeast\nTZ.Eastern\\CEN.South&#45;&gt;TZ.Eastern</title>
<path fill="none" stroke="#000000" d="M546.876,-112.5C510.131,-112.5 467.107,-112.5 434.446,-112.5"/>
<polygon fill="#000000" stroke="#000000" points="434.226,-109 424.226,-112.5 434.226,-116 434.226,-109"/>
</g>
<!-- TZ.Central*CEN.Midwest\nCEN.Midwest\\TZ.Mountain -->
<g id="node10" class="node"><title>TZ.Central*CEN.Midwest\nCEN.Midwest\\TZ.Mountain</title>
<path fill="#eeeeee" stroke="black" d="M701.932,-616.5C701.932,-616.5 546.932,-616.5 546.932,-616.5 540.932,-616.5 534.932,-610.5 534.932,-604.5 534.932,-604.5 534.932,-590.5 534.932,-590.5 534.932,-584.5 540.932,-578.5 546.932,-578.5 546.932,-578.5 701.932,-578.5 701.932,-578.5 707.932,-578.5 713.932,-584.5 713.932,-590.5 713.932,-590.5 713.932,-604.5 713.932,-604.5 713.932,-610.5 707.932,-616.5 701.932,-616.5"/>
<text text-anchor="middle" x="624.432" y="-601.3" font-family="Helvetica,sans-Serif" font-size="14.00">TZ.Central*CEN.Midwest</text>
<text text-anchor="middle" x="624.432" y="-586.3" font-family="Helvetica,sans-Serif" font-size="14.00">CEN.Midwest\TZ.Mountain</text>
</g>
<!-- TZ.Central*CEN.Midwest\nCEN.Midwest\\TZ.Mountain&#45;&gt;CEN.Midwest -->
<g id="edge56" class="edge"><title>TZ.Central*CEN.Midwest\nCEN.Midwest\\TZ.Mountain&#45;&gt;CEN.Midwest</title>
<path fill="none" stroke="#000000" d="M534.794,-597.87C511.078,-597.968 485.607,-598.075 462.455,-598.171"/>
<polygon fill="#000000" stroke="#000000" points="462.328,-594.671 452.343,-598.213 462.357,-601.671 462.328,-594.671"/>
</g>
<!-- TZ.Central*CEN.Midwest\nCEN.Midwest\\TZ.Mountain&#45;&gt;TZ.Central\\CEN.South -->
<g id="edge52" class="edge"><title>TZ.Central*CEN.Midwest\nCEN.Midwest\\TZ.Mountain&#45;&gt;TZ.Central\\CEN.South</title>
<path fill="none" stroke="#000000" d="M540.546,-616.505C517.322,-621.83 492.042,-627.626 468.69,-632.981"/>
<polygon fill="#000000" stroke="#000000" points="467.776,-629.599 458.811,-635.246 469.341,-636.422 467.776,-629.599"/>
</g>
<!-- TZ.Central*CEN.Midwest\nCEN.Midwest\\TZ.Mountain&#45;&gt;TZ.Central\\CEN.West -->
<g id="edge62" class="edge"><title>TZ.Central*CEN.Midwest\nCEN.Midwest\\TZ.Mountain&#45;&gt;TZ.Central\\CEN.West</title>
<path fill="none" stroke="#000000" d="M598.872,-578.289C574.531,-560.136 535.54,-533.385 497.932,-517.5 488.004,-513.306 477.302,-509.693 466.57,-506.601"/>
<polygon fill="#000000" stroke="#000000" points="467.295,-503.17 456.726,-503.905 465.446,-509.922 467.295,-503.17"/>
</g>
<!-- TZ.Mountain*CEN.Midwest\nCEN.Midwest\\TZ.Central -->
<g id="node12" class="node"><title>TZ.Mountain*CEN.Midwest\nCEN.Midwest\\TZ.Central</title>
<path fill="#eeeeee" stroke="black" d="M702.932,-429.5C702.932,-429.5 545.932,-429.5 545.932,-429.5 539.932,-429.5 533.932,-423.5 533.932,-417.5 533.932,-417.5 533.932,-403.5 533.932,-403.5 533.932,-397.5 539.932,-391.5 545.932,-391.5 545.932,-391.5 702.932,-391.5 702.932,-391.5 708.932,-391.5 714.932,-397.5 714.932,-403.5 714.932,-403.5 714.932,-417.5 714.932,-417.5 714.932,-423.5 708.932,-429.5 702.932,-429.5"/>
<text text-anchor="middle" x="624.432" y="-414.3" font-family="Helvetica,sans-Serif" font-size="14.00">TZ.Mountain*CEN.Midwest</text>
<text text-anchor="middle" x="624.432" y="-399.3" font-family="Helvetica,sans-Serif" font-size="14.00">CEN.Midwest\TZ.Central</text>
</g>
<!-- TZ.Mountain*CEN.Midwest\nCEN.Midwest\\TZ.Central&#45;&gt;CEN.Midwest -->
<g id="edge55" class="edge"><title>TZ.Mountain*CEN.Midwest\nCEN.Midwest\\TZ.Central&#45;&gt;CEN.Midwest</title>
<path fill="none" stroke="#000000" d="M544.43,-429.75C540.632,-432.313 537.092,-435.215 533.932,-438.5 491.48,-482.635 541.933,-528.908 497.932,-571.5 488.024,-581.092 475.374,-587.5 462.121,-591.739"/>
<polygon fill="#000000" stroke="#000000" points="461.085,-588.394 452.395,-594.455 462.968,-595.136 461.085,-588.394"/>
</g>
<!-- TZ.Mountain*CEN.Midwest\nCEN.Midwest\\TZ.Central&#45;&gt;TZ.Mountain\\CEN.South -->
<g id="edge60" class="edge"><title>TZ.Mountain*CEN.Midwest\nCEN.Midwest\\TZ.Central&#45;&gt;TZ.Mountain\\CEN.South</title>
<path fill="none" stroke="#000000" d="M533.771,-420.218C514.507,-422.306 494.128,-424.515 474.805,-426.61"/>
<polygon fill="#000000" stroke="#000000" points="474.372,-423.136 464.807,-427.693 475.126,-430.095 474.372,-423.136"/>
</g>
<!-- TZ.Mountain*CEN.Midwest\nCEN.Midwest\\TZ.Central&#45;&gt;TZ.Mountain\\CEN.West -->
<g id="edge50" class="edge"><title>TZ.Mountain*CEN.Midwest\nCEN.Midwest\\TZ.Central&#45;&gt;TZ.Mountain\\CEN.West</title>
<path fill="none" stroke="#000000" d="M582.026,-391.387C552.118,-377.768 514.234,-360.946 497.932,-355.5 489.848,-352.799 481.356,-350.261 472.806,-347.904"/>
<polygon fill="#000000" stroke="#000000" points="473.71,-344.523 463.145,-345.321 471.902,-351.285 473.71,-344.523"/>
</g>
<!-- TZ.Mountain&#45;&gt;TZ.USA\nCEN.USA -->
<g id="edge58" class="edge"><title>TZ.Mountain&#45;&gt;TZ.USA\nCEN.USA</title>
<path fill="none" stroke="#000000" d="M125.438,-426.153C112.897,-430.728 99.2759,-435.696 86.6527,-440.301"/>
<polygon fill="#000000" stroke="#000000" points="85.4238,-437.023 77.2287,-443.738 87.8226,-443.599 85.4238,-437.023"/>
</g>
<!-- TZ.Central\\CEN.South&#45;&gt;TZ.Central\\CEN.West -->
<g id="edge26" class="edge"><title>TZ.Central\\CEN.South&#45;&gt;TZ.Central\\CEN.West</title>
<path fill="none" stroke="#0000ff" stroke-dasharray="1,5" d="M458.844,-650.991C481.591,-646.251 503.702,-636.29 515.932,-616.5 536.962,-582.474 536.962,-560.526 515.932,-526.5 503.323,-506.098 480.214,-496.142 456.732,-491.584"/>
</g>
<!-- TZ.Central\\CEN.South&#45;&gt;TZ.Central -->
<g id="edge68" class="edge"><title>TZ.Central\\CEN.South&#45;&gt;TZ.Central</title>
<path fill="none" stroke="#ff0000" d="M306.321,-642.38C292.624,-638.46 278.962,-633.028 267.187,-625.5 230.914,-602.311 202.757,-560.161 187.04,-532.496"/>
<polygon fill="#ff0000" stroke="#ff0000" points="190.091,-530.781 182.194,-523.718 183.963,-534.164 190.091,-530.781"/>
</g>
<!-- TZ.Mountain\\CEN.South&#45;&gt;TZ.Mountain -->
<g id="edge91" class="edge"><title>TZ.Mountain\\CEN.South&#45;&gt;TZ.Mountain</title>
<path fill="none" stroke="#ff0000" d="M300.364,-425.984C276.48,-422.89 250.898,-419.577 228.979,-416.738"/>
<polygon fill="#ff0000" stroke="#ff0000" points="229.229,-413.241 218.862,-415.428 228.33,-420.183 229.229,-413.241"/>
</g>
<!-- TZ.Mountain\\CEN.South&#45;&gt;TZ.Mountain\\CEN.West -->
<g id="edge21" class="edge"><title>TZ.Mountain\\CEN.South&#45;&gt;TZ.Mountain\\CEN.West</title>
<path fill="none" stroke="#0000ff" stroke-dasharray="1,5" d="M464.803,-433.621C485.39,-428.43 504.773,-418.556 515.932,-400.5 524.344,-386.89 524.344,-378.11 515.932,-364.5 504.521,-346.036 484.51,-336.128 463.405,-331.034"/>
</g>
<!-- TZ.Central\\CEN.Midwest&#45;&gt;TZ.Central\\CEN.South -->
<g id="edge18" class="edge"><title>TZ.Central\\CEN.Midwest&#45;&gt;TZ.Central\\CEN.South</title>
<path fill="none" stroke="#0000ff" stroke-dasharray="1,5" d="M466.197,-547.738C486.262,-553.021 505.026,-562.853 515.932,-580.5 524.344,-594.11 524.344,-602.89 515.932,-616.5 503.702,-636.29 481.591,-646.251 458.844,-650.991"/>
</g>
<!-- TZ.Central\\CEN.Midwest&#45;&gt;TZ.Central\\CEN.West -->
<g id="edge27" class="edge"><title>TZ.Central\\CEN.Midwest&#45;&gt;TZ.Central\\CEN.West</title>
<path fill="none" stroke="#0000ff" stroke-dasharray="1,5" d="M382.56,-526.29C382.56,-520.407 382.56,-514.524 382.56,-508.641"/>
</g>
<!-- TZ.Central\\CEN.Midwest&#45;&gt;TZ.Central -->
<g id="edge67" class="edge"><title>TZ.Central\\CEN.Midwest&#45;&gt;TZ.Central</title>
<path fill="none" stroke="#ff0000" d="M298.869,-529.03C272.942,-524.18 245.157,-518.982 222.313,-514.708"/>
<polygon fill="#ff0000" stroke="#ff0000" points="222.662,-511.213 212.189,-512.814 221.375,-518.093 222.662,-511.213"/>
</g>
<!-- TZ.Eastern&#45;&gt;TZ.USA\nCEN.USA -->
<g id="edge51" class="edge"><title>TZ.Eastern&#45;&gt;TZ.USA\nCEN.USA</title>
<path fill="none" stroke="#000000" d="M340.893,-116.872C281.336,-125.54 171.172,-150.574 113,-220.5 61.6445,-282.231 46.1082,-379.718 41.4564,-428.162"/>
<polygon fill="#000000" stroke="#000000" points="37.9565,-428.009 40.5769,-438.275 44.9302,-428.616 37.9565,-428.009"/>
</g>
<!-- TZ.Central\\CEN.West&#45;&gt;TZ.Central -->
<g id="edge76" class="edge"><title>TZ.Central\\CEN.West&#45;&gt;TZ.Central</title>
<path fill="none" stroke="#ff0000" d="M308.355,-495.767C279.896,-497.815 248.042,-500.107 222.397,-501.952"/>
<polygon fill="#ff0000" stroke="#ff0000" points="221.899,-498.479 212.176,-502.688 222.402,-505.461 221.899,-498.479"/>
</g>
<!-- TZ.Pacific -->
<g id="node19" class="node"><title>TZ.Pacific</title>
<polygon fill="#afeeee" stroke="black" points="662.932,-751.5 585.932,-751.5 585.932,-715.5 662.932,-715.5 662.932,-751.5"/>
<text text-anchor="middle" x="624.432" y="-729.8" font-family="Helvetica,sans-Serif" font-size="14.00">TZ.Pacific</text>
</g>
<!-- TZ.Pacific&#45;&gt;CEN.West\\TZ.Central -->
<g id="edge70" class="edge"><title>TZ.Pacific&#45;&gt;CEN.West\\TZ.Central</title>
<path fill="none" stroke="#ff0000" d="M585.688,-729.252C557.951,-726.129 518.912,-721.735 482.53,-717.64"/>
<polygon fill="#ff0000" stroke="#ff0000" points="482.68,-714.135 472.351,-716.494 481.896,-721.091 482.68,-714.135"/>
</g>
<!-- TZ.Pacific&#45;&gt;CEN.West\\TZ.Mountain -->
<g id="edge86" class="edge"><title>TZ.Pacific&#45;&gt;CEN.West\\TZ.Mountain</title>
<path fill="none" stroke="#ff0000" d="M585.688,-737.748C559.09,-740.742 522.1,-744.906 487.026,-748.854"/>
<polygon fill="#ff0000" stroke="#ff0000" points="486.252,-745.419 476.707,-750.015 487.035,-752.375 486.252,-745.419"/>
</g>
<!-- TZ.Central&#45;&gt;TZ.USA\nCEN.USA -->
<g id="edge53" class="edge"><title>TZ.Central&#45;&gt;TZ.USA\nCEN.USA</title>
<path fill="none" stroke="#000000" d="M131.967,-491.228C117.797,-486.06 101.641,-480.167 86.8403,-474.768"/>
<polygon fill="#000000" stroke="#000000" points="87.9383,-471.443 77.3444,-471.304 85.5395,-478.019 87.9383,-471.443"/>
</g>
<!-- TZ.Mountain\\CEN.Midwest&#45;&gt;TZ.Mountain -->
<g id="edge82" class="edge"><title>TZ.Mountain\\CEN.Midwest&#45;&gt;TZ.Mountain</title>
<path fill="none" stroke="#ff0000" d="M292.849,-393.99C271.144,-396.801 248.52,-399.731 228.857,-402.278"/>
<polygon fill="#ff0000" stroke="#ff0000" points="228.333,-398.816 218.865,-403.572 229.232,-405.758 228.333,-398.816"/>
</g>
<!-- TZ.Mountain\\CEN.Midwest&#45;&gt;TZ.Mountain\\CEN.South -->
<g id="edge19" class="edge"><title>TZ.Mountain\\CEN.Midwest&#45;&gt;TZ.Mountain\\CEN.South</title>
<path fill="none" stroke="#0000ff" stroke-dasharray="1,5" d="M382.56,-400.641C382.56,-406.524 382.56,-412.407 382.56,-418.29"/>
</g>
<!-- TZ.Mountain\\CEN.Midwest&#45;&gt;TZ.Mountain\\CEN.West -->
<g id="edge7" class="edge"><title>TZ.Mountain\\CEN.Midwest&#45;&gt;TZ.Mountain\\CEN.West</title>
<path fill="none" stroke="#0000ff" stroke-dasharray="1,5" d="M382.56,-364.29C382.56,-358.407 382.56,-352.524 382.56,-346.641"/>
</g>
<!-- TZ.Mountain\\CEN.West&#45;&gt;TZ.Mountain -->
<g id="edge79" class="edge"><title>TZ.Mountain\\CEN.West&#45;&gt;TZ.Mountain</title>
<path fill="none" stroke="#ff0000" d="M301.888,-344.164C290.081,-347.386 278.192,-351.15 267.187,-355.5 246.752,-363.577 225.401,-375.507 208.213,-386.101"/>
<polygon fill="#ff0000" stroke="#ff0000" points="206.237,-383.209 199.631,-391.492 209.96,-389.136 206.237,-383.209"/>
</g>
<!-- TZ.Central*CEN.South -->
<g id="node23" class="node"><title>TZ.Central*CEN.South</title>
<path fill="#ccffcc" stroke="black" stroke-width="2" d="M688.932,-360.5C688.932,-360.5 559.932,-360.5 559.932,-360.5 553.932,-360.5 547.932,-354.5 547.932,-348.5 547.932,-348.5 547.932,-336.5 547.932,-336.5 547.932,-330.5 553.932,-324.5 559.932,-324.5 559.932,-324.5 688.932,-324.5 688.932,-324.5 694.932,-324.5 700.932,-330.5 700.932,-336.5 700.932,-336.5 700.932,-348.5 700.932,-348.5 700.932,-354.5 694.932,-360.5 688.932,-360.5"/>
<text text-anchor="middle" x="624.432" y="-338.8" font-family="Helvetica,sans-Serif" font-size="14.00">TZ.Central*CEN.South</text>
</g>
<!-- TZ.Central*CEN.South&#45;&gt;CEN.South\\TZ.Eastern -->
<g id="edge88" class="edge"><title>TZ.Central*CEN.South&#45;&gt;CEN.South\\TZ.Eastern</title>
<path fill="none" stroke="#ff0000" d="M571.525,-324.459C549.033,-316.924 522.317,-308.348 497.932,-301.5 485.41,-297.983 472.032,-294.544 459.001,-291.361"/>
<polygon fill="#ff0000" stroke="#ff0000" points="459.665,-287.921 449.124,-288.98 458.025,-294.726 459.665,-287.921"/>
</g>
<!-- TZ.Central*CEN.South&#45;&gt;CEN.South\\TZ.Mountain -->
<g id="edge63" class="edge"><title>TZ.Central*CEN.South&#45;&gt;CEN.South\\TZ.Mountain</title>
<path fill="none" stroke="#ff0000" d="M559.324,-324.314C550.227,-320.033 541.431,-314.82 533.932,-308.5 509.862,-288.211 523.281,-266.167 497.932,-247.5 492.003,-243.133 485.471,-239.462 478.626,-236.375"/>
<polygon fill="#ff0000" stroke="#ff0000" points="479.707,-233.036 469.124,-232.519 477.074,-239.522 479.707,-233.036"/>
</g>
<!-- TZ.Central*CEN.South&#45;&gt;TZ.Central\\CEN.Midwest -->
<g id="edge83" class="edge"><title>TZ.Central*CEN.South&#45;&gt;TZ.Central\\CEN.Midwest</title>
<path fill="none" stroke="#ff0000" d="M563.043,-360.565C552.142,-366.128 541.768,-373.301 533.932,-382.5 493.665,-429.771 542.468,-474.227 497.932,-517.5 491.5,-523.75 483.905,-528.649 475.736,-532.478"/>
<polygon fill="#ff0000" stroke="#ff0000" points="474.215,-529.318 466.299,-536.36 476.879,-535.792 474.215,-529.318"/>
</g>
<!-- TZ.Central*CEN.South&#45;&gt;TZ.Central\\CEN.West -->
<g id="edge64" class="edge"><title>TZ.Central*CEN.South&#45;&gt;TZ.Central\\CEN.West</title>
<path fill="none" stroke="#ff0000" d="M565.999,-360.662C554.364,-366.29 542.949,-373.465 533.932,-382.5 506.104,-410.386 528.261,-438.357 497.932,-463.5 488.729,-471.13 477.747,-476.681 466.283,-480.706"/>
<polygon fill="#ff0000" stroke="#ff0000" points="465.07,-477.418 456.568,-483.74 467.157,-484.1 465.07,-477.418"/>
</g>
<!-- TZ.Mountain*CEN.South -->
<g id="node24" class="node"><title>TZ.Mountain*CEN.South</title>
<path fill="#ccffcc" stroke="black" stroke-width="2" d="M695.432,-299.5C695.432,-299.5 553.432,-299.5 553.432,-299.5 547.432,-299.5 541.432,-293.5 541.432,-287.5 541.432,-287.5 541.432,-275.5 541.432,-275.5 541.432,-269.5 547.432,-263.5 553.432,-263.5 553.432,-263.5 695.432,-263.5 695.432,-263.5 701.432,-263.5 707.432,-269.5 707.432,-275.5 707.432,-275.5 707.432,-287.5 707.432,-287.5 707.432,-293.5 701.432,-299.5 695.432,-299.5"/>
<text text-anchor="middle" x="624.432" y="-277.8" font-family="Helvetica,sans-Serif" font-size="14.00">TZ.Mountain*CEN.South</text>
</g>
<!-- TZ.Mountain*CEN.South&#45;&gt;CEN.South\\TZ.Central -->
<g id="edge66" class="edge"><title>TZ.Mountain*CEN.South&#45;&gt;CEN.South\\TZ.Central</title>
<path fill="none" stroke="#ff0000" d="M602.749,-263.222C579.041,-243.214 538.237,-211.58 497.932,-193.5 488.098,-189.089 477.453,-185.348 466.749,-182.189"/>
<polygon fill="#ff0000" stroke="#ff0000" points="467.497,-178.765 456.924,-179.45 465.616,-185.507 467.497,-178.765"/>
</g>
<!-- TZ.Mountain*CEN.South&#45;&gt;CEN.South\\TZ.Eastern -->
<g id="edge75" class="edge"><title>TZ.Mountain*CEN.South&#45;&gt;CEN.South\\TZ.Eastern</title>
<path fill="none" stroke="#ff0000" d="M541.217,-279.101C528.573,-278.732 515.305,-278.345 502.061,-277.958"/>
<polygon fill="#ff0000" stroke="#ff0000" points="502.047,-274.456 491.949,-277.663 501.842,-281.453 502.047,-274.456"/>
</g>
<!-- TZ.Mountain*CEN.South&#45;&gt;TZ.Mountain\\CEN.Midwest -->
<g id="edge80" class="edge"><title>TZ.Mountain*CEN.South&#45;&gt;TZ.Mountain\\CEN.Midwest</title>
<path fill="none" stroke="#ff0000" d="M563.668,-299.642C553.316,-304.039 542.983,-309.301 533.932,-315.5 514.199,-329.015 518.509,-343.308 497.932,-355.5 492.816,-358.531 487.382,-361.223 481.769,-363.612"/>
<polygon fill="#ff0000" stroke="#ff0000" points="480.222,-360.458 472.178,-367.354 482.767,-366.979 480.222,-360.458"/>
</g>
<!-- TZ.Mountain*CEN.South&#45;&gt;TZ.Mountain\\CEN.West -->
<g id="edge78" class="edge"><title>TZ.Mountain*CEN.South&#45;&gt;TZ.Mountain\\CEN.West</title>
<path fill="none" stroke="#ff0000" d="M541.217,-297.609C519.342,-301.895 495.603,-306.547 473.345,-310.908"/>
<polygon fill="#ff0000" stroke="#ff0000" points="472.375,-307.531 463.235,-312.889 473.721,-314.401 472.375,-307.531"/>
</g>
<!-- TZ.Mountain*CEN.West -->
<g id="node25" class="node"><title>TZ.Mountain*CEN.West</title>
<path fill="#ccffcc" stroke="black" stroke-width="2" d="M693.432,-483.5C693.432,-483.5 555.432,-483.5 555.432,-483.5 549.432,-483.5 543.432,-477.5 543.432,-471.5 543.432,-471.5 543.432,-459.5 543.432,-459.5 543.432,-453.5 549.432,-447.5 555.432,-447.5 555.432,-447.5 693.432,-447.5 693.432,-447.5 699.432,-447.5 705.432,-453.5 705.432,-459.5 705.432,-459.5 705.432,-471.5 705.432,-471.5 705.432,-477.5 699.432,-483.5 693.432,-483.5"/>
<text text-anchor="middle" x="624.432" y="-461.8" font-family="Helvetica,sans-Serif" font-size="14.00">TZ.Mountain*CEN.West</text>
</g>
<!-- TZ.Mountain*CEN.West&#45;&gt;CEN.West\\TZ.Central -->
<g id="edge81" class="edge"><title>TZ.Mountain*CEN.West&#45;&gt;CEN.West\\TZ.Central</title>
<path fill="none" stroke="#ff0000" d="M603.76,-483.672C583.693,-503.168 552.887,-535.886 533.932,-569.5 508.666,-614.308 535.809,-644.694 497.932,-679.5 492.51,-684.483 486.343,-688.597 479.75,-691.989"/>
<polygon fill="#ff0000" stroke="#ff0000" points="478.18,-688.857 470.523,-696.18 481.076,-695.23 478.18,-688.857"/>
</g>
<!-- TZ.Mountain*CEN.West&#45;&gt;TZ.Mountain\\CEN.South -->
<g id="edge87" class="edge"><title>TZ.Mountain*CEN.West&#45;&gt;TZ.Mountain\\CEN.South</title>
<path fill="none" stroke="#ff0000" d="M543.225,-455.803C521.375,-453.161 497.541,-450.28 475.113,-447.569"/>
<polygon fill="#ff0000" stroke="#ff0000" points="475.267,-444.062 464.919,-446.336 474.427,-451.011 475.267,-444.062"/>
</g>
<!-- TZ.Mountain*CEN.West&#45;&gt;TZ.Mountain\\CEN.Midwest -->
<g id="edge65" class="edge"><title>TZ.Mountain*CEN.West&#45;&gt;TZ.Mountain\\CEN.Midwest</title>
<path fill="none" stroke="#ff0000" d="M553.949,-447.475C547.037,-444.818 540.248,-441.833 533.932,-438.5 515.761,-428.911 516.388,-418.529 497.932,-409.5 492.708,-406.944 487.228,-404.623 481.616,-402.515"/>
<polygon fill="#ff0000" stroke="#ff0000" points="482.661,-399.173 472.066,-399.167 480.345,-405.778 482.661,-399.173"/>
</g>
<!-- TZ.Central*CEN.West -->
<g id="node26" class="node"><title>TZ.Central*CEN.West</title>
<path fill="#ccffcc" stroke="black" stroke-width="2" d="M686.932,-670.5C686.932,-670.5 561.932,-670.5 561.932,-670.5 555.932,-670.5 549.932,-664.5 549.932,-658.5 549.932,-658.5 549.932,-646.5 549.932,-646.5 549.932,-640.5 555.932,-634.5 561.932,-634.5 561.932,-634.5 686.932,-634.5 686.932,-634.5 692.932,-634.5 698.932,-640.5 698.932,-646.5 698.932,-646.5 698.932,-658.5 698.932,-658.5 698.932,-664.5 692.932,-670.5 686.932,-670.5"/>
<text text-anchor="middle" x="624.432" y="-648.8" font-family="Helvetica,sans-Serif" font-size="14.00">TZ.Central*CEN.West</text>
</g>
<!-- TZ.Central*CEN.West&#45;&gt;CEN.West\\TZ.Mountain -->
<g id="edge73" class="edge"><title>TZ.Central*CEN.West&#45;&gt;CEN.West\\TZ.Mountain</title>
<path fill="none" stroke="#ff0000" d="M591.467,-670.732C574.172,-680.858 552.591,-693.921 533.932,-706.5 517.349,-717.68 516.047,-725.024 497.932,-733.5 488.924,-737.715 479.199,-741.304 469.356,-744.353"/>
<polygon fill="#ff0000" stroke="#ff0000" points="468.12,-741.067 459.498,-747.224 470.077,-747.788 468.12,-741.067"/>
</g>
<!-- TZ.Central*CEN.West&#45;&gt;TZ.Central\\CEN.South -->
<g id="edge90" class="edge"><title>TZ.Central*CEN.West&#45;&gt;TZ.Central\\CEN.South</title>
<path fill="none" stroke="#ff0000" d="M549.832,-652.5C524.188,-652.5 495.203,-652.5 468.7,-652.5"/>
<polygon fill="#ff0000" stroke="#ff0000" points="468.677,-649 458.677,-652.5 468.677,-656 468.677,-649"/>
</g>
<!-- TZ.Central*CEN.West&#45;&gt;TZ.Central\\CEN.Midwest -->
<g id="edge84" class="edge"><title>TZ.Central*CEN.West&#45;&gt;TZ.Central\\CEN.Midwest</title>
<path fill="none" stroke="#ff0000" d="M549.592,-634.88C544.056,-632.182 538.756,-629.076 533.932,-625.5 510.76,-608.323 521.619,-587.96 497.932,-571.5 491.068,-566.73 483.472,-562.795 475.554,-559.551"/>
<polygon fill="#ff0000" stroke="#ff0000" points="476.728,-556.253 466.135,-556.05 474.289,-562.815 476.728,-556.253"/>
</g>
<!-- TZ.Eastern*CEN.South -->
<g id="node27" class="node"><title>TZ.Eastern*CEN.South</title>
<path fill="#ccffcc" stroke="black" stroke-width="2" d="M690.432,-185.5C690.432,-185.5 558.432,-185.5 558.432,-185.5 552.432,-185.5 546.432,-179.5 546.432,-173.5 546.432,-173.5 546.432,-161.5 546.432,-161.5 546.432,-155.5 552.432,-149.5 558.432,-149.5 558.432,-149.5 690.432,-149.5 690.432,-149.5 696.432,-149.5 702.432,-155.5 702.432,-161.5 702.432,-161.5 702.432,-173.5 702.432,-173.5 702.432,-179.5 696.432,-185.5 690.432,-185.5"/>
<text text-anchor="middle" x="624.432" y="-163.8" font-family="Helvetica,sans-Serif" font-size="14.00">TZ.Eastern*CEN.South</text>
</g>
<!-- TZ.Eastern*CEN.South&#45;&gt;CEN.South\\TZ.Central -->
<g id="edge74" class="edge"><title>TZ.Eastern*CEN.South&#45;&gt;CEN.South\\TZ.Central</title>
<path fill="none" stroke="#ff0000" d="M546.215,-167.178C531.385,-167.116 515.552,-167.05 499.805,-166.985"/>
<polygon fill="#ff0000" stroke="#ff0000" points="499.495,-163.483 489.48,-166.942 499.466,-170.483 499.495,-163.483"/>
</g>
<!-- TZ.Eastern*CEN.South&#45;&gt;CEN.South\\TZ.Mountain -->
<g id="edge89" class="edge"><title>TZ.Eastern*CEN.South&#45;&gt;CEN.South\\TZ.Mountain</title>
<path fill="none" stroke="#ff0000" d="M546.215,-184.561C518.892,-190.598 488.166,-197.387 460.838,-203.425"/>
<polygon fill="#ff0000" stroke="#ff0000" points="459.945,-200.038 450.936,-205.613 461.456,-206.873 459.945,-200.038"/>
</g>
<!-- TZ.Eastern*CEN.South&#45;&gt;TZ.Eastern -->
<g id="edge72" class="edge"><title>TZ.Eastern*CEN.South&#45;&gt;TZ.Eastern</title>
<path fill="none" stroke="#ff0000" d="M546.215,-149.795C509.634,-141.407 466.955,-131.622 434.495,-124.179"/>
<polygon fill="#ff0000" stroke="#ff0000" points="434.865,-120.673 424.336,-121.849 433.3,-127.496 434.865,-120.673"/>
</g>
<!-- Legend -->
<g id="node28" class="node"><title>Legend</title>
<path fill="white" stroke="black" stroke-width="2" d="M862.932,-225C862.932,-225 762.932,-225 762.932,-225 756.932,-225 750.932,-219 750.932,-213 750.932,-213 750.932,-12 750.932,-12 750.932,-6 756.932,-1.42109e-14 762.932,-1.42109e-14 762.932,-1.42109e-14 862.932,-1.42109e-14 862.932,-1.42109e-14 868.932,-1.42109e-14 874.932,-6 874.932,-12 874.932,-12 874.932,-213 874.932,-213 874.932,-219 868.932,-225 862.932,-225"/>
<polygon fill="none" stroke="black" points="750.932,-199.5 750.932,-224.5 874.932,-224.5 874.932,-199.5 750.932,-199.5"/>
<text text-anchor="start" x="789.932" y="-208.3" font-family="Arial Black" font-size="14.00"> Nodes</text>
<polygon fill="#ffffcc" stroke="none" points="750.932,-174.5 750.932,-199.5 848.932,-199.5 848.932,-174.5 750.932,-174.5"/>
<polygon fill="none" stroke="black" points="750.932,-174.5 750.932,-199.5 848.932,-199.5 848.932,-174.5 750.932,-174.5"/>
<text text-anchor="start" x="785.432" y="-183.3" font-family="Helvetica,sans-Serif" font-size="14.00">CEN</text>
<polygon fill="none" stroke="black" points="848.932,-174.5 848.932,-199.5 874.932,-199.5 874.932,-174.5 848.932,-174.5"/>
<text text-anchor="start" x="857.932" y="-183.3" font-family="Helvetica,sans-Serif" font-size="14.00">8</text>
<polygon fill="#eeeeee" stroke="none" points="750.932,-149.5 750.932,-174.5 848.932,-174.5 848.932,-149.5 750.932,-149.5"/>
<polygon fill="none" stroke="black" points="750.932,-149.5 750.932,-174.5 848.932,-174.5 848.932,-149.5 750.932,-149.5"/>
<text text-anchor="start" x="782.932" y="-158.3" font-family="Helvetica,sans-Serif" font-size="14.00">comb</text>
<polygon fill="none" stroke="black" points="848.932,-149.5 848.932,-174.5 874.932,-174.5 874.932,-149.5 848.932,-149.5"/>
<text text-anchor="start" x="857.932" y="-158.3" font-family="Helvetica,sans-Serif" font-size="14.00">4</text>
<polygon fill="#afeeee" stroke="none" points="750.932,-124.5 750.932,-149.5 848.932,-149.5 848.932,-124.5 750.932,-124.5"/>
<polygon fill="none" stroke="black" points="750.932,-124.5 750.932,-149.5 848.932,-149.5 848.932,-124.5 750.932,-124.5"/>
<text text-anchor="start" x="791.432" y="-133.3" font-family="Helvetica,sans-Serif" font-size="14.00">TZ</text>
<polygon fill="none" stroke="black" points="848.932,-124.5 848.932,-149.5 874.932,-149.5 874.932,-124.5 848.932,-124.5"/>
<text text-anchor="start" x="853.932" y="-133.3" font-family="Helvetica,sans-Serif" font-size="14.00">10</text>
<polygon fill="#ccffcc" stroke="none" points="750.932,-99.5 750.932,-124.5 848.932,-124.5 848.932,-99.5 750.932,-99.5"/>
<polygon fill="none" stroke="black" points="750.932,-99.5 750.932,-124.5 848.932,-124.5 848.932,-99.5 750.932,-99.5"/>
<text text-anchor="start" x="755.932" y="-108.3" font-family="Helvetica,sans-Serif" font-size="14.00">intersectComb</text>
<polygon fill="none" stroke="black" points="848.932,-99.5 848.932,-124.5 874.932,-124.5 874.932,-99.5 848.932,-99.5"/>
<text text-anchor="start" x="857.932" y="-108.3" font-family="Helvetica,sans-Serif" font-size="14.00">5</text>
<polygon fill="none" stroke="black" points="750.932,-74.5 750.932,-99.5 874.932,-99.5 874.932,-74.5 750.932,-74.5"/>
<text text-anchor="start" x="788.432" y="-83.3" font-family="Arial Black" font-size="14.00"> Edges </text>
<polygon fill="none" stroke="black" points="750.932,-49.5 750.932,-74.5 848.932,-74.5 848.932,-49.5 750.932,-49.5"/>
<text text-anchor="start" x="773.932" y="-58.3" font-family="Helvetica,sans-Serif" font-size="14.00" fill="#0000ff">overlaps</text>
<polygon fill="none" stroke="black" points="848.932,-49.5 848.932,-74.5 874.932,-74.5 874.932,-49.5 848.932,-49.5"/>
<text text-anchor="start" x="853.932" y="-58.3" font-family="Helvetica,sans-Serif" font-size="14.00">49</text>
<polygon fill="none" stroke="black" points="750.932,-24.5 750.932,-49.5 848.932,-49.5 848.932,-24.5 750.932,-24.5"/>
<text text-anchor="start" x="784.932" y="-33.3" font-family="Helvetica,sans-Serif" font-size="14.00" fill="#000000">input</text>
<polygon fill="none" stroke="black" points="848.932,-24.5 848.932,-49.5 874.932,-49.5 874.932,-24.5 848.932,-24.5"/>
<text text-anchor="start" x="853.932" y="-33.3" font-family="Helvetica,sans-Serif" font-size="14.00">13</text>
<polygon fill="none" stroke="black" points="750.932,0.5 750.932,-24.5 848.932,-24.5 848.932,0.5 750.932,0.5"/>
<text text-anchor="start" x="776.932" y="-8.3" font-family="Helvetica,sans-Serif" font-size="14.00" fill="#ff0000">inferred</text>
<polygon fill="none" stroke="black" points="848.932,0.5 848.932,-24.5 874.932,-24.5 874.932,0.5 848.932,0.5"/>
<text text-anchor="start" x="853.932" y="-8.3" font-family="Helvetica,sans-Serif" font-size="14.00">30</text>
</g>
</g>
</svg>
