<?xml version="1.0" encoding="UTF-8" standalone="no"?>
<!DOCTYPE svg PUBLIC "-//W3C//DTD SVG 1.1//EN"
 "http://www.w3.org/Graphics/SVG/1.1/DTD/svg11.dtd">
<!-- Generated by graphviz version 2.38.0 (20140413.2041)
 -->
<!-- Title: %3 Pages: 1 -->
<svg width="515pt" height="376pt"
 viewBox="0.00 0.00 514.85 375.50" xmlns="http://www.w3.org/2000/svg" xmlns:xlink="http://www.w3.org/1999/xlink">
<g id="graph0" class="graph" transform="scale(1 1) rotate(0) translate(4 371.5)">
<title>%3</title>
<polygon fill="white" stroke="none" points="-4,4 -4,-371.5 510.85,-371.5 510.85,4 -4,4"/>
<!-- CEN.Midwest -->
<g id="node1" class="node"><title>CEN.Midwest</title>
<polygon fill="#ffffcc" stroke="black" points="394.165,-342.044 394.165,-356.956 355.114,-367.5 299.888,-367.5 260.837,-356.956 260.837,-342.044 299.888,-331.5 355.114,-331.5 394.165,-342.044"/>
<text text-anchor="middle" x="327.501" y="-345.8" font-family="Times,serif" font-size="14.00">CEN.Midwest</text>
</g>
<!-- TZ.USA\nCEN.USA -->
<g id="node5" class="node"><title>TZ.USA\nCEN.USA</title>
<path fill="#eeeeee" stroke="black" d="M62,-241.5C62,-241.5 12,-241.5 12,-241.5 6,-241.5 0,-235.5 0,-229.5 0,-229.5 0,-215.5 0,-215.5 0,-209.5 6,-203.5 12,-203.5 12,-203.5 62,-203.5 62,-203.5 68,-203.5 74,-209.5 74,-215.5 74,-215.5 74,-229.5 74,-229.5 74,-235.5 68,-241.5 62,-241.5"/>
<text text-anchor="middle" x="37" y="-226.3" font-family="Times,serif" font-size="14.00">TZ.USA</text>
<text text-anchor="middle" x="37" y="-211.3" font-family="Times,serif" font-size="14.00">CEN.USA</text>
</g>
<!-- CEN.Midwest&#45;&gt;TZ.USA\nCEN.USA -->
<g id="edge10" class="edge"><title>CEN.Midwest&#45;&gt;TZ.USA\nCEN.USA</title>
<path fill="none" stroke="#000000" d="M263.84,-357.777C218.093,-360.701 156.25,-357.92 110,-330.5 79.8821,-312.644 59.8008,-276.679 48.6675,-251.164"/>
<polygon fill="#000000" stroke="#000000" points="51.7726,-249.516 44.7043,-241.623 45.3081,-252.201 51.7726,-249.516"/>
</g>
<!-- TZ.Central -->
<g id="node7" class="node"><title>TZ.Central</title>
<polygon fill="#ccffcc" stroke="black" points="204.076,-321.5 127.076,-321.5 127.076,-285.5 204.076,-285.5 204.076,-321.5"/>
<text text-anchor="middle" x="165.576" y="-299.8" font-family="Times,serif" font-size="14.00">TZ.Central</text>
</g>
<!-- CEN.Midwest&#45;&gt;TZ.Central -->
<g id="edge1" class="edge"><title>CEN.Midwest&#45;&gt;TZ.Central</title>
<path fill="none" stroke="#0000ff" stroke-dasharray="1,5" d="M281.101,-336.441C256.814,-329.456 227.26,-320.955 204.258,-314.339"/>
</g>
<!-- TZ.Mountain -->
<g id="node8" class="node"><title>TZ.Mountain</title>
<polygon fill="#ccffcc" stroke="black" points="210.576,-267.5 120.576,-267.5 120.576,-231.5 210.576,-231.5 210.576,-267.5"/>
<text text-anchor="middle" x="165.576" y="-245.8" font-family="Times,serif" font-size="14.00">TZ.Mountain</text>
</g>
<!-- CEN.Midwest&#45;&gt;TZ.Mountain -->
<g id="edge5" class="edge"><title>CEN.Midwest&#45;&gt;TZ.Mountain</title>
<path fill="none" stroke="#0000ff" stroke-dasharray="1,5" d="M302.479,-331.344C281.548,-315.896 250.096,-293.564 221.152,-276.5 215.961,-273.44 210.376,-270.404 204.83,-267.533"/>
</g>
<!-- CEN.South -->
<g id="node2" class="node"><title>CEN.South</title>
<polygon fill="#ffffcc" stroke="black" points="221.228,-188.044 221.228,-202.956 188.628,-213.5 142.524,-213.5 109.924,-202.956 109.924,-188.044 142.524,-177.5 188.628,-177.5 221.228,-188.044"/>
<text text-anchor="middle" x="165.576" y="-191.8" font-family="Times,serif" font-size="14.00">CEN.South</text>
</g>
<!-- CEN.South&#45;&gt;TZ.USA\nCEN.USA -->
<g id="edge11" class="edge"><title>CEN.South&#45;&gt;TZ.USA\nCEN.USA</title>
<path fill="none" stroke="#000000" d="M117.444,-205.554C106.578,-207.872 95.0307,-210.335 84.2046,-212.644"/>
<polygon fill="#000000" stroke="#000000" points="83.1414,-209.292 74.0916,-214.801 84.6018,-216.138 83.1414,-209.292"/>
</g>
<!-- TZ.Eastern -->
<g id="node6" class="node"><title>TZ.Eastern</title>
<polygon fill="#ccffcc" stroke="black" points="204.076,-159.5 127.076,-159.5 127.076,-123.5 204.076,-123.5 204.076,-159.5"/>
<text text-anchor="middle" x="165.576" y="-137.8" font-family="Times,serif" font-size="14.00">TZ.Eastern</text>
</g>
<!-- CEN.South&#45;&gt;TZ.Eastern -->
<g id="edge7" class="edge"><title>CEN.South&#45;&gt;TZ.Eastern</title>
<path fill="none" stroke="#0000ff" stroke-dasharray="1,5" d="M165.576,-177.29C165.576,-171.407 165.576,-165.524 165.576,-159.641"/>
</g>
<!-- CEN.South&#45;&gt;TZ.Central -->
<g id="edge6" class="edge"><title>CEN.South&#45;&gt;TZ.Central</title>
<path fill="none" stroke="#0000ff" stroke-dasharray="1,5" d="M209.006,-207.191C220.837,-212.591 232.274,-220.371 239.152,-231.5 247.564,-245.11 247.564,-253.89 239.152,-267.5 231.377,-280.081 217.776,-288.381 204.366,-293.802"/>
</g>
<!-- CEN.South&#45;&gt;TZ.Mountain -->
<g id="edge4" class="edge"><title>CEN.South&#45;&gt;TZ.Mountain</title>
<path fill="none" stroke="#0000ff" stroke-dasharray="1,5" d="M165.576,-213.641C165.576,-219.524 165.576,-225.407 165.576,-231.29"/>
</g>
<!-- CEN.Northeast -->
<g id="node3" class="node"><title>CEN.Northeast</title>
<polygon fill="#ffffcc" stroke="black" points="397.7,-134.044 397.7,-148.956 356.578,-159.5 298.424,-159.5 257.302,-148.956 257.302,-134.044 298.424,-123.5 356.578,-123.5 397.7,-134.044"/>
<text text-anchor="middle" x="327.501" y="-137.8" font-family="Times,serif" font-size="14.00">CEN.Northeast</text>
</g>
<!-- CEN.Northeast&#45;&gt;TZ.Eastern -->
<g id="edge12" class="edge"><title>CEN.Northeast&#45;&gt;TZ.Eastern</title>
<path fill="none" stroke="#000000" d="M257.286,-141.5C242.755,-141.5 227.743,-141.5 214.215,-141.5"/>
<polygon fill="#000000" stroke="#000000" points="214.191,-138 204.191,-141.5 214.191,-145 214.191,-138"/>
</g>
<!-- CEN.West -->
<g id="node4" class="node"><title>CEN.West</title>
<polygon fill="#ffffcc" stroke="black" points="219.007,-80.0442 219.007,-94.9558 187.708,-105.5 143.444,-105.5 112.145,-94.9558 112.145,-80.0442 143.444,-69.5 187.708,-69.5 219.007,-80.0442"/>
<text text-anchor="middle" x="165.576" y="-83.8" font-family="Times,serif" font-size="14.00">CEN.West</text>
</g>
<!-- CEN.West&#45;&gt;TZ.USA\nCEN.USA -->
<g id="edge13" class="edge"><title>CEN.West&#45;&gt;TZ.USA\nCEN.USA</title>
<path fill="none" stroke="#000000" d="M130.238,-101.056C123.105,-104.781 115.955,-109.266 110,-114.5 84.5625,-136.86 64.1769,-170.19 51.6789,-193.902"/>
<polygon fill="#000000" stroke="#000000" points="48.4108,-192.605 46.9696,-203.102 54.6419,-195.795 48.4108,-192.605"/>
</g>
<!-- CEN.West&#45;&gt;TZ.Central -->
<g id="edge3" class="edge"><title>CEN.West&#45;&gt;TZ.Central</title>
<path fill="none" stroke="#0000ff" stroke-dasharray="1,5" d="M208.234,-98.8426C220.337,-104.255 232.124,-112.129 239.152,-123.5 255.975,-150.721 255.975,-240.279 239.152,-267.5 231.377,-280.081 217.776,-288.381 204.366,-293.802"/>
</g>
<!-- CEN.West&#45;&gt;TZ.Mountain -->
<g id="edge2" class="edge"><title>CEN.West&#45;&gt;TZ.Mountain</title>
<path fill="none" stroke="#0000ff" stroke-dasharray="1,5" d="M208.234,-98.8426C220.337,-104.255 232.124,-112.129 239.152,-123.5 260.181,-157.526 260.181,-179.474 239.152,-213.5 232.647,-224.024 222.067,-231.553 210.931,-236.907"/>
</g>
<!-- TZ.Eastern&#45;&gt;TZ.USA\nCEN.USA -->
<g id="edge14" class="edge"><title>TZ.Eastern&#45;&gt;TZ.USA\nCEN.USA</title>
<path fill="none" stroke="#000000" d="M126.798,-159.053C121.075,-162.037 115.312,-165.232 110,-168.5 96.1589,-177.014 81.6809,-187.522 69.3677,-197"/>
<polygon fill="#000000" stroke="#000000" points="66.9513,-194.446 61.2236,-203.359 71.2595,-199.963 66.9513,-194.446"/>
</g>
<!-- TZ.Central&#45;&gt;TZ.USA\nCEN.USA -->
<g id="edge9" class="edge"><title>TZ.Central&#45;&gt;TZ.USA\nCEN.USA</title>
<path fill="none" stroke="#000000" d="M126.798,-285.947C121.075,-282.963 115.312,-279.768 110,-276.5 96.1589,-267.986 81.6809,-257.478 69.3677,-248"/>
<polygon fill="#000000" stroke="#000000" points="71.2595,-245.037 61.2236,-241.641 66.9513,-250.554 71.2595,-245.037"/>
</g>
<!-- TZ.Mountain&#45;&gt;TZ.USA\nCEN.USA -->
<g id="edge15" class="edge"><title>TZ.Mountain&#45;&gt;TZ.USA\nCEN.USA</title>
<path fill="none" stroke="#000000" d="M120.306,-240.057C108.616,-237.563 95.9727,-234.866 84.1848,-232.352"/>
<polygon fill="#000000" stroke="#000000" points="84.6018,-228.862 74.0916,-230.199 83.1414,-235.708 84.6018,-228.862"/>
</g>
<!-- TZ.Pacific -->
<g id="node9" class="node"><title>TZ.Pacific</title>
<polygon fill="#ccffcc" stroke="black" points="364.501,-105.5 290.501,-105.5 290.501,-69.5 364.501,-69.5 364.501,-105.5"/>
<text text-anchor="middle" x="327.501" y="-83.8" font-family="Times,serif" font-size="14.00">TZ.Pacific</text>
</g>
<!-- TZ.Pacific&#45;&gt;CEN.West -->
<g id="edge8" class="edge"><title>TZ.Pacific&#45;&gt;CEN.West</title>
<path fill="none" stroke="#000000" d="M290.212,-87.5C272.154,-87.5 249.811,-87.5 229.107,-87.5"/>
<polygon fill="#000000" stroke="#000000" points="229.101,-84.0001 219.101,-87.5 229.101,-91.0001 229.101,-84.0001"/>
</g>
<!-- Legend -->
<g id="node10" class="node"><title>Legend</title>
<polygon fill="white" stroke="black" points="506.85,-175 433.85,-175 433.85,-0 506.85,-0 506.85,-175"/>
<polygon fill="none" stroke="black" points="434.35,-149.5 434.35,-174.5 507.35,-174.5 507.35,-149.5 434.35,-149.5"/>
<text text-anchor="start" x="447.85" y="-158.3" font-family="Arial Black" font-size="14.00"> Nodes</text>
<polygon fill="#ffffcc" stroke="none" points="434.35,-124.5 434.35,-149.5 490.35,-149.5 490.35,-124.5 434.35,-124.5"/>
<polygon fill="none" stroke="black" points="434.35,-124.5 434.35,-149.5 490.35,-149.5 490.35,-124.5 434.35,-124.5"/>
<text text-anchor="start" x="448.35" y="-133.3" font-family="Times,serif" font-size="14.00">CEN</text>
<polygon fill="none" stroke="black" points="490.35,-124.5 490.35,-149.5 507.35,-149.5 507.35,-124.5 490.35,-124.5"/>
<text text-anchor="start" x="495.35" y="-133.3" font-family="Times,serif" font-size="14.00">4</text>
<polygon fill="#eeeeee" stroke="none" points="434.35,-99.5 434.35,-124.5 490.35,-124.5 490.35,-99.5 434.35,-99.5"/>
<polygon fill="none" stroke="black" points="434.35,-99.5 434.35,-124.5 490.35,-124.5 490.35,-99.5 434.35,-99.5"/>
<text text-anchor="start" x="446.85" y="-108.3" font-family="Times,serif" font-size="14.00">comb</text>
<polygon fill="none" stroke="black" points="490.35,-99.5 490.35,-124.5 507.35,-124.5 507.35,-99.5 490.35,-99.5"/>
<text text-anchor="start" x="495.35" y="-108.3" font-family="Times,serif" font-size="14.00">1</text>
<polygon fill="#ccffcc" stroke="none" points="434.35,-74.5 434.35,-99.5 490.35,-99.5 490.35,-74.5 434.35,-74.5"/>
<polygon fill="none" stroke="black" points="434.35,-74.5 434.35,-99.5 490.35,-99.5 490.35,-74.5 434.35,-74.5"/>
<text text-anchor="start" x="453.85" y="-83.3" font-family="Times,serif" font-size="14.00">TZ</text>
<polygon fill="none" stroke="black" points="490.35,-74.5 490.35,-99.5 507.35,-99.5 507.35,-74.5 490.35,-74.5"/>
<text text-anchor="start" x="495.35" y="-83.3" font-family="Times,serif" font-size="14.00">4</text>
<polygon fill="none" stroke="black" points="434.35,-49.5 434.35,-74.5 507.35,-74.5 507.35,-49.5 434.35,-49.5"/>
<text text-anchor="start" x="446.35" y="-58.3" font-family="Arial Black" font-size="14.00"> Edges </text>
<polygon fill="none" stroke="black" points="434.35,-24.5 434.35,-49.5 490.35,-49.5 490.35,-24.5 434.35,-24.5"/>
<text text-anchor="start" x="439.35" y="-33.3" font-family="Times,serif" font-size="14.00" fill="#0000ff">overlaps</text>
<polygon fill="none" stroke="black" points="490.35,-24.5 490.35,-49.5 507.35,-49.5 507.35,-24.5 490.35,-24.5"/>
<text text-anchor="start" x="495.35" y="-33.3" font-family="Times,serif" font-size="14.00">7</text>
<polygon fill="none" stroke="black" points="434.35,0.5 434.35,-24.5 490.35,-24.5 490.35,0.5 434.35,0.5"/>
<text text-anchor="start" x="448.35" y="-8.3" font-family="Times,serif" font-size="14.00" fill="#000000">input</text>
<polygon fill="none" stroke="black" points="490.35,0.5 490.35,-24.5 507.35,-24.5 507.35,0.5 490.35,0.5"/>
<text text-anchor="start" x="495.35" y="-8.3" font-family="Times,serif" font-size="14.00">8</text>
</g>
</g>
</svg>
